<?xml version="1.0" encoding="UTF-8"?>
<!DOCTYPE svg PUBLIC "-//W3C//DTD SVG 1.1//EN" "http://www.w3.org/Graphics/SVG/1.1/DTD/svg11.dtd">
<!-- Creator: CorelDRAW X7 -->
<svg xmlns="http://www.w3.org/2000/svg" xml:space="preserve" width="6.221in" height="3.746in" version="1.1" style="shape-rendering:geometricPrecision; text-rendering:geometricPrecision; image-rendering:optimizeQuality; fill-rule:evenodd; clip-rule:evenodd"
viewBox="0 0 6221 3746"
 xmlns:xlink="http://www.w3.org/1999/xlink">
 <defs>
  <style type="text/css">
   <![CDATA[
    .fil0 {fill:#FEFEFE;fill-rule:nonzero}
   ]]>
  </style>
 </defs>
 <g id="Layer_x0020_1">
  <metadata id="CorelCorpID_0Corel-Layer"/>
  <g id="_1027223856">
   <path class="fil0" d="M4577 1700l-158 -89 0 -1 29 -1c1,0 1,0 2,0l98 54 29 15 375 -47 1 11 0 37c-6,6 -13,24 -16,31 0,1 -1,0 -1,0l-7 -50 0 -5 -43 6c0,0 0,0 0,0l-78 10 -231 29z"/>
   <path class="fil0" d="M4952 1631l275 -35 1 6c-2,1 -3,3 -3,5l0 32c-7,7 -10,21 -11,28 0,1 -1,1 -1,0l-8 -43 -2 -8 -41 6 -113 18 0 2 -96 0 -1 -11z"/>
   <path class="fil0" d="M5227 1596l267 -34c35,11 26,7 50,12 26,5 30,19 32,25 2,5 -5,22 -38,24 -31,2 -97,3 -105,4 -1,-4 -3,-6 -6,-8l-11 -6c-1,0 -2,-1 -3,-1 -1,0 -2,0 -3,0l-31 2c-6,-5 -15,-9 -19,-11 -2,0 -5,-1 -7,-1l-124 0c0,0 -1,0 -1,0l-1 -6z"/>
   <path class="fil0" d="M4034 1435l164 0c3,0 4,2 4,4l0 10c0,2 -1,3 -3,4l-17 4 0 0 -151 0c-5,-5 -6,-14 3,-22z"/>
   <path class="fil0" d="M4882 1032c2,0 5,1 9,1l4 1 0 -4c0,-1 0,-1 0,-2 0,-41 33,-75 75,-75 7,0 15,2 23,4l3 1 2 -3c16,-43 57,-72 103,-72 62,0 111,49 111,110 0,5 0,10 -1,16l-1 7 6 -3c7,-3 14,-4 21,-4 29,0 53,24 53,53 0,29 -24,53 -53,53l-355 0c-23,0 -41,-19 -41,-41 0,-23 18,-42 41,-42zm0 90l355 0c33,0 60,-27 60,-60 0,-33 -27,-60 -60,-60 -6,0 -12,1 -18,2 0,-3 1,-7 1,-11 0,-65 -53,-118 -119,-118 -48,0 -91,30 -109,74 -8,-2 -15,-3 -22,-3 -45,0 -81,35 -82,80 -2,-1 -4,-1 -6,-1 -27,0 -49,22 -49,49 0,26 22,48 49,48z"/>
   <path class="fil0" d="M4414 1151c10,-11 17,-13 24,-13 2,0 4,0 6,0l6 1 -2 -6c-4,-8 -5,-16 -3,-25 2,-20 19,-37 40,-39 13,-2 25,2 35,11 10,8 16,20 17,33l0 5 5 -2c4,-2 8,-3 13,-3 2,0 5,1 8,2l2 2 2 -3c10,-12 25,-19 41,-19 29,0 52,24 52,53 0,9 -2,18 -7,27l-3 5 70 0c4,0 7,3 7,7l0 6c0,4 -3,7 -7,7l-282 0c-17,0 -31,-14 -31,-31 0,-6 2,-12 7,-18zm24 56l282 0c8,0 14,-6 14,-14l0 -6c0,-8 -6,-14 -14,-14l-58 0c4,-8 6,-17 6,-25 0,-33 -27,-60 -60,-60 -17,0 -33,7 -45,20 -3,-2 -6,-2 -9,-2 -3,0 -7,1 -10,2 -2,-13 -9,-25 -19,-34 -11,-10 -26,-14 -41,-12 -24,3 -43,22 -47,45 -1,8 0,16 2,23 -9,0 -19,3 -30,17 -6,6 -9,14 -9,22 0,21 17,38 38,38z"/>
   <path class="fil0" d="M5911 1470c-4,-14 -8,-27 -10,-37 -11,0 -20,1 -22,1l7 37c0,0 8,1 25,-1z"/>
   <path class="fil0" d="M5931 1429c-6,1 -11,2 -16,2 2,11 6,24 10,37 12,-2 26,-4 44,-8 -20,-13 -32,-23 -38,-31z"/>
   <path class="fil0" d="M6014 1448l-48 -26c-6,2 -13,3 -19,4 8,8 21,18 41,29 8,-2 17,-4 26,-7z"/>
   <path class="fil0" d="M4124 1468l-96 -5 0 7 96 5c0,0 0,0 0,0 2,0 4,0 5,0l71 -19c4,-1 6,-4 6,-7l0 -10c0,-4 -3,-7 -8,-7l-167 0 0 7 168 0 0 10 -17 4 0 0 -153 0 0 8 125 0 -26 6c-2,1 -3,1 -4,1z"/>
   <path class="fil0" d="M4477 1503c4,0 8,-4 8,-8l0 -34c0,-4 -4,-8 -8,-8l-12 0c-4,0 -8,4 -8,8l0 34c0,4 4,8 8,8l12 0z"/>
   <path class="fil0" d="M4536 1503c5,0 8,-4 8,-8l0 -34c0,-4 -3,-8 -8,-8l-12 0c-4,0 -8,4 -8,8l0 34c0,4 4,8 8,8l12 0z"/>
   <path class="fil0" d="M4595 1503c5,0 8,-4 8,-8l0 -34c0,-4 -3,-8 -8,-8l-11 0c-5,0 -9,4 -9,8l0 34c0,4 4,8 9,8l11 0z"/>
   <path class="fil0" d="M4655 1503c4,0 8,-4 8,-8l0 -34c0,-4 -4,-8 -8,-8l-12 0c-5,0 -8,4 -8,8l0 34c0,4 3,8 8,8l12 0z"/>
   <path class="fil0" d="M4714 1503c4,0 8,-4 8,-8l0 -34c0,-4 -4,-8 -8,-8l-12 0c-5,0 -8,4 -8,8l0 34c0,4 3,8 8,8l12 0z"/>
   <path class="fil0" d="M4773 1503c4,0 8,-4 8,-8l0 -34c0,-4 -4,-8 -8,-8l-12 0c-4,0 -8,4 -8,8l0 34c0,4 4,8 8,8l12 0z"/>
   <path class="fil0" d="M4832 1503c5,0 8,-4 8,-8l0 -34c0,-4 -3,-8 -8,-8l-12 0c-4,0 -8,4 -8,8l0 34c0,4 4,8 8,8l12 0z"/>
   <path class="fil0" d="M4891 1503c5,0 8,-4 8,-8l0 -34c0,-4 -3,-8 -8,-8l-12 0c-4,0 -8,4 -8,8l0 34c0,4 4,8 8,8l12 0z"/>
   <path class="fil0" d="M4951 1503c4,0 8,-4 8,-8l0 -34c0,-4 -4,-8 -8,-8l-12 0c-5,0 -8,4 -8,8l0 34c0,4 3,8 8,8l12 0z"/>
   <path class="fil0" d="M5010 1503c4,0 8,-4 8,-8l0 -34c0,-4 -4,-8 -8,-8l-12 0c-5,0 -8,4 -8,8l0 34c0,4 3,8 8,8l12 0z"/>
   <path class="fil0" d="M5069 1503c4,0 8,-4 8,-8l0 -34c0,-4 -4,-8 -8,-8l-12 0c-4,0 -8,4 -8,8l0 34c0,4 4,8 8,8l12 0z"/>
   <path class="fil0" d="M5128 1503c5,0 8,-4 8,-8l0 -34c0,-4 -3,-8 -8,-8l-12 0c-4,0 -8,4 -8,8l0 34c0,4 4,8 8,8l12 0z"/>
   <path class="fil0" d="M5187 1503c5,0 8,-4 8,-8l0 -34c0,-4 -3,-8 -8,-8l-12 0c-4,0 -8,4 -8,8l0 34c0,4 4,8 8,8l12 0z"/>
   <path class="fil0" d="M5247 1503c4,0 8,-4 8,-8l0 -34c0,-4 -4,-8 -8,-8l-12 0c-5,0 -8,4 -8,8l0 34c0,4 3,8 8,8l12 0z"/>
   <path class="fil0" d="M5306 1503c4,0 8,-4 8,-8l0 -34c0,-4 -4,-8 -8,-8l-12 0c-5,0 -8,4 -8,8l0 34c0,4 3,8 8,8l12 0z"/>
   <path class="fil0" d="M5365 1503c4,0 8,-4 8,-8l0 -34c0,-4 -4,-8 -8,-8l-12 0c-4,0 -8,4 -8,8l0 34c0,4 4,8 8,8l12 0z"/>
   <path class="fil0" d="M5424 1503c5,0 8,-4 8,-8l0 -34c0,-4 -3,-8 -8,-8l-12 0c-4,0 -8,4 -8,8l0 34c0,4 4,8 8,8l12 0z"/>
   <path class="fil0" d="M5483 1503c5,0 8,-4 8,-8l0 -34c0,-4 -3,-8 -8,-8l-12 0c-4,0 -8,4 -8,8l0 34c0,4 4,8 8,8l12 0z"/>
   <path class="fil0" d="M5543 1503c4,0 8,-4 8,-8l0 -34c0,-4 -4,-8 -8,-8l-12 0c-5,0 -8,4 -8,8l0 34c0,4 3,8 8,8l12 0z"/>
   <path class="fil0" d="M5793 1230c-23,-22 -59,-22 -83,0 -9,8 4,21 13,13 16,-15 41,-15 57,0 9,8 22,-5 13,-13z"/>
   <path class="fil0" d="M5821 1206c-39,-37 -100,-37 -138,0 -9,8 4,21 13,13 31,-31 81,-31 112,0 8,8 21,-5 13,-13z"/>
   <path class="fil0" d="M5668 1195c46,-46 121,-46 167,0 8,8 21,-5 13,-13 -53,-53 -139,-53 -193,0 -8,8 5,21 13,13z"/>
   <path class="fil0" d="M5733 1273c0,10 8,18 19,18 10,0 18,-8 18,-18 0,-11 -8,-19 -18,-19 -11,0 -19,8 -19,19z"/>
   <path class="fil0" d="M5538 1620c-19,1 -55,2 -102,3 -2,-3 -4,-6 -7,-7l-11 -6c-2,-1 -3,-1 -5,-2 -1,0 -2,0 -4,0l-29 3c-5,-5 -11,-8 -19,-11 -2,-1 -5,-1 -8,-1l-121 0 262 -34c23,8 27,8 34,9 3,1 8,2 15,3 23,5 27,16 29,22l0 1c1,1 1,3 -1,6 -2,4 -10,12 -33,14zm-103 51c0,14 -4,33 -5,40 -1,2 -2,4 -4,5l-10 5 0 -104 10 5c2,1 3,3 4,5l0 1 0 0c2,8 5,25 5,39l0 4zm-182 38l0 -80c1,-1 2,-1 4,-1l152 -12 0 107 -153 -13c-1,0 -2,0 -3,-1zm-7 -7l-1 -1c-1,-1 -1,-3 -1,-5l0 -54c0,-2 0,-3 1,-5l1 -1 0 66zm-40 -3l0 -50 3 19c1,2 2,3 4,3 1,0 1,0 1,0 2,0 4,-2 4,-4 1,-7 4,-19 9,-26l1 -1 0 -33c0,-1 1,-1 1,-1l124 0c2,0 4,0 5,1 4,1 8,3 11,5l-113 8c-3,1 -6,2 -8,4 -1,0 -2,1 -3,2l-5 6c-2,3 -4,7 -4,10l0 54c0,2 1,5 2,7l-30 -3c-1,-1 -2,-1 -2,-1zm-35 -40l-7 -3 0 -30 36 -6 1 2c-1,1 -1,1 -1,1 -1,0 -1,1 -2,2l-5 6c-2,2 -3,5 -3,9l0 47c0,1 0,3 0,4l-7 -1c-1,-8 -3,-16 -4,-20 -1,-5 -4,-9 -8,-11zm7 61c0,14 -4,33 -6,43 -1,2 -2,5 -5,6l-10 5 0 -114 10 6c3,1 4,3 5,6 1,4 3,13 4,22 1,9 2,15 2,21l0 5zm-200 42l0 -89c2,-1 3,-1 4,-1l167 -14 0 118 -167 -13c-1,0 -2,-1 -4,-1zm-8 -9c0,-1 -1,-1 -1,-2 -1,-1 -1,-3 -1,-4l0 -59c0,-2 0,-4 2,-6l1 -1 0 73 -1 -1zm-41 -8l0 -61 3 26c0,2 2,4 4,4 0,0 0,0 1,0 1,0 3,-1 4,-3 5,-15 11,-26 15,-29l1 -1 0 -35 129 0c6,0 11,1 16,4l9 4 -130 10c-3,1 -6,2 -8,4l-1 0c0,1 -1,2 -2,2l-6 7c-2,3 -4,7 -4,11l0 59c0,0 1,1 1,2l-29 -3c-1,0 -2,0 -3,-1zm-10 -14l0 -53c0,-2 1,-4 2,-5l0 -1 0 65 0 0c-1,-2 -2,-4 -2,-6zm-31 1l0 -68 2 0 0 0 32 -4c0,0 -1,1 -1,1l-6 7c-2,3 -3,6 -3,10l0 53c0,2 0,3 0,4l-22 -2c-1,0 -1,-1 -2,-1zm-8 -11l0 -46c0,-1 0,-2 1,-3l0 52c-1,-1 -1,-2 -1,-3zm-39 -31c-11,-6 -20,-12 -25,-17l60 -7 -1 1c-2,2 -3,5 -3,8l0 27c-5,-2 -16,-5 -31,-12zm-408 -7l-47 -68 31 -1 0 0 145 82 -115 -5c-6,-1 -11,-3 -14,-8zm723 -31l0 -16c0,-1 1,-2 1,-2l0 18c0,0 0,0 -1,0zm-31 1l-19 -10c-7,-3 -13,-5 -20,-5l-1 0 67 -11c-2,3 -3,6 -3,9l0 15 -24 2zm73 38c-1,-1 -1,-2 -1,-4l0 -47c0,-2 0,-3 1,-4l0 55zm-622 -9l650 -83c-3,2 -5,5 -5,8l0 30c-3,5 -6,10 -7,15l-8 -41 -157 26 0 1 -99 0 0 40c-5,4 -9,12 -12,20l-6 -47 -42 6 0 -1c-2,0 -3,0 -5,1l0 0 -307 40 -147 -84 17 -1 128 70zm208 -51c0,0 1,0 1,0l0 0 531 -79c1,0 110,-7 161,8l-900 115 -18 -10 225 -34zm1308 -157l-103 -57 -51 -25c-30,-14 -62,-22 -94,-22l-397 0c-70,0 -212,21 -254,27 -8,1 -15,2 -23,2l-781 0c-27,0 -35,-3 -84,-27 -23,-11 -94,-80 -162,-146 -39,-37 -79,-76 -112,-107l-5 5c33,31 73,70 112,108 72,69 140,135 164,146 20,10 33,17 44,21l-317 0 0 7 1141 0c8,0 16,0 24,-1 42,-7 184,-27 253,-27l397 0c31,0 62,7 90,21l51 25 104 56c10,5 16,16 16,27 0,10 -5,20 -14,25 -32,23 -108,63 -249,80 -6,1 -13,1 -19,1l-248 0c1,-1 1,-2 2,-3 3,-4 4,-9 2,-12l0 -2c-3,-6 -8,-20 -34,-26 -8,-2 -12,-2 -16,-3 -7,-1 -10,-1 -34,-9l0 0 0 0 -1 0 -13 -4c-52,-17 -161,-10 -166,-9l-531 79c-78,-4 -273,-28 -754,-123l-2 7c354,70 596,110 722,121l-201 30 -98 -53c-1,0 -2,-1 -3,-1l0 0 -63 2c-3,0 -5,2 -6,4 -1,2 -1,4 0,7l47 69c5,7 12,11 20,11l131 6 229 -29c5,4 16,13 32,22 17,8 29,11 34,12l0 12c0,3 1,6 4,9l4 5c1,1 1,1 2,2 2,2 5,3 7,3l27 2 5 6c0,0 1,1 2,2 2,2 5,3 8,3l33 3c0,1 0,1 0,1l6 7c1,1 2,2 2,2 3,3 6,4 10,4l167 13c1,1 1,1 2,1 1,0 2,-1 2,-1 2,0 4,0 5,-1l13 -7c4,-2 7,-6 8,-11 2,-10 6,-29 6,-44l0 -5c0,-5 0,-11 -1,-17l11 1 3 3c1,1 1,1 2,2 2,2 5,3 7,3l37 4 1 1c1,1 2,2 2,2 3,2 6,4 9,4l153 12c1,0 1,0 2,0 0,0 1,0 2,0 2,-1 3,-1 5,-2l11 -6c4,-2 7,-5 8,-10 2,-7 5,-26 5,-41l0 -4c0,-13 -2,-28 -4,-37 47,-1 82,-2 101,-3 12,-1 20,-4 26,-7l258 0c7,0 14,0 20,-1 142,-17 219,-58 253,-81 10,-7 16,-18 16,-31 0,-14 -8,-27 -20,-33z"/>
   <path class="fil0" d="M5670 2249c-4,-4 -9,-7 -14,-7l-66 0c-10,0 -17,8 -17,17l0 105c0,10 7,17 17,17l83 0c9,0 16,-6 17,-14 0,-2 0,-4 0,-6l-18 -105c0,-2 -1,-5 -2,-7z"/>
   <path class="fil0" d="M4678 2228l1 -2 -1 0c1,0 1,0 1,0l60 0 0 179 -70 0 0 -146c0,-10 4,-23 9,-31zm1 -40l986 0c2,0 4,2 5,4 2,3 3,7 3,11 0,9 -4,16 -8,16l-986 0c-2,0 -4,-3 -5,-4 -2,-3 -3,-7 -3,-12 0,-9 4,-15 8,-15zm855 217l-788 0 0 -179 788 0 0 179zm-865 7l1017 0 0 36 8 0 0 -81 0 -8 -21 -110 -5 -23 -7 1 5 23 20 109 0 46 -144 0 0 -179 123 0c8,0 15,-10 15,-23 0,-5 -1,-11 -4,-15 -3,-5 -7,-7 -11,-7l-986 0c-8,0 -15,10 -15,22 0,6 1,12 4,16 1,2 3,3 4,5l0 0c-6,10 -10,23 -10,35l0 190 7 0 0 -37z"/>
   <path class="fil0" d="M4979 2293c0,-4 3,-7 7,-7l309 0c4,0 7,3 7,7l0 45c0,4 -3,7 -7,7l-309 0c-4,0 -7,-3 -7,-7l0 -45zm7 59l309 0c8,0 14,-6 14,-14l0 -45c0,-8 -6,-14 -14,-14l-309 0c-8,0 -14,6 -14,14l0 45c0,8 6,14 14,14z"/>
   <path class="fil0" d="M4880 2293c0,-4 3,-7 7,-7l42 0c4,0 7,3 7,7l0 45c0,4 -3,7 -7,7l-42 0c-4,0 -7,-3 -7,-7l0 -45zm7 59l42 0c8,0 14,-6 14,-14l0 -45c0,-8 -6,-14 -14,-14l-42 0c-8,0 -14,6 -14,14l0 45c0,8 6,14 14,14z"/>
   <path class="fil0" d="M4787 2293c0,-4 3,-7 6,-7l43 0c3,0 6,3 6,7l0 45c0,4 -3,7 -6,7l-43 0c-3,0 -6,-3 -6,-7l0 -45zm6 59l43 0c7,0 14,-6 14,-14l0 -45c0,-8 -7,-14 -14,-14l-43 0c-7,0 -14,6 -14,14l0 45c0,8 7,14 14,14z"/>
   <path class="fil0" d="M5340 2293c0,-4 3,-7 6,-7l43 0c4,0 7,3 7,7l0 45c0,4 -3,7 -7,7l-43 0c-3,0 -6,-3 -6,-7l0 -45zm6 59l43 0c8,0 14,-6 14,-14l0 -45c0,-8 -6,-14 -14,-14l-43 0c-7,0 -13,6 -13,14l0 45c0,8 6,14 13,14z"/>
   <path class="fil0" d="M5433 2293c0,-4 3,-7 7,-7l43 0c3,0 6,3 6,7l0 45c0,4 -3,7 -6,7l-43 0c-4,0 -7,-3 -7,-7l0 -45zm7 59l43 0c7,0 13,-6 13,-14l0 -45c0,-8 -6,-14 -13,-14l-43 0c-8,0 -14,6 -14,14l0 45c0,8 6,14 14,14z"/>
   <path class="fil0" d="M4029 2286l295 0c3,0 6,3 6,7l0 45c0,4 -3,7 -6,7l-295 0 0 -59zm295 66c7,0 13,-6 13,-14l0 -45c0,-8 -6,-14 -13,-14l-296 0c-3,0 -6,3 -6,6l0 60c0,4 3,7 6,7l296 0z"/>
   <path class="fil0" d="M4368 2338l0 -45c0,-4 3,-7 7,-7l42 0c4,0 7,3 7,7l0 45c0,4 -3,7 -7,7l-42 0c-4,0 -7,-3 -7,-7zm49 14c8,0 14,-6 14,-14l0 -45c0,-8 -6,-14 -14,-14l-42 0c-8,0 -14,6 -14,14l0 45c0,8 6,14 14,14l42 0z"/>
   <path class="fil0" d="M4462 2338l0 -45c0,-4 3,-7 6,-7l43 0c3,0 6,3 6,7l0 45c0,4 -3,7 -6,7l-43 0c-3,0 -6,-3 -6,-7zm49 14c7,0 14,-6 14,-14l0 -45c0,-8 -7,-14 -14,-14l-43 0c-7,0 -14,6 -14,14l0 45c0,8 7,14 14,14l43 0z"/>
   <path class="fil0" d="M4644 2405l-70 0 0 -179 60 0 0 0c6,9 10,22 10,33l0 146zm0 -213c2,3 3,7 3,11 0,9 -5,16 -9,16l-609 0 0 7 538 0 0 179 -536 0 0 7 613 0 0 37 7 0 0 -190c0,-9 -3,-23 -9,-34 7,-2 12,-11 12,-22 0,-5 -1,-11 -4,-15 -3,-5 -7,-7 -12,-7l-611 0 0 7 611 0c2,0 4,1 6,4z"/>
   <path class="fil0" d="M5431 2666c-2,6 -7,10 -14,10l-29 0c0,0 -1,0 -1,0 0,0 -1,0 -1,0l-10 -10c-2,-2 -5,-3 -7,-3l-75 0c-3,0 -5,1 -7,3l-10 10c-1,0 -2,0 -2,0l-29 0c-7,0 -13,-4 -14,-10l-27 -123 253 0 -27 123zm-931 0c-1,6 -7,10 -14,10l-29 0c0,0 -1,0 -1,0 0,0 -1,0 -1,0l-10 -10c-2,-2 -4,-3 -7,-3l-75 0c-2,0 -5,1 -7,3l-10 10c-1,0 -1,0 -2,0l-29 0c-7,0 -12,-4 -14,-10l-27 -123 253 0 -27 123zm1263 -217l-1735 0c-2,0 -4,2 -4,4 0,2 2,4 4,4l1735 0c7,0 12,5 12,12l0 27 -1747 0c-2,0 -4,2 -4,4 0,2 2,3 4,3l1747 0 0 21c0,7 -5,12 -12,12l-1735 0c-2,0 -3,2 -3,4 0,2 1,3 3,3l239 0 27 124c2,10 11,17 21,17l25 0 0 330 8 0 0 -331c1,-1 2,-1 3,-2l10 -10c1,-1 2,-1 2,-1l2 0 0 344 7 0 0 -344 56 0 0 344 7 0 0 -344 3 0c1,0 2,0 2,1l10 10c0,0 1,0 1,1l0 330 7 0 0 -328 28 0c10,0 19,-7 21,-17l27 -124 664 0 27 124c2,10 11,17 21,17l25 0 0 330 7 0 0 -331c2,-1 3,-1 4,-2l10 -10c1,-1 1,-1 2,-1l2 0 0 344 7 0 0 -344 56 0 0 344 7 0 0 -344 3 0c1,0 1,0 2,1l10 10c0,0 1,0 1,1l0 330 7 0 0 -328 28 0c10,0 19,-7 21,-17l27 -124 298 0c11,0 20,-8 20,-19l0 -55c0,-11 -9,-20 -20,-20z"/>
   <path class="fil0" d="M1982 1257l46 0 0 65 -65 0 11 -58c0,-4 4,-7 8,-7zm-16 5l-12 67 82 0 0 -79 -54 0c-8,0 -14,5 -16,12z"/>
   <path class="fil0" d="M2157 1150l-80 0 72 -48 8 48zm9 7l-12 -67 -101 67 113 0z"/>
   <path class="fil0" d="M2141 1061l-49 0 44 -29 5 29zm9 7l-9 -48 -73 48 82 0z"/>
   <path class="fil0" d="M2058 2306l86 0 -86 57 0 -57zm-7 71l117 -78 -117 0 0 78z"/>
   <path class="fil0" d="M2128 991l-18 0 16 -11 2 11zm9 7l-6 -30 -46 30 52 0z"/>
   <path class="fil0" d="M2160 2484l-88 0 88 -57 0 57zm7 -71l-119 78 119 0 0 -78z"/>
   <polygon class="fil0" points="2051,2525 2058,2525 2058,2509 2144,2509 2131,2517 2135,2523 2168,2501 2051,2501 "/>
   <path class="fil0" d="M2074 1086l55 0 -64 42 9 -42zm80 -8l-86 0 -14 66 100 -66z"/>
   <path class="fil0" d="M2089 1016l27 0 -32 21 5 -21zm-15 37l67 -45 -58 0 -9 45z"/>
   <path class="fil0" d="M2103 1282l22 0 0 41 -22 0 0 -41zm30 49l0 -57 -38 0 0 57 38 0z"/>
   <path class="fil0" d="M2058 1901l86 0 -86 57 0 -57zm-7 71l117 -78 -117 0 0 78z"/>
   <path class="fil0" d="M1397 1321l-7 47c0,6 -5,11 -11,11l-11 0 -2 8 0 1c0,1 -1,3 -2,4l-2 1 0 15c-3,1 -7,3 -9,6 -4,3 -6,8 -6,13 0,7 4,13 10,16l-1 1c-5,-4 -9,-9 -9,-15 -1,-8 3,-15 9,-19l2 -1 2 -15 -2 -1c-2,-1 -3,-3 -3,-5l-2 -9 -12 0c-6,0 -11,-5 -11,-11l-7 -47c0,-5 5,-10 11,-11l3 0 47 0c7,0 13,5 13,11zm-25 124l-1 0c2,0 3,-1 4,-1 -1,0 -2,1 -3,1zm-115 82l105 -74c0,0 1,0 1,0 0,0 1,0 1,0l105 74 -212 0zm253 8l0 90c0,1 -1,1 -1,1l-295 0c-1,0 -1,0 -1,-1l0 -90c0,-1 0,-1 1,-1l30 0c1,0 1,0 1,0 0,0 0,0 1,0l234 0c0,0 1,0 1,0 0,0 0,0 0,0l28 0c0,0 1,0 1,1zm-166 -338l28 0 0 106 -28 0 0 -106zm685 490l0 -235c0,-3 3,-5 6,-5l16 0 -6 -7c-2,-2 -3,-4 -3,-7l0 -2c0,-3 1,-6 4,-8l7 -6 -91 0 0 -35 -26 0c-11,0 -20,-9 -20,-20l0 -43c0,-1 0,-3 1,-4l17 -76c2,-9 10,-15 19,-15l83 0 0 -53 -634 0 0 4c-1,8 -8,15 -17,15l-54 0c-8,0 -15,-7 -16,-15l0 -4 -410 0c-2,0 -4,-1 -4,-4l0 -6c0,-2 2,-4 4,-4l19 0 76 -50 -13 0c-1,0 -2,-1 -2,-2l0 -6c0,-2 1,-2 2,-2l932 0c1,0 2,0 2,2l0 6 -1 3 75 49 42 0 55 -254 -7 0c-7,0 -12,-5 -12,-11l0 -9c0,-6 5,-12 12,-12l13 0 6 -27c1,-4 4,-7 8,-7 4,0 8,3 8,7l6 27 13 0c6,0 11,6 11,12l0 9c0,6 -5,11 -11,11l-7 0 48 254 148 0 0 -31 -3 -1c0,0 -1,-1 -1,-2l0 -6c0,-2 1,-3 2,-3l37 0 0 -7 -37 0c-5,0 -10,4 -10,10l0 6c0,3 2,6 4,8l0 19 -134 0 -46 -240c10,-1 17,-9 17,-18l0 -9c0,-10 -8,-19 -18,-19l-7 0 -5 -21c-1,-8 -7,-13 -15,-13 -7,0 -13,5 -15,12l-4 22 -8 0c-11,0 -19,9 -19,19l0 9c0,9 7,17 17,18l-52 240 -33 0 -70 -46 0 -5c0,-6 -4,-10 -9,-10l-932 0c-5,0 -10,4 -10,10l0 6c0,3 1,5 3,7l-58 38 -17 0c-6,0 -11,5 -11,11l0 6c0,7 5,12 11,12l403 0c3,10 11,17 21,18l0 107c-8,2 -13,9 -13,17l7 47c0,10 8,18 18,18l6 0 0 2c0,4 2,7 5,10l-1 7c-8,5 -13,15 -12,25 1,7 5,14 11,18l-108 76c-1,1 -2,2 -2,3l-26 0c-5,0 -8,3 -8,8l0 90c0,5 3,8 8,8l295 0c4,0 8,-3 8,-8l0 -90c0,-5 -4,-8 -8,-8l-23 0c0,-1 -1,-2 -2,-3l-105 -74c1,-1 2,-1 3,-2 4,-4 8,-10 8,-16 0,-3 0,-6 -2,-7 -1,-1 -2,-2 -3,-2 -3,0 -5,3 -6,6 0,5 -7,9 -13,9 -6,0 -12,-5 -12,-11 0,-3 2,-6 4,-8 2,-3 5,-4 8,-4l4 0 0 -19c2,-2 3,-5 3,-8l0 -2 6 0c10,0 18,-8 19,-17l6 -47 0 -1c0,-9 -7,-17 -17,-18l0 -106c10,-1 19,-8 21,-18l621 0 0 37 -76 0c-12,0 -23,9 -26,21l-17 76c-1,2 -1,4 -1,6l0 43c0,15 12,27 27,27l19 0 0 35 81 0c-1,2 -1,5 -1,7l0 2c0,2 0,4 1,6l-1 0c-7,0 -13,6 -13,13l0 235c0,5 3,10 7,12l0 821 7 0 0 -826 -2 -1c-3,-1 -5,-3 -5,-6z"/>
   <path class="fil0" d="M2105 939l6 -28c0,-1 0,-1 1,-1l0 -4 0 4c1,0 1,0 1,1l5 28 -13 0zm7 -36l0 0 0 0c-3,0 -7,2 -8,6l-8 38 31 0 -7 -38c0,-3 -3,-6 -8,-6z"/>
   <polygon class="fil0" points="2365,1132 2365,1125 2338,1125 2338,1157 2365,1157 2365,1150 2346,1150 2346,1132 "/>
   <path class="fil0" d="M2181 1264l13 0 0 10 -6 0 0 143 -22 0 7 6c2,2 3,5 3,8l0 2c0,3 -1,5 -3,7l-5 7 14 0c4,0 6,2 6,5l0 235c0,3 -2,5 -4,6l-3 1 0 826 7 0 0 -821c5,-2 7,-7 7,-12l0 -235c0,-7 -5,-13 -12,-13 0,-2 1,-4 1,-6l0 -2c0,-2 -1,-5 -2,-7l13 0 0 -142 6 0 0 -25 -13 0 0 -78 174 0 0 -8 -181 0 0 93z"/>
   <path class="fil0" d="M2058 1701l89 0 -89 59 0 -59zm-7 72l120 -80 -120 0 0 80z"/>
   <path class="fil0" d="M2100 964l6 0 -7 5 1 -5zm-12 21l42 -28 -36 0 -6 28z"/>
   <path class="fil0" d="M2160 1978l-88 0 88 -58 0 58zm7 -71l-119 78 119 0 0 -78z"/>
   <path class="fil0" d="M2162 1667l-77 0 77 -51 0 51zm1 7c4,0 6,-2 6,-6l0 -65 -108 71 102 0z"/>
   <path class="fil0" d="M2058 2003l86 0 -86 56 0 -56zm-7 70l117 -78 -117 0 0 78z"/>
   <path class="fil0" d="M2160 1257l-83 0 0 -5 83 -54 0 59zm-82 108l-2 0c1,-1 1,-2 1,-3l0 -80 1 0 0 83zm89 -181l-98 65 0 113c0,2 0,3 0,5l-2 5 18 0 0 -98 -6 0 0 -10 88 0 0 -80z"/>
   <path class="fil0" d="M2058 2205l86 0 -86 57 0 -57zm-7 70l117 -77 -117 0 0 77z"/>
   <path class="fil0" d="M1865 1114l-49 33 -50 -33 99 0zm24 -7l-147 0 74 49 73 -49z"/>
   <path class="fil0" d="M1953 1150l-11 0 -5 -11 16 11zm24 7l-57 -37 17 37 40 0z"/>
   <path class="fil0" d="M2160 1779l-100 0 100 -66 0 66zm7 -79l-116 77 0 9 116 0 0 -86z"/>
   <path class="fil0" d="M1901 1120l14 30 -59 0 45 -30zm4 -11l-73 48 94 0 -21 -48z"/>
   <path class="fil0" d="M1727 1118l48 32 -97 0 49 -32zm0 -9l-73 48 145 0 -72 -48z"/>
   <path class="fil0" d="M2160 2383l-88 0 88 -58 0 58zm7 7l0 -78 -119 78 119 0z"/>
   <path class="fil0" d="M2169 1480l0 -9c0,-3 -2,-6 -6,-6l-109 0c-3,0 -6,3 -6,6l0 9 121 0z"/>
   <path class="fil0" d="M2058 1861l0 -65 98 0 -98 65zm109 -72l-116 0 0 86 116 -77 0 -9z"/>
   <path class="fil0" d="M1687 1114l-49 33 -50 -33 99 0zm24 -7l-147 0 74 49 73 -49z"/>
   <path class="fil0" d="M2055 1599l89 0 -89 58 0 -58zm-7 -7l0 79 120 -79 -120 0z"/>
   <path class="fil0" d="M2162 1574l-90 0 90 -59 0 59zm7 7l0 -80 -121 80 121 0z"/>
   <path class="fil0" d="M2160 1815l0 62 -94 0 94 -62zm-109 69l116 0 0 -83 -116 77 0 6z"/>
   <path class="fil0" d="M2055 1498l89 0 -89 58 0 -58zm-7 -8l0 80 120 -80 -120 0z"/>
   <path class="fil0" d="M1549 1118l48 32 -97 0 49 -32zm0 -9l-73 48 145 0 -72 -48z"/>
   <path class="fil0" d="M2160 2079l-88 0 88 -57 0 57zm7 8l0 -79 -119 79 119 0z"/>
   <path class="fil0" d="M1154 1114l-50 33 -49 -33 99 0zm24 -7l-148 0 74 49 74 -49z"/>
   <path class="fil0" d="M967 1150l48 -32 48 32 -96 0zm-24 7l145 0 -73 -48 -72 48z"/>
   <path class="fil0" d="M1193 1118l48 32 -96 0 48 -32zm0 -9l-73 48 146 0 -73 -48z"/>
   <path class="fil0" d="M2058 2408l86 0 -86 56 0 -56zm-7 70l117 -78 -117 0 0 78z"/>
   <path class="fil0" d="M2171 1323l-21 0 0 -41 21 0 0 41zm7 -49l-35 0 0 57 35 0 0 -57z"/>
   <path class="fil0" d="M2160 2180l-88 0 88 -57 0 57zm7 8l0 -79 -119 79 119 0z"/>
   <path class="fil0" d="M1509 1114l-49 33 -50 -33 99 0zm25 -7l-148 0 74 49 74 -49z"/>
   <path class="fil0" d="M2058 1179l86 0 -73 48c-4,-5 -8,-8 -13,-9l0 -39zm-7 44l2 1c6,1 11,5 14,10l2 3 99 -66 -117 0 0 52z"/>
   <path class="fil0" d="M2058 2104l86 0 -86 57 0 -57zm-7 -7l0 77 117 -77 -117 0z"/>
   <path class="fil0" d="M2160 2282l-88 0 88 -58 0 58zm7 7l0 -78 -119 78 119 0z"/>
   <path class="fil0" d="M1323 1150l48 -32 48 32 -28 0c-2,-1 -4,-1 -6,-1l-54 0c-1,0 -3,0 -5,1l-3 0zm4 7c2,0 3,-1 4,-1l54 0c1,0 3,1 4,1l54 0 -72 -48 -73 48 28 0 1 0z"/>
   <path class="fil0" d="M1331 1114l-49 33 -50 -33 99 0zm25 -7l-148 0 74 49 74 -49z"/>
   <path class="fil0" d="M1444 1614l-121 0c-2,0 -4,2 -4,4 0,2 2,4 4,4l121 0c2,0 4,-2 4,-4 0,-2 -2,-4 -4,-4z"/>
   <path class="fil0" d="M1286 1614l-60 0 0 -68c0,-2 -1,-4 -3,-4 -2,0 -4,2 -4,4l0 76 67 0c2,0 4,-2 4,-4 0,-2 -2,-4 -4,-4z"/>
   <path class="fil0" d="M1463 1542c0,2 2,3 4,3l30 0 0 66c0,2 2,4 4,4 2,0 3,-2 3,-4l0 -73 -37 0c-2,0 -4,2 -4,4z"/>
   <path class="fil0" d="M1275 1545l125 0c2,0 3,-1 3,-3 0,-2 -1,-4 -3,-4l-125 0c-2,0 -3,2 -3,4 0,2 1,3 3,3z"/>
   <path class="fil0" d="M1576 722c6,0 12,1 18,4l6 2 -1 -6c-1,-5 -1,-10 -1,-14 0,-52 42,-94 94,-94 39,0 75,25 88,62l2 3 3 -1c7,-2 13,-3 20,-3 35,0 63,28 63,63 0,1 0,1 0,1l0 5 4 -1c3,-1 5,-1 8,-1 19,0 34,16 34,35 0,19 -15,34 -34,34l-304 0c-24,0 -44,-20 -44,-44 0,-25 20,-45 44,-45zm0 97l304 0c23,0 42,-19 42,-42 0,-25 -21,-45 -47,-42 -1,-38 -32,-68 -70,-68 -6,0 -13,1 -19,3 -16,-38 -53,-63 -94,-63 -56,0 -101,45 -101,101 0,3 0,6 0,9 -5,-1 -10,-2 -15,-2 -28,0 -52,23 -52,52 0,28 24,52 52,52z"/>
   <path class="fil0" d="M256 2350c-14,13 7,34 20,21 27,-25 67,-25 93,0 14,13 35,-8 21,-21 -38,-36 -96,-36 -134,0z"/>
   <path class="fil0" d="M211 2311c-13,13 8,34 21,21 51,-50 131,-50 181,0 14,13 35,-8 21,-21 -62,-61 -161,-61 -223,0z"/>
   <path class="fil0" d="M167 2272c-13,13 8,34 21,21 75,-74 195,-74 270,0 13,13 34,-8 21,-21 -86,-85 -226,-85 -312,0z"/>
   <path class="fil0" d="M353 2418c0,17 -14,30 -30,30 -17,0 -30,-13 -30,-30 0,-16 13,-30 30,-30 16,0 30,14 30,30z"/>
   <path class="fil0" d="M1003 2823l30 0 0 58c0,2 1,3 3,3 2,0 4,-1 4,-3l0 -66 -37 0c-2,0 -3,2 -3,4 0,2 1,4 3,4z"/>
   <path class="fil0" d="M900 2819c0,-2 -2,-4 -4,-4l-75 0c-2,0 -3,2 -3,4 0,2 1,4 3,4l75 0c2,0 4,-2 4,-4z"/>
   <path class="fil0" d="M834 2795c0,-2 -2,-3 -4,-3l-57 0 0 -57c0,-2 -2,-4 -4,-4 -2,0 -3,2 -3,4l0 64 64 0c2,0 4,-2 4,-4z"/>
   <path class="fil0" d="M927 2730l106 0 0 48c0,2 1,3 3,3 2,0 4,-1 4,-3l0 -55 -113 0c-2,0 -3,2 -3,4 0,2 1,3 3,3z"/>
   <path class="fil0" d="M1325 2886l-78 0c-2,0 -3,2 -3,4 0,2 1,4 3,4l78 0c2,0 4,-2 4,-4 0,-2 -2,-4 -4,-4z"/>
   <path class="fil0" d="M1102 2886l-37 0 0 -47c0,-2 -2,-4 -4,-4 -2,0 -4,2 -4,4l0 55 45 0c2,0 3,-2 3,-4 0,-2 -1,-4 -3,-4z"/>
   <path class="fil0" d="M1296 2815c-2,0 -4,2 -4,4 0,2 2,4 4,4l29 0 0 39c0,2 2,4 4,4 0,0 0,0 0,0 2,0 3,-2 3,-4l0 -47 -36 0z"/>
   <path class="fil0" d="M1267 2819c0,-2 -1,-4 -3,-4l-51 0c-2,0 -4,2 -4,4 0,2 2,4 4,4l51 0c2,0 3,-2 3,-4z"/>
   <path class="fil0" d="M1177 2886l-38 0c-2,0 -4,2 -4,4 0,2 2,4 4,4l38 0c2,0 4,-2 4,-4 0,-2 -2,-4 -4,-4z"/>
   <path class="fil0" d="M1115 2815l-51 0c-2,0 -3,2 -3,4 0,2 1,4 3,4l51 0c2,0 4,-2 4,-4 0,-2 -2,-4 -4,-4z"/>
   <path class="fil0" d="M1433 2799l78 0c2,0 4,-2 4,-4 0,-2 -2,-3 -4,-3l-78 0c-2,0 -3,1 -3,3 0,2 1,4 3,4z"/>
   <path class="fil0" d="M1398 2795c0,-2 -2,-3 -4,-3l-37 0 0 -63 48 0c2,0 4,-2 4,-4 0,-2 -2,-3 -4,-3l-55 0 0 77 44 0c2,0 4,-2 4,-4z"/>
   <path class="fil0" d="M1584 2792c-2,0 -3,2 -3,4 0,2 1,3 3,3l41 0 -1 -75c0,-2 -1,-3 -3,-3l0 0c-2,0 -4,1 -4,3l0 68 -33 0z"/>
   <path class="fil0" d="M1469 2728l133 0c2,0 3,-2 3,-4 0,-2 -1,-3 -3,-3l-133 0c-2,0 -4,1 -4,3 0,2 2,4 4,4z"/>
   <path class="fil0" d="M1432 2885l-75 0 0 -63c0,-2 -2,-3 -4,-3 -2,0 -3,1 -3,3l0 70 82 0c2,0 3,-1 3,-3 0,-2 -1,-4 -3,-4z"/>
   <path class="fil0" d="M1503 2885l-52 0c-2,0 -4,2 -4,4 0,2 2,3 4,3l52 0c2,0 4,-1 4,-3 0,-2 -2,-4 -4,-4z"/>
   <path class="fil0" d="M1621 2815l0 0c-2,0 -4,2 -4,4l0 66 -38 0c-2,0 -4,2 -4,4 0,2 2,3 4,3l46 0 -1 -73c0,-2 -1,-4 -3,-4z"/>
   <path class="fil0" d="M1558 2818l-154 0c-2,0 -4,2 -4,4 0,2 2,3 4,3l154 0c2,0 3,-1 3,-3 0,-2 -1,-4 -3,-4z"/>
   <path class="fil0" d="M1271 2792l-102 0c-2,0 -4,1 -4,3 0,2 2,4 4,4l102 0c2,0 3,-2 3,-4 0,-2 -1,-3 -3,-3z"/>
   <path class="fil0" d="M1102 2792l-37 0 0 -65c0,-2 -2,-3 -4,-3 -2,0 -4,1 -4,3l0 72 45 0c2,0 3,-2 3,-4 0,-2 -1,-3 -3,-3z"/>
   <path class="fil0" d="M1328 2721l0 0c-2,0 -3,1 -3,3l0 63 -34 0c-2,0 -4,1 -4,3 0,2 2,4 4,4l41 0 0 -70c0,-2 -2,-3 -4,-3z"/>
   <path class="fil0" d="M1086 2728l141 0c2,0 3,-2 3,-4 0,-2 -1,-3 -3,-3l-141 0c-2,0 -3,1 -3,3 0,2 1,4 3,4z"/>
   <path class="fil0" d="M1595 2696l-123 0c-2,0 -4,1 -4,3 0,2 2,4 4,4l123 0c2,0 3,-2 3,-4 0,-2 -1,-3 -3,-3z"/>
   <path class="fil0" d="M1393 2699c0,-2 -2,-3 -4,-3l-32 0 0 -64c0,-2 -2,-3 -4,-3 -2,0 -3,1 -3,3l0 71 39 0c2,0 4,-2 4,-4z"/>
   <path class="fil0" d="M1555 2635l62 0 0 60c0,2 2,4 4,4 0,0 0,0 0,0 2,0 4,-2 4,-4l-1 -67 -69 0c-2,0 -4,2 -4,4 0,2 2,3 4,3z"/>
   <path class="fil0" d="M1401 2635l76 0c2,0 4,-1 4,-3 0,-2 -2,-4 -4,-4l-76 0c-2,0 -4,2 -4,4 0,2 2,3 4,3z"/>
   <path class="fil0" d="M1804 2790l-78 0c-3,0 -4,2 -4,4 0,2 1,4 4,4l78 0c2,0 3,-2 3,-4 0,-2 -1,-4 -3,-4z"/>
   <path class="fil0" d="M1690 2794c0,-2 -2,-4 -4,-4l-37 0 0 -63c0,-2 -1,-3 -3,-3 -2,0 -4,1 -4,3l0 71 44 0c2,0 4,-2 4,-4z"/>
   <path class="fil0" d="M1880 2730l29 0 1 60c0,2 1,4 3,4 0,0 0,0 0,0 2,0 4,-2 4,-4l0 -67 -37 0c-2,0 -3,2 -3,4 0,2 1,3 3,3z"/>
   <path class="fil0" d="M1696 2730l152 0c2,0 4,-1 4,-3 0,-2 -2,-4 -4,-4l-152 0c-2,0 -3,2 -3,4 0,2 1,3 3,3z"/>
   <path class="fil0" d="M1754 2826l134 0c2,0 4,-2 4,-4 0,-2 -2,-3 -4,-3l-134 0c-2,0 -4,1 -4,3 0,2 2,4 4,4z"/>
   <path class="fil0" d="M1680 2819l-38 0 0 74 30 0c2,0 4,-2 4,-4 0,-2 -2,-3 -4,-3l-23 0 0 -60 31 0c2,0 3,-2 3,-4 0,-2 -1,-3 -3,-3z"/>
   <path class="fil0" d="M1796 2886l-84 0c-2,0 -4,1 -4,3 0,2 2,4 4,4l84 0c2,0 3,-2 3,-4 0,-2 -1,-3 -3,-3z"/>
   <path class="fil0" d="M1913 2819l0 0c-2,0 -4,1 -4,3l1 64 -32 0c-2,0 -3,1 -3,3 0,2 1,4 3,4l39 0 0 -71c0,-2 -2,-3 -4,-3z"/>
   <path class="fil0" d="M1751 2636l102 0c2,0 3,-2 3,-4 0,-2 -1,-3 -3,-3l-102 0c-2,0 -3,1 -3,3 0,2 1,4 3,4z"/>
   <path class="fil0" d="M1669 2699c0,-2 -2,-3 -4,-3l-16 0 0 -60 45 0c2,0 3,-2 3,-4 0,-2 -1,-3 -3,-3l-52 0 0 74 23 0c2,0 4,-2 4,-4z"/>
   <path class="fil0" d="M1717 2703l159 0c2,0 3,-2 3,-4 0,-2 -1,-3 -3,-3l-159 0c-2,0 -4,1 -4,3 0,2 2,4 4,4z"/>
   <path class="fil0" d="M1880 2636l29 0 1 59c0,2 1,4 3,4 0,0 0,0 0,0 2,0 4,-2 4,-4l0 -66 -37 0c-2,0 -3,1 -3,3 0,2 1,4 3,4z"/>
   <path class="fil0" d="M2231 2820c-2,0 -4,1 -4,3l0 71 39 0c2,0 4,-2 4,-4 0,-2 -2,-4 -4,-4l-32 0 0 -63c0,-2 -1,-3 -3,-3z"/>
   <path class="fil0" d="M2278 2819c-2,0 -4,2 -4,4 0,2 2,3 4,3l77 0c2,0 3,-1 3,-3 0,-2 -1,-4 -3,-4l-77 0z"/>
   <path class="fil0" d="M2315 2631c0,-2 -2,-4 -4,-4l-78 0c-2,0 -3,2 -3,4 0,2 1,3 3,3l78 0c2,0 4,-1 4,-3z"/>
   <path class="fil0" d="M2234 2698l0 -40c0,-2 -2,-3 -4,-3 0,0 0,0 0,0 -2,0 -4,1 -4,3l0 47 37 0c2,0 4,-1 4,-3 0,-2 -2,-4 -4,-4l-29 0z"/>
   <path class="fil0" d="M2295 2705l51 0c2,0 3,-1 3,-3 0,-2 -1,-4 -3,-4l-51 0c-2,0 -4,2 -4,4 0,2 2,3 4,3z"/>
   <path class="fil0" d="M2047 2729l78 0c2,0 4,-2 4,-4 0,-2 -2,-3 -4,-3l-78 0c-2,0 -3,1 -3,3 0,2 1,4 3,4z"/>
   <path class="fil0" d="M2154 2799l55 0 0 -77 -44 0c-2,0 -4,1 -4,3 0,2 2,4 4,4l37 0 0 63 -48 0c-2,0 -4,1 -4,3 0,2 2,4 4,4z"/>
   <path class="fil0" d="M1938 2800l0 0c2,0 3,-2 3,-4l0 -67 33 0c2,0 4,-2 4,-4 0,-2 -2,-4 -4,-4l-40 0 0 75c0,2 2,4 4,4z"/>
   <path class="fil0" d="M2090 2793l-133 0c-2,0 -4,1 -4,3 0,2 2,4 4,4l133 0c2,0 3,-2 3,-4 0,-2 -1,-3 -3,-3z"/>
   <path class="fil0" d="M2127 2636l75 0 0 62c0,2 1,4 3,4 2,0 4,-2 4,-4l0 -70 -82 0c-2,0 -4,2 -4,4 0,2 2,4 4,4z"/>
   <path class="fil0" d="M2052 2632c0,2 1,4 3,4l53 0c2,0 4,-2 4,-4 0,-2 -2,-4 -4,-4l-53 0c-2,0 -3,2 -3,4z"/>
   <path class="fil0" d="M1980 2628l-46 0 0 74c0,2 2,3 4,3l0 0c2,0 3,-1 3,-3l0 -66 39 0c2,0 4,-2 4,-4 0,-2 -2,-4 -4,-4z"/>
   <path class="fil0" d="M2155 2695l-154 0c-2,0 -4,2 -4,4 0,2 2,4 4,4l154 0c2,0 3,-2 3,-4 0,-2 -1,-4 -3,-4z"/>
   <path class="fil0" d="M2363 2722l-75 0c-2,0 -4,1 -4,3 0,2 2,4 4,4l75 0c2,0 4,-2 4,-4 0,-2 -2,-3 -4,-3z"/>
   <path class="fil0" d="M2271 2730c0,-2 -1,-3 -3,-3l-42 0 0 69c0,2 2,4 4,4 0,0 0,0 0,0 2,0 4,-2 4,-4l0 -62 34 0c2,0 3,-2 3,-4z"/>
   <path class="fil0" d="M2010 2606c0,-2 -1,-3 -3,-3l-117 0c-2,0 -4,1 -4,3 0,2 2,4 4,4l117 0c2,0 3,-2 3,-4z"/>
   <path class="fil0" d="M1854 2603l-57 0 0 -66c0,-2 -1,-4 -3,-4 -3,0 -4,2 -4,4l0 73 64 0c2,0 4,-2 4,-4 0,-2 -2,-3 -4,-3z"/>
   <path class="fil0" d="M2028 2537l29 0 0 63c0,2 2,4 4,4 2,0 4,-2 4,-4l0 -70 -37 0c-2,0 -3,1 -3,3 0,2 1,4 3,4z"/>
   <path class="fil0" d="M1844 2537l120 0c2,0 3,-2 3,-4 0,-2 -1,-3 -3,-3l-120 0c-2,0 -4,1 -4,3 0,2 2,4 4,4z"/>
   <path class="fil0" d="M2188 2605c0,2 1,3 3,3l103 0c2,0 3,-1 3,-3 0,-2 -1,-4 -3,-4l-103 0c-2,0 -3,2 -3,4z"/>
   <path class="fil0" d="M2128 2605c0,-2 -2,-4 -4,-4l-37 0 0 -64c0,-2 -1,-4 -3,-4 -2,0 -4,2 -4,4l0 71 44 0c2,0 4,-1 4,-3z"/>
   <path class="fil0" d="M2314 2604l41 0 0 -70c0,-2 -2,-4 -4,-4 0,0 0,0 0,0 -2,0 -3,2 -3,4l0 62 -34 0c-2,0 -4,2 -4,4 0,2 2,4 4,4z"/>
   <path class="fil0" d="M2109 2537l140 0c2,0 4,-1 4,-3 0,-2 -2,-4 -4,-4l-140 0c-2,0 -4,2 -4,4 0,2 2,3 4,3z"/>
   <path class="fil0" d="M1964 2825l123 0c2,0 3,-2 3,-4 0,-2 -1,-3 -3,-3l-123 0c-2,0 -4,1 -4,3 0,2 2,4 4,4z"/>
   <path class="fil0" d="M2166 2821c0,2 2,4 4,4l32 0 0 63c0,2 1,4 3,4 2,0 4,-2 4,-4l0 -70 -39 0c-2,0 -4,1 -4,3z"/>
   <path class="fil0" d="M2004 2885l-63 0 0 -60c0,-2 -1,-3 -3,-3 0,0 0,0 0,0 -2,0 -4,1 -4,3l0 67 70 0c2,0 4,-1 4,-3 0,-2 -2,-4 -4,-4z"/>
   <path class="fil0" d="M2158 2885l-77 0c-2,0 -3,2 -3,4 0,2 1,3 3,3l77 0c2,0 3,-1 3,-3 0,-2 -1,-4 -3,-4z"/>
   <path class="fil0" d="M2083 3113l-48 0c-2,0 -4,2 -4,4 0,2 2,3 4,3l48 0c2,0 4,-1 4,-3 0,-2 -2,-4 -4,-4z"/>
   <path class="fil0" d="M1959 3279l-112 0c-2,0 -4,2 -4,4 0,2 2,4 4,4l112 0c2,0 3,-2 3,-4 0,-2 -1,-4 -3,-4z"/>
   <path class="fil0" d="M770 2894l60 0c2,0 4,-2 4,-4 0,-2 -2,-4 -4,-4l-57 0 0 -50c0,-2 -2,-4 -4,-4 -2,0 -3,2 -3,4l0 56 -5 -2c0,0 1,0 1,-1l0 -77c0,0 0,0 0,0 0,0 0,0 0,0l283 0 0 87c0,0 0,0 0,0l-260 0c-2,0 -4,-1 -6,-1l-9 -4zm-8 -177c0,-1 0,-1 0,-1l283 0c0,0 0,1 0,1l0 87c0,0 0,0 0,0l-283 0c0,0 0,0 0,0 0,0 0,0 0,0l0 -87zm326 -292c0,-9 4,-17 11,-23l315 -266c5,-5 12,-7 19,-7l96 0c7,0 14,2 19,7l315 266c7,6 11,14 11,23l0 93 -89 0c-4,0 -8,4 -8,8l0 87c0,1 0,1 0,1l-140 0c-1,0 -3,1 -4,1 -1,0 -3,-1 -4,-1l-284 0c-4,0 -8,4 -8,8l0 87c0,0 0,0 0,0 0,0 -1,0 -1,0l-248 0 0 -284zm1272 101l0 87c0,1 -1,1 -1,1l-137 0c0,0 0,0 0,0l-8 0c0,0 0,0 0,0l-138 0c0,0 1,0 1,-1l0 -87c0,0 -1,0 -1,0l283 0c0,0 1,0 1,0zm-1023 278c0,0 0,0 0,0 0,0 -1,0 -1,0l-282 0c0,0 0,0 0,0l0 -87c0,0 0,-1 0,-1l282 0c1,0 1,0 1,1l0 87zm877 -182l0 87c0,0 0,0 0,0 0,0 0,0 0,0l-284 0c0,0 0,0 -1,0 0,0 0,0 0,0l0 -87c0,0 1,-1 1,-1l139 0c0,0 0,0 0,0l6 0c0,0 0,0 0,0l139 0c0,0 0,1 0,1zm-284 95l284 0c0,0 0,0 0,0 0,0 0,0 0,0l0 87c0,0 0,0 0,0 0,0 0,0 0,0l-284 0c0,0 0,0 -1,0 0,0 0,0 0,0l0 -87c0,0 0,0 0,0 1,0 1,0 1,0zm-293 0l284 0c0,0 0,0 0,0 0,0 1,0 1,0l0 87c0,0 -1,0 -1,0 0,0 0,0 0,0l-284 0c0,0 0,0 0,0 0,0 0,0 0,0l0 -87c0,0 0,0 0,0 0,0 0,0 0,0zm-292 0l284 0c0,0 0,0 0,0 0,0 0,0 0,0l0 87c0,0 0,0 0,0 0,0 0,0 0,0l-284 0c0,0 -1,0 -1,0 0,0 0,0 0,0l0 -87c0,0 0,0 0,0 0,0 1,0 1,0zm-8 95l0 87c0,0 0,0 -1,0l-282 0c0,0 0,0 0,0l0 -87 282 0c0,0 1,0 1,0 0,0 0,0 0,0zm292 0l0 87c0,0 0,0 0,0l-284 0c0,0 -1,0 -1,0l0 -87c0,0 0,0 0,0 0,0 1,0 1,0l284 0c0,0 0,0 0,0 0,0 0,0 0,0zm293 0l0 87c0,0 -1,0 -1,0l-284 0c0,0 0,0 0,0l0 -87c0,0 0,0 0,0 0,0 0,0 0,0l284 0c0,0 0,0 0,0 0,0 1,0 1,0zm292 87l-284 0c0,0 -1,0 -1,0l0 -87c0,0 0,0 0,0 1,0 1,0 1,0l284 0c0,0 0,0 0,0 0,0 0,0 0,1l0 86c0,0 0,0 0,0zm-430 -286l0 -87c0,0 1,0 1,0l282 0c0,0 0,0 0,0l0 87c0,1 0,1 0,1l-137 0c0,0 0,0 0,0l-9 0c0,0 0,0 0,0l-136 0c0,0 -1,0 -1,-1zm-147 96l0 -87c0,0 0,-1 0,-1l148 0c0,0 0,0 0,0l136 0c0,0 1,1 1,1l0 87c0,0 -1,0 -1,0 0,0 0,0 0,0l-284 0c0,0 0,0 0,0 0,0 0,0 0,0zm-293 0l0 -87c0,0 1,-1 1,-1l284 0c0,0 0,1 0,1l0 87c0,0 0,0 0,0 0,0 0,0 0,0l-284 0c0,0 -1,0 -1,0 0,0 0,0 0,0zm-1036 86l4 -138 18 0 4 138c0,0 0,0 0,0l-26 0c0,0 0,0 0,0zm11 -272c0,-1 1,-2 2,-2 2,0 3,1 3,2l2 106 -9 0 2 -106zm2044 377l-141 0c0,0 0,0 -1,0 0,-1 1,-1 1,-1l0 -87c0,0 0,0 0,0l140 0c1,0 2,0 3,-1 0,-1 1,-2 1,-3 0,-2 -2,-4 -4,-4l-140 0c0,0 0,0 0,0l0 -87c0,0 0,0 0,0 0,0 0,0 0,0l140 0c2,0 4,-2 4,-4 0,0 0,0 0,0 0,0 0,0 0,0 0,-2 -2,-4 -4,-4l-140 0c0,0 0,0 0,0 0,0 0,0 0,0l0 -87c0,0 0,-1 0,-1l137 0c0,0 0,0 0,0l3 0c2,0 4,-1 4,-3 0,-1 0,-1 0,-1 0,-1 1,-2 1,-4l0 -87c0,-4 -4,-8 -8,-8l-284 0c-1,0 -2,1 -3,1 -1,0 -2,-1 -3,-1l-188 0 0 -93c0,-11 -5,-21 -13,-28l-315 -267c-7,-6 -15,-9 -24,-9l-96 0c-9,0 -17,3 -24,9l-315 267c-8,7 -13,17 -13,28l0 284 -28 0c-2,0 -3,0 -4,1 -1,-1 -2,-1 -3,-1l-284 0c-4,0 -8,3 -8,8l0 87c0,1 1,3 1,4 0,1 -1,2 -1,4l0 75 -211 -89c-5,-2 -10,-3 -16,-3l-185 0c0,0 0,0 0,-1l-5 -137 4 0c4,0 8,-3 8,-7l0 -14c0,-4 -4,-7 -8,-7l-8 0 -2 -106c0,-5 -4,-9 -10,-9 -5,0 -10,4 -10,9l-2 106 -8 0c-4,0 -7,3 -7,7l0 14c0,4 3,7 7,7l4 0 -4 137c0,1 0,1 0,1l-66 0c-7,0 -13,4 -15,11 -3,6 -1,13 5,17 110,85 180,208 219,295 2,5 -2,21 -5,33 -1,3 -2,7 -2,9 -3,12 -13,21 -24,22 -36,4 -100,16 -133,50 -2,0 -4,-1 -6,-1 -12,0 -23,8 -28,19 0,2 1,4 2,5 2,1 4,0 5,-2 4,-9 12,-14 21,-14 13,0 23,10 23,24 0,13 -10,23 -23,23 -2,0 -3,2 -3,4 0,2 1,4 3,4 8,0 14,-3 20,-8 0,0 0,1 1,1l876 0c-9,4 -15,13 -15,23 0,8 3,15 8,20l-47 0c-2,0 -4,1 -4,3 0,2 2,4 4,4l65 0 0 -7c-10,0 -19,-9 -19,-20 0,-10 9,-19 19,-19 11,0 19,9 19,19 0,2 2,4 4,4 2,0 4,-2 4,-4 0,-10 -7,-19 -16,-23l135 0c2,12 13,21 26,21 2,0 3,-2 3,-4 0,-2 -1,-3 -3,-3 -11,0 -19,-9 -19,-19 0,-10 8,-19 19,-19 10,0 18,9 18,19 0,2 2,4 4,4 0,0 0,0 0,0 -3,5 -5,12 -5,20 0,2 1,3 3,3 2,0 4,-1 4,-3 0,-18 14,-32 31,-32 18,0 32,14 32,32 0,17 -14,31 -32,31l-143 0c-2,0 -4,2 -4,4 0,2 2,4 4,4l143 0c22,0 39,-18 39,-39 0,-7 -2,-14 -5,-19l162 0c2,0 4,-2 4,-4 0,-2 -2,-4 -4,-4l-167 0c0,0 0,0 0,0 -7,-7 -17,-12 -29,-12 -12,0 -23,6 -30,14 0,-14 -11,-25 -25,-25 -14,0 -25,10 -26,23l-1028 0c3,-5 5,-10 5,-16 0,-13 -7,-23 -18,-28 33,-31 93,-42 126,-46 15,-1 28,-12 31,-27 0,-3 1,-6 2,-9 3,-15 6,-26 5,-33l1505 0c2,0 4,-1 4,-3 0,-2 -2,-4 -4,-4l-1507 0c-39,-88 -109,-210 -220,-295 -3,-3 -3,-7 -3,-10 1,-3 4,-6 9,-6l292 0c5,0 9,1 13,3l236 99c1,1 2,1 4,2 0,0 1,1 2,1l1 0c3,0 6,1 9,1l1430 0c0,0 0,0 0,0l140 0c0,0 0,0 0,0l1 0c2,0 4,-2 4,-4 0,-2 -2,-4 -4,-4z"/>
   <path class="fil0" d="M441 3329l-234 0c-21,0 -38,-18 -38,-40 0,-22 17,-40 38,-40 21,0 38,18 38,40 0,2 2,4 4,4 2,0 4,-2 4,-4 0,-26 -21,-47 -46,-47 -10,0 -19,3 -26,9 0,-2 0,-3 0,-4 0,-21 -17,-37 -37,-37 -21,0 -37,16 -37,37 0,12 5,23 15,30 1,1 4,1 5,-1 1,-2 1,-4 -1,-5 -8,-6 -12,-15 -12,-24 0,-17 13,-30 30,-30 16,0 30,13 30,30 0,12 -8,23 -19,27 -1,1 -2,3 -2,5 1,1 2,2 4,2 0,0 1,0 1,0 2,-1 3,-1 5,-2 -1,3 -1,6 -1,10 0,26 20,47 45,47l234 0c2,0 4,-2 4,-4 0,-2 -2,-3 -4,-3z"/>
   <path class="fil0" d="M344 3300c2,0 4,-2 4,-4 0,-2 -2,-4 -4,-4l-59 0c-2,0 -4,2 -4,4 0,2 2,4 4,4l59 0z"/>
   <path class="fil0" d="M492 3304l-144 0c-2,0 -3,2 -3,4 0,2 1,3 3,3l144 0c2,0 4,-1 4,-3 0,-2 -2,-4 -4,-4z"/>
   <path class="fil0" d="M51 3289l78 0c2,0 4,-2 4,-4 0,-2 -2,-3 -4,-3l-78 0c-3,0 -4,1 -4,3 0,2 1,4 4,4z"/>
   <path class="fil0" d="M142 3294l-68 0c-2,0 -4,1 -4,3 0,2 2,4 4,4l68 0c2,0 3,-2 3,-4 0,-2 -1,-3 -3,-3z"/>
   <path class="fil0" d="M101 3308l-97 0c-2,0 -4,1 -4,3 0,2 2,4 4,4l97 0c2,0 4,-2 4,-4 0,-2 -2,-3 -4,-3z"/>
   <path class="fil0" d="M1120 3301c0,-2 -1,-4 -3,-4l-303 0c-2,0 -3,2 -3,4 0,2 1,4 3,4l303 0c2,0 3,-2 3,-4z"/>
   <path class="fil0" d="M1229 3305l90 0c2,0 4,-2 4,-4 0,-2 -2,-4 -4,-4l-90 0c-2,0 -3,2 -3,4 0,2 1,4 3,4z"/>
   <path class="fil0" d="M1121 3344l-84 0c-2,0 -3,1 -3,3 0,2 1,4 3,4l84 0c2,0 4,-2 4,-4 0,-2 -2,-3 -4,-3z"/>
   <path class="fil0" d="M1219 3325c-10,0 -18,8 -18,18 0,10 8,18 18,18 2,0 4,-2 4,-4 0,-2 -2,-3 -4,-3 -6,0 -11,-5 -11,-11 0,-5 5,-10 11,-10 6,0 11,5 11,10 0,2 1,4 3,4 2,0 4,-2 4,-4 0,-10 -8,-18 -18,-18z"/>
   <path class="fil0" d="M1409 3320c-2,0 -3,2 -3,4 0,2 1,4 3,4 13,0 22,-10 22,-22 0,-12 -9,-22 -22,-22 -2,0 -3,1 -3,3 0,2 1,4 3,4 9,0 15,7 15,15 0,8 -6,14 -15,14z"/>
   <path class="fil0" d="M1229 3321l151 0c2,0 4,-1 4,-4 0,-2 -2,-3 -4,-3l-151 0c-2,0 -3,1 -3,3 0,3 1,4 3,4z"/>
   <path class="fil0" d="M1553 2220c-2,-6 -6,-11 -10,-16l-1 -2 -123 0 -1 2c-4,5 -7,10 -9,16l-3 5 149 0 -2 -5z"/>
   <path class="fil0" d="M1455 2327c8,3 17,4 26,4 9,0 17,-1 26,-4l20 -7 -93 0 21 7z"/>
   <path class="fil0" d="M1560 2251c0,-6 -1,-11 -2,-17l-1 -2 -153 0 0 2c-1,6 -2,11 -2,17l0 3 158 0 0 -3z"/>
   <path class="fil0" d="M1403 2265c1,6 2,11 4,16l1 3 145 0 1 -3c2,-5 4,-10 5,-16l1 -4 -158 0 1 4z"/>
   <path class="fil0" d="M1415 2296c4,6 9,11 14,16l1 1 101 0 1 -1c6,-5 11,-10 15,-16l3 -6 -139 0 4 6z"/>
   <path class="fil0" d="M1529 2189c-14,-10 -31,-16 -48,-16 -18,0 -34,6 -48,16l-9 7 113 0 -8 -7z"/>
   <path class="fil0" d="M639 2952c26,0 15,16 12,34 -2,9 -5,17 -9,23 -5,6 -10,10 -18,10l-42 0c-15,0 -24,-16 -27,-33 -1,-10 -4,-18 -4,-24 0,-6 3,-10 16,-10l72 0z"/>
   <path class="fil0" d="M902 2968c29,0 52,24 52,53 0,28 -23,52 -52,52 -29,0 -52,-24 -52,-52 0,-29 23,-53 52,-53z"/>
   <path class="fil0" d="M567 2956c-13,0 -13,4 -13,6 0,2 1,6 2,9 1,5 2,9 3,14 1,7 6,30 23,30l42 0c6,0 11,-3 15,-8 4,-5 7,-13 8,-22 1,-4 2,-8 3,-12 2,-6 3,-12 1,-14 -1,-2 -5,-3 -12,-3l-72 0zm57 66l-42 0c-15,0 -26,-13 -31,-36 0,-5 -1,-9 -2,-13 -1,-4 -2,-8 -2,-11 0,-12 11,-13 20,-13l72 0c9,0 15,2 18,5 4,6 2,13 0,21 -1,4 -2,7 -2,11 -2,11 -6,19 -10,25 -6,8 -13,11 -21,11z"/>
   <path class="fil0" d="M902 2972c-27,0 -48,22 -48,49 0,26 21,48 48,48 27,0 49,-22 49,-48 0,-27 -22,-49 -49,-49zm0 104c-31,0 -56,-25 -56,-55 0,-31 25,-56 56,-56 31,0 56,25 56,56 0,30 -25,55 -56,55z"/>
   <path class="fil0" d="M1605 2463l0 23 -250 0 0 -23c0,-5 4,-9 9,-9l232 0c5,0 9,4 9,9z"/>
   <polygon class="fil0" points="1605,2512 1605,2539 1355,2539 1355,2512 "/>
   <polygon class="fil0" points="1605,2565 1605,2591 1355,2591 1355,2565 "/>
   <path class="fil0" d="M1359 2588l0 -20 242 0 0 20 -242 0zm0 -79l0 -19 242 0 0 19 -242 0zm242 33l0 19 -242 0 0 -19 242 0zm-242 -7l0 -19 242 0 0 19 -242 0zm5 -77l232 0c3,0 5,2 5,5l0 19 -242 0 0 -19c0,-3 2,-5 5,-5zm232 -7l-232 0c-7,0 -12,5 -12,12l0 153 7 0 0 -21 242 0 0 23 8 0 0 -155c0,-7 -6,-12 -13,-12z"/>
   <path class="fil0" d="M1284 3689l-50 -49 3 -23c1,-2 1,-3 2,-5l39 39 6 38z"/>
   <polygon class="fil0" points="1232,3657 1287,3712 1288,3723 1288,3726 1268,3726 1228,3685 "/>
   <path class="fil0" d="M1981 3473c-2,0 -4,2 -5,4 -1,-2 -3,-2 -5,-2 -4,0 -6,1 -6,4l0 60c0,3 2,6 6,6 2,0 4,-2 5,-4 1,2 3,4 5,4 4,0 6,-3 6,-6l0 -60c0,-3 -2,-6 -6,-6z"/>
   <path class="fil0" d="M1981 3043c-2,0 -4,1 -5,3l0 0c0,-4 -2,-6 -5,-6 -4,0 -6,2 -6,6l0 23c0,3 2,3 6,3 2,0 4,1 5,-1 0,2 3,1 5,1 4,0 6,1 6,-2l0 -21c0,-4 -2,-6 -6,-6z"/>
   <path class="fil0" d="M1981 3097c-2,0 -4,-2 -5,1 -1,-3 -3,-2 -5,-2 -4,0 -6,0 -6,3l0 355c0,3 2,2 6,2 3,0 5,1 5,-2l0 0c1,1 3,-1 5,-1 4,0 6,1 6,-2l0 -351c0,-3 -2,-3 -6,-3z"/>
   <path class="fil0" d="M1781 3673c9,-19 29,-84 34,-98 6,-14 22,-26 42,-31 7,-2 14,-3 21,-3l103 0c4,0 6,3 6,6 0,4 -2,6 -6,6l-96 0c-27,0 -51,15 -59,32 -5,13 -23,67 -31,87 -1,3 -2,5 -2,6 -1,2 -4,4 -6,4 -5,0 -8,-5 -6,-9z"/>
   <path class="fil0" d="M1716 3572l1 0 0 0c-5,2 -6,4 -6,8 0,4 1,8 1,12 0,12 10,22 21,22l22 0c5,0 11,-3 14,-7 4,-3 7,-9 7,-15 0,-1 0,-3 0,-4l0 -1c6,1 12,-1 16,-5l40 -43c3,-2 4,-5 5,-8l0 -1 5 -2c5,-2 8,-6 8,-11l0 0 3 -1 0 0 4 27 0 1c-20,5 -36,17 -42,31 -5,14 -25,79 -34,98l-189 0c-7,0 -13,-3 -17,-7 -5,-5 -8,-11 -8,-18l0 -53c0,0 -3,-17 -22,-17l-52 0c-4,0 -7,-1 -10,-4 -2,-3 -3,-6 -2,-10l8 -60c1,-6 6,-10 13,-10l92 0 13 -247 32 0c-8,0 -14,7 -14,15l0 244c0,9 7,17 16,18l45 7c9,1 16,9 16,18l0 5c0,8 5,16 14,18z"/>
   <path class="fil0" d="M1809 3233c3,0 7,3 7,7 0,4 -4,7 -7,7l-202 0c-3,0 -7,-3 -7,-7 0,-4 4,-7 7,-7l202 0z"/>
   <path class="fil0" d="M1800 3259c-1,-7 -7,-12 -14,-12l23 0 4 1 38 257 -4 2 -1 1c-3,-3 -7,-4 -11,-3l0 -1 -35 -245z"/>
   <path class="fil0" d="M1796 3418c5,0 8,-5 8,-10l-19 -136c-1,-6 -6,-10 -12,-10l-118 0c-6,0 -11,5 -11,12l0 136c0,4 3,8 8,8l144 0zm41 113c-1,3 -2,6 -5,8l-40 43c-4,4 -10,6 -16,5 -1,0 -1,0 -2,0l-57 -15 -1 0c-9,-2 -14,-10 -14,-18l0 -5c0,-9 -7,-17 -16,-18l-45 -7c-9,-1 -16,-9 -16,-18l0 -244c0,-8 6,-15 14,-15l147 0c7,0 13,5 14,12l35 245 0 1c-1,0 -1,0 -2,0l-11 4c-5,2 -8,7 -8,12 0,1 0,3 0,4 3,7 10,10 16,8l7 -3 0 1z"/>
   <path class="fil0" d="M2363 3401l-286 0c-3,0 -6,-2 -6,-6l0 -238c0,-4 -2,-6 -6,-6l-10 0c-3,0 -6,2 -6,6l0 257c0,3 3,6 6,6l254 0 54 -2 0 -17z"/>
   <path class="fil0" d="M2023 2989l0 51c0,8 -8,15 -17,13l-48 -11 -9 -2c-6,-1 -11,-6 -11,-13l0 -38c0,-8 6,-14 14,-14l57 0c7,0 13,5 14,11 0,1 0,2 0,3z"/>
   <path class="fil0" d="M1292 3739l-73 0c-3,0 -5,-2 -5,-5 0,-2 2,-5 5,-5l73 0c3,0 5,3 5,5 0,3 -2,5 -5,5zm-51 -121c1,-4 2,-7 5,-9 3,-2 6,-4 9,-4 8,0 14,6 15,13l15 104 -59 0 15 -104zm51 104l0 0 -15 -105c-2,-11 -11,-19 -22,-19 -5,0 -10,2 -14,6 -4,3 -6,8 -7,13l-15 105 0 0c-7,0 -12,5 -12,12 0,7 5,12 12,12l73 0c7,0 12,-5 12,-12 0,-7 -5,-12 -12,-12z"/>
   <path class="fil0" d="M1928 3650c0,4 3,6 6,6 4,0 7,-2 7,-6 0,-4 -3,-6 -7,-6 -3,0 -6,2 -6,6z"/>
   <path class="fil0" d="M1922 3664c-2,3 -2,7 0,10 3,2 7,2 9,0 3,-3 3,-7 0,-10 -2,-2 -6,-2 -9,0z"/>
   <path class="fil0" d="M1931 3636c2,-3 2,-7 0,-9 -3,-3 -7,-3 -9,0 -3,2 -3,6 0,9 2,2 6,2 9,0z"/>
   <path class="fil0" d="M1907 3630c4,0 7,-3 7,-6 0,-4 -3,-7 -7,-7 -3,0 -6,3 -6,7 0,3 3,6 6,6z"/>
   <path class="fil0" d="M1908 3671c-4,0 -6,3 -6,6 0,4 2,6 6,6 4,0 6,-2 6,-6 0,-3 -2,-6 -6,-6z"/>
   <path class="fil0" d="M1884 3665c-2,2 -2,6 0,9 3,2 7,2 10,0 2,-3 2,-7 0,-9 -3,-3 -7,-3 -10,0z"/>
   <path class="fil0" d="M1893 3636c3,-2 3,-6 0,-9 -2,-2 -6,-2 -9,0 -2,3 -2,7 0,9 3,3 7,3 9,0z"/>
   <path class="fil0" d="M1887 3651c0,-4 -2,-7 -6,-7 -4,0 -6,3 -6,7 0,3 2,6 6,6 4,0 6,-3 6,-6z"/>
   <path class="fil0" d="M1504 3662c0,4 2,6 5,6 3,0 6,-2 6,-6 0,-3 -3,-5 -6,-5 -3,0 -5,2 -5,5z"/>
   <path class="fil0" d="M1499 3675c-2,2 -2,5 0,8 2,2 5,2 8,0 2,-3 2,-6 0,-8 -3,-2 -6,-2 -8,0z"/>
   <path class="fil0" d="M1506 3650c2,-2 2,-5 0,-7 -2,-3 -5,-3 -7,0 -3,2 -3,5 0,7 2,2 5,2 7,0z"/>
   <path class="fil0" d="M1487 3680c-3,0 -6,3 -6,6 0,3 3,5 6,5 3,0 5,-2 5,-5 0,-3 -2,-6 -5,-6z"/>
   <path class="fil0" d="M1486 3645c3,0 6,-2 6,-5 0,-3 -3,-6 -6,-6 -3,0 -5,3 -5,6 0,3 2,5 5,5z"/>
   <path class="fil0" d="M1467 3675c-2,2 -2,6 0,8 2,2 5,2 7,0 3,-2 3,-6 0,-8 -2,-2 -5,-2 -7,0z"/>
   <path class="fil0" d="M1474 3651c2,-2 2,-6 0,-8 -2,-2 -6,-2 -8,0 -2,2 -2,6 0,8 2,2 6,2 8,0z"/>
   <path class="fil0" d="M1469 3663c0,-3 -2,-5 -5,-5 -3,0 -6,2 -6,5 0,3 3,6 6,6 3,0 5,-3 5,-6z"/>
   <path class="fil0" d="M1806 3436l0 -1c0,-4 -3,-6 -7,-6l-37 0c-4,0 -7,2 -7,6l0 1c0,3 3,6 7,6l37 0c4,0 7,-3 7,-6z"/>
   <path class="fil0" d="M1984 3469c3,0 7,-3 7,-7 0,-4 -4,-7 -7,-7 -4,0 -7,3 -7,7 0,4 3,7 7,7z"/>
   <path class="fil0" d="M1984 3084c0,-3 -3,-6 -7,-6 -4,0 -7,3 -7,6 0,4 3,7 7,7 4,0 7,-3 7,-7z"/>
   <path class="fil0" d="M1829 3513c-4,0 -7,3 -7,7 0,4 3,7 7,7 3,0 6,-3 6,-7 0,-4 -3,-7 -6,-7z"/>
   <path class="fil0" d="M1666 3549l0 0c-5,0 -8,3 -8,8l0 19c0,4 3,8 8,8l0 0c5,0 8,-4 8,-8l0 -19c0,-5 -3,-8 -8,-8z"/>
   <path class="fil0" d="M1640 3549l-1 0c-4,0 -8,3 -8,8l0 19c0,4 4,8 8,8l1 0c4,0 8,-4 8,-8l0 -19c0,-5 -4,-8 -8,-8z"/>
   <path class="fil0" d="M1613 3549l-1 0c-4,0 -7,3 -7,8l0 19c0,4 3,8 7,8l1 0c4,0 8,-4 8,-8l0 -19c0,-5 -4,-8 -8,-8z"/>
   <path class="fil0" d="M1587 3549l-1 0c-5,0 -8,3 -8,8l0 19c0,4 3,8 8,8l1 0c4,0 7,-4 7,-8l0 -19c0,-5 -3,-8 -7,-8z"/>
   <path class="fil0" d="M1577 3663c-4,-4 -7,-9 -7,-15l0 -54c-1,-6 -8,-19 -25,-19l-52 0c-3,0 -5,-2 -7,-4 -1,-1 -2,-4 -2,-6l9 -60c1,-4 4,-8 9,-8l96 0 13 -246 14 0c-2,3 -4,7 -4,11l0 244c0,11 8,20 19,22l45 6c8,1 13,7 13,15l0 5c0,8 5,15 12,19 -2,2 -2,4 -2,7 0,2 0,4 0,6 0,2 1,4 1,6 0,14 11,25 24,25l22 0c6,0 12,-2 17,-7 5,-5 7,-11 7,-18 0,0 0,0 0,-1 6,0 12,-2 16,-7l40 -42c2,-3 4,-6 5,-9l3 -1c3,-1 6,-4 8,-7l2 17c-19,5 -35,18 -41,32 -2,6 -7,20 -13,37 -7,22 -15,46 -20,58l-187 0c-6,0 -11,-2 -15,-6zm-14 6l1 -9 -6 -2 -1 -8 5 -2 -6 -19 -5 1 -4 -7 3 -5 -13 -15 -5 3 -6 -4 1 -6 -18 -8 -3 5 -8 -2 -1 -5 -12 0 1 -6c2,1 4,2 7,2l52 0c15,0 18,13 18,13l0 53c0,8 3,15 9,21 0,0 1,0 1,0l-10 0zm-41 -7c0,19 -16,35 -35,35 -20,0 -35,-16 -35,-35 0,-20 15,-35 35,-35 19,0 35,15 35,35zm85 -425l202 0c1,0 3,1 3,3 0,2 -2,4 -3,4l-202 0c-1,0 -3,-2 -3,-4 0,-2 2,-3 3,-3zm239 266c-3,-1 -5,-2 -8,-2l-34 -242c-1,-3 -2,-6 -3,-8l8 0c0,0 0,0 0,0l38 252 -1 0zm115 -430l18 0c6,0 11,5 11,11 0,6 -5,11 -11,11l-18 0 0 -22zm5 393c0,0 0,-1 0,-1 1,-3 3,-6 6,-7l11 -4 0 0c5,-2 10,0 11,5 1,1 1,2 1,3 0,4 -2,7 -6,8l-11 4c-2,1 -4,1 -6,0 -1,0 -3,-1 -4,-2 0,-1 -1,-2 -1,-3 -1,-1 -1,-2 -1,-3zm40 -409c1,0 2,0 3,0 4,0 8,-1 11,-4 4,-3 6,-8 6,-13l0 -48c3,3 5,6 5,10l0 653c0,8 -6,14 -14,14l-22 0 3 -21 -7 -2 -1 -11 6 -3 -7 -21 -6 1 -5 -9 3 -5 -14 -16 -6 3 -8 -6 1 -7 -20 -9 -4 6 -10 -2 -1 -7 -22 0 -1 7 -10 2 -4 -6 -3 2c-6,3 -7,3 -11,5l-6 2 1 7 -8 6 -6 -3 -14 16 3 5 -5 9 -6 -1 -7 21 6 3 -1 11 -7 2 3 21 -21 0c4,-11 10,-27 16,-43 6,-17 11,-34 14,-40 7,-16 30,-29 55,-29l96 0c6,0 10,-4 10,-10 0,-5 -4,-9 -10,-9l-20 0 0 -58 4 -1c1,1 3,2 5,2 2,1 3,1 5,1 2,0 3,0 5,-1l12 -4c6,-2 10,-8 10,-15 0,-2 0,-4 -1,-6 -3,-8 -12,-12 -20,-9l-12 4c-3,1 -6,4 -8,7l0 -355 18 0c10,0 18,-9 18,-19 0,-10 -8,-18 -18,-18l-18 0 0 -19 45 10zm-64 -30l0 -38c0,-6 4,-10 10,-10l57 0c5,0 9,3 10,8l0 0c0,0 0,1 0,2l0 51c0,3 -1,6 -3,8 -3,1 -6,2 -9,2l-57 -13c-5,-1 -8,-5 -8,-10zm8 622c0,23 -19,42 -42,42 -23,0 -42,-19 -42,-42 0,-23 19,-42 42,-42 23,0 42,19 42,42zm4 -166l0 55 -76 0c-6,0 -12,1 -18,2l-3 -22 97 -35zm5 -14l0 0c0,1 1,2 1,3 0,0 0,0 0,1l-107 39c-1,0 -1,0 -1,-1 0,-1 0,-1 -1,-2l108 -40zm-119 56l-11 4c-2,1 -5,1 -7,0 -2,-1 -3,-3 -4,-5 -1,-1 -1,-2 -1,-3 0,-4 2,-7 6,-8l11 -4c1,0 1,-1 1,-1 1,0 2,0 2,0 3,0 5,1 6,2 1,1 2,3 2,4 1,1 1,2 1,3l0 0c0,3 -2,7 -6,8zm-63 59c-1,0 -1,0 -2,0l-57 -15 -2 -1c-6,-1 -11,-7 -11,-14l0 -5c0,-11 -7,-20 -18,-22l-46 -7c-7,-1 -12,-7 -12,-14l0 -244c0,-6 4,-11 10,-11l147 0c5,0 10,4 11,9l34 242 -11 4c-6,2 -10,8 -10,15 0,2 0,4 1,5 2,7 8,11 15,11 1,0 3,0 4,-1 0,0 0,1 0,1l-40 42c-4,4 -9,6 -13,5zm15 87c-1,2 -2,4 -3,5 0,1 -1,2 -2,2 -1,0 -2,-1 -2,-1 -1,-1 -1,-2 -1,-3 6,-11 14,-37 22,-61 5,-16 10,-31 13,-36 5,-13 21,-25 39,-29 7,-2 14,-3 20,-3l103 0c2,0 3,1 3,2 0,2 -1,3 -3,3l-96 0c-27,0 -54,14 -62,33 -3,7 -8,23 -14,40 -7,19 -13,38 -17,48zm-14 10c2,3 5,4 9,4 4,0 7,-2 9,-5 0,-1 1,-2 1,-4l32 0 1 4 -4 4 11 19 6 -2 6 8 -2 6 18 13 4 -5 10 4 0 7 21 4 3 -5 10 0 3 5 21 -4 0 -7 10 -4 4 5 4 -3c5,-4 5,-4 10,-7l4 -3 -2 -6 6 -8 6 2 12 -19 -5 -4 1 -4 30 0c12,0 21,-9 21,-21l0 -254 7 0 0 13c0,5 5,10 10,10l254 0 54 -3 -1 -7 -53 2 -254 0c-1,0 -2,-1 -2,-2l0 -257c0,-2 1,-3 2,-3l10 0c2,0 3,1 3,3l0 238c0,6 4,10 9,10l286 0 0 -7 -286 0c-1,0 -2,-1 -2,-3l0 -238c0,-6 -4,-10 -10,-10l-10 0c-5,0 -10,4 -10,10l0 142 -7 0 0 -297c0,-8 -5,-16 -13,-19l0 0c-2,-7 -8,-11 -16,-11l-57 0c-10,0 -17,7 -17,17l0 38c0,8 5,15 13,17l6 1 0 418 -100 37 -27 -184c4,7 10,15 16,14 9,-1 15,-9 13,-18l-5 -31c-1,-9 -10,-15 -18,-13 -6,1 -9,10 -11,17l-6 -38c2,-1 3,-4 3,-7 0,-6 -5,-11 -10,-11l-202 0c-5,0 -10,5 -10,11 0,5 3,9 7,10l-13 240 -89 0c-8,0 -15,6 -16,14l-9 60c0,3 0,7 2,10l-2 12 0 0 -1 5 -8 2 -3 -5 -18 8 1 6 -7 4 -4 -3 -13 15 3 5 -4 7 -6 -1 -6 19 5 2 -1 8 -5 2 2 20 5 0 1 0c0,3 1,5 2,8l-4 3 10 17 5 -1 5 6 -1 2 -1 3 16 11 4 -3 7 3 0 5 20 4 2 -5 8 0 2 5 19 -4 0 -5 8 -3 4 3 15 -11 -2 -5 6 -6 5 1 10 -17 -4 -3 2 -8 6 0 0 -4 215 0c0,2 1,3 1,5z"/>
   <path class="fil0" d="M1647 3410l0 -136c0,-5 4,-8 8,-8l118 0c4,0 7,2 8,6l19 137c0,1 0,3 -1,4 -1,1 -2,1 -3,1l-144 0c-3,0 -5,-2 -5,-4zm158 7c2,-2 3,-6 2,-9l-19 -137c-1,-7 -7,-13 -15,-13l-118 0c-8,0 -15,7 -15,16l0 136c0,6 5,11 12,11l144 0c3,0 6,-1 9,-4z"/>
   <path class="fil0" d="M1487 3648c-8,0 -14,6 -14,14 0,7 6,13 14,13 7,0 13,-6 13,-13 0,-8 -6,-14 -13,-14z"/>
   <path class="fil0" d="M1908 3634c-8,0 -15,7 -15,15 0,8 7,15 15,15 8,0 15,-7 15,-15 0,-8 -7,-15 -15,-15z"/>
   <path class="fil0" d="M2105 3394l257 0 0 -7 -257 0c-9,0 -17,-8 -17,-18l0 -286c0,-9 8,-17 17,-17l258 0 0 -8 -258 0c-14,0 -25,12 -25,25l0 286c0,14 11,25 25,25z"/>
   <polygon class="fil0" points="1644,3746 2398,3746 2398,3739 1644,3739 "/>
   <polygon class="fil0" points="1327,3746 1575,3746 1575,3739 1327,3739 "/>
   <path class="fil0" d="M3413 3606c0,13 -11,24 -24,24l-379 0c-13,0 -24,-11 -24,-24l0 -6c0,-13 11,-24 24,-24l379 0c13,0 24,11 24,24l0 6zm429 -10l-34 34 0 9 -15 0 0 -111 -4 0 0 -54 -1238 0c-58,0 -106,-48 -106,-106l0 -2924c0,-58 48,-106 106,-106l1291 0c59,0 106,48 106,106l0 2571 81 0 0 -4 0 -2571c0,-101 -82,-182 -183,-182l-1298 0c-101,0 -183,81 -183,182l0 3117c0,101 82,183 183,183l1298 0c87,0 160,-61 178,-144l-182 0z"/>
   <path class="fil0" d="M2445 2797l435 -262c17,35 35,71 53,107l-488 292 0 9 498 -298 -2 -3c-19,-39 -38,-76 -57,-114l-1 -3 -438 263 0 9z"/>
   <path class="fil0" d="M3548 838l-37 189 -166 -27c5,-11 9,-23 11,-36l24 -168 168 42zm-200 125c-1,14 -6,26 -12,39l-2 4 183 30 39 -203 -183 -46 -25 176z"/>
   <path class="fil0" d="M3620 1282l42 -196 126 3 -50 220 -118 -27zm177 -200l-141 -3 -45 208 132 30 54 -235z"/>
   <path class="fil0" d="M3628 1046l-82 -13 36 -186 84 21 -38 178zm-52 -208l-39 201 96 16 42 -193 -99 -24z"/>
   <path class="fil0" d="M3509 1596l-156 -37 107 -61 51 87 -2 11zm10 -12l-56 -95 -130 73 181 43 5 -21z"/>
   <path class="fil0" d="M3500 1497l29 7 -7 30 -22 -37zm37 1l-52 -12 40 68 12 -56z"/>
   <path class="fil0" d="M3577 1478l35 -162 118 27 -36 162 -117 -27zm162 -140l-132 -30 -38 176 130 30 40 -176z"/>
   <path class="fil0" d="M2835 2991l42 80 -265 159 -44 -78 267 -161zm51 83l-48 -93 -280 168 51 91 277 -166z"/>
   <polygon class="fil0" points="3948,1563 3864,1544 3900,1382 3948,1393 3948,1385 3895,1373 3856,1549 3948,1571 "/>
   <path class="fil0" d="M3236 1477l54 89c-2,3 -3,6 -4,9l-33 105 -137 -33 -45 -77 165 -93zm21 212l36 -112c1,-4 2,-7 4,-10l1 -2 -60 -98 -177 100 50 86 146 36z"/>
   <polygon class="fil0" points="2609,3476 2608,3475 2685,3429 2712,3476 2720,3476 2688,3419 2598,3472 2601,3476 "/>
   <path class="fil0" d="M3490 1459c-4,-1 -8,-2 -13,-2 0,0 0,0 0,0l-13 -21 4 1 28 -147 75 17 -35 162 -46 -10zm90 -157l-90 -21 -28 147 -12 -2 22 39 3 -1c4,0 9,1 14,2l53 12 38 -176z"/>
   <path class="fil0" d="M2461 2966l276 -165 82 158 -269 162 -89 -155zm278 -175l-284 170 -3 2 95 168 281 -169 -89 -171z"/>
   <path class="fil0" d="M2848 3446l-43 -88 45 -27 46 87 -48 28zm-53 -91l49 101 62 -35 -53 -101 -58 35z"/>
   <path class="fil0" d="M2930 3283l46 90 -49 28 -46 -88 49 -30zm56 93l-53 -103 -62 37 53 101 62 -35z"/>
   <path class="fil0" d="M2667 866l-34 -56 140 -83 32 55 -138 84zm-44 -58l41 68 151 -92 -39 -67 -153 91z"/>
   <path class="fil0" d="M3166 998l42 71 -313 197 -45 -78 316 -190zm51 74l-49 -84 -328 198 52 90 325 -204z"/>
   <path class="fil0" d="M3089 867l59 101 -316 190 -58 -102c117,-71 223,-134 315,-189zm69 103l-67 -113 -3 2c-93,56 -201,121 -321,193l-3 2 66 114 328 -198z"/>
   <path class="fil0" d="M2824 812l65 109c-45,27 -92,55 -139,84l-65 -108 139 -85zm-74 201c50,-30 99,-59 146,-88l3 -1 -73 -122 -151 92 72 121 3 -2z"/>
   <path class="fil0" d="M2836 763l-33 -54 145 -85 30 53 -142 86zm-43 -56l40 66 155 -94 -38 -65 -157 93z"/>
   <path class="fil0" d="M3091 801l-65 -112 143 -87 70 112c-45,26 -95,55 -148,87zm-75 -115l72 125 3 -2c56,-33 109,-64 155,-91l4 -2 -79 -124 -155 94z"/>
   <path class="fil0" d="M3321 959l0 0c-1,4 -2,8 -3,12l-96 -182c49,-29 94,-55 134,-77l-35 247zm-105 -175l-3 2 107 203 2 -7c3,-7 5,-14 6,-22l0 0 37 -262 -6 4c-42,24 -90,51 -143,82z"/>
   <path class="fil0" d="M2789 2353c24,49 49,99 75,150l-419 252 0 9 425 -256 3 -2 -1 -3c-27,-53 -53,-106 -79,-157l-1 -3 -347 205 0 8 344 -203z"/>
   <polygon class="fil0" points="3948,1357 3908,1347 3948,1163 3948,1130 3899,1353 3948,1364 "/>
   <path class="fil0" d="M2919 903l-65 -109 142 -87 64 112c-45,27 -92,55 -141,84zm-75 -112l73 122 3 -2c51,-31 100,-60 147,-88l3 -2 -72 -124 -154 94z"/>
   <path class="fil0" d="M3948 2349c-88,-25 -180,-46 -274,-61l79 -152 188 67c2,1 5,2 7,3l0 -7c-1,-1 -3,-2 -5,-2l-193 -70 -87 167 5 0c96,16 190,37 280,63l0 -8z"/>
   <path class="fil0" d="M3512 1780l207 50c3,1 6,2 9,3l-101 220 -161 -58 46 -215zm119 282l107 -234 -4 -1c-5,-1 -9,-3 -13,-4l-214 -52 -50 228 174 63z"/>
   <path class="fil0" d="M3504 1062l-14 72 -109 -27c-13,-3 -26,-4 -39,-4 -23,0 -45,4 -66,13l-21 -35 39 -24c11,-7 21,-15 29,-24l181 29zm-185 -36c-8,10 -18,18 -29,24l-45 28 28 47 4 -2c32,-14 68,-17 102,-9l117 29 17 -87 -192 -31 -2 1z"/>
   <polygon class="fil0" points="3948,2169 3770,2104 3870,1913 3948,1960 3948,1951 3871,1905 3867,1903 3760,2108 3948,2176 "/>
   <path class="fil0" d="M3316 3476l25 -14 7 14 8 0 -10 -20 -2 -4 -3 2c-13,7 -26,15 -40,22l15 0z"/>
   <path class="fil0" d="M3068 3476l-12 -23 226 -110 34 69c-37,20 -76,41 -118,64l16 0c38,-21 75,-41 108,-59l3 -2 -40 -81 -239 115 13 27 9 0z"/>
   <path class="fil0" d="M3148 1486l-76 -127 67 -40 78 128 -69 39zm-86 -130l83 140 82 -47 -85 -140 -80 47z"/>
   <path class="fil0" d="M3299 1225l78 132 -129 72 -78 -128 129 -76zm88 134l-85 -144 -142 84 85 140 142 -80z"/>
   <path class="fil0" d="M3539 1068l81 13 -41 191 -76 -17 36 -187zm45 213l45 -206 -96 -16 -39 202 90 20z"/>
   <path class="fil0" d="M2775 3376l43 90c2,4 5,7 8,10l18 0c-2,0 -4,0 -6,-1 -5,-2 -10,-6 -13,-12l-47 -98 -73 43 39 68 8 0 -37 -65 60 -35zm91 100l126 -71 13 25 -94 46 16 0 88 -42 -20 -39 -139 78c-3,2 -6,3 -10,3l20 0z"/>
   <path class="fil0" d="M2893 3102l64 124 -259 154 -69 -120 264 -158zm-274 156l76 132 272 -161 -71 -137 -273 164 -4 2z"/>
   <path class="fil0" d="M3948 2757c-58,104 -108,190 -148,258l9 0c38,-65 84,-146 139,-243l0 -15zm-161 279c-32,56 -58,98 -76,127l-124 -73 210 -183c17,-14 30,-31 41,-50l110 -203 0 -15 -117 214c-10,19 -23,35 -39,49l-218 189 139 81 2 -3c17,-27 42,-66 72,-118l0 -15z"/>
   <path class="fil0" d="M3686 3197c-23,20 -131,83 -321,188l-35 -71 223 -195 133 78zm-365 115l41 83 3 -2c205,-113 313,-176 329,-193l3 -5 -145 -85 -231 202z"/>
   <path class="fil0" d="M3501 1631l-22 104 -192 -46 32 -102 182 44zm-187 -52l-1 3c0,0 0,1 0,1l-35 111 206 50 26 -119 -192 -46 -4 0z"/>
   <path class="fil0" d="M3856 1864l-79 -48c-1,0 -2,-1 -2,-1l47 -102c0,0 0,0 1,1l85 52 -52 98zm-33 -159l-5 -2 -53 115 5 3c1,0 2,1 3,1l86 52 58 -111 -90 -56c-2,0 -3,-1 -4,-2z"/>
   <polygon class="fil0" points="3787,3294 3749,3213 3787,3228 3787,3220 3743,3203 3739,3209 3787,3311 "/>
   <path class="fil0" d="M3857 3015l8 0c25,-43 53,-91 83,-144l0 -15c-34,60 -65,113 -91,159zm91 -1088l0 -8 -61 -37 51 -98 10 7 0 -8 -13 -9 -58 110 71 43zm0 -169l0 -28 -5 25 5 3zm-1 -1331c-1,-2 -1,-5 -2,-7 -59,18 -109,34 -154,48l0 -101 20 -26 -10 0 -14 19 -4 -2 0 120 5 -2c46,-14 98,-30 159,-49zm-1402 -86c-7,0 -12,1 -18,2l20 6 44 74 -52 282 -94 55 0 8 101 -58 52 -289 -47 -78 -6 -2zm-100 2653l0 14 137 240 -137 81 0 9 143 -86 3 -2 -146 -256zm957 482l8 0 -20 -41c183,-101 290,-163 327,-191l70 148 0 -17 -67 -142 -4 3c-32,26 -141,89 -332,195l-4 1 2 3 20 41zm385 -278l0 -8 -22 -9c7,-10 14,-22 22,-35l0 -14c-11,19 -21,35 -30,49l-3 4 33 13z"/>
   <polygon class="fil0" points="2445,3371 2494,3341 2569,3476 2577,3476 2497,3331 2445,3362 2445,3370 "/>
   <path class="fil0" d="M3054 1328l-53 -87 66 -41 54 89 -67 39zm-63 -90l60 100 80 -47 -62 -102 -78 49z"/>
   <path class="fil0" d="M3281 1195l-130 76 -55 -90 129 -81 56 95zm-132 86l142 -84 -63 -108 -142 89 63 103z"/>
   <path class="fil0" d="M3041 1376l76 127 -64 36 -73 -126 61 -37zm86 130l-83 -139 -74 43 81 139 76 -43z"/>
   <path class="fil0" d="M2962 1382l-49 -86 58 -37 52 87 -61 36zm-59 -88l57 98 73 -43 -59 -100 -71 45z"/>
   <path class="fil0" d="M3179 3135c28,57 56,114 84,170l-226 110 -76 -150 218 -130zm94 174l-2 -4c-29,-58 -58,-117 -88,-177l-1 -3 -231 137 82 163 240 -116z"/>
   <path class="fil0" d="M2599 3278l68 120 -76 46 -67 -121 75 -45zm78 123l-75 -133 -87 52 73 134 89 -53z"/>
   <path class="fil0" d="M3440 1395l-80 -136 102 23 -22 113zm-95 -147l98 167 27 -138 -125 -29z"/>
   <polygon class="fil0" points="3008,3476 3024,3468 3028,3476 3036,3476 3027,3458 2991,3476 "/>
   <path class="fil0" d="M3515 3097l-205 177c-68,-138 -138,-279 -208,-419l413 242zm-207 189l219 -190 -442 -259 5 11c72,144 145,290 216,434l2 4z"/>
   <path class="fil0" d="M3395 1387l47 81 -127 72 -49 -81 129 -72zm-78 160c0,0 0,0 1,-1l134 -75 -55 -94 -141 80 57 93 4 -3z"/>
   <path class="fil0" d="M3948 1599l-29 133 -78 -49c-2,-1 -4,-2 -7,-4l23 -101 91 21zm0 31l0 -38 -97 -22 -25 113 3 2c3,1 5,3 8,5l87 53 24 -113z"/>
   <path class="fil0" d="M3036 1945c8,-5 15,-10 21,-16l115 5 -105 331c-84,6 -168,16 -245,30 -30,-60 -59,-118 -87,-173l301 -177zm171 -6l211 76 -53 244c-86,-3 -173,-2 -260,3l102 -323zm-389 364l3 -1c80,-14 168,-24 255,-31l19 -1 0 0 5 0c89,-6 180,-7 268,-4l3 0 55 -255 -223 -81 -108 340 -20 -6 107 -337 -128 -6 -1 1c-6,7 -13,12 -21,17l-307 180 2 3c29,57 59,117 90,178l1 3z"/>
   <path class="fil0" d="M3335 1217l-41 -70c25,-10 53,-12 79,-5l111 26 -16 79 -133 -30zm157 -54l-118 -28c-28,-7 -59,-5 -87,7l-4 1 48 81 143 32 18 -93z"/>
   <path class="fil0" d="M3276 1026l-39 24 -118 -201c25,-14 49,-29 73,-42l106 201c-6,7 -14,13 -22,18zm-85 -228c-25,15 -51,31 -79,47l-3 2 126 214 45 -29c9,-5 18,-12 25,-21l2 -2 -112 -212 -4 1z"/>
   <path class="fil0" d="M2615 780l-35 -57 142 -82 33 56 -140 83zm-45 -60l42 70 153 -90 -41 -68 -154 88z"/>
   <path class="fil0" d="M2744 1074l58 102 -133 81 -61 -100c46,-28 91,-56 136,-83zm68 105l-66 -115 -3 2c-47,28 -94,57 -142,87l-3 1 68 113 146 -88z"/>
   <path class="fil0" d="M2835 429l46 80 -147 85 -138 -231 239 66zm56 83l-52 -89 -259 -72 151 252 160 -91z"/>
   <path class="fil0" d="M2930 594l-145 85 -33 -55 147 -84 31 54zm-147 95l157 -93 -39 -66 -159 91 41 68z"/>
   <path class="fil0" d="M2655 915l64 108c-46,28 -93,57 -141,86l-65 -108 142 -86zm-76 202c50,-31 99,-60 147,-90l3 -1 -72 -121 -154 94 73 120 3 -2z"/>
   <path class="fil0" d="M3883 498c21,-6 42,-13 65,-20l0 -8c-28,9 -54,17 -79,25l-12 4 91 24 0 -7 -65 -18z"/>
   <path class="fil0" d="M2637 885l-143 86 -35 -58 144 -85 34 57zm-145 96l154 -94 -41 -69 -156 93 43 70z"/>
   <polygon class="fil0" points="2783,341 2804,376 2675,341 2648,341 2819,388 2792,341 "/>
   <path class="fil0" d="M3322 2445l53 84 -38 23 -52 -85 37 -22zm63 87l-61 -97 -49 30 60 96 50 -29z"/>
   <path class="fil0" d="M2912 491l-29 -49 77 22 -48 27zm-3 10l70 -40 -111 -30 41 70z"/>
   <path class="fil0" d="M3180 554l-22 -35 55 15 -33 20zm-2 10l53 -33 -90 -25 37 58z"/>
   <path class="fil0" d="M3008 658l-30 -52 141 -83 31 49 -142 86zm-40 -54l38 64 154 -94 -39 -61 -153 91z"/>
   <polygon class="fil0" points="2550,740 2584,798 2445,880 2445,889 2594,800 2552,730 2445,792 2445,800 "/>
   <path class="fil0" d="M2618 469l85 142 -124 71 39 -213zm-3 -21l-46 249 144 -83 -98 -166z"/>
   <path class="fil0" d="M3089 499l-129 77 -31 -54 79 -45 81 22zm-170 20l39 67 149 -89 -100 -28 -88 50z"/>
   <path class="fil0" d="M3445 598c-46,25 -105,58 -175,98l-71 -112 60 -37 186 51zm-256 -17l79 125 3 -2c76,-44 138,-79 185,-104l8 -4 -206 -57 -69 42z"/>
   <path class="fil0" d="M3040 2730l-43 -86 164 -100 51 83 -172 103zm-52 -88l49 98 185 -110 -59 -96 -175 108z"/>
   <polygon class="fil0" points="2576,2368 2602,2414 2445,2507 2445,2516 2612,2417 2578,2358 2445,2436 2445,2444 "/>
   <path class="fil0" d="M3948 2566l-147 270c-8,15 -19,28 -31,39l-222 192 -480 -281 0 1 -12 -25 367 -221 -90 -145 -66 41 -80 -129 -275 166c-24,-47 -47,-94 -70,-140 184,-30 637,-80 1106,60l0 -8c-474,-141 -931,-89 -1112,-58l-5 1 2 4c24,48 49,98 74,148l2 3 276 -166 79 129 67 -41 82 133 -367 220 22 43 3 -6 478 280 225 -195c14,-12 25,-26 33,-41l141 -259 0 -15z"/>
   <polygon class="fil0" points="2558,2338 2445,2403 2445,2412 2568,2340 2511,2244 2445,2283 2445,2292 2509,2254 "/>
   <path class="fil0" d="M2686 2150c27,53 55,108 84,165l-137 81 -94 -160 147 -86zm93 168l-1 -3c-30,-59 -59,-117 -87,-172l-2 -3 -160 94 101 172 149 -88z"/>
   <path class="fil0" d="M3188 341l0 0 4 3c22,15 45,28 70,38l120 49 -120 73 -138 -39 -79 -124 -9 0 83 130 144 40 135 -82 -133 -53c-23,-10 -45,-21 -65,-35l-12 0z"/>
   <path class="fil0" d="M3749 341l0 140c-19,6 -36,11 -52,16l-388 -156 -19 0 401 162 -2 5 8 -3c17,-5 36,-11 56,-18l3 -1 0 -145 -7 0z"/>
   <path class="fil0" d="M2598 1976c23,45 47,93 72,143l-149 87 -76 -130 0 14 74 126 161 -95 -1 -3c-27,-52 -52,-102 -76,-149l-2 -3 -156 90 0 8 153 -88z"/>
   <path class="fil0" d="M2820 1207l45 78 -129 81 -49 -79 133 -80zm55 80l-52 -91 -146 88 56 92 142 -89z"/>
   <path class="fil0" d="M2724 1415l141 230 -289 164c-48,-94 -88,-170 -118,-227l266 -167zm-274 168c31,58 72,136 121,232l2 4 302 -171 -148 -243 -279 175 2 3z"/>
   <path class="fil0" d="M3242 2609l-51 -84 64 -39 52 84 -65 39zm-61 -86l58 96 78 -47 -59 -96 -77 47z"/>
   <polygon class="fil0" points="3783,529 3808,522 3948,560 3948,552 3808,514 3807,514 3776,524 3737,703 3948,770 3948,763 3746,698 "/>
   <path class="fil0" d="M2582 1944l-137 80 0 8 147 -85 -2 -3c-17,-34 -34,-67 -50,-98l-2 -4 -93 57 0 8 90 -54c15,29 31,59 47,91z"/>
   <polygon class="fil0" points="3003,341 3073,451 2853,390 2824,341 2816,341 2848,396 3090,463 3012,341 "/>
   <polygon class="fil0" points="3948,902 3715,843 3739,733 3948,800 3948,792 3733,724 3706,849 3948,909 "/>
   <path class="fil0" d="M3218 1906l58 -184 82 20 -48 197 -92 -33zm149 -169l-96 -23 -62 196 107 39 51 -212z"/>
   <path class="fil0" d="M3344 1951l49 -200 78 19 -45 210 -82 -29zm136 -187l-93 -22 -52 214 96 34 49 -226z"/>
   <path class="fil0" d="M3079 1894c0,-2 1,-3 2,-5l44 -203c0,0 0,0 0,0l117 28 -59 185 -104 -5zm172 -185l-133 -33 0 6c0,1 0,2 -1,3l-43 202c-1,3 -2,6 -4,9l-2 5 120 5 63 -197z"/>
   <path class="fil0" d="M2480 1745c12,24 25,49 39,76l-74 45 0 8 84 -50 -2 -3c-15,-29 -29,-57 -43,-83l-1 -3 -38 21 0 9 35 -20z"/>
   <path class="fil0" d="M3660 2065l100 -218 80 48 -104 197 -76 -27zm190 -173l-88 -52c0,0 -1,0 -1,-1l-4 -2 -107 232 90 32 110 -209z"/>
   <path class="fil0" d="M3458 2030l262 94 -83 158c-75,-10 -152,-18 -229,-21l50 -231zm-55 238c80,3 159,11 235,22l3 0 89 -170 -277 -100 -54 247 4 1z"/>
   <path class="fil0" d="M3044 2865l41 81 -178 107 -42 -80 179 -108zm50 84l-47 -95 -191 116 48 93 190 -114z"/>
   <path class="fil0" d="M2884 1675l142 234c-2,2 -5,4 -8,5l-299 176c-47,-93 -90,-177 -127,-250l292 -165zm-300 165c38,75 82,161 130,257l2 3 306 -179c4,-3 8,-5 11,-9l3 -2 -150 -244 -304 171 2 3z"/>
   <path class="fil0" d="M2950 1430l73 126 -127 72 -75 -122 129 -76zm83 129l-81 -139 -141 83 82 135 140 -79z"/>
   <path class="fil0" d="M3100 2978c21,42 42,84 63,125l-176 105 -64 -124 177 -106zm72 128l-1 -3c-22,-44 -44,-88 -66,-132l-2 -3 -190 113 71 137 188 -112z"/>
   <polygon class="fil0" points="2466,2181 2491,2224 2445,2251 2445,2259 2501,2226 2469,2171 2445,2184 2445,2193 "/>
   <path class="fil0" d="M2445 1679c6,11 12,22 18,35l-18 10 0 8 28 -16 -1 -3c-10,-17 -18,-34 -27,-50l0 16z"/>
   <path class="fil0" d="M2914 1658l126 -71 49 84c1,2 2,5 1,8l-43 197 -133 -218zm138 228c1,-2 1,-3 2,-5l43 -201c1,-4 1,-9 -2,-12l-52 -91 -139 78 145 238 3 -7z"/>
   <polygon class="fil0" points="2445,2145 2448,2150 2445,2152 2445,2160 2458,2153 2445,2131 "/>
   <path class="fil0" d="M2445 1256c45,-27 89,-54 133,-81l61 100 -194 117 0 8 204 -123 -69 -112 -3 2c-44,26 -87,53 -132,80l0 9z"/>
   <path class="fil0" d="M2445 1042l38 -22 65 107c-34,21 -68,42 -103,63l0 8c37,-22 74,-45 110,-67l3 -2 -73 -119 -40 24 0 8z"/>
   <polygon class="fil0" points="3670,1051 3707,878 3948,938 3948,931 3702,869 3661,1058 3942,1065 3948,1034 3948,1000 3936,1057 "/>
   <path class="fil0" d="M2932 1400l-129 76 -49 -80 129 -81 49 85zm-132 86l142 -84 -57 -97 -141 89 56 92z"/>
   <path class="fil0" d="M3674 833l-289 -72 10 -71c28,-16 54,-30 76,-42l227 72 -24 113zm-204 -193l-1 1c-23,12 -50,27 -80,43l-1 1 -12 82 303 75 28 -127 -237 -75z"/>
   <path class="fil0" d="M3613 525c-27,9 -48,16 -63,21l0 0c-11,5 -28,12 -50,23l-191 -52 114 -70 190 78zm-322 -6l209 58 2 0c22,-12 39,-20 51,-24l0 0c16,-6 41,-14 72,-25l10 -3 -213 -86 -131 80z"/>
   <path class="fil0" d="M3175 2356l62 100 -256 157c-18,-36 -35,-72 -53,-107l247 -150zm-198 263l1 4 269 -165 -69 -111 -260 156 2 3c19,37 37,75 57,113z"/>
   <path class="fil0" d="M3743 1801c-6,-2 -11,-4 -15,-5l-208 -51 22 -104 247 59 -46 101zm55 -106l-261 -63 -26 119 215 52c5,1 11,3 17,5l3 2 51 -111 1 -4z"/>
   <path class="fil0" d="M3515 625c24,-13 43,-21 55,-26 30,-11 84,-29 166,-55l-30 142 -191 -61zm231 -92l-6 2c-85,27 -142,46 -173,57 -13,5 -35,16 -64,30l-7 4 215 69 35 -162z"/>
   <path class="fil0" d="M3550 1606l20 -93 252 58 -21 96c0,-1 -1,-1 -1,-1l-250 -60zm257 70l24 -111 -267 -61 -23 108 257 61c1,1 2,1 3,1l6 2z"/>
   <polygon class="fil0" points="2657,1305 2706,1385 2445,1549 2445,1557 2716,1387 2659,1295 2445,1424 2445,1433 "/>
   <path class="fil0" d="M3772 1316l52 -226 104 2 -55 247 -101 -23zm165 -231l-119 -2 -54 239 115 26 58 -263z"/>
   <polygon class="fil0" points="2445,958 2464,989 2445,1001 2445,1010 2474,992 2445,944 "/>
   <path class="fil0" d="M3728 1513l37 -162 101 23 -36 162 -102 -23zm146 -145l-115 -26 -40 176 117 27 38 -177z"/>
   <path class="fil0" d="M3028 2833l-179 108 -82 -158 182 -109c26,52 53,105 79,159zm-182 118l192 -115 -2 -3c-27,-56 -55,-111 -82,-166l-2 -4 -195 117 89 171z"/>
   <path class="fil0" d="M3846 3746l-1298 0c-103,0 -187,-84 -187,-187l0 -3116c0,-103 84,-187 187,-187l1298 0c103,0 186,84 186,187l0 2571 -7 0 0 -2571c0,-99 -80,-179 -179,-179l-1298 0c-99,0 -179,80 -179,179l0 3116c0,99 80,180 179,180l1298 0c85,0 159,-61 175,-144l8 1c-18,87 -95,150 -183,150z"/>
   <path class="fil0" d="M3587 867c-54,0 -98,-45 -98,-99 0,-55 44,-99 98,-99 55,0 99,44 99,99 0,54 -44,99 -99,99zm1 -227l-1 0c-72,0 -130,58 -130,129 0,29 9,55 22,75 13,20 108,143 108,143 0,0 95,-123 108,-143 14,-20 22,-46 22,-75 0,-71 -58,-129 -129,-129z"/>
   <path class="fil0" d="M3628 831c0,-4 -1,-11 -2,-18 0,-1 1,-1 1,-1l7 -7c2,-2 2,-5 0,-6l0 0c-2,-2 -5,-2 -7,0l-2 3c-1,-6 -2,-11 -3,-16 1,0 1,0 1,-1l7 -7c2,-1 2,-4 0,-6 -2,-2 -5,-2 -6,0l-3 3c-2,-7 -3,-13 -4,-18 0,0 42,-43 34,-51l-1 -1c-8,-8 -50,34 -50,34 -5,-1 -12,-2 -19,-3l3 -3c2,-2 2,-5 0,-7 -1,-2 -4,-2 -6,0l-7 7c0,0 0,1 0,1 -6,-1 -11,-2 -16,-2l3 -3c2,-2 2,-5 0,-7l0 0c-2,-1 -5,-1 -7,0l-6 7c-1,0 -1,1 -1,1 -8,-1 -14,-2 -18,-2 -2,-1 -5,0 -7,2 -6,6 1,10 1,10l53 27c-7,5 -33,38 -33,38l-21 -3c-1,0 -3,1 -3,2l-2 3c0,2 0,3 1,4l19 10 1 1 11 19c1,2 2,2 3,1l4 -1c1,-1 1,-2 1,-3l-2 -22c0,0 32,-25 38,-32l27 53c0,0 3,7 9,0 2,-1 3,-4 2,-6z"/>
   <path class="fil0" d="M2721 1957c-54,0 -98,-45 -98,-99 0,-55 44,-100 98,-100 55,0 99,45 99,100 0,54 -44,99 -99,99zm1 -228l-1 0c-72,0 -129,58 -129,130 0,29 8,55 22,75 12,19 107,142 107,142 0,0 95,-123 108,-142 14,-20 22,-46 22,-75 0,-72 -58,-130 -129,-130z"/>
   <path class="fil0" d="M2698 1895c0,-7 -6,-12 -13,-12 -7,0 -13,5 -13,12 0,8 6,13 13,13 7,0 13,-5 13,-13z"/>
   <path class="fil0" d="M2777 1895c0,-7 -6,-12 -13,-12 -7,0 -13,5 -13,12 0,8 6,13 13,13 7,0 13,-5 13,-13z"/>
   <path class="fil0" d="M2656 1824c0,-2 2,-4 4,-4l69 0c2,0 4,2 4,4 0,2 -2,4 -4,4l-69 0c-2,0 -4,-2 -4,-4zm0 16c0,-2 2,-4 4,-4l69 0c2,0 4,2 4,4 0,2 -2,4 -4,4l-69 0c-2,0 -4,-2 -4,-4zm0 16c0,-2 2,-4 4,-4l69 0c2,0 4,2 4,4 0,2 -2,4 -4,4l-69 0c-2,0 -4,-2 -4,-4zm101 -11l21 0c4,0 8,4 8,8l0 12 -29 0 0 -20zm-111 -36l0 86 19 0c0,-11 9,-19 20,-19 10,0 19,8 19,19l39 0c0,-11 9,-19 20,-19 11,0 19,8 19,19l19 0c4,0 7,-3 7,-7 0,-3 -3,-6 -7,-6l-3 0 0 -29c0,-14 -11,-25 -25,-25l-26 0 0 -19 -101 0z"/>
   <path class="fil0" d="M3505 2842c-54,0 -99,-45 -99,-99 0,-55 45,-100 99,-100 54,0 98,45 98,100 0,54 -44,99 -98,99zm1 -228l-2 0c-71,0 -129,59 -129,130 0,29 8,55 22,75 13,19 108,142 108,142 0,0 95,-123 108,-142 13,-20 22,-46 22,-75 0,-71 -58,-130 -129,-130z"/>
   <path class="fil0" d="M3481 2780c0,-7 -5,-12 -12,-12 -8,0 -13,5 -13,12 0,8 5,13 13,13 7,0 12,-5 12,-13z"/>
   <path class="fil0" d="M3561 2780c0,-7 -6,-12 -13,-12 -7,0 -13,5 -13,12 0,8 6,13 13,13 7,0 13,-5 13,-13z"/>
   <path class="fil0" d="M3440 2709c0,-2 2,-4 4,-4l69 0c2,0 3,2 3,4 0,2 -1,4 -3,4l-69 0c-2,0 -4,-2 -4,-4zm0 16c0,-2 2,-4 4,-4l69 0c2,0 3,2 3,4 0,2 -1,4 -3,4l-69 0c-2,0 -4,-2 -4,-4zm0 16c0,-2 2,-4 4,-4l69 0c2,0 3,2 3,4 0,2 -1,4 -3,4l-69 0c-2,0 -4,-2 -4,-4zm101 -11l21 0c4,0 8,4 8,8l0 12 -29 0 0 -20zm-111 -36l0 86 19 0c0,-11 9,-19 20,-19 10,0 19,8 19,19l39 0c0,-11 9,-19 20,-19 10,0 19,8 19,19l19 0c4,0 7,-3 7,-7 0,-3 -3,-6 -7,-6l-3 0 0 -29c0,-14 -11,-25 -25,-25l-26 0 0 -19 -101 0z"/>
   <path class="fil0" d="M3790 3480l-1239 0c-60,0 -109,-50 -109,-110l0 -2923c0,-61 49,-110 109,-110l1291 0c61,0 110,49 110,110l0 2566 -7 0 0 -2566c0,-57 -46,-103 -103,-103l-1291 0c-56,0 -102,46 -102,103l0 2923c0,56 46,102 102,102l1239 0 0 8z"/>
   <path class="fil0" d="M2751 240c-40,0 -72,-32 -72,-72 0,-40 32,-72 72,-72 40,0 72,32 72,72 0,40 -32,72 -72,72zm1 -240l-2 0c-93,0 -169,76 -169,169 0,38 11,71 29,98 17,25 141,185 141,185 0,0 124,-160 141,-185 18,-27 29,-60 29,-98 0,-93 -76,-169 -169,-169z"/>
   <path class="fil0" d="M5625 2058c-8,8 5,21 13,13 16,-16 41,-16 58,0 8,8 21,-5 13,-13 -24,-23 -60,-23 -84,0z"/>
   <path class="fil0" d="M5598 2034c-9,8 4,21 13,13 31,-31 81,-31 112,0 8,8 21,-5 13,-13 -38,-38 -100,-38 -138,0z"/>
   <path class="fil0" d="M5571 2009c-9,9 4,22 13,13 46,-45 120,-45 166,0 9,9 22,-4 13,-13 -53,-52 -139,-52 -192,0z"/>
   <path class="fil0" d="M5685 2100c0,11 -8,19 -18,19 -10,0 -19,-8 -19,-19 0,-10 9,-18 19,-18 10,0 18,8 18,18z"/>
   <path class="fil0" d="M5671 2864c-11,11 6,28 17,17 22,-21 54,-21 76,0 11,11 28,-6 17,-17 -31,-30 -79,-30 -110,0z"/>
   <path class="fil0" d="M5635 2832c-11,11 6,28 17,17 41,-40 107,-40 148,0 11,11 28,-6 17,-17 -51,-49 -131,-49 -182,0z"/>
   <path class="fil0" d="M5599 2800c-11,11 6,28 17,17 61,-60 159,-60 219,0 12,11 29,-6 17,-17 -69,-69 -183,-69 -253,0z"/>
   <path class="fil0" d="M5750 2919c0,14 -11,25 -24,25 -14,0 -24,-11 -24,-25 0,-13 10,-24 24,-24 13,0 24,11 24,24z"/>
   <path class="fil0" d="M5788 3102c4,0 7,-3 7,-7l0 -35c0,-3 -1,-5 -3,-6l-14 -11c-2,-1 -4,-2 -6,-2l-57 0c-6,0 -10,4 -10,10l-3 43c-1,4 3,8 7,8l79 0zm-98 -73c1,-7 6,-11 12,-11l68 0c3,0 5,0 7,2l20 15c3,2 5,3 8,3l207 0c5,0 9,3 11,7l37 100c3,8 -2,16 -11,16l-355 0c-7,0 -13,-6 -12,-13l8 -119z"/>
   <path class="fil0" d="M5914 3528l0 1c79,0 143,64 143,144l34 0c2,0 5,0 7,-1 14,-3 23,-14 25,-27 0,-2 -1,-5 -3,-7 -2,-2 -5,-4 -7,-6 -2,-2 -3,-4 -3,-6l0 -53c0,-2 1,-4 4,-6l6 -7c2,-2 3,-5 3,-7 -1,-6 -3,-11 -7,-16l-7 -9 0 0 -195 0z"/>
   <path class="fil0" d="M5842 3366c1,2 3,3 5,3l47 0c4,0 7,-4 7,-8 0,-2 0,-4 -2,-6 -1,-1 -3,-2 -5,-2l-47 0c-4,0 -8,4 -8,8 0,2 1,4 3,5zm-95 -73l37 0c11,0 19,-9 19,-19l0 -72c0,-11 -8,-19 -19,-19l-37 0c-11,0 -19,8 -19,19l0 72c0,10 8,19 19,19zm-7 270l3 0c4,0 8,-4 8,-8l0 -3c0,-4 -4,-7 -8,-7l-52 0 0 -384 359 0c0,0 66,164 66,278l0 69c0,2 -2,4 -4,4l-398 0c-4,0 -8,4 -8,8 0,3 1,5 3,6 1,1 3,2 5,2l200 0 0 1c79,0 143,64 143,144l-111 0c1,-5 1,-9 1,-14 0,-47 -37,-85 -84,-85 -47,0 -85,38 -85,85 0,5 0,9 1,14l-39 0 0 -110zm238 -265l11 11c4,4 8,6 14,6l37 0 29 0c3,0 5,-3 4,-5 -12,-50 -28,-94 -36,-115 -3,-7 -10,-12 -18,-12l-163 0c-10,0 -19,8 -19,19l0 72c0,10 9,19 19,19l108 0c6,0 10,2 14,5z"/>
   <path class="fil0" d="M4990 3563c-3,0 -5,3 -5,6l0 98c0,3 3,6 6,6 4,0 6,-3 6,-7 0,-2 0,-5 0,-7 0,-48 38,-86 86,-86l0 -10 -92 0c0,0 -1,0 -1,0z"/>
   <path class="fil0" d="M5222 3621l338 0c3,0 5,-3 5,-5l0 -18c0,-2 -2,-4 -5,-4l-338 0c-3,0 -5,2 -5,4l0 18c0,2 2,5 5,5zm383 -58l0 110 -437 0c0,-5 1,-9 1,-14 0,-48 -39,-86 -86,-86l0 -10 522 0z"/>
   <polygon class="fil0" points="4931,3638 4904,3611 4904,3599 4913,3599 4931,3618 "/>
   <polygon class="fil0" points="4904,3627 4931,3654 4931,3662 4919,3662 4904,3647 "/>
   <path class="fil0" d="M5847 3369l47 0c4,0 7,-4 7,-8 0,-2 0,-4 -2,-6 -1,-1 -3,-2 -5,-2l-47 0c-4,0 -8,4 -8,8 0,2 1,4 3,5 1,2 3,3 5,3z"/>
   <path class="fil0" d="M5845 3661c0,-3 -3,-6 -6,-6 -3,0 -5,3 -5,6 0,3 2,5 5,5 3,0 6,-2 6,-5z"/>
   <path class="fil0" d="M5840 3645c1,1 1,3 2,4 1,1 2,1 4,1 1,0 3,0 4,-1 2,-3 2,-6 0,-8 -2,-2 -6,-2 -8,0 -1,1 -2,2 -2,4 0,0 0,0 0,0z"/>
   <path class="fil0" d="M5862 3650c-2,0 -5,1 -7,3 -1,1 -2,4 -2,7 0,2 1,5 2,6 2,2 5,3 7,3 5,0 10,-4 10,-9 0,-6 -5,-10 -10,-10z"/>
   <path class="fil0" d="M5887 3655c-1,0 -2,0 -3,0 -2,0 -4,1 -5,3 0,1 0,2 0,2 0,1 0,2 0,2 1,2 3,4 5,4 1,0 2,0 3,-1 2,-1 3,-2 3,-5 0,-2 -1,-4 -3,-5z"/>
   <path class="fil0" d="M5862 3698c-21,0 -38,-17 -38,-38 0,-22 17,-39 38,-39 21,0 38,17 38,39 0,21 -17,38 -38,38zm1 -114c-41,0 -75,34 -75,75 0,41 34,75 75,75 41,0 74,-34 74,-75 0,-41 -33,-75 -74,-75z"/>
   <path class="fil0" d="M5880 3671c-2,0 -4,0 -6,1 -2,3 -2,6 0,8 2,2 4,2 6,1 1,0 1,0 2,-1 2,-2 2,-5 0,-8 -1,0 -1,0 -2,-1z"/>
   <path class="fil0" d="M5882 3648c2,-2 2,-5 0,-8 -1,0 -2,0 -2,-1 -2,0 -3,0 -4,0 -1,1 -2,1 -2,1 -1,2 -2,3 -2,4 0,2 1,3 2,4 2,2 5,2 8,0z"/>
   <path class="fil0" d="M5862 3643c3,0 5,-2 5,-5 0,-3 -2,-6 -5,-6 -3,0 -6,3 -6,6 0,3 3,5 6,5z"/>
   <path class="fil0" d="M5864 3678c0,0 -1,0 -2,0 -2,0 -4,1 -5,3 0,1 0,1 0,2 0,1 0,2 0,2 1,2 3,4 5,4 1,0 2,-1 2,-1 2,-1 4,-3 4,-5 0,-2 -2,-4 -4,-5z"/>
   <path class="fil0" d="M5851 3675c0,-1 0,-2 -1,-2l0 0c-1,-1 -1,-1 -2,-1 -1,-1 -3,-1 -4,0 -1,0 -1,0 -2,1 -1,1 -1,2 -1,4 0,0 0,1 0,2 0,0 1,1 1,2 2,1 4,2 6,1 1,0 1,-1 2,-1 1,-1 2,-3 2,-4 0,-1 -1,-2 -1,-2z"/>
   <path class="fil0" d="M5060 3645c0,1 0,3 1,4 1,1 3,1 4,1 2,0 3,0 4,-1 2,-3 2,-6 0,-8 -2,-2 -6,-2 -8,0 -1,1 -1,2 -1,4 0,0 0,0 0,0z"/>
   <path class="fil0" d="M5064 3661c0,-3 -2,-6 -5,-6 -3,0 -6,3 -6,6 0,3 3,5 6,5 3,0 5,-2 5,-5z"/>
   <path class="fil0" d="M5082 3650c-3,0 -5,1 -7,3 -2,1 -3,4 -3,7 0,2 1,5 3,6 2,2 4,3 7,3 5,0 9,-4 9,-9 0,-6 -4,-10 -9,-10z"/>
   <path class="fil0" d="M5082 3698c-22,0 -39,-17 -39,-38 0,-22 17,-39 39,-39 21,0 38,17 38,39 0,21 -17,38 -38,38zm0 -114c-41,0 -75,34 -75,75 0,41 34,75 75,75 41,0 75,-34 75,-75 0,-41 -34,-75 -75,-75z"/>
   <path class="fil0" d="M5106 3655c-1,0 -1,0 -2,0 -2,0 -4,1 -5,3 0,1 -1,2 -1,2 0,1 1,2 1,2 1,2 3,4 5,4 1,0 1,0 2,-1 2,-1 3,-2 3,-5 0,-2 -1,-4 -3,-5z"/>
   <path class="fil0" d="M5099 3671c-2,0 -4,0 -5,1 -3,3 -3,6 0,8 1,2 3,2 5,1 1,0 2,0 2,-1 2,-2 2,-5 0,-8 0,0 -1,0 -2,-1z"/>
   <path class="fil0" d="M5101 3648c2,-2 2,-5 0,-8 -1,0 -1,0 -2,-1 -1,0 -3,0 -4,0 -1,1 -1,1 -2,1 -1,2 -1,3 -1,4 0,2 0,3 1,4 2,2 6,2 8,0z"/>
   <path class="fil0" d="M5081 3643c3,0 5,-2 5,-5 0,-3 -2,-6 -5,-6 -3,0 -5,3 -5,6 0,3 2,5 5,5z"/>
   <path class="fil0" d="M5084 3678c-1,0 -2,0 -2,0 -3,0 -5,1 -5,3 -1,1 -1,1 -1,2 0,1 0,2 1,2 0,2 2,4 5,4 0,0 1,-1 2,-1 2,-1 3,-3 3,-5 0,-2 -1,-4 -3,-5z"/>
   <path class="fil0" d="M5071 3675c-1,-1 -1,-2 -2,-2l0 0c0,-1 -1,-1 -1,-1 -2,-1 -3,-1 -4,0 -1,0 -2,0 -2,1 -1,1 -2,2 -2,4 0,0 0,1 1,2 0,0 0,1 1,2 1,1 4,2 6,1 0,0 1,-1 1,-1 1,-1 2,-3 2,-4 0,-1 0,-2 0,-2z"/>
   <path class="fil0" d="M4496 3698c-21,0 -38,-17 -38,-38 0,-22 17,-39 38,-39 21,0 38,17 38,39 0,21 -17,38 -38,38zm-160 0c-21,0 -38,-17 -38,-38 0,-22 17,-39 38,-39 22,0 39,17 39,39 0,21 -17,38 -39,38zm-159 0c-21,0 -38,-17 -38,-38 0,-22 17,-39 38,-39 21,0 38,17 38,39 0,21 -17,38 -38,38zm245 -39c0,41 33,75 75,75 41,0 74,-34 74,-75 0,-24 -11,-46 -29,-59l12 0 0 -8 -23 0c-10,-5 -22,-8 -34,-8 -13,0 -24,3 -35,8l-91 0c-10,-5 -22,-8 -34,-8 -12,0 -24,3 -34,8l-91 0c-10,-5 -22,-8 -35,-8 -12,0 -24,3 -34,8l-26 0 0 8 15 0c-18,13 -29,35 -29,59 0,41 33,75 74,75 42,0 75,-34 75,-75 0,-24 -11,-46 -29,-59l68 0c-17,13 -29,35 -29,59 0,41 34,75 75,75 41,0 75,-34 75,-75 0,-24 -12,-46 -29,-59l68 0c-18,13 -29,35 -29,59z"/>
   <path class="fil0" d="M4508 3648c1,1 2,2 4,2 1,0 2,-1 3,-2 1,-1 2,-2 2,-4 0,-1 -1,-2 -2,-4 0,0 -1,0 -1,-1 -1,0 -2,0 -2,0 -1,0 -2,0 -3,1 -1,0 -1,0 -1,0 -1,1 -1,1 -1,2 -1,2 -1,4 1,6z"/>
   <path class="fil0" d="M4496 3650c-3,0 -5,1 -7,3 -1,1 -2,4 -2,7 0,2 1,5 2,6 2,2 4,3 7,3 3,0 5,-1 7,-3 1,-1 3,-4 3,-6 0,-3 -2,-6 -3,-7 -2,-2 -4,-3 -7,-3z"/>
   <path class="fil0" d="M4520 3655c0,0 -1,0 -2,0l0 0c0,0 -1,0 -2,0 0,1 -1,1 -2,1 -1,1 -1,3 -1,4 0,2 0,3 1,4 1,1 2,1 2,1 1,1 2,1 2,1l0 0c1,0 2,0 2,-1 2,-1 4,-2 4,-5 0,-2 -2,-4 -4,-5z"/>
   <path class="fil0" d="M4512 3671c-1,0 -2,0 -2,0 -1,1 -1,1 -2,1 0,1 -1,2 -1,2 -1,2 -1,3 0,4 0,1 1,2 1,2 1,1 1,1 2,1 0,1 1,1 2,1 1,0 3,-1 4,-2 2,-2 2,-5 0,-8 -1,-1 -3,-1 -4,-1z"/>
   <path class="fil0" d="M4496 3643l0 0c0,0 0,0 0,0 3,0 5,-2 5,-5 0,-2 -1,-3 -2,-4 -1,-1 -2,-2 -3,-2l0 0c-3,0 -5,2 -5,4 -1,0 -1,1 -1,2 0,3 3,5 6,5z"/>
   <path class="fil0" d="M4496 3678c-3,0 -5,2 -5,5 0,3 2,6 5,6 3,0 5,-3 5,-6 0,-3 -2,-5 -5,-5z"/>
   <path class="fil0" d="M4484 3673c-1,-1 -3,-2 -4,-2 -1,0 -1,0 -2,1 -1,0 -1,0 -2,1 -1,1 -1,2 -1,4 0,0 0,1 0,2 0,0 1,1 1,2 1,0 1,1 2,1 1,0 1,0 2,0 1,0 3,0 4,-1 0,-1 1,-2 1,-2 0,-1 0,-2 0,-2 0,-2 0,-3 -1,-4z"/>
   <path class="fil0" d="M4476 3649c0,0 1,0 2,1 0,0 1,0 2,0 0,0 1,0 2,0 0,-1 1,-1 1,-1 1,-1 1,-2 2,-2 0,-1 0,-2 0,-2 0,-2 0,-3 -2,-4 -1,-1 -2,-2 -3,-2 0,0 -1,0 -1,0 -1,0 -2,1 -3,2 -1,0 -1,1 -1,2 -1,1 -1,2 0,4 0,0 0,1 1,2z"/>
   <path class="fil0" d="M4475 3666c2,-1 4,-3 4,-5 0,-2 -2,-4 -4,-5 0,-1 -1,-1 -2,-1l0 0c-2,0 -4,2 -5,4 0,0 0,1 0,2 0,1 0,1 0,2 1,2 3,3 5,3l0 0c1,0 2,0 2,0z"/>
   <path class="fil0" d="M4315 3647c0,0 1,1 1,2 1,0 1,0 2,1 1,0 1,0 2,0 1,0 2,0 2,0 1,-1 1,-1 2,-1 0,-1 1,-2 1,-2 0,-1 1,-2 1,-2 0,-2 -1,-3 -2,-4 -1,-1 -2,-2 -4,-2 0,0 0,0 0,0 -1,0 -3,1 -4,2 -1,1 -1,2 -1,4 0,0 0,1 0,2z"/>
   <path class="fil0" d="M4336 3650c-2,0 -5,1 -6,3 -2,1 -3,4 -3,7 0,2 1,5 3,6 1,2 4,3 6,3 3,0 5,-1 7,-3 2,-1 3,-4 3,-6 0,-3 -1,-6 -3,-7 -2,-2 -4,-3 -7,-3z"/>
   <path class="fil0" d="M4361 3655c-1,0 -2,0 -2,0l0 0c-2,0 -4,1 -5,3 0,1 -1,2 -1,2 0,1 1,2 1,2 1,2 3,4 5,4l0 0c0,0 1,0 2,-1 2,-1 3,-2 3,-5 0,-2 -1,-4 -3,-5z"/>
   <path class="fil0" d="M4350 3671c0,1 -1,1 -2,1 0,1 0,2 -1,2 0,2 0,3 0,4 1,1 1,2 1,2 1,1 2,1 2,1 2,1 5,1 6,-1 2,-2 2,-5 0,-8 -1,-1 -4,-1 -6,-1z"/>
   <path class="fil0" d="M4352 3650c1,0 3,-1 4,-2 1,-1 1,-2 1,-4 0,-1 0,-2 -1,-4 -1,0 -1,0 -1,0 -1,-1 -2,-1 -3,-1 -1,0 -1,0 -2,0 -1,1 -1,1 -2,1 -1,2 -1,3 -1,4 0,2 0,3 1,4 1,1 3,2 4,2z"/>
   <path class="fil0" d="M4336 3643l0 0c0,0 0,0 0,0 3,0 5,-2 5,-5 0,-2 0,-3 -1,-4 -1,-1 -3,-2 -4,-2l0 0c-2,0 -4,2 -5,4 0,0 0,1 0,2 0,3 2,5 5,5z"/>
   <path class="fil0" d="M4336 3678c-3,0 -5,2 -5,5 0,3 2,6 5,6 3,0 6,-3 6,-6 0,-3 -3,-5 -6,-5z"/>
   <path class="fil0" d="M4324 3673c0,-1 -1,-1 -1,-1 -2,-1 -3,-1 -5,0 0,0 -1,0 -1,1 -2,2 -2,5 0,8 0,0 1,1 1,1 2,1 5,0 6,-1 1,-1 1,-2 2,-2 0,-1 0,-2 0,-2 0,-2 -1,-3 -2,-4z"/>
   <path class="fil0" d="M4319 3661c0,-3 -2,-6 -5,-6 -1,0 -2,0 -2,1 -2,1 -4,3 -4,5 0,2 2,4 4,5 0,0 1,0 2,0 3,0 5,-2 5,-5z"/>
   <path class="fil0" d="M4177 3650c-3,0 -5,1 -7,3 -1,1 -3,4 -3,7 0,2 2,5 3,6 2,2 4,3 7,3 3,0 5,-1 7,-3 1,-1 2,-4 2,-6 0,-3 -1,-6 -2,-7 -2,-2 -4,-3 -7,-3z"/>
   <path class="fil0" d="M4156 3647c0,0 0,1 1,2 1,1 2,1 4,1 1,0 2,0 3,-1 1,-1 1,-2 2,-2 0,-1 0,-2 0,-2 0,-2 -1,-3 -2,-4 -2,-2 -5,-2 -7,0 -1,1 -2,2 -2,4 0,0 0,1 1,2z"/>
   <path class="fil0" d="M4199 3655l0 0c-2,0 -4,1 -5,3 0,1 0,2 0,2 0,1 0,2 0,2 1,2 3,4 5,4l0 0c2,0 3,-1 4,-2 1,-1 2,-2 2,-4 0,-1 -1,-3 -2,-4 -1,-1 -2,-1 -4,-1z"/>
   <path class="fil0" d="M4193 3671c-2,0 -3,0 -4,1 -2,3 -2,6 0,8 1,1 2,2 4,2 1,0 3,-1 4,-2 2,-2 2,-5 0,-8 -1,-1 -3,-1 -4,-1z"/>
   <path class="fil0" d="M4192 3650c1,0 2,0 2,-1 1,0 2,0 2,-1 1,0 1,-1 1,-2 1,0 1,-1 1,-2 0,-1 -1,-2 -2,-4 0,0 -1,0 -2,-1 0,0 -1,0 -2,0 -1,0 -2,0 -3,1 -1,2 -2,3 -2,4 0,2 1,3 2,4 1,1 2,2 3,2z"/>
   <path class="fil0" d="M4176 3643c3,0 6,-2 6,-5 0,-3 -3,-6 -6,-6 -3,0 -5,3 -5,6 0,3 2,5 5,5z"/>
   <path class="fil0" d="M4177 3678c-3,0 -5,2 -5,5 0,3 2,6 5,6 3,0 5,-3 5,-6 0,-3 -2,-5 -5,-5z"/>
   <path class="fil0" d="M4165 3673c-1,-1 -1,-1 -2,-1 -1,-1 -1,-1 -2,-1 -1,0 -2,1 -3,1 0,0 -1,1 -1,1 -2,2 -2,5 0,8 1,1 3,1 4,1 1,0 3,0 4,-1 0,-1 1,-2 1,-2 0,-1 0,-2 0,-2 0,-2 0,-3 -1,-4z"/>
   <path class="fil0" d="M4160 3661c0,-2 -1,-3 -2,-4 -1,-1 -2,-2 -4,-2 -3,0 -5,3 -5,6 0,3 2,5 5,5 2,0 3,0 4,-1 1,-1 2,-3 2,-4z"/>
   <path class="fil0" d="M5700 3645c7,0 13,-6 13,-13 0,-8 -6,-14 -13,-14 -8,0 -14,6 -14,14 0,7 6,13 14,13z"/>
   <path class="fil0" d="M5647 3645c7,0 13,-6 13,-13 0,-8 -6,-14 -13,-14 -8,0 -14,6 -14,14 0,7 6,13 14,13z"/>
   <path class="fil0" d="M5546 3536l-20 0c-5,0 -9,4 -9,8l0 1c0,5 4,9 9,9l20 0c5,0 9,-4 9,-9l0 -1c0,-4 -4,-8 -9,-8z"/>
   <path class="fil0" d="M5207 3536l-21 0c-5,0 -8,4 -8,8l0 1c0,5 3,9 8,9l21 0c4,0 8,-4 8,-9l0 -1c0,-4 -4,-8 -8,-8z"/>
   <path class="fil0" d="M4867 3536l-20 0c-5,0 -9,4 -9,8l0 1c0,5 4,9 9,9l20 0c5,0 9,-4 9,-9l0 -1c0,-4 -4,-8 -9,-8z"/>
   <path class="fil0" d="M4528 3536l-21 0c-5,0 -8,4 -8,8l0 1c0,5 3,9 8,9l21 0c5,0 8,-4 8,-9l0 -1c0,-4 -3,-8 -8,-8z"/>
   <path class="fil0" d="M4188 3536l-20 0c-5,0 -9,4 -9,8l0 1c0,5 4,9 9,9l20 0c5,0 9,-4 9,-9l0 -1c0,-4 -4,-8 -9,-8z"/>
   <path class="fil0" d="M3849 3536l-21 0c-4,0 -8,4 -8,8l0 1c0,5 4,9 8,9l21 0c5,0 8,-4 8,-9l0 -1c0,-4 -3,-8 -8,-8z"/>
   <path class="fil0" d="M5708 3051c0,-3 3,-6 7,-6l57 0c1,0 3,0 4,1l14 11c1,0 1,2 1,3l0 35c0,2 -1,3 -3,3l-79 0c-1,0 -2,0 -3,-1 0,-1 -1,-2 -1,-3l3 -43zm1 55l79 0c6,0 11,-5 11,-11l0 -35c0,-4 -2,-7 -5,-9l-14 -11c-2,-1 -5,-2 -8,-2l-57 0c-7,0 -14,5 -14,12l-3 44c0,3 1,6 3,8 2,2 5,4 8,4z"/>
   <path class="fil0" d="M5800 3274c0,8 -7,15 -16,15l-37 0c-9,0 -16,-7 -16,-15l0 -72c0,-9 7,-16 16,-16l37 0c9,0 16,7 16,16l0 72zm-16 -95l-37 0c-13,0 -23,10 -23,23l0 72c0,12 10,22 23,22l37 0c13,0 23,-10 23,-22l0 -72c0,-13 -10,-23 -23,-23z"/>
   <path class="fil0" d="M5220 3598c0,0 1,-1 2,-1l338 0c1,0 1,1 1,1l0 18c0,0 0,1 -1,1l-52 0c-3,-5 -7,-8 -12,-8l-39 0c-6,0 -10,3 -13,8l-222 0c-1,0 -2,-1 -2,-1l0 -18zm2 26l221 0 0 1c0,7 6,13 14,13l39 0c7,0 13,-6 13,-13l0 -1 51 0c5,0 8,-4 8,-8l0 -18c0,-4 -3,-8 -8,-8l-338 0c-5,0 -9,4 -9,8l0 18c0,4 4,8 9,8z"/>
   <path class="fil0" d="M3793 3634l0 -68 11 0 0 68 -11 0zm-3 -613c0,-1 1,-3 3,-3l28 0c0,0 1,0 1,1 1,0 2,1 2,2l0 28c0,2 -1,3 -3,3l-28 0c0,0 -1,0 -1,0l-1 0c0,-1 -1,-2 -1,-3l0 -28zm1753 -3l28 0c2,0 3,2 3,3l0 28c0,1 -1,2 -1,3 -1,0 -2,0 -2,0l-28 0c-2,0 -3,-1 -3,-3l0 -28c0,-1 1,-2 2,-3 0,0 1,0 1,0zm-1753 471c0,-1 1,-2 1,-3 1,0 1,0 2,0l28 0c2,0 3,1 3,3l0 28c0,1 -1,3 -3,3l-28 0c-2,0 -3,-2 -3,-3l0 -28zm22 -11l-19 0 0 -418 19 0 0 418zm15 2c-2,-1 -4,-2 -6,-2l-2 0 0 -418 2 0c2,0 4,-1 6,-2l0 422zm1706 -459l0 19 -1702 0 0 -19c0,-1 0,-2 0,-3l1702 0c0,1 0,2 0,3zm41 496c0,1 -1,3 -3,3l-28 0 0 -1 -2 0c-1,0 -1,-1 -1,-2l0 -28c0,-2 1,-3 3,-3l28 0c1,0 2,0 2,1 0,0 1,1 1,2l0 28zm-1743 0l0 -17 1702 0 0 17c0,1 0,1 0,2l-1702 0c0,-1 0,-1 0,-2zm22 -24l-14 0 0 -445 14 0 0 445zm20 0l-12 0 0 -445 12 0 0 445zm27 0l-15 0 0 -445 15 0 0 445zm19 0l-12 0 0 -445 12 0 0 445zm27 0l-14 0 0 -445 14 0 0 445zm20 0l-13 0 0 -445 13 0 0 445zm27 0l-15 0 0 -445 15 0 0 445zm19 0l-12 0 0 -445 12 0 0 445zm27 0l-14 0 0 -445 14 0 0 445zm20 0l-13 0 0 -445 13 0 0 445zm26 0l-14 0 0 -445 14 0 0 445zm20 0l-12 0 0 -445 12 0 0 445zm27 0l-15 0 0 -445 15 0 0 445zm20 0l-13 0 0 -445 13 0 0 445zm26 0l-14 0 0 -445 14 0 0 445zm20 0l-12 0 0 -445 12 0 0 445zm27 0l-15 0 0 -445 15 0 0 445zm19 0l-12 0 0 -445 12 0 0 445zm27 0l-14 0 0 -445 14 0 0 445zm20 0l-13 0 0 -445 13 0 0 445zm27 0l-15 0 0 -445 15 0 0 445zm19 0l-12 0 0 -445 12 0 0 445zm27 0l-15 0 0 -445 15 0 0 445zm20 0l-13 0 0 -445 13 0 0 445zm26 0l-14 0 0 -445 14 0 0 445zm20 0l-12 0 0 -445 12 0 0 445zm27 0l-15 0 0 -445 15 0 0 445zm19 0l-12 0 0 -445 12 0 0 445zm27 0l-14 0 0 -445 14 0 0 445zm20 0l-12 0 0 -445 12 0 0 445zm27 0l-15 0 0 -445 15 0 0 445zm19 0l-12 0 0 -445 12 0 0 445zm27 0l-14 0 0 -445 14 0 0 445zm20 0l-13 0 0 -445 13 0 0 445zm26 0l-14 0 0 -445 14 0 0 445zm20 0l-12 0 0 -445 12 0 0 445zm27 0l-15 0 0 -445 15 0 0 445zm20 0l-13 0 0 -445 13 0 0 445zm26 0l-14 0 0 -445 14 0 0 445zm20 0l-12 0 0 -445 12 0 0 445zm27 0l-15 0 0 -445 15 0 0 445zm19 0l-12 0 0 -445 12 0 0 445zm27 0l-14 0 0 -445 14 0 0 445zm20 0l-13 0 0 -445 13 0 0 445zm27 0l-15 0 0 -445 15 0 0 445zm19 0l-12 0 0 -445 12 0 0 445zm27 0l-14 0 0 -445 14 0 0 445zm20 0l-13 0 0 -445 13 0 0 445zm26 0l-14 0 0 -445 14 0 0 445zm20 0l-12 0 0 -445 12 0 0 445zm27 0l-15 0 0 -445 15 0 0 445zm20 0l-13 0 0 -445 13 0 0 445zm26 0l-14 0 0 -445 14 0 0 445zm20 0l-12 0 0 -445 12 0 0 445zm27 0l-15 0 0 -445 15 0 0 445zm19 0l-12 0 0 -445 12 0 0 445zm27 0l-14 0 0 -445 14 0 0 445zm20 0l-13 0 0 -445 13 0 0 445zm27 0l-15 0 0 -445 15 0 0 445zm19 0l-12 0 0 -445 12 0 0 445zm27 0l-14 0 0 -445 14 0 0 445zm20 0l-13 0 0 -445 13 0 0 445zm26 0l-14 0 0 -445 14 0 0 445zm20 0l-12 0 0 -445 12 0 0 445zm27 0l-15 0 0 -445 15 0 0 445zm20 0l-13 0 0 -445 13 0 0 445zm26 0l-14 0 0 -445 14 0 0 445zm20 0l-12 0 0 -445 12 0 0 445zm27 0l-15 0 0 -445 15 0 0 445zm19 0l-12 0 0 -445 12 0 0 445zm27 0l-14 0 0 -445 14 0 0 445zm22 0l-15 0 0 -445 15 0 0 445zm33 -440l0 432c0,1 0,2 0,4l0 4 -21 0 0 -445 21 0 0 1c0,2 0,3 0,4zm39 426c0,0 -1,-1 -1,-1l-18 0 0 -418 -4 0 0 0 22 0c0,0 1,0 1,0l0 419zm-581 80c0,0 -1,0 -1,0l-1197 0 0 -30 1779 0 0 30 -581 0zm703 -530c0,-4 4,-8 8,-8l68 0c2,0 4,1 5,2l20 15c3,2 6,3 10,3l207 0c3,0 6,2 8,6l37 99c1,3 1,6 -1,8 -2,2 -4,4 -7,4l-355 0c-2,0 -5,-1 -6,-3 -2,-2 -3,-4 -2,-6l8 -120zm422 151c5,10 11,24 16,39l-18 0 0 -25c0,-5 -4,-9 -9,-9l-1 0c-6,0 -10,4 -10,9l0 59c0,5 4,10 10,10l1 0c5,0 9,-5 9,-10l0 -27 20 0c3,8 5,16 7,24 1,3 0,6 -2,8l-41 38c-16,-60 -35,-111 -42,-129l40 0c9,0 17,5 20,13zm-260 109c-8,0 -15,-7 -15,-15l0 -72c0,-9 7,-16 15,-16l163 0c7,0 12,4 15,10 8,22 24,67 36,115l-1 1 -66 -1c-5,0 -9,-1 -11,-4l-11 -11c-5,-4 -10,-7 -17,-7l-108 0zm257 219c0,0 -1,1 -1,1l-194 0 0 -213 46 0c5,0 8,2 11,5l11 11c5,4 10,7 17,7l66 0c2,0 5,-1 6,-3 2,-2 2,-5 2,-7 -12,-49 -28,-93 -37,-115 -3,-9 -11,-15 -21,-15l-163 0c-12,0 -22,10 -22,23l0 72c0,12 10,22 22,22l55 0 0 213 -197 0c-6,0 -11,5 -11,11 0,3 1,6 3,9 2,2 5,3 8,3l200 0 0 1c75,0 137,61 139,136l-102 0c0,-3 0,-7 0,-10 0,-49 -40,-89 -88,-89 -49,0 -89,40 -89,89 0,3 1,7 1,10l-32 0 0 -103c6,0 11,-5 11,-11l0 -3c0,-6 -5,-11 -11,-11l-48 0 0 -376 352 0c8,20 66,169 66,274l0 69zm-12 16l1 1 -388 0c-1,0 -2,-1 -3,-2 -1,0 -1,-2 -1,-3 0,-2 2,-4 4,-4l385 0c0,3 0,6 2,8zm18 29c0,2 0,3 -1,4l-7 7c-3,3 -4,6 -4,9l0 53c0,3 1,6 4,9l7 6c1,1 1,3 1,4 -1,12 -10,21 -22,24 -1,0 -3,0 -6,0l-31 0c-2,-64 -45,-119 -104,-137l151 0 6 7c3,4 6,9 6,14zm-383 13l0 103 -128 0 0 -103 128 0zm-653 3c-50,0 -90,40 -90,90 0,3 0,5 1,8 0,0 -1,1 -1,2 0,0 -1,0 -2,0 -1,0 -2,-1 -2,-2l0 -98c0,-1 1,-2 2,-3l14 0 0 0 596 0 0 103 -429 0c0,-3 0,-7 0,-10 0,-50 -40,-90 -89,-90zm-135 115l0 8c0,1 0,1 -1,1l-59 0c-1,0 -1,0 -1,-1l0 -8c0,-1 0,-1 1,-1l59 0c1,0 1,0 1,1zm-40 -79c0,-1 1,-2 2,-2l16 0c1,0 1,1 1,2l0 53 -19 0 0 -53zm-812 -5l0 -8 -255 0 -30 29 0 -55 1126 0 0 52c0,1 -1,1 -1,1l-1 0 0 -14c0,-5 -4,-9 -9,-9l-16 0c-5,0 -9,4 -9,9l0 14 -2 0c-1,0 -1,0 -1,-1l0 -26 -323 0 0 8 315 0 0 18c0,5 4,8 9,8l2 0 0 34 -5 5c-1,1 -2,3 -2,5l0 8 -6 0c-3,0 -6,2 -6,6l0 8c0,4 3,6 6,6l59 0c4,0 7,-2 7,-6l0 -8c0,-4 -3,-6 -7,-6l-5 0 0 -8c0,-2 -1,-4 -3,-5l-4 -5 0 -34 1 0c4,0 8,-3 8,-8l0 -52 38 0c0,1 0,2 0,3l0 98c0,5 4,10 9,10 3,0 5,-2 7,-4 2,-2 3,-4 3,-7 0,-2 -1,-5 -1,-7 0,-46 37,-83 83,-83 45,0 82,37 82,83 0,4 0,9 -1,13l-1 5 620 0 0 -5c-1,-4 -1,-9 -1,-13 0,-45 36,-82 81,-82 44,0 81,37 81,82 0,4 -1,9 -1,13l-1 5 149 0c3,0 6,-1 8,-1 15,-4 25,-15 27,-30 1,-4 -1,-8 -3,-10l-7 -7c-1,-1 -2,-2 -2,-3l0 -10 6 0 0 6c0,0 0,1 1,2l10 10c0,0 1,0 2,0l4 0c1,0 3,-1 3,-2l0 -67c0,-1 -2,-2 -3,-2l-6 0c-1,0 -2,0 -2,0l-8 9c-1,0 -1,1 -1,2l0 5 -6 0 0 -6c0,-1 0,-2 2,-4l7 -7c3,-2 4,-6 3,-10 0,-6 -3,-12 -7,-17l-12 -16c-1,-1 -1,-2 -1,-2 1,0 1,-1 2,-1l4 0c4,0 8,-4 8,-8l0 -69c0,-42 -9,-90 -20,-135l43 -41c5,-3 6,-9 5,-15 -5,-25 -17,-53 -25,-71 -5,-11 -15,-17 -27,-17l-35 0c0,-1 1,-1 1,-2 3,-4 4,-10 2,-14l-38 -100c-2,-6 -8,-10 -14,-10l-207 0c-2,0 -4,-1 -5,-2l-20 -15c-3,-2 -7,-3 -10,-3l-68 0c-8,0 -15,6 -15,15l-9 119c0,4 2,9 5,12 1,1 3,3 4,3l0 362 -62 0c-6,0 -11,5 -11,11l0 23 -35 0 0 -36c2,-2 2,-4 2,-6l0 -28c0,-3 -1,-5 -2,-6l0 0 0 -428 0 0c1,-1 2,-3 2,-6l0 -28c0,-5 -4,-10 -10,-10l-28 0c-1,0 -1,0 -1,0l0 0 -1736 0 0 0 -13 0c-6,0 -10,5 -10,10l0 28c0,3 1,6 3,8l0 424c-2,2 -3,5 -3,8l0 28c0,3 1,5 3,7l0 117 25 0 0 -10 33 -31 252 0z"/>
   <polygon class="fil0" points="4039,3746 5407,3746 5407,3739 4039,3739 "/>
   <polygon class="fil0" points="5558,3746 6221,3746 6221,3739 5558,3739 "/>
   <path class="fil0" d="M4135 3559l-18 10c-10,6 -19,14 -26,23 -13,17 -21,37 -23,59l0 1c0,7 6,13 13,13 7,0 13,-6 13,-12 2,-21 11,-40 26,-53 15,-14 34,-22 54,-22l322 0c20,0 39,8 54,22 15,14 24,33 25,53 1,6 7,12 14,12 3,0 7,-2 9,-4 3,-3 4,-7 4,-10 -2,-21 -10,-41 -23,-58 -7,-10 -17,-18 -28,-25l-19 -10c-1,0 -2,-1 -3,-1l-391 2c-1,0 -2,0 -3,0z"/>
  </g>
 </g>
</svg>
