<?xml version="1.0" encoding="UTF-8"?>
<!DOCTYPE svg PUBLIC "-//W3C//DTD SVG 1.1//EN" "http://www.w3.org/Graphics/SVG/1.1/DTD/svg11.dtd">
<!-- Creator: CorelDRAW X7 -->
<svg xmlns="http://www.w3.org/2000/svg" xml:space="preserve" width="4.253in" height="3.948in" version="1.1" style="shape-rendering:geometricPrecision; text-rendering:geometricPrecision; image-rendering:optimizeQuality; fill-rule:evenodd; clip-rule:evenodd"
viewBox="0 0 4253 3948"
 xmlns:xlink="http://www.w3.org/1999/xlink">
 <defs>
  <style type="text/css">
   <![CDATA[
    .str0 {stroke:white;stroke-width:11.5}
    .str1 {stroke:white;stroke-width:11.0787}
    .str2 {stroke:white;stroke-width:11.5;stroke-linecap:round}
    .str3 {stroke:#43234C;stroke-width:27.0433;stroke-linecap:round}
    .fil22 {fill:none;fill-rule:nonzero}
    .fil7 {fill:#43234C;fill-rule:nonzero}
    .fil6 {fill:#705877;fill-rule:nonzero}
    .fil17 {fill:#852D4B;fill-rule:nonzero}
    .fil2 {fill:#8E6B95;fill-rule:nonzero}
    .fil31 {fill:#933A61;fill-rule:nonzero}
    .fil23 {fill:#A8425E;fill-rule:nonzero}
    .fil10 {fill:#ACA874;fill-rule:nonzero}
    .fil20 {fill:#CAB8D6;fill-rule:nonzero}
    .fil1 {fill:#E6DAED;fill-rule:nonzero}
    .fil27 {fill:#EDE6F1;fill-rule:nonzero}
    .fil29 {fill:#EEE7F2;fill-rule:nonzero}
    .fil0 {fill:#F5F1F7;fill-rule:nonzero}
    .fil11 {fill:#F6F0F2;fill-rule:nonzero}
    .fil28 {fill:#F6FDFF;fill-rule:nonzero}
    .fil18 {fill:#FBBFCC;fill-rule:nonzero}
    .fil3 {fill:#FF5473;fill-rule:nonzero}
    .fil9 {fill:#FF948E;fill-rule:nonzero}
    .fil16 {fill:#FFAE8E;fill-rule:nonzero}
    .fil30 {fill:#FFBA9A;fill-rule:nonzero}
    .fil19 {fill:#FFCCD4;fill-rule:nonzero}
    .fil13 {fill:#FFD8AA;fill-rule:nonzero}
    .fil34 {fill:#FFDBB7;fill-rule:nonzero}
    .fil25 {fill:#FFE4EA;fill-rule:nonzero}
    .fil14 {fill:#FFE6C6;fill-rule:nonzero}
    .fil26 {fill:#FFECF0;fill-rule:nonzero}
    .fil5 {fill:white;fill-rule:nonzero}
    .fil12 {fill:black;fill-rule:nonzero;fill-opacity:0.301961}
    .fil21 {fill:white;fill-rule:nonzero;fill-opacity:0.301961}
    .fil4 {fill:#F5F1F7;fill-rule:nonzero;fill-opacity:0.521569}
    .fil8 {fill:#43234C;fill-rule:nonzero;fill-opacity:0.658824}
    .fil33 {fill:#4E384F;fill-rule:nonzero;fill-opacity:0.749020}
    .fil15 {fill:#532E54;fill-rule:nonzero;fill-opacity:0.749020}
    .fil32 {fill:#4E384F;fill-rule:nonzero}
    .fil24 {fill:#532E54;fill-rule:nonzero}
   ]]>
  </style>
 </defs>
 <g id="Layer_x0020_1">
  <metadata id="CorelCorpID_0Corel-Layer"/>
  <g id="_740914720">
   <g>
    <polygon class="fil0" points="916,2163 518,1969 795,1383 1262,1613 "/>
    <polygon class="fil1" points="1086,1733 1072,1720 788,1552 787,1571 "/>
    <polygon class="fil1" points="1066,1757 1066,1773 771,1612 773,1604 "/>
    <polygon class="fil1" points="1045,1808 748,1640 745,1658 1043,1813 "/>
    <polygon class="fil1" points="1015,1868 1001,1855 717,1687 715,1706 "/>
    <polygon class="fil1" points="994,1892 994,1908 700,1747 702,1739 "/>
    <g>
     <path class="fil2" d="M484 1909l-6 -15c-3,-6 1,-12 8,-15l53 -24c7,-2 14,0 17,5l6 15c3,6 -1,12 -8,15l-53 24c-7,2 -15,0 -17,-5z"/>
     <polygon class="fil3" points="506,1928 308,2029 270,1944 495,1864 "/>
     <g>
      <path class="fil4" d="M777 1949c76,-32 111,-121 78,-196 -32,-76 -120,-111 -196,-78 -76,32 -111,120 -78,196 33,76 121,111 196,78z"/>
      <path class="fil5" d="M867 1758l-286 123c-9,4 -20,0 -24,-9l-8 -18c-4,-9 1,-20 10,-24l286 -123c9,-4 20,0 24,9l8 17c4,10 -1,21 -10,25z"/>
      <path class="fil5" d="M900 1803l-309 133c-3,2 -6,0 -8,-3l-6 -14c-1,-3 0,-7 3,-8l309 -134c3,-1 7,0 8,3l6 15c2,3 0,7 -3,8z"/>
      <path class="fil6" d="M890 1738c-41,-95 -152,-139 -247,-98 -95,41 -138,151 -97,246 41,95 151,139 246,98 95,-41 139,-151 98,-246zm-304 131l0 0c-31,-73 2,-157 75,-188 72,-32 157,2 188,74 32,73 -2,157 -74,189 -73,31 -157,-2 -189,-75z"/>
     </g>
    </g>
   </g>
   <g>
    <g>
     <polygon class="fil7" points="1850,3562 1806,3562 1807,3118 1850,3118 "/>
     <polygon class="fil6" points="1866,3440 1788,3439 1800,3334 1862,3336 "/>
     <polygon class="fil7" points="1896,3568 1759,3566 1774,3418 1881,3410 "/>
     <polygon class="fil7" points="1765,2943 1645,2942 1646,2494 1765,2494 "/>
     <path class="fil3" d="M2182 2914l-574 -1c-119,0 -185,47 -185,104l0 8c0,57 46,104 142,104l140 0 477 1c58,0 104,-47 104,-104l0 -8c1,-57 -46,-104 -104,-104z"/>
     <path class="fil3" d="M1913 2756l-115 0c-195,0 -353,-158 -353,-353l1 -407 0 -79c0,-195 158,-353 353,-352l115 0c195,0 353,158 353,353l-1 486c0,195 -159,352 -353,352z"/>
     <path class="fil8" d="M1799 2765l-41 0c-130,-1 -236,-106 -236,-236l1 -158 0 -178c0,-130 106,-236 236,-236l41 0c130,1 236,106 235,236l0 337c0,130 -106,235 -236,235z"/>
     <g>
      <g>
       <path class="fil6" d="M2233 3872l-26 0c0,-162 -132,-293 -293,-294l-182 0c-162,0 -293,131 -294,293l-26 0c1,-176 144,-319 320,-319l182 0c176,1 319,144 319,320z"/>
      </g>
      <path class="fil7" d="M1482 3850c0,-29 -24,-52 -52,-52 -29,0 -52,23 -52,52 0,28 23,52 52,52 28,0 52,-24 52,-52z"/>
      <path class="fil7" d="M2272 3851c0,-29 -24,-52 -52,-52 -29,0 -52,23 -52,52 0,28 23,52 52,52 28,0 52,-24 52,-52z"/>
      <g>
       <polygon class="fil6" points="1836,3872 1810,3872 1810,3574 1836,3574 "/>
      </g>
      <path class="fil7" d="M1879 3850c0,-28 -23,-52 -52,-52 -29,0 -52,24 -52,52 0,29 23,52 52,52 28,0 52,-23 52,-52z"/>
     </g>
    </g>
    <g>
     <path class="fil9" d="M2126 3611c-10,12 -75,81 -80,89l-3 6 20 94c5,-1 29,54 31,59 1,5 -3,12 -8,12 -2,0 -4,-1 -5,-3 -1,0 -2,-1 -3,-2l0 1 -8 -6c-8,-6 -16,-13 -24,-19l-177 -167c0,0 114,-139 151,-187l106 123z"/>
    </g>
    <path class="fil6" d="M1875 3666c0,0 67,73 147,121l40 0c0,0 52,66 88,145 0,0 -106,-52 -174,-109 -68,-57 -128,-116 -128,-116l27 -41z"/>
    <g>
     <g>
      <path class="fil3" d="M3192 2023c10,2 16,2 24,-6 7,-7 25,-23 13,-32 -11,-8 -19,12 -28,18 1,-7 2,-14 1,-21 -1,-3 -2,-7 -5,-8 -4,0 -6,4 -7,7 -3,7 -6,14 -9,21 0,-7 -3,-14 -8,-19 -2,-2 -5,-5 -8,-4 -4,1 -6,5 -7,8 -5,21 11,44 32,46l2 -10z"/>
     </g>
     <g>
      <path class="fil10" d="M3207 2327c30,-63 53,-125 56,-194 2,-34 -8,-80 -34,-101 -27,-22 -70,-16 -97,6 -27,22 -41,56 -49,90 -17,74 3,167 51,226 8,10 8,10 20,14 13,4 29,0 36,-11l17 -30z"/>
     </g>
     <g>
      <g>
       <path class="fil11" d="M3176 2020c-35,32 -46,87 -50,133 -6,59 5,116 24,172 1,3 6,2 5,-1 -18,-54 -29,-108 -25,-165 4,-46 14,-103 49,-136 3,-2 -1,-6 -3,-3z"/>
      </g>
     </g>
     <g>
      <g>
       <path class="fil11" d="M3200 2022c33,91 8,193 -18,282 -1,3 4,5 5,1 27,-90 51,-192 18,-284 -1,-3 -6,-2 -5,1z"/>
      </g>
     </g>
     <polygon class="fil3" points="3075,2310 3094,2436 3231,2436 3261,2308 "/>
     <path class="fil3" d="M3053 2269l224 0c3,0 6,4 5,7l-14 52c0,3 -2,4 -5,4l-197 -7c-2,0 -4,-1 -4,-3l-14 -46c-1,-3 2,-7 5,-7z"/>
     <polygon class="fil12" points="3252,2333 3076,2326 3247,2367 "/>
     <g>
      <g>
       <path class="fil11" d="M3130 2063c-1,2 -2,5 -2,7 -1,3 4,4 5,1 1,-2 1,-4 2,-7 1,-3 -5,-4 -5,-1z"/>
      </g>
     </g>
     <g>
      <g>
       <path class="fil11" d="M3112 2170c0,2 0,5 0,7 0,3 5,3 5,0 0,-2 1,-5 1,-7 0,-3 -5,-3 -6,0z"/>
      </g>
     </g>
     <g>
      <g>
       <path class="fil11" d="M3182 2114c-1,3 -1,5 -1,7 0,4 5,4 5,0 0,-2 1,-4 1,-7 0,-3 -5,-3 -5,0z"/>
      </g>
     </g>
     <g>
      <g>
       <path class="fil11" d="M3104 2108c-1,5 -2,10 -3,14 0,3 5,5 5,1 1,-4 2,-9 3,-13 1,-3 -4,-5 -5,-2z"/>
      </g>
     </g>
     <g>
      <g>
       <path class="fil11" d="M3163 2083c-1,5 -2,9 -3,14 0,3 5,5 5,1 1,-4 2,-9 3,-13 1,-4 -4,-5 -5,-2z"/>
      </g>
     </g>
     <g>
      <g>
       <path class="fil11" d="M3192 2035c0,3 0,7 0,10 0,4 5,4 5,0 0,-3 0,-7 0,-10 0,-3 -5,-3 -5,0z"/>
      </g>
     </g>
     <g>
      <g>
       <path class="fil11" d="M3161 2165c0,5 0,10 0,15 0,3 6,3 6,0 0,-5 0,-10 0,-15 0,-4 -6,-4 -6,0z"/>
      </g>
     </g>
     <g>
      <g>
       <path class="fil11" d="M3187 2215c0,2 0,4 0,5 0,4 5,4 5,0 0,-1 0,-3 0,-5 0,-3 -5,-3 -5,0z"/>
      </g>
     </g>
     <g>
      <g>
       <path class="fil11" d="M3109 2244c0,2 0,3 0,5 0,4 5,4 5,0 0,-2 0,-3 0,-5 0,-3 -5,-3 -5,0z"/>
      </g>
     </g>
     <g>
      <g>
       <path class="fil11" d="M3150 2236c0,2 0,5 0,8 0,3 5,3 5,0 0,-3 0,-6 0,-8 0,-4 -5,-4 -5,0z"/>
      </g>
     </g>
     <g>
      <g>
       <path class="fil11" d="M3235 2065c1,5 1,11 2,16 0,3 6,3 5,0 0,-5 -1,-11 -2,-16 0,-3 -5,-3 -5,0z"/>
      </g>
     </g>
     <g>
      <g>
       <path class="fil11" d="M3232 2119c0,3 0,6 0,9 0,3 5,3 5,0 0,-3 0,-6 0,-9 0,-3 -5,-3 -5,0z"/>
      </g>
     </g>
     <g>
      <g>
       <path class="fil11" d="M3227 2180c0,5 0,10 0,15 0,4 5,4 5,0 0,-5 0,-10 0,-15 0,-3 -5,-3 -5,0z"/>
      </g>
     </g>
     <g>
      <g>
       <path class="fil11" d="M3214 2245c-1,2 -2,5 -2,7 -1,3 4,4 5,1 1,-2 1,-4 2,-7 1,-3 -5,-4 -5,-1z"/>
      </g>
     </g>
     <g>
      <g>
       <path class="fil11" d="M3244 2155c0,3 0,5 0,8 0,4 5,4 5,0 0,-3 0,-5 0,-8 0,-4 -5,-4 -5,0z"/>
      </g>
     </g>
     <g>
      <path class="fil10" d="M3117 2053c-8,-5 -15,-12 -22,-18l17 28 5 -10z"/>
     </g>
     <g>
      <path class="fil10" d="M3132 2047c-3,-4 -6,-7 -8,-10l8 10z"/>
     </g>
     <g>
      <path class="fil10" d="M3258 2128c5,-2 9,-4 14,-6l-19 -1 5 7z"/>
     </g>
     <g>
      <g>
       <path class="fil10" d="M3235 2241c4,2 8,5 12,7 0,-1 1,-3 1,-4 -5,0 -10,0 -14,1 0,1 1,2 2,3 1,-3 2,-6 3,-8 1,-3 -4,-5 -5,-2 -1,3 -2,6 -3,8 0,2 1,4 3,3 4,0 9,0 14,-1 2,0 3,-3 1,-4 -4,-2 -7,-5 -11,-7 -3,-2 -5,2 -3,4z"/>
      </g>
     </g>
     <g>
      <g>
       <path class="fil11" d="M3087 2205c0,5 0,9 0,14 0,3 6,3 6,0 0,-5 0,-9 0,-14 0,-3 -6,-3 -6,0z"/>
      </g>
     </g>
     <g>
      <path class="fil10" d="M3081 2184c-3,2 -7,4 -11,6l14 1 -3 -7z"/>
     </g>
    </g>
    <polygon class="fil7" points="1267,2473 1250,3871 1269,3871 1343,2479 "/>
    <polygon class="fil7" points="3073,2473 3090,3871 3071,3871 2997,2479 "/>
    <g>
     <path class="fil13" d="M1787 1189c23,-21 22,-59 5,-84 -18,-26 -48,-40 -78,-46 -71,-14 -153,15 -187,79 -30,55 -22,127 -63,175 -18,20 -42,33 -63,50 -16,13 -30,29 -41,47 -6,9 -11,21 -7,31 4,12 19,16 31,14 12,-3 22,-11 31,-18 -8,34 -17,70 -9,105 7,35 36,67 72,67 28,0 52,-21 65,-45 13,-25 17,-53 21,-81 -15,17 5,46 27,45 22,-1 39,-20 48,-40 9,-20 13,-43 10,-65l138 -234z"/>
    </g>
    <g>
     <path class="fil14" d="M2001 1507c66,-6 118,-71 120,-137 2,-66 -38,-130 -93,-166 -56,-37 -124,-49 -191,-47 -25,1 -50,4 -74,13 -25,10 -48,28 -67,47 -43,43 -74,99 -88,158 -14,63 -7,134 37,181 55,57 150,56 224,28 48,-18 98,-54 100,-106l32 29z"/>
    </g>
    <path class="fil9" d="M2059 1369c0,-3 -1,-6 -2,-9 -11,6 -204,-71 -276,-44 0,34 -21,190 -26,167 -3,-1 -6,-2 -10,-2 -30,-2 -56,20 -58,50 -3,29 19,55 49,58 8,1 16,-1 23,-3 0,0 -1,172 -1,177 0,68 56,241 124,241 68,0 124,-173 124,-241 0,-5 -1,-84 -1,-84 65,-22 75,-89 67,-148 -9,-60 -13,-162 -13,-162z"/>
    <path class="fil15" d="M2005 1679c0,0 -31,11 -73,7l73 65 0 -72z"/>
    <path class="fil16" d="M1693 1965c23,-57 -4,-120 -60,-143 -3,-1 -5,-2 -8,-2l0 -1c-15,-6 -33,-7 -52,-3 -5,1 -11,3 -16,4 -150,48 -377,336 -421,465 0,0 -4,9 -6,13 -19,48 4,101 50,120 44,17 94,-2 115,-43 148,-209 355,-358 355,-358l0 0c19,-12 34,-30 43,-52z"/>
    <g>
     <g>
      <path class="fil17" d="M2665 2224c4,4 7,11 6,17 -1,5 6,6 7,2 1,-9 -2,-18 -9,-24 -3,-3 -8,2 -4,5z"/>
     </g>
    </g>
    <path class="fil18" d="M1880 2697l3 0 0 0 224 -36 51 -402c0,0 59,-101 19,-187 0,0 28,-154 31,-260 0,0 -99,-28 -202,-33l-126 158 0 760z"/>
    <path class="fil19" d="M1880 2697l-3 0 0 0 -225 -60 -51 -378c0,0 -84,-97 -26,-221 0,0 -20,-120 -23,-226 0,0 106,-28 209,-33l119 158 17 323 -17 437z"/>
    <g>
     <path class="fil14" d="M2080 1394c-61,11 -144,-24 -191,-64 8,14 19,30 9,36 -13,8 -70,-21 -88,-37 6,10 31,37 21,45 -9,7 -35,-5 -46,-20 10,46 15,83 14,127 -1,42 -20,27 -26,20 -43,-46 -77,-110 -67,-172 3,-18 8,-37 20,-51 24,-31 68,-36 107,-37 49,-1 100,2 145,20 46,19 86,56 98,104l4 29z"/>
    </g>
    <g>
     <g>
      <path class="fil14" d="M1875 1432c6,-1 11,-4 17,-5 6,-1 12,-1 17,-2 4,-1 5,-6 3,-9 -11,-12 -37,-6 -44,7 -2,5 2,10 7,9z"/>
     </g>
     <g>
      <path class="fil14" d="M2027 1433c-4,-16 -31,-24 -43,-13 -2,2 -2,7 1,8 6,3 12,3 18,5 6,1 11,6 17,7 4,1 8,-3 7,-7z"/>
     </g>
    </g>
    <path class="fil7" d="M2031 3020c-77,-17 -125,-94 -107,-170 17,-77 94,-126 171,-108 3,1 563,99 666,149 102,49 136,92 104,178 -69,186 -116,94 -188,80l-72 -5c-722,-164 -622,-135 -574,-124z"/>
    <path class="fil7" d="M1875 2566c-144,0 -257,-25 -257,-25 0,0 -51,138 -56,177 -6,48 -11,156 -11,156 0,64 38,110 90,133l194 20 36 0 10 0 47 0 193 -20c52,-23 88,-85 88,-149 0,0 -3,-73 -9,-140 -6,-68 -84,-182 -84,-182 0,0 -97,30 -241,30z"/>
    <g>
     <g>
      <g>
       <path class="fil5" d="M1671 2604c9,-14 16,-29 19,-46 1,-4 -5,-6 -6,-2 -4,16 -10,31 -19,45 -3,4 3,7 6,3z"/>
      </g>
     </g>
     <g>
      <g>
       <path class="fil5" d="M1577 2667c28,-4 52,-18 72,-37 4,-3 -2,-8 -5,-5 -19,18 -42,31 -69,35 -4,1 -3,7 2,7z"/>
      </g>
     </g>
     <g>
      <g>
       <path class="fil5" d="M1568 2719c81,-10 151,-78 167,-158 1,-4 -6,-6 -7,-2 -15,76 -82,143 -160,152 -4,1 -4,8 0,8z"/>
      </g>
     </g>
     <g>
      <g>
       <path class="fil5" d="M2188 2660c-53,-8 -99,-50 -110,-102 -1,-4 -8,-2 -7,2 12,54 60,99 115,107 4,0 6,-6 2,-7z"/>
      </g>
     </g>
     <g>
      <g>
       <path class="fil5" d="M2130 2690c-49,-28 -89,-73 -100,-129 -1,-4 -8,-2 -7,2 11,58 53,104 103,133 4,2 7,-4 4,-6z"/>
      </g>
     </g>
     <g>
      <g>
       <path class="fil5" d="M2192 2711c-13,-1 -25,-5 -37,-9 -4,-2 -6,5 -2,7 13,4 26,8 39,9 4,1 4,-6 0,-7z"/>
      </g>
     </g>
     <g>
      <g>
       <path class="fil5" d="M1928 2573c1,43 2,87 3,131 0,4 7,4 7,0 -1,-44 -2,-88 -3,-131 0,-5 -7,-5 -7,0z"/>
      </g>
     </g>
    </g>
    <path class="fil7" d="M2484 3101c44,-62 29,-148 -33,-192 -62,-44 -148,-30 -192,32l-353 636c0,0 34,39 76,66 53,33 109,40 109,40l393 -582z"/>
    <path class="fil7" d="M1558 2828c7,-78 94,-105 171,-89 3,0 666,142 671,143 75,15 123,87 109,162 -15,73 -88,100 -160,88l-48 -9c-822,-47 -755,-165 -743,-295z"/>
    <g>
     <g>
      <path class="fil5" d="M1811 2758c123,23 247,48 369,75 62,14 123,28 184,43 24,6 50,12 72,24 24,12 41,32 53,55 29,54 7,114 -20,164 -2,4 4,8 7,4 22,-43 43,-93 31,-143 -12,-47 -48,-82 -94,-98 -27,-9 -55,-15 -83,-21 -32,-8 -64,-15 -96,-23 -66,-15 -132,-29 -198,-43 -74,-15 -149,-30 -223,-44 -5,0 -7,7 -2,7z"/>
     </g>
    </g>
    <g>
     <g>
      <path class="fil5" d="M2186 2764c-15,1 -32,6 -43,16 -3,4 2,9 5,5 9,-9 25,-13 38,-14 4,-1 4,-8 0,-7z"/>
     </g>
    </g>
    <g>
     <g>
      <path class="fil5" d="M1782 2752c-19,-10 -40,-15 -61,-14 -5,0 -5,7 0,7 20,-1 40,4 58,13 4,2 8,-4 3,-6z"/>
     </g>
    </g>
    <g>
     <g>
      <path class="fil5" d="M1755 2721c6,0 12,2 16,7 3,3 9,0 6,-4 -5,-7 -13,-11 -22,-10 -4,0 -4,8 0,7z"/>
     </g>
    </g>
    <g>
     <g>
      <path class="fil5" d="M2141 2747c-8,3 -14,9 -17,16 -1,5 6,7 7,2 2,-5 6,-9 12,-11 4,-1 2,-8 -2,-7z"/>
     </g>
    </g>
    <polygon class="fil20" points="3269,2590 1059,2590 1059,2448 3269,2448 "/>
    <polygon class="fil1" points="1034,2473 905,3948 926,3948 1121,2479 "/>
    <polygon class="fil1" points="3306,2473 3435,3948 3414,3948 3219,2479 "/>
    <path class="fil21" d="M1929 1498c7,-20 -8,-47 -34,-57 -26,-9 -99,-8 -100,2 -1,10 37,64 62,77 30,15 64,-1 72,-22z"/>
    <path class="fil21" d="M1984 1507c-11,-18 -1,-46 22,-60 23,-13 92,-25 95,-16 3,9 -24,68 -45,84 -26,20 -61,10 -72,-8z"/>
    <path class="fil22 str0" d="M1929 1498c7,-20 -8,-47 -34,-57 -26,-9 -99,-8 -100,2 -1,10 37,64 62,77 30,15 64,-1 72,-22"/>
    <path class="fil22 str1" d="M1984 1507c-11,-18 -1,-46 22,-60 23,-13 92,-25 95,-16 3,9 -24,68 -45,84 -26,20 -61,10 -72,-8"/>
    <line class="fil22 str2" x1="1763" y1="1486" x2="1802" y2= "1470" />
    <g>
     <g>
      <path class="fil5" d="M1618 2702c-6,39 -16,79 -9,118 4,26 18,56 42,69 31,18 72,23 107,29 115,21 232,34 347,55 40,7 83,13 120,31 49,23 11,102 -5,136 -20,40 -45,77 -68,115 -22,34 -43,69 -64,104 -48,78 -97,156 -145,234 0,2 -1,3 -2,5 -3,4 3,7 6,3 42,-68 84,-136 125,-204 25,-41 50,-81 75,-122 18,-29 37,-57 55,-86 18,-31 35,-64 45,-98 7,-24 15,-57 0,-79 -6,-9 -16,-14 -26,-17 -17,-7 -34,-12 -52,-16 -113,-27 -228,-38 -342,-56 -47,-8 -95,-15 -142,-28 -12,-4 -26,-7 -36,-15 -34,-27 -37,-74 -34,-113 2,-21 6,-42 10,-63 0,-5 -7,-7 -7,-2z"/>
     </g>
    </g>
    <g>
     <path class="fil9" d="M2523 3653c-5,14 -41,95 -44,103l0 7 46 77c3,-2 41,39 45,43 3,4 1,12 -4,13 -1,1 -3,0 -5,0 -1,-1 -2,-1 -3,-1l0 0 -9 -3c-9,-3 -18,-6 -27,-10l-208 -94c0,0 60,-158 78,-212l131 77z"/>
    </g>
    <path class="fil6" d="M2318 3777c0,0 82,45 168,63l35 -13c0,0 66,43 123,102 0,0 -110,-13 -188,-43 -78,-30 -149,-65 -149,-65l11 -44z"/>
    <path class="fil23" d="M2001 1480c0,7 2,12 5,12 3,0 6,-5 6,-12 0,-7 -3,-13 -6,-13 -3,0 -5,6 -5,13z"/>
    <path class="fil23" d="M1890 1480c0,7 3,12 6,12 3,0 6,-5 6,-12 0,-7 -3,-13 -6,-13 -3,0 -6,6 -6,13z"/>
    <g>
     <polygon class="fil24" points="1983,1545 1938,1545 1948,1447 1965,1447 "/>
     <path class="fil15" d="M1891 1543c0,-23 -18,-41 -41,-41 -22,0 -41,18 -41,41 0,22 19,41 41,41 23,0 41,-19 41,-41z"/>
     <path class="fil15" d="M2066 1494c-2,0 -5,-1 -8,-1 -22,0 -40,18 -40,41 0,23 18,41 40,41 7,0 12,-2 17,-4 0,-11 -1,-21 -2,-32 -2,-12 -4,-28 -7,-45z"/>
     <g>
      <path class="fil5" d="M1943 1564c-8,-12 -22,-16 -29,-9 -4,4 -4,11 -2,16 2,5 7,9 11,12 8,6 18,8 27,6 9,-2 20,-11 18,-20 -2,-7 -12,-7 -25,-5z"/>
     </g>
    </g>
    <path class="fil7" d="M2854 3097c29,-70 -4,-151 -74,-180 -70,-29 -151,4 -180,74l-253 671c0,0 33,33 85,57 46,21 94,21 94,21l328 -643z"/>
    <polygon class="fil25" points="2006,1753 1910,1899 1992,1942 2095,1789 "/>
    <polygon class="fil26" points="1759,1758 1853,1899 1771,1942 1680,1789 "/>
    <path class="fil19" d="M1578 1804c0,0 -133,30 -242,162 -109,133 -226,268 -216,386 9,119 293,-7 302,-44 9,-37 14,-60 -14,-72 0,0 33,10 28,-23 0,0 108,-109 154,-149 46,-40 92,-256 -12,-260z"/>
    <path class="fil9" d="M1565 2278c-1,0 -347,-32 -348,-32 -50,-5 -93,32 -98,82 -4,50 32,94 82,98 1,0 1,0 2,0 123,15 384,-17 384,-17 0,0 76,-28 70,-72 -5,-44 -47,-57 -92,-59z"/>
    <path class="fil26" d="M1330 2256c0,0 -120,-59 -182,-20 -63,40 -96,163 34,184 0,0 -64,-40 -59,-90 6,-50 43,-82 113,-80 70,2 94,6 94,6z"/>
    <path class="fil18" d="M2166 1806c0,0 118,-12 269,167 114,136 255,192 264,314 9,122 -117,100 -152,81 -112,-62 -263,-201 -372,-301 -46,-42 -114,-241 -9,-261z"/>
    <path class="fil9" d="M2943 2063c0,0 -239,267 -240,268 -34,38 -93,41 -131,7 -38,-35 -41,-93 -7,-132 0,0 1,-1 1,-1 83,-98 301,-257 301,-257 0,0 77,-32 104,5 27,37 5,77 -28,110z"/>
    <path class="fil15" d="M2703 2331l-131 7c0,0 48,56 131,-7z"/>
    <path class="fil9" d="M3051 1973c0,0 64,-32 80,-28 13,3 -20,31 -70,61 -37,23 -187,77 -188,78 -28,23 -58,28 -81,0 -23,-28 -34,-26 -5,-49 2,-2 15,-21 18,-23l2 -18c0,0 128,-95 181,-71 0,0 11,-34 35,-59 25,-25 0,53 0,53 0,0 38,-64 54,-58 15,7 -37,80 -37,80 0,0 21,-25 38,-45 27,-31 67,-39 -27,79z"/>
    <path class="fil26" d="M2786 2235c0,0 -53,136 -128,153 -74,18 -188,-48 -109,-158 0,0 -18,76 23,108 41,32 91,28 140,-25 49,-52 74,-78 74,-78z"/>
    <path class="fil22 str2" d="M1932 1481c0,0 24,-16 46,1"/>
    <path class="fil26" d="M1926 2011c0,-6 -4,-10 -9,-10 -6,0 -10,4 -10,10 0,5 4,9 10,9 5,0 9,-4 9,-9z"/>
    <path class="fil26" d="M1929 2116c0,-5 -4,-10 -9,-10 -6,0 -10,5 -10,10 0,5 4,10 10,10 5,0 9,-5 9,-10z"/>
    <path class="fil26" d="M1936 2212c0,-5 -5,-10 -10,-10 -5,0 -9,5 -9,10 0,5 4,9 9,9 5,0 10,-4 10,-9z"/>
    <path class="fil26" d="M1933 2330c0,-5 -5,-10 -10,-10 -5,0 -10,5 -10,10 0,5 5,10 10,10 5,0 10,-5 10,-10z"/>
    <path class="fil5" d="M1603 2423c0,-50 41,-91 91,-91 50,0 90,41 90,91l-181 0z"/>
    <path class="fil0" d="M1694 2423l90 0c0,-50 -40,-91 -90,-91l0 91z"/>
    <path class="fil9" d="M1703 2289c0,0 71,-11 81,-25 8,-10 -35,-12 -93,-7 -44,4 -197,50 -197,50 -37,-2 -65,11 -66,48 -2,37 -12,41 24,42 4,0 25,8 29,8l12 14c0,0 122,34 189,-52 0,0 29,22 63,27 35,5 -32,-43 -32,-43 0,0 70,29 78,15 8,-15 -77,-43 -77,-43 0,0 32,8 58,14 40,9 77,-8 -69,-48z"/>
    <polygon class="fil5" points="1802,2419 2538,2419 2511,2390 1830,2390 "/>
    <g>
     <path class="fil7" d="M2398 2174c0,0 64,231 -24,227 -88,-3 -198,-8 -198,-8l-1 26 242 10c0,0 108,2 190,-9 81,-12 -25,-253 -25,-253l-184 7z"/>
     <path class="fil6" d="M2444 2316c-2,-50 -19,-113 -19,-113l-20 -1c14,62 34,187 -35,189 -88,2 -194,2 -194,2l-1 33 215 -6c50,2 56,-63 54,-104z"/>
     <polygon class="fil1" points="2968,1647 2206,1605 2086,2205 2110,2226 2840,2214 "/>
     <path class="fil5" d="M2600 1896c11,-17 7,-39 -8,-48 -15,-10 -36,-4 -47,14 -11,17 -8,39 7,49 15,9 37,3 48,-15z"/>
     <polygon class="fil0" points="2190,1588 2222,1605 2113,2228 2081,2205 "/>
     <polygon class="fil27" points="2190,1588 2941,1629 2968,1647 2222,1605 "/>
     <path class="fil5" d="M2690 2150l-341 -10c-29,-1 -51,-28 -46,-57l3 -14c4,-25 26,-42 51,-40l355 31c28,2 46,21 42,49 -9,34 -39,41 -64,41z"/>
     <g>
      <path class="fil7" d="M2367 2116c3,-19 6,-38 8,-57 0,0 6,16 2,32 -3,17 -10,25 -10,25z"/>
     </g>
     <g>
      <path class="fil7" d="M2414 2118c3,-19 5,-35 8,-55 0,0 5,13 3,31 -2,18 -11,24 -11,24z"/>
     </g>
     <g>
      <path class="fil7" d="M2456 2120c3,-19 6,-35 8,-54 0,0 4,14 2,29 -2,14 -10,25 -10,25z"/>
     </g>
     <g>
      <path class="fil7" d="M2501 2122c3,-19 6,-33 8,-52 0,0 4,13 1,29 -3,17 -9,23 -9,23z"/>
     </g>
     <g>
      <path class="fil7" d="M2544 2125c2,-19 5,-33 8,-52 0,0 4,17 1,31 -3,15 -9,21 -9,21z"/>
     </g>
     <g>
      <path class="fil7" d="M2580 2125c1,-9 3,-17 4,-25 1,-8 3,-17 4,-27 0,0 3,18 1,30 -2,11 -9,22 -9,22z"/>
     </g>
     <g>
      <path class="fil7" d="M2619 2127c3,-20 6,-33 9,-52 0,0 4,12 2,29 -1,16 -11,23 -11,23z"/>
     </g>
     <g>
      <path class="fil7" d="M2656 2128c3,-19 5,-31 8,-50 0,0 4,18 1,33 -3,15 -9,17 -9,17z"/>
     </g>
     <g>
      <path class="fil7" d="M2694 2130c2,-9 3,-16 4,-23 1,-9 3,-17 5,-28 0,0 3,18 0,33 -3,15 -9,18 -9,18z"/>
     </g>
    </g>
    <path class="fil15" d="M1134 2283l38 135c0,0 -86,-48 -38,-135z"/>
    <polygon class="fil13" points="3500,2419 815,2419 1034,2499 3306,2499 "/>
    <path class="fil7" d="M1795 1522c0,-35 -27,-64 -60,-64 -34,0 -61,29 -61,64 0,35 27,64 61,64 33,0 60,-29 60,-64z"/>
    <g>
     <path class="fil7" d="M1735 1512c-6,0 -10,-4 -10,-9l0 -185c0,-51 21,-98 58,-129 25,-22 70,-46 138,-34 32,6 57,22 52,22 -5,0 -17,-3 -50,-7 -49,-7 -96,6 -128,33 -32,28 -51,69 -51,115l0 185c0,5 -4,9 -9,9z"/>
    </g>
    <path class="fil6" d="M1777 1522c0,-25 -19,-45 -42,-45 -24,0 -43,20 -43,45 0,25 19,45 43,45 23,0 42,-20 42,-45z"/>
    <path class="fil22 str3" d="M1739 1532c0,0 16,80 123,86"/>
    <path class="fil6" d="M1894 1622c-1,10 -12,18 -24,16 -13,-1 -22,-11 -21,-22 2,-10 13,-17 25,-16 13,2 22,11 20,22z"/>
   </g>
   <g>
    <path class="fil10" d="M975 628l-57 -312 -522 -45c0,0 -79,346 -62,340 17,-6 641,17 641,17z"/>
    <path class="fil5" d="M566 500l-2 20 -111 -9c1,-5 2,-10 4,-14 3,-8 9,-15 15,-21 7,-7 17,-15 29,-23 20,-14 33,-25 40,-33 7,-8 11,-16 12,-24 1,-8 -2,-15 -7,-21 -6,-6 -13,-10 -23,-10 -9,-1 -18,1 -24,7 -7,5 -10,13 -11,23l-21 -3c3,-16 9,-28 19,-35 10,-8 23,-11 39,-9 16,1 29,6 37,16 9,10 13,21 12,34 -1,7 -3,13 -6,20 -3,6 -8,12 -15,19 -7,7 -18,16 -34,27 -13,9 -22,16 -26,19 -4,4 -7,7 -9,11l82 6z"/>
    <path id="1" class="fil5" d="M652 527l4 -40 -73 -6 1 -19 86 -102 17 1 -9 109 23 1 -2 19 -23 -1 -3 39 -21 -1zm5 -59l6 -75 -58 71 52 4z"/>
    <polygon id="2" class="fil5" points="707,533 753,410 765,411 719,534 "/>
    <path id="3" class="fil5" d="M771 430l1 -15 79 7 -1 11c-8,8 -17,18 -25,31 -9,13 -16,27 -22,41 -3,10 -6,21 -8,33l-15 -1c1,-10 3,-21 8,-34 5,-14 11,-26 19,-38 7,-12 16,-23 24,-31l-60 -4z"/>
   </g>
   <g>
    <path class="fil20" d="M3141 163l-35 -10c-1,-7 -3,-15 -5,-22l28 -24 -24 -35c0,0 0,0 0,0l-33 18c-5,-5 -12,-9 -19,-12l4 -37 -43 -8c0,0 0,0 0,0l-10 36c-7,1 -15,2 -22,5l-24 -29 0 0 -35 24 18 33c-5,6 -9,12 -12,19l-38 -4 0 0 -7 43 36 10c1,8 2,15 5,22l-29 24 24 36 33 -19c6,5 12,9 19,12l-4 38 43 7c0,0 0,0 0,0l10 -36c8,0 15,-2 22,-4l24 28c0,0 0,0 0,0l36 -24 -19 -33c5,-5 9,-12 13,-19l37 4 7 -43zm-113 44l0 0c-47,13 -81,-37 -52,-76 5,-7 13,-12 21,-15 47,-13 82,37 53,76 -6,7 -13,13 -22,15z"/>
    <path class="fil3" d="M2869 314l-25 4c-3,-5 -6,-9 -9,-13l11 -23 -25 -15 -15 20c-5,-2 -10,-2 -16,-3l-8 -24 -29 7 4 25c-5,3 -9,6 -13,9l-23 -12 -15 26 20 15c-1,5 -2,10 -2,15l-25 8 7 29 25 -3c3,4 6,9 9,12l-11 23 25 16 15 -20c5,1 10,2 16,2l8 25 29 -7 -4 -26c5,-2 9,-5 13,-8l22 11 16 -25 -20 -16c1,-4 2,-10 2,-15l25 -8 -7 -29zm-58 58l0 0c-27,23 -64,-1 -55,-35 2,-5 5,-9 8,-12 27,-23 64,0 55,34 -2,5 -4,9 -8,13z"/>
   </g>
   <g>
    <polygon class="fil6" points="1861,822 1954,491 2398,465 2497,31 1096,0 1205,501 1727,496 "/>
    <path class="fil5" d="M1410 318c0,-5 -1,-8 -1,-11 0,-14 1,-26 5,-37 3,-8 7,-16 14,-24 4,-6 13,-15 25,-27 12,-11 20,-20 24,-27 3,-7 5,-14 4,-22 0,-14 -6,-27 -17,-37 -12,-10 -26,-15 -42,-15 -15,1 -28,6 -38,16 -10,11 -16,26 -19,47l-38 -3c3,-28 12,-50 28,-65 16,-15 38,-24 66,-25 29,-1 52,6 70,22 18,15 27,34 28,56 0,13 -2,25 -8,36 -6,12 -17,25 -34,42 -12,11 -19,19 -23,24 -3,5 -6,11 -7,17 -2,7 -3,17 -2,32l-35 1zm-4 73l-2 -41 42 -1 1 41 -41 1z"/>
    <path class="fil5" d="M1532 362c1,-2 2,-4 2,-5 3,-6 6,-11 11,-15 3,-3 7,-6 11,-8 4,-2 10,-4 18,-7 9,-2 15,-5 18,-7 3,-2 6,-5 7,-9 3,-6 3,-13 -1,-20 -3,-7 -9,-12 -17,-15 -7,-4 -15,-4 -22,-1 -7,2 -13,8 -19,16l-18 -9c7,-12 17,-20 28,-23 11,-4 23,-3 37,3 14,6 24,14 30,24 5,11 6,21 1,32 -2,6 -6,10 -12,14 -5,4 -13,8 -25,11 -8,3 -14,5 -16,6 -3,2 -6,4 -8,6 -2,3 -5,8 -8,14l-17 -7zm-18 32l9 -19 20 9 -8 18 -21 -8z"/>
    <path class="fil5" d="M1275 258c-1,-1 -2,-2 -2,-3 -3,-4 -5,-9 -6,-13 0,-3 0,-6 1,-10 1,-3 2,-7 5,-13 2,-7 3,-11 3,-14 0,-3 0,-5 -2,-8 -3,-4 -8,-7 -14,-8 -6,-1 -13,0 -19,3 -5,3 -9,8 -11,13 -2,5 -1,11 2,18l-15 7c-5,-10 -5,-18 -2,-26 3,-8 10,-15 20,-21 11,-6 21,-8 31,-7 10,2 17,6 21,13 3,4 4,8 4,13 0,5 -1,11 -5,20 -2,5 -3,9 -4,12 0,2 0,4 1,7 1,2 2,6 5,10l-13 7zm13 25l-9 -13 16 -9 8 13 -15 9z"/>
    <polygon class="fil28" points="1671,177 1671,167 2339,150 2333,175 "/>
    <polygon class="fil28" points="1668,235 1668,264 2320,255 2320,245 "/>
    <polygon class="fil28" points="1668,332 2313,310 2303,337 1668,342 "/>
   </g>
   <g>
    <polygon class="fil29" points="211,1249 1310,1232 1653,1466 1419,815 0,828 "/>
    <polygon class="fil2" points="1252,963 1213,952 240,921 256,957 "/>
    <polygon class="fil2" points="1253,1016 1270,1046 283,1036 279,1020 "/>
    <polygon class="fil2" points="1305,1111 306,1092 319,1128 1305,1121 "/>
   </g>
   <g>
    <polygon class="fil0" points="3706,1533 2497,1331 2255,1490 2502,722 4010,648 "/>
    <g>
     <g>
      <g>
       <path class="fil9" d="M2621 843c-19,-62 -91,-167 -101,-183 -2,-3 -3,-9 -3,-12 0,-3 1,-6 4,-7 2,-1 5,1 8,2 11,6 15,11 40,31 -27,-25 -42,-43 -51,-57 -4,-8 -5,-13 -4,-16 2,-4 7,-4 11,-3 11,4 19,12 29,20 17,15 12,10 29,25 -16,-18 -53,-59 -48,-68 4,-9 24,4 29,9 19,18 23,19 43,37 -24,-26 -52,-56 -44,-62 8,-7 60,37 79,61 5,-20 12,-42 20,-34 10,9 18,80 15,125l-56 132z"/>
      </g>
      <g>
       <path class="fil9" d="M2677 665c7,114 45,274 83,310 80,75 293,-123 293,-123 0,0 256,21 58,163 -400,290 -501,97 -538,-110 -10,-54 -7,-125 -5,-190l109 -50z"/>
      </g>
      <path class="fil15" d="M2819 1160c0,-20 -25,-41 -60,-49 -37,-9 -72,2 -77,23 0,1 0,1 0,2 35,20 81,30 137,24z"/>
     </g>
     <g>
      <path class="fil7" d="M3604 702c-3,14 -6,29 -1,42 4,14 19,25 33,20 9,-3 14,-12 19,-20 41,-72 83,-143 124,-215 23,-38 46,-80 38,-124 -3,-18 -17,-39 -36,-36 9,-29 -3,-61 -24,-83 -21,-22 -49,-35 -77,-46 -70,-26 -148,-41 -198,-96 -7,-9 -15,-18 -25,-21 -20,-5 -38,15 -39,35 0,20 11,39 22,56 -14,-11 -36,-13 -48,-1 -13,13 -7,39 10,42 -22,1 -38,24 -39,46 -1,22 9,42 21,61 34,51 82,92 121,139 40,47 73,106 68,167l31 34z"/>
     </g>
     <path class="fil30" d="M3723 368c0,0 0,0 0,0l0 1c0,0 0,-1 0,-1z"/>
     <path class="fil9" d="M3449 327c21,2 232,0 221,101 -8,30 -30,62 -38,92 -1,5 -1,12 4,13 2,0 5,-2 7,-3 4,-4 8,-8 12,-12 -11,15 -28,43 -17,51 10,7 37,-20 48,-40 3,0 6,0 9,0 29,5 47,32 42,60 -4,28 -31,47 -59,42 -8,-1 -15,-4 -21,-9l-39 149c0,5 -1,11 -2,16 -17,63 -81,101 -145,84 -63,-16 -101,-81 -84,-144 1,-5 3,-9 4,-14l17 -63c-55,-36 -48,-100 -26,-153 22,-53 66,-167 67,-170z"/>
     <g>
      <path class="fil31" d="M3695 587c-3,-8 -8,-15 -15,-20 0,0 2,-2 8,-2 7,0 20,3 20,3 -8,-7 -20,-9 -29,-4 -11,6 -17,13 -18,24 0,0 9,-17 17,-18l17 17z"/>
     </g>
     <path class="fil32" d="M3408 650c0,0 26,17 66,24l-83 42 17 -66z"/>
     <g>
      <path class="fil7" d="M3460 372c-1,-17 24,-23 38,-21 7,1 17,7 17,15 0,9 -8,11 -15,12 2,-1 4,-2 6,-2 -6,3 -12,2 -19,3 -6,1 -14,5 -20,2 -4,-1 -7,-4 -7,-9z"/>
     </g>
     <g>
      <path class="fil7" d="M3618 425c-8,-1 -12,-7 -18,-12 -5,-5 -11,-7 -15,-14 1,2 2,4 4,5 -6,-4 -12,-10 -6,-17 4,-7 16,-7 22,-4 13,5 31,23 21,38 -1,3 -5,5 -8,4z"/>
     </g>
     <polygon class="fil32" points="3465,526 3508,537 3522,442 3505,438 "/>
     <path class="fil33" d="M3554 544c5,-22 27,-35 48,-29 21,5 34,27 29,48 -5,22 -27,34 -48,29 -22,-5 -35,-27 -29,-48z"/>
     <path class="fil33" d="M3399 456c3,0 5,0 8,1 21,5 34,27 29,48 -6,21 -27,34 -49,29 -6,-1 -11,-4 -15,-8 3,-10 6,-20 10,-29 5,-12 11,-26 17,-41z"/>
     <path class="fil3" d="M2955 1144c161,-67 235,-112 235,-112l37 -18c22,-9 81,-73 96,-94 37,-56 22,-131 -33,-168 -2,-1 -5,-2 -7,-4l0 0c-15,-10 -34,-15 -55,-15 -7,-1 -18,-2 -24,-1 -79,8 -246,139 -346,212 0,0 17,75 97,200z"/>
     <g>
      <g>
       <path class="fil5" d="M2910 899c27,73 66,145 110,209 3,4 8,0 6,-3 -44,-64 -82,-135 -109,-208 -2,-4 -8,-2 -7,2z"/>
      </g>
     </g>
     <path class="fil3" d="M3707 1534l38 -257 44 -181c8,-13 104,49 107,33 6,-42 27,-222 -2,-248 -62,-70 -182,-94 -272,-118 0,0 -44,58 -125,47 -81,-12 -107,-81 -107,-81 -93,-3 -179,-21 -271,37 -36,17 13,198 17,213l-16 223 -31 227 618 105z"/>
     <g>
      <g>
       <path class="fil5" d="M3342 749c16,79 98,130 175,127 5,0 5,-6 0,-6 -74,2 -153,-47 -168,-122 -1,-5 -8,-3 -7,1z"/>
      </g>
     </g>
     <path class="fil23" d="M3576 486c-2,7 -5,12 -8,11 -3,-1 -4,-7 -3,-14 2,-6 6,-11 9,-10 3,0 4,7 2,13z"/>
     <path class="fil23" d="M3457 455c-1,7 -5,12 -8,11 -3,-1 -4,-7 -2,-14 1,-6 5,-11 8,-10 3,0 4,6 2,13z"/>
     <g>
      <polygon class="fil14" points="3734,698 3876,512 3759,426 3626,615 "/>
      <polygon class="fil13" points="3663,563 3730,468 3845,554 3768,647 "/>
      <path class="fil34" d="M3785 549c-3,-6 -11,-8 -17,-3 -6,4 -8,13 -5,19 4,6 12,7 18,3 6,-5 8,-13 4,-19z"/>
     </g>
     <g>
      <g>
       <path class="fil9" d="M3791 658c-15,12 -22,18 -37,16 -2,0 12,-16 19,-28 -122,-110 -36,-66 -6,-47 -46,-35 -79,-81 19,-23 -51,-42 -51,-63 22,-20 -28,-12 -74,-72 53,-1 8,5 343,121 385,314 37,172 -80,363 -535,203l49 -227c0,0 193,138 279,119 112,-25 21,-201 -248,-306z"/>
      </g>
     </g>
     <path class="fil24" d="M4242 1002c-29,-2 -46,-38 -45,-78 1,-34 17,-61 39,-70 1,1 6,14 6,15 15,53 15,90 0,133z"/>
     <path class="fil3" d="M3936 1167c-161,-42 -264,-80 -264,-80 -23,-5 -41,-309 -6,-310 76,-4 230,95 335,152 0,0 -4,109 -65,238z"/>
     <g>
      <g>
       <path class="fil5" d="M3948 904c-5,40 -15,81 -26,120 -10,41 -23,81 -38,120 -1,4 5,6 7,2 15,-41 28,-82 39,-124 10,-39 20,-78 24,-118 1,-5 -6,-5 -6,0z"/>
      </g>
     </g>
     <g>
      <path class="fil5" d="M3501 555c13,-9 28,-8 32,1 2,6 0,13 -4,17 -4,4 -10,7 -15,8 -10,3 -20,1 -29,-4 -8,-6 -16,-18 -10,-26 4,-6 14,-3 26,4z"/>
     </g>
     <g>
      <path class="fil7" d="M3762 392c11,-26 25,-51 41,-73 4,-5 8,-11 14,-13 6,-2 13,1 14,7 1,4 -1,7 -2,10 -17,30 -41,56 -70,73l3 -4z"/>
     </g>
     <g>
      <g>
       <path class="fil5" d="M3578 866c39,-10 72,-35 92,-70 2,-4 -4,-7 -6,-3 -19,33 -50,57 -88,66 -4,1 -2,8 2,7z"/>
      </g>
     </g>
    </g>
   </g>
   <path class="fil13" d="M3774 462c0,-4 -3,-8 -8,-8 -5,0 -9,4 -9,8 0,5 4,9 9,9 5,0 8,-4 8,-9z"/>
  </g>
 </g>
</svg>
