<?xml version="1.0" encoding="UTF-8"?>
<!DOCTYPE svg PUBLIC "-//W3C//DTD SVG 1.1//EN" "http://www.w3.org/Graphics/SVG/1.1/DTD/svg11.dtd">
<!-- Creator: CorelDRAW X7 -->
<svg xmlns="http://www.w3.org/2000/svg" xml:space="preserve" width="0.499992in" height="0.433331in" version="1.1" style="shape-rendering:geometricPrecision; text-rendering:geometricPrecision; image-rendering:optimizeQuality; fill-rule:evenodd; clip-rule:evenodd"
viewBox="0 0 500 433"
 xmlns:xlink="http://www.w3.org/1999/xlink">
 <defs>
  <style type="text/css">
   <![CDATA[
    .fil0 {fill:white}
   ]]>
  </style>
 </defs>
 <g id="Layer_x0020_1">
  <metadata id="CorelCorpID_0Corel-Layer"/>
  <g id="_914255200">
   <path class="fil0" d="M479 341l0 -19c-1,-1 -1,-5 -8,-5 -3,0 -10,0 -13,-1 0,-10 0,-21 0,-31l0 -48c0,-15 -5,-23 -13,-34l-30 -45c-1,-1 -1,-2 -2,-3 -2,-3 -5,-5 -8,-8 -6,-4 -14,-8 -22,-9 -9,-2 -22,-1 -31,-1 -11,0 -22,0 -32,0 -7,0 -12,5 -12,12 0,45 0,91 0,136 0,10 1,21 0,32l-90 0c0,1 3,4 5,6 2,2 3,4 5,6 2,5 4,10 5,15 0,1 0,1 0,1 1,2 0,1 1,1l95 0c1,0 1,-3 1,-4 1,-2 1,-3 2,-4 2,-6 6,-14 10,-18 3,-2 3,-3 6,-5 4,-3 6,-4 11,-6 15,-6 30,-5 44,4 5,3 11,9 14,13 4,6 7,13 8,20l44 0c3,0 6,1 8,-2 1,-1 1,-1 1,-2 0,0 0,0 0,0l1 -1zm-144 -166l0 40c0,8 11,6 18,6 16,0 32,0 49,0 4,0 13,1 16,-1 4,-4 1,-8 -2,-11l-21 -30c-1,-2 -2,-4 -4,-6 -1,-2 -3,-4 -6,-4l-44 0c-3,0 -6,3 -6,6z"/>
   <path class="fil0" d="M81 228l0 62c0,7 1,9 8,9l195 0c8,0 8,-4 8,-10l0 -168c0,-5 -1,-9 -4,-14 -3,-3 -7,-6 -12,-6 -5,-1 -66,-1 -70,-1 0,2 5,15 5,29 0,11 -1,22 -4,30 -3,9 -6,17 -10,24l-3 5c-6,9 -19,22 -28,28 -1,0 -1,1 -3,1 -3,3 -6,4 -10,6 -9,5 -24,9 -34,9 -9,1 -14,1 -24,-1 -2,0 -5,0 -7,-1 -1,0 -6,-2 -7,-2z"/>
   <path class="fil0" d="M21 129l0 7c1,0 1,2 1,3 1,11 2,20 7,30 1,2 2,3 3,5 2,4 3,6 6,10 6,8 13,15 21,21l3 2c0,0 1,0 1,0 8,5 13,8 23,11 18,5 40,4 57,-3 8,-3 13,-6 21,-12 2,-1 5,-3 6,-5 5,-5 6,-5 10,-11 3,-4 4,-4 7,-10 1,0 1,-1 1,-2 2,-3 3,-5 4,-8 8,-18 9,-38 5,-57 -2,-5 -4,-13 -7,-17 -7,-14 -14,-22 -26,-32 -22,-17 -47,-17 -48,-18l-11 0c-1,1 0,0 -1,1l-4 0c-4,0 -9,1 -14,2 -13,4 -24,10 -34,19 -2,2 -4,3 -5,5 -1,1 -2,2 -3,3 -6,6 -13,17 -16,26 -3,6 -5,13 -6,20 0,1 0,9 -1,10zm88 72c10,0 21,-2 30,-6 8,-4 14,-9 19,-14 3,-3 5,-5 8,-9 2,-3 4,-6 6,-10 3,-6 5,-12 6,-19 0,-1 0,-2 0,-3 1,-6 1,-12 0,-17 -1,-10 -5,-20 -10,-28 -16,-24 -46,-36 -75,-29 -9,2 -20,7 -27,14l-1 1c-1,1 -1,1 -2,2l-3 3c-1,1 -1,1 -2,2 -2,3 -5,7 -7,11 -4,5 -6,12 -7,18 -2,7 -2,16 -2,24 1,3 2,7 3,10 1,5 1,5 3,10 2,5 6,11 10,15 9,12 25,21 40,23 2,1 3,1 5,1 1,0 2,1 3,0 2,0 2,1 3,1z"/>
   <path class="fil0" d="M185 317c-2,0 -4,0 -8,1 -5,1 -9,3 -13,6 -6,4 -4,4 -6,5 -2,2 -5,8 -6,10 -6,14 -2,31 9,41 1,1 1,1 2,2 4,2 4,3 9,5 5,2 9,3 16,3 10,0 20,-6 25,-11 10,-12 12,-28 6,-42l-3 -5c-4,-6 -10,-10 -16,-13 -2,-1 -4,-1 -7,-2 -2,0 -7,-1 -8,0zm-1 55c4,0 6,-1 10,-2 5,-3 10,-10 10,-15 0,-6 -1,-10 -5,-14 -5,-5 -11,-7 -18,-5 -1,0 -2,1 -3,1 -1,1 -2,1 -3,2 0,0 -2,1 -2,2 -7,8 -7,17 0,25 2,2 8,6 11,6z"/>
   <path class="fil0" d="M341 353c0,15 8,28 22,34 7,3 17,4 25,2 12,-4 21,-14 25,-26 2,-9 1,-18 -3,-26 -2,-4 -5,-7 -7,-10 -5,-5 -11,-8 -18,-9 -19,-5 -41,8 -44,30 0,1 0,4 0,5zm18 -1c0,5 1,8 4,12 0,1 0,1 1,2 2,2 8,6 12,6 5,0 7,-1 12,-4l2 -2c2,-2 2,-3 4,-5 3,-7 1,-15 -4,-20 -14,-14 -31,0 -31,11z"/>
   <path class="fil0" d="M67 340c0,3 2,6 5,6l66 0c1,0 1,-3 1,-4 1,-2 1,-3 2,-5 2,-5 5,-10 8,-14l6 -6 -70 0c-8,0 -15,-2 -18,3 -1,2 0,17 0,20z"/>
   <path class="fil0" d="M99 85l0 46c0,1 1,3 2,5 2,3 8,4 14,5l15 4c4,1 4,2 7,2 4,0 8,-4 8,-8 0,-3 0,-6 -4,-9 -3,-2 -22,-6 -24,-7 0,-6 0,-12 0,-18 0,-6 0,-12 0,-18 0,-2 -1,-5 -2,-6 -1,-2 -3,-4 -6,-4 -6,0 -10,4 -10,8z"/>
  </g>
 </g>
</svg>
