<?xml version="1.0" encoding="UTF-8"?>
<!DOCTYPE svg PUBLIC "-//W3C//DTD SVG 1.1//EN" "http://www.w3.org/Graphics/SVG/1.1/DTD/svg11.dtd">
<!-- Creator: CorelDRAW X7 -->
<svg xmlns="http://www.w3.org/2000/svg" xml:space="preserve" width="0.499992in" height="0.433331in" version="1.1" style="shape-rendering:geometricPrecision; text-rendering:geometricPrecision; image-rendering:optimizeQuality; fill-rule:evenodd; clip-rule:evenodd"
viewBox="0 0 500 433"
 xmlns:xlink="http://www.w3.org/1999/xlink">
 <defs>
  <style type="text/css">
   <![CDATA[
    .fil0 {fill:#FEFEFE}
   ]]>
  </style>
 </defs>
 <g id="Layer_x0020_1">
  <metadata id="CorelCorpID_0Corel-Layer"/>
  <path class="fil0" d="M154 152l0 34c-8,0 -13,0 -18,6 -2,3 -5,9 -5,14l0 146c0,9 8,20 14,20l210 0c6,0 14,-11 14,-20l0 -146c0,-5 -3,-11 -5,-14 -5,-5 -10,-6 -18,-6 0,-19 2,-34 -3,-53 -5,-22 -19,-40 -36,-53 -3,-2 -5,-3 -7,-5 -3,-2 -4,-2 -7,-4 -11,-5 -24,-9 -37,-9l-13 0c-12,0 -24,4 -35,9 -12,6 -18,10 -27,19 -7,7 -14,18 -18,26 -3,8 -7,18 -8,26 -1,4 -1,6 -1,10zm79 -52l34 0c14,0 26,12 26,27l0 26 -86 0 0 -26c0,-15 12,-27 26,-27zm12 123c16,0 28,13 28,28 0,10 -4,18 -10,23l0 83 -36 0 0 -83c-7,-5 -11,-13 -11,-23 0,-15 13,-28 29,-28z"/>
 </g>
</svg>
