<?xml version="1.0" encoding="UTF-8"?>
<!DOCTYPE svg PUBLIC "-//W3C//DTD SVG 1.1//EN" "http://www.w3.org/Graphics/SVG/1.1/DTD/svg11.dtd">
<!-- Creator: CorelDRAW X7 -->
<svg xmlns="http://www.w3.org/2000/svg" xml:space="preserve" width="0.499992in" height="0.433331in" version="1.1" style="shape-rendering:geometricPrecision; text-rendering:geometricPrecision; image-rendering:optimizeQuality; fill-rule:evenodd; clip-rule:evenodd"
viewBox="0 0 500 433"
 xmlns:xlink="http://www.w3.org/1999/xlink">
 <defs>
  <style type="text/css">
   <![CDATA[
    .fil0 {fill:white}
   ]]>
  </style>
 </defs>
 <g id="Layer_x0020_1">
  <metadata id="CorelCorpID_0Corel-Layer"/>
  <g id="_912551840">
   <path class="fil0" d="M404 400l0 -157c-5,-6 -8,-5 -18,-5l-107 0c-10,0 -34,-3 -39,4 -5,5 -4,154 -1,162 10,3 121,1 148,1 11,0 11,1 17,-5zm-84 -148l-23 -1 0 24 22 0 1 -23zm11 24l14 0 1 0 9 0 1 -9 0 -3 0 -13 -7 0 -18 1 0 24zm35 0l24 0 1 -25 -2 0 -23 0 0 25z"/>
   <path class="fil0" d="M96 208l0 14c12,23 14,19 19,49 9,61 -10,109 -5,122 8,17 33,18 42,2 11,-20 13,-94 10,-120 -6,-57 -16,-28 21,-99 -5,-12 -29,-43 -19,-60 6,-9 19,-13 29,-4 7,7 7,19 12,28 9,-8 12,-38 -13,-45 -36,-9 -64,35 -78,62 -12,23 -14,41 -18,51z"/>
   <path class="fil0" d="M275 156l-6 7c1,4 1,1 3,7l-8 7c19,2 14,2 27,9 10,-10 10,-1 28,-2 34,-3 50,-44 30,-69 -31,-37 -90,-5 -74,41zm34 -43c-41,12 -22,65 13,57 14,-3 26,-18 22,-36 -4,-13 -19,-26 -35,-21z"/>
   <path class="fil0" d="M229 29c-54,17 -29,95 24,79 19,-6 34,-25 27,-51 -5,-18 -26,-36 -51,-28z"/>
   <path class="fil0" d="M174 113c-7,3 -10,8 -7,19 7,33 32,62 64,73 11,4 37,10 48,4 9,-4 15,-27 -12,-27 -17,-1 -31,-5 -42,-13 -38,-27 -23,-68 -51,-56z"/>
   <path class="fil0" d="M237 227c7,-4 9,-8 15,-11 -1,-1 -1,-1 -1,-1l-23 -5c-5,3 0,6 2,8 3,4 5,5 7,9z"/>
  </g>
 </g>
</svg>
