<?xml version="1.0" encoding="UTF-8"?>
<!DOCTYPE svg PUBLIC "-//W3C//DTD SVG 1.1//EN" "http://www.w3.org/Graphics/SVG/1.1/DTD/svg11.dtd">
<!-- Creator: CorelDRAW X7 -->
<svg xmlns="http://www.w3.org/2000/svg" xml:space="preserve" width="0.499992in" height="0.433331in" version="1.1" style="shape-rendering:geometricPrecision; text-rendering:geometricPrecision; image-rendering:optimizeQuality; fill-rule:evenodd; clip-rule:evenodd"
viewBox="0 0 500 433"
 xmlns:xlink="http://www.w3.org/1999/xlink">
 <defs>
  <style type="text/css">
   <![CDATA[
    .fil0 {fill:#FEFEFE}
   ]]>
  </style>
 </defs>
 <g id="Layer_x0020_1">
  <metadata id="CorelCorpID_0Corel-Layer"/>
  <g id="_930736512">
   <path class="fil0" d="M250 360c-33,-17 -73,-64 -93,-97 -18,-30 -49,-104 -46,-148 28,-8 119,-47 139,-47 21,0 110,39 139,47 3,53 -33,133 -64,175 -16,22 -51,58 -75,70zm0 30c27,-12 72,-56 91,-79 23,-29 44,-67 57,-111 8,-24 12,-45 15,-70 5,-38 -8,-36 -37,-46 -155,-53 -95,-55 -253,1 -29,10 -41,8 -36,46 10,84 40,145 93,203 14,15 52,48 70,56z"/>
   <path class="fil0" d="M181 186c-7,17 18,53 26,65 6,9 14,22 31,15 8,-3 20,-16 25,-22l58 -63c9,-11 30,-31 26,-41 -19,-9 -98,66 -116,76 -13,-11 -35,-32 -50,-30z"/>
  </g>
 </g>
</svg>
