<?xml version="1.0" encoding="UTF-8"?>
<!DOCTYPE svg PUBLIC "-//W3C//DTD SVG 1.1//EN" "http://www.w3.org/Graphics/SVG/1.1/DTD/svg11.dtd">
<!-- Creator: CorelDRAW X7 -->
<svg xmlns="http://www.w3.org/2000/svg" xml:space="preserve" width="3.68333in" height="2.21999in" version="1.1" style="shape-rendering:geometricPrecision; text-rendering:geometricPrecision; image-rendering:optimizeQuality; fill-rule:evenodd; clip-rule:evenodd"
viewBox="0 0 3683 2220"
 xmlns:xlink="http://www.w3.org/1999/xlink">
 <defs>
  <style type="text/css">
   <![CDATA[
    .fil0 {fill:#9900CC;fill-rule:nonzero}
   ]]>
  </style>
 </defs>
 <g id="Layer_x0020_1">
  <metadata id="CorelCorpID_0Corel-Layer"/>
  <g id="_872665248">
   <path class="fil0" d="M2710 1008l-93 -53 0 -1 17 0c0,0 0,0 1,0l58 32 17 9 222 -29 1 7 0 22c-4,3 -8,14 -9,18 -1,1 -1,1 -1,0l-4 -29 -1 -3 -25 3c0,0 0,0 0,0l-46 6 -137 18z"/>
   <path class="fil0" d="M2932 966l163 -20 1 4c-1,0 -2,1 -2,2l0 19c-4,5 -6,13 -6,17 0,0 -1,0 -1,0l-5 -25 -1 -5 -24 3 -67 11 0 1 -57 0 -1 -7z"/>
   <path class="fil0" d="M3095 946l158 -20c21,6 16,4 30,7 16,3 18,11 19,15 1,3 -3,13 -22,14 -19,1 -58,2 -63,2 0,-2 -1,-3 -3,-4l-7 -4c0,0 -1,0 -2,-1 0,0 -1,0 -1,0l-19 2c-3,-4 -8,-6 -11,-7 -1,0 -3,0 -4,0l-74 0c0,0 0,0 0,0l-1 -4z"/>
   <path class="fil0" d="M2388 851l98 0c1,0 2,1 2,2l0 6c0,1 0,2 -1,2l-11 3 0 0 -89 0c-3,-3 -4,-9 1,-13z"/>
   <path class="fil0" d="M2891 612c1,0 3,0 5,1l3 0 0 -2c0,-1 0,-1 -1,-1 0,-25 20,-45 45,-45 4,0 9,1 14,3l2 0 0 -2c10,-25 35,-43 62,-43 36,0 66,30 66,66 0,3 -1,6 -1,10l-1 3 4 -1c4,-2 8,-3 12,-3 17,0 32,14 32,31 0,18 -15,32 -32,32l-210 0c-14,0 -25,-11 -25,-25 0,-13 11,-24 25,-24zm0 53l210 0c20,0 36,-16 36,-36 0,-19 -16,-35 -36,-35 -3,0 -7,0 -11,2 1,-3 1,-5 1,-7 0,-39 -32,-70 -70,-70 -29,0 -54,18 -65,44 -5,-1 -9,-2 -13,-2 -27,0 -48,21 -49,47 -1,0 -2,0 -3,0 -16,0 -29,13 -29,28 0,16 13,29 29,29z"/>
   <path class="fil0" d="M2614 683c5,-7 10,-9 14,-9 1,0 2,1 3,1l4 0 -1 -3c-2,-5 -3,-10 -2,-15 2,-12 12,-22 24,-23 7,-1 15,1 21,6 6,5 9,12 9,20l1 3 3 -1c2,-1 4,-2 7,-2 2,0 3,0 5,1l1 1 1 -1c6,-8 15,-12 25,-12 17,0 31,14 31,31 0,6 -2,11 -5,16l-2 4 42 0c2,0 4,2 4,4l0 3c0,3 -2,4 -4,4l-167 0c-10,0 -18,-8 -18,-18 0,-4 1,-7 4,-10zm14 33l167 0c5,0 8,-4 8,-9l0 -3c0,-5 -3,-9 -8,-9l-34 0c2,-4 3,-9 3,-15 0,-19 -16,-35 -35,-35 -11,0 -20,4 -27,12 -2,-1 -3,-1 -5,-1 -2,0 -4,0 -6,1 -2,-8 -5,-15 -11,-20 -7,-6 -16,-9 -25,-7 -14,1 -25,13 -27,26 -1,5 -1,10 0,14 -5,0 -11,2 -18,10 -3,4 -5,8 -5,13 0,13 11,23 23,23z"/>
   <path class="fil0" d="M3500 871c-2,-8 -4,-16 -5,-22 -7,1 -12,1 -14,1l5 22c0,0 4,0 14,-1z"/>
   <path class="fil0" d="M3512 847c-3,1 -6,1 -9,1 1,7 3,14 6,22 7,-1 15,-2 26,-5 -12,-7 -19,-13 -23,-18z"/>
   <path class="fil0" d="M3562 858l-29 -15c-4,1 -8,2 -11,2 5,5 12,11 24,18 5,-2 10,-3 16,-5z"/>
   <path class="fil0" d="M2442 870l-57 -3 0 4 57 3c0,0 0,0 0,0 1,0 2,0 3,0l42 -11c2,0 4,-2 4,-4l0 -6c0,-2 -2,-4 -5,-4l-99 0 0 4 99 0 0 6 -10 2 0 0 -90 0 0 5 74 0 -16 4c-1,0 -1,0 -2,0z"/>
   <path class="fil0" d="M2651 891c3,0 5,-2 5,-5l0 -20c0,-2 -2,-5 -5,-5l-7 0c-3,0 -5,3 -5,5l0 20c0,3 2,5 5,5l7 0z"/>
   <path class="fil0" d="M2686 891c3,0 5,-2 5,-5l0 -20c0,-2 -2,-5 -5,-5l-7 0c-3,0 -5,3 -5,5l0 20c0,3 2,5 5,5l7 0z"/>
   <path class="fil0" d="M2721 891c3,0 5,-2 5,-5l0 -20c0,-2 -2,-5 -5,-5l-7 0c-3,0 -5,3 -5,5l0 20c0,3 2,5 5,5l7 0z"/>
   <path class="fil0" d="M2756 891c3,0 5,-2 5,-5l0 -20c0,-2 -2,-5 -5,-5l-7 0c-2,0 -5,3 -5,5l0 20c0,3 3,5 5,5l7 0z"/>
   <path class="fil0" d="M2791 891c3,0 5,-2 5,-5l0 -20c0,-2 -2,-5 -5,-5l-7 0c-2,0 -5,3 -5,5l0 20c0,3 3,5 5,5l7 0z"/>
   <path class="fil0" d="M2826 891c3,0 5,-2 5,-5l0 -20c0,-2 -2,-5 -5,-5l-7 0c-2,0 -4,3 -4,5l0 20c0,3 2,5 4,5l7 0z"/>
   <path class="fil0" d="M2861 891c3,0 5,-2 5,-5l0 -20c0,-2 -2,-5 -5,-5l-7 0c-2,0 -4,3 -4,5l0 20c0,3 2,5 4,5l7 0z"/>
   <path class="fil0" d="M2896 891c3,0 5,-2 5,-5l0 -20c0,-2 -2,-5 -5,-5l-7 0c-2,0 -4,3 -4,5l0 20c0,3 2,5 4,5l7 0z"/>
   <path class="fil0" d="M2932 891c2,0 4,-2 4,-5l0 -20c0,-2 -2,-5 -4,-5l-8 0c-2,0 -4,3 -4,5l0 20c0,3 2,5 4,5l8 0z"/>
   <path class="fil0" d="M2967 891c2,0 4,-2 4,-5l0 -20c0,-2 -2,-5 -4,-5l-7 0c-3,0 -5,3 -5,5l0 20c0,3 2,5 5,5l7 0z"/>
   <path class="fil0" d="M3002 891c2,0 4,-2 4,-5l0 -20c0,-2 -2,-5 -4,-5l-7 0c-3,0 -5,3 -5,5l0 20c0,3 2,5 5,5l7 0z"/>
   <path class="fil0" d="M3037 891c2,0 4,-2 4,-5l0 -20c0,-2 -2,-5 -4,-5l-7 0c-3,0 -5,3 -5,5l0 20c0,3 2,5 5,5l7 0z"/>
   <path class="fil0" d="M3072 891c2,0 5,-2 5,-5l0 -20c0,-2 -3,-5 -5,-5l-7 0c-3,0 -5,3 -5,5l0 20c0,3 2,5 5,5l7 0z"/>
   <path class="fil0" d="M3107 891c2,0 5,-2 5,-5l0 -20c0,-2 -3,-5 -5,-5l-7 0c-3,0 -5,3 -5,5l0 20c0,3 2,5 5,5l7 0z"/>
   <path class="fil0" d="M3142 891c3,0 5,-2 5,-5l0 -20c0,-2 -2,-5 -5,-5l-7 0c-3,0 -5,3 -5,5l0 20c0,3 2,5 5,5l7 0z"/>
   <path class="fil0" d="M3177 891c3,0 5,-2 5,-5l0 -20c0,-2 -2,-5 -5,-5l-7 0c-3,0 -5,3 -5,5l0 20c0,3 2,5 5,5l7 0z"/>
   <path class="fil0" d="M3212 891c3,0 5,-2 5,-5l0 -20c0,-2 -2,-5 -5,-5l-7 0c-3,0 -5,3 -5,5l0 20c0,3 2,5 5,5l7 0z"/>
   <path class="fil0" d="M3247 891c3,0 5,-2 5,-5l0 -20c0,-2 -2,-5 -5,-5l-7 0c-3,0 -5,3 -5,5l0 20c0,3 2,5 5,5l7 0z"/>
   <path class="fil0" d="M3282 891c3,0 5,-2 5,-5l0 -20c0,-2 -2,-5 -5,-5l-7 0c-3,0 -5,3 -5,5l0 20c0,3 2,5 5,5l7 0z"/>
   <path class="fil0" d="M3431 729c-14,-13 -36,-13 -50,0 -5,5 3,13 8,8 10,-9 24,-9 34,0 5,5 13,-3 8,-8z"/>
   <path class="fil0" d="M3447 715c-23,-22 -59,-22 -82,0 -5,5 3,12 8,8 18,-18 48,-18 66,0 5,4 13,-3 8,-8z"/>
   <path class="fil0" d="M3357 708c27,-27 71,-27 98,0 5,5 13,-3 8,-7 -31,-31 -82,-31 -114,0 -5,4 3,12 8,7z"/>
   <path class="fil0" d="M3395 754c0,6 5,11 11,11 6,0 11,-5 11,-11 0,-6 -5,-11 -11,-11 -6,0 -11,5 -11,11z"/>
   <path class="fil0" d="M3280 960c-12,1 -33,1 -61,2 -1,-2 -2,-3 -4,-4l-7 -4c-1,0 -1,0 -2,-1 -1,0 -2,0 -3,0l-17 2c-3,-3 -7,-5 -11,-7 -2,0 -3,-1 -5,-1l-72 0 155 -19c14,4 16,4 21,5 2,0 4,1 8,2 14,3 16,9 17,13l1 1c0,0 0,1 -1,3 -1,2 -6,7 -19,8zm-61 31c0,8 -3,19 -4,23 0,1 -1,2 -2,3l-6 3 0 -61 6 2c1,1 2,2 2,4l0 0 0 0c1,5 4,15 4,23l0 3zm-108 22l0 -48c0,0 1,0 2,0l90 -7 0 63 -90 -7c-1,0 -2,-1 -2,-1zm-4 -4l-1 -1c0,-1 -1,-2 -1,-3l0 -32c0,-1 0,-2 1,-3l1 0 0 39zm-24 -2l0 -30 2 11c0,2 1,2 2,2 0,0 0,0 0,0 2,0 3,-1 3,-2 0,-4 2,-11 5,-15l1 -1 0 -20c0,0 0,0 0,0l74 0c1,0 2,0 3,0 2,1 4,2 6,3l-67 5c-1,1 -3,1 -5,2 0,1 0,1 -1,2l-3 4c-1,1 -2,3 -2,5l0 32c0,1 0,3 1,4l-18 -2c0,0 -1,0 -1,0zm-21 -24l-4 -2 0 -18 21 -3 1 2c-1,0 -1,0 -1,0 0,0 -1,1 -1,1l-3 4c-1,1 -2,3 -2,5l0 28c0,1 0,1 1,2l-5 0c-1,-5 -2,-10 -2,-12 -1,-3 -3,-5 -5,-7zm4 36c0,9 -2,20 -3,26 -1,1 -2,3 -3,3l-6 4 0 -68 6 3c1,1 2,2 3,4 0,2 1,7 2,13 1,5 1,9 1,12l0 3zm-118 25l0 -53c1,0 1,0 2,0l99 -8 0 70 -99 -8c-1,0 -1,-1 -2,-1zm-5 -5c0,-1 0,-1 -1,-1 0,-1 0,-2 0,-3l0 -35c0,-1 0,-2 1,-3l1 -1 0 44 -1 -1zm-24 -5l0 -36 2 16c0,1 1,2 2,2 0,0 0,0 0,0 1,0 2,-1 3,-2 3,-9 6,-15 8,-17l1 -1 0 -21 77 0c3,0 6,1 9,3l6 2 -77 6c-2,1 -4,1 -5,3l-1 0c0,0 0,0 -1,1l-3 4c-2,2 -3,4 -3,6l0 35c0,1 0,1 1,1l-18 -1c0,0 -1,0 -1,-1zm-6 -8l0 -32c0,-1 0,-2 1,-3l0 0 0 39 0 -1c-1,-1 -1,-2 -1,-3zm-18 1l0 -41 1 0 0 0 19 -2c-1,0 -1,0 -1,1l-3 3c-2,2 -3,4 -3,6l0 32c0,1 1,1 1,2l-13 -1c-1,0 -1,0 -1,0zm-5 -7l0 -27c0,-1 0,-2 0,-2l0 31c0,-1 0,-1 0,-2zm-23 -18c-7,-4 -12,-8 -15,-10l35 -5 0 1c-1,1 -2,3 -2,5l0 16c-3,-1 -10,-3 -18,-7zm-242 -5l-28 -40 19 -1 0 0 85 49 -68 -3c-3,0 -6,-2 -8,-5zm428 -18l0 -10c0,0 1,0 1,-1l0 11c0,0 0,0 -1,0zm-18 1l-12 -6c-3,-2 -7,-3 -11,-3l-1 0 40 -6c-1,1 -2,3 -2,4l0 10 -14 1zm43 22c0,0 -1,-1 -1,-2l0 -28c0,-1 1,-2 1,-3l0 33zm-368 -5l384 -49c-1,1 -2,2 -2,4l0 18c-2,3 -4,6 -5,9l-4 -24 -93 15 0 1 -59 0 0 23c-3,3 -5,7 -7,12l-4 -27 -25 3 0 -1c0,1 -1,1 -2,1l0 0 -182 24 -87 -50 10 0 76 41zm123 -30c0,0 0,0 0,0l0 0 315 -47c1,0 65,-5 95,5l-532 67 -11 -5 133 -20zm775 -94l-62 -33 -30 -15c-17,-8 -36,-13 -56,-13l-235 0c-41,0 -125,13 -150,16 -4,1 -9,1 -13,1l-463 0c-16,0 -21,-2 -50,-16 -14,-6 -55,-47 -96,-86 -23,-22 -47,-45 -66,-64l-3 4c20,18 43,41 66,63 43,41 83,80 97,87 12,6 20,10 27,12l-189 0 0 5 677 0c4,0 9,-1 14,-1 25,-4 109,-16 149,-16l235 0c19,0 38,4 54,12l30 15 62 33c5,3 9,10 9,16 0,6 -3,12 -8,15 -19,14 -64,37 -147,47 -4,1 -8,1 -12,1l-147 0c1,-1 1,-1 2,-2 1,-2 2,-5 1,-7l0 -1c-2,-4 -5,-12 -21,-15 -4,-1 -7,-2 -9,-2 -4,-1 -6,-1 -20,-5l0 -1 0 0 0 0 -8 -2c-31,-10 -96,-6 -99,-5l-314 46c-47,-2 -162,-16 -447,-72l-1 4c210,41 353,65 428,71l-119 18 -58 -31c-1,0 -1,-1 -2,-1l0 0 -38 2c-1,0 -2,0 -3,2 -1,1 -1,2 0,4l28 41c3,4 7,6 12,6l77 4 136 -18c3,3 9,9 19,13 10,5 17,7 20,8l0 7c0,2 1,4 2,5l3 3c0,1 1,1 1,1 1,1 3,2 4,2l16 2 3 3c0,0 1,1 1,1 2,1 3,2 5,2l19 2c0,0 0,0 1,0l3 5c1,0 1,1 1,1 2,1 4,2 6,2l99 8c1,0 1,0 1,0 1,0 1,0 2,0 1,0 2,-1 3,-1l7 -4c2,-1 4,-4 5,-6 1,-6 4,-18 4,-27l0 -3c0,-3 -1,-6 -1,-10l7 1 1 2c0,0 1,1 1,1 1,1 3,1 5,2l21 2 1 1c1,0 1,1 1,1 2,1 4,2 5,2l91 7c1,0 1,0 1,0 0,0 1,0 2,0 1,0 1,0 2,-1l7 -3c2,-1 4,-4 5,-6 1,-5 3,-16 3,-24l0 -3c0,-7 -2,-17 -3,-22 28,0 49,-1 60,-2 7,0 12,-2 16,-4l152 0c4,0 8,0 12,0 84,-10 130,-35 150,-48 6,-4 9,-11 9,-19 0,-8 -4,-16 -11,-20z"/>
   <path class="fil0" d="M3357 1333c-1,-3 -5,-4 -8,-4l-39 0c-5,0 -10,4 -10,10l0 62c0,5 5,10 10,10l49 0c6,0 10,-4 10,-9 1,-1 1,-2 0,-3l-10 -62c0,-2 -1,-3 -2,-4z"/>
   <path class="fil0" d="M2770 1320l1 -1 -1 0c0,0 1,0 1,0l35 0 0 106 -41 0 0 -86c0,-6 2,-14 5,-19zm1 -23l583 0c2,0 3,1 4,2 1,2 1,4 1,7 0,5 -2,9 -5,9l-583 0c-2,0 -3,-2 -3,-2 -1,-2 -2,-5 -2,-7 0,-6 3,-9 5,-9zm506 128l-467 0 0 -106 467 0 0 106zm-512 4l602 0 0 21 5 0 0 -48 0 -4 -12 -65 -4 -14 -4 1 3 13 12 65 0 27 -85 0 0 -106 72 0c6,0 10,-6 10,-13 0,-4 -1,-7 -3,-9 -1,-3 -4,-5 -7,-5l-583 0c-5,0 -9,6 -9,14 0,3 0,6 2,9 1,1 2,2 3,3l-1 0c-3,6 -6,14 -6,21l0 112 5 0 0 -22z"/>
   <path class="fil0" d="M2948 1359c0,-3 2,-4 4,-4l184 0c2,0 4,1 4,4l0 26c0,3 -2,4 -4,4l-184 0c-2,0 -4,-1 -4,-4l0 -26zm4 35l184 0c4,0 8,-4 8,-9l0 -26c0,-5 -4,-9 -8,-9l-184 0c-4,0 -8,4 -8,9l0 26c0,5 4,9 8,9z"/>
   <path class="fil0" d="M2890 1359c0,-3 2,-4 4,-4l25 0c2,0 4,1 4,4l0 26c0,3 -2,4 -4,4l-25 0c-2,0 -4,-1 -4,-4l0 -26zm4 35l25 0c5,0 8,-4 8,-9l0 -26c0,-5 -3,-9 -8,-9l-25 0c-5,0 -8,4 -8,9l0 26c0,5 3,9 8,9z"/>
   <path class="fil0" d="M2834 1359c0,-3 2,-4 4,-4l26 0c2,0 3,1 3,4l0 26c0,3 -1,4 -3,4l-26 0c-2,0 -4,-1 -4,-4l0 -26zm4 35l26 0c4,0 8,-4 8,-9l0 -26c0,-5 -4,-9 -8,-9l-26 0c-4,0 -8,4 -8,9l0 26c0,5 4,9 8,9z"/>
   <path class="fil0" d="M3162 1359c0,-3 2,-4 4,-4l25 0c2,0 4,1 4,4l0 26c0,3 -2,4 -4,4l-25 0c-2,0 -4,-1 -4,-4l0 -26zm4 35l25 0c5,0 8,-4 8,-9l0 -26c0,-5 -3,-9 -8,-9l-25 0c-5,0 -8,4 -8,9l0 26c0,5 3,9 8,9z"/>
   <path class="fil0" d="M3218 1359c0,-3 1,-4 3,-4l26 0c2,0 4,1 4,4l0 26c0,3 -2,4 -4,4l-26 0c-2,0 -3,-1 -3,-4l0 -26zm3 35l26 0c4,0 8,-4 8,-9l0 -26c0,-5 -4,-9 -8,-9l-26 0c-4,0 -8,4 -8,9l0 26c0,5 4,9 8,9z"/>
   <path class="fil0" d="M2386 1355l174 0c2,0 4,1 4,4l0 26c0,3 -2,4 -4,4l-174 0 0 -34zm174 39c5,0 8,-4 8,-9l0 -26c0,-5 -3,-9 -8,-9l-175 0c-2,0 -4,2 -4,4l0 36c0,2 2,4 4,4l175 0z"/>
   <path class="fil0" d="M2587 1385l0 -26c0,-3 1,-4 3,-4l26 0c2,0 4,1 4,4l0 26c0,3 -2,4 -4,4l-26 0c-2,0 -3,-1 -3,-4zm29 9c4,0 8,-4 8,-9l0 -26c0,-5 -4,-9 -8,-9l-26 0c-4,0 -8,4 -8,9l0 26c0,5 4,9 8,9l26 0z"/>
   <path class="fil0" d="M2642 1385l0 -26c0,-3 2,-4 4,-4l25 0c2,0 4,1 4,4l0 26c0,3 -2,4 -4,4l-25 0c-2,0 -4,-1 -4,-4zm29 9c5,0 8,-4 8,-9l0 -26c0,-5 -3,-9 -8,-9l-25 0c-5,0 -8,4 -8,9l0 26c0,5 3,9 8,9l25 0z"/>
   <path class="fil0" d="M2750 1425l-42 0 0 -106 36 0 0 0c3,5 6,13 6,20l0 86zm0 -126c1,2 2,4 2,7 0,5 -3,9 -5,9l-361 0 0 4 318 0 0 106 -317 0 0 4 363 0 0 22 4 0 0 -112c0,-6 -2,-14 -5,-20 4,-1 7,-7 7,-13 0,-4 -1,-7 -3,-9 -1,-3 -4,-5 -6,-5l-362 0 0 5 362 0c1,0 2,0 3,2z"/>
   <path class="fil0" d="M3216 1579c-1,4 -4,7 -8,7l-17 0c-1,0 -1,0 -1,0 0,0 0,0 -1,-1l-6 -6c-1,-1 -2,-1 -4,-1l-44 0c-2,0 -3,0 -4,1l-6 6c-1,1 -1,1 -2,1l-17 0c-4,0 -7,-3 -8,-7l-16 -72 150 0 -16 72zm-551 0c-1,4 -5,7 -8,7l-18 0c0,0 0,0 0,0 0,0 -1,-1 -1,-1l-6 -6c-1,-1 -2,-1 -4,-1l-44 0c-2,0 -3,0 -5,1l-6 6c0,1 0,1 -1,1l-17 0c-4,0 -7,-3 -8,-7l-16 -72 150 0 -16 72zm748 -128l-1028 0c-1,0 -2,1 -2,3 0,1 1,2 2,2l1028 0c4,0 7,3 7,7l0 16 -1035 0c-1,0 -2,1 -2,2 0,1 1,2 2,2l1035 0 0 12c0,4 -3,8 -7,8l-1028 0c-1,0 -2,1 -2,2 0,1 1,2 2,2l142 0 16 73c1,6 6,10 12,10l15 0 0 196 4 0 0 -196c1,-1 2,-1 3,-2l5 -6c1,0 1,0 2,0l1 0 0 204 4 0 0 -204 33 0 0 204 4 0 0 -204 2 0c0,0 1,0 1,0l6 6c0,1 1,1 1,1l0 195 4 0 0 -194 17 0c6,0 11,-4 12,-10l16 -73 393 0 16 73c1,6 6,10 12,10l15 0 0 196 5 0 0 -196c0,-1 1,-1 2,-2l6 -6c0,0 1,0 1,0l1 0 0 204 4 0 0 -204 33 0 0 204 5 0 0 -204 1 0c1,0 1,0 1,0l6 6c1,1 1,1 1,1l0 195 4 0 0 -194 17 0c6,0 11,-4 12,-10l16 -73 177 0c6,0 11,-5 11,-12l0 -32c0,-6 -5,-12 -11,-12z"/>
   <path class="fil0" d="M1173 745l28 0 0 38 -39 0 6 -34c1,-2 3,-4 5,-4zm-9 3l-7 40 48 0 0 -47 -32 0c-4,0 -8,3 -9,7z"/>
   <path class="fil0" d="M1277 682l-48 0 43 -28 5 28zm5 4l-7 -40 -60 40 67 0z"/>
   <path class="fil0" d="M1267 629l-29 0 26 -17 3 17zm6 4l-6 -28 -43 28 49 0z"/>
   <path class="fil0" d="M1218 1367l51 0 -51 33 0 -33zm-4 41l69 -46 -69 0 0 46z"/>
   <path class="fil0" d="M1260 588l-11 0 10 -7 1 7zm5 4l-3 -18 -28 18 31 0z"/>
   <path class="fil0" d="M1278 1472l-51 0 51 -34 0 34zm5 -42l-71 46 71 0 0 -46z"/>
   <polygon class="fil0" points="1214,1496 1218,1496 1218,1487 1269,1487 1261,1492 1264,1495 1283,1482 1214,1482 "/>
   <path class="fil0" d="M1228 644l33 0 -39 25 6 -25zm47 -5l-51 0 -8 39 59 -39z"/>
   <path class="fil0" d="M1237 602l16 0 -19 13 3 -13zm-10 22l40 -26 -34 0 -6 26z"/>
   <path class="fil0" d="M1245 760l13 0 0 24 -13 0 0 -24zm17 29l0 -34 -22 0 0 34 22 0z"/>
   <path class="fil0" d="M1218 1127l51 0 -51 33 0 -33zm-4 41l69 -46 -69 0 0 46z"/>
   <path class="fil0" d="M827 783l-4 28c0,4 -3,6 -7,6l-7 0 -1 5 0 0c0,1 0,2 -1,3l-1 1 0 9c-2,0 -4,1 -6,3 -2,2 -3,5 -3,8 0,4 3,8 6,9l0 1c-3,-2 -6,-5 -6,-9 0,-5 2,-9 6,-11l0 -1 2 -9 -2 -1c-1,0 -1,-1 -1,-3l-2 -5 -6 0c-4,0 -7,-2 -7,-6l-4 -28c0,-3 3,-6 6,-6l2 -1 28 1c4,0 8,2 8,6zm-15 74l0 -1c0,0 1,0 2,0 -1,0 -2,0 -2,1zm-68 48l62 -44c0,0 0,0 1,0 0,0 0,0 0,0l62 44 -125 0zm149 5l0 53c0,0 0,1 0,1l-175 0c0,0 0,-1 0,-1l0 -53c0,-1 0,-1 0,-1l18 0c0,0 1,0 1,0 0,0 0,0 0,0l139 0c0,0 0,0 0,0 1,0 1,0 1,0l16 0c0,0 0,0 0,1zm-98 -200l17 0 0 62 -17 0 0 -62zm406 290l0 -139c0,-2 2,-4 4,-4l9 0 -3 -3c-2,-1 -2,-3 -2,-5l0 -1c0,-2 1,-3 2,-5l4 -3 -54 0 0 -21 -15 0c-7,0 -12,-5 -12,-12l0 -25c0,-1 0,-2 1,-3l10 -45c1,-5 6,-9 11,-9l49 0 0 -31 -375 0 -1 2c0,5 -4,9 -9,9l-32 0c-5,0 -9,-4 -10,-9l0 -2 -243 0c-1,0 -2,-1 -2,-2l0 -4c0,-1 1,-2 2,-2l12 0 45 -30 -8 0c-1,0 -1,0 -1,-1l0 -4c0,0 0,-1 1,-1l552 0c0,0 1,1 1,1l0 4 0 2 44 29 25 0 32 -151 -4 0c-4,0 -7,-3 -7,-6l0 -6c0,-3 3,-6 7,-6l8 0 4 -17c0,-2 2,-3 5,-3 2,0 4,1 4,3l3 17 8 0c4,0 7,3 7,6l0 6c0,3 -3,6 -7,6l-4 0 29 151 87 0 0 -19 -1 0c-1,0 -1,-1 -1,-1l0 -4c0,-1 0,-1 1,-1l22 0 0 -5 -22 0c-3,0 -6,3 -6,6l0 4c0,2 1,3 3,4l0 12 -80 0 -27 -142c6,-1 10,-6 10,-11l0 -6c0,-6 -5,-11 -11,-11l-4 0 -3 -12c0,-5 -4,-8 -9,-8 -4,0 -8,3 -8,7l-3 13 -5 0c-6,0 -11,5 -11,11l0 6c0,5 4,10 10,11l-31 142 -20 0 -41 -28 0 -3c0,-3 -2,-5 -5,-5l-552 0c-3,0 -6,2 -6,5l0 4c0,2 1,3 2,4l-35 23 -10 0c-3,0 -6,3 -6,6l0 4c0,4 3,7 6,7l239 0c2,6 7,10 13,10l0 64c-5,1 -8,5 -8,10l4 28c0,6 5,11 11,11l3 0 0 1c0,2 1,4 3,5l0 5c-5,3 -8,9 -7,14 0,5 2,9 6,11l-64 45c-1,1 -1,1 -1,2l-16 0c-2,0 -4,2 -4,5l0 53c0,3 2,5 4,5l175 0c3,0 5,-2 5,-5l0 -53c0,-3 -2,-5 -5,-5l-14 0c0,-1 0,-1 -1,-2l-62 -44c0,0 1,0 2,-1 3,-2 4,-6 5,-9 0,-2 -1,-4 -1,-4 -1,-1 -2,-1 -2,-1 -2,0 -3,1 -4,3 0,3 -4,6 -8,6 -3,0 -6,-4 -6,-7 0,-2 0,-4 2,-5 1,-1 3,-2 4,-2l3 0 0 -11c1,-2 1,-3 2,-5l0 -1 3 0c6,0 11,-5 11,-11l4 -28 0 0c0,-6 -5,-10 -10,-11l0 -63c6,0 11,-4 12,-10l368 0 0 22 -45 0c-7,0 -14,5 -15,13l-11 44c0,2 0,3 0,4l0 25c0,9 7,16 16,16l11 0 0 21 48 0c0,1 -1,3 -1,4l0 1c0,2 1,3 1,4l0 0c-4,0 -8,4 -8,8l0 139c0,3 2,6 4,7l0 486 4 0 0 -489 -1 -1c-2,0 -3,-1 -3,-3z"/>
   <path class="fil0" d="M1246 557l4 -17c0,0 0,0 0,0l0 -3 0 3c1,0 1,0 1,0l3 17 -8 0zm5 -22l-1 0 0 0c-2,0 -4,1 -4,4l-5 22 18 0 -4 -22c0,-2 -2,-4 -4,-4z"/>
   <polygon class="fil0" points="1400,671 1400,667 1384,667 1384,686 1400,686 1400,682 1389,682 1389,671 "/>
   <path class="fil0" d="M1291 749l8 0 0 6 -4 0 0 85 -13 0 4 3c2,2 2,3 2,5l0 1c0,2 0,4 -1,5l-4 3 9 0c2,0 3,2 3,4l0 139c0,2 -1,3 -2,3l-2 1 0 489 5 0 0 -486c2,-1 4,-4 4,-7l0 -139c0,-4 -4,-8 -8,-8 0,-1 1,-2 1,-4l0 -1c0,-1 -1,-3 -1,-4l8 0 0 -84 3 0 0 -15 -7 0 0 -46 102 0 0 -5 -107 0 0 55z"/>
   <path class="fil0" d="M1218 1008l53 0 -53 35 0 -35zm-4 43l71 -47 -71 0 0 47z"/>
   <path class="fil0" d="M1243 572l4 0 -4 2 0 -2zm-7 12l25 -17 -21 0 -4 17z"/>
   <path class="fil0" d="M1278 1172l-51 0 51 -34 0 34zm5 -42l-71 46 71 0 0 -46z"/>
   <path class="fil0" d="M1280 988l-45 0 45 -30 0 30zm1 4c2,0 3,-1 3,-3l0 -39 -64 42 61 0z"/>
   <path class="fil0" d="M1218 1187l51 0 -51 33 0 -33zm-4 41l69 -46 -69 0 0 46z"/>
   <path class="fil0" d="M1278 745l-49 0 0 -3 49 -32 0 35zm-48 64l-1 0c0,-1 0,-1 0,-2l0 -47 1 0 0 49zm53 -107l-58 38 0 67c0,1 0,2 0,3l-1 3 10 0 0 -58 -3 0 0 -6 52 0 0 -47z"/>
   <path class="fil0" d="M1218 1307l51 0 -51 33 0 -33zm-4 41l69 -46 -69 0 0 46z"/>
   <path class="fil0" d="M1104 661l-29 19 -30 -19 59 0zm14 -5l-87 0 44 29 43 -29z"/>
   <path class="fil0" d="M1156 682l-7 0 -2 -7 9 7zm14 4l-33 -22 10 22 23 0z"/>
   <path class="fil0" d="M1278 1054l-58 0 58 -39 0 39zm5 -47l-69 46 0 6 69 0 0 -52z"/>
   <path class="fil0" d="M1126 664l7 18 -34 0 27 -18zm1 -6l-43 28 56 0 -13 -28z"/>
   <path class="fil0" d="M1022 663l29 19 -58 0 29 -19zm0 -5l-43 28 86 0 -43 -28z"/>
   <path class="fil0" d="M1278 1412l-51 0 51 -34 0 34zm5 4l0 -46 -71 46 71 0z"/>
   <path class="fil0" d="M1284 877l0 -5c0,-2 -1,-3 -3,-3l-65 0c-2,0 -4,1 -4,3l0 5 72 0z"/>
   <path class="fil0" d="M1218 1103l0 -38 58 0 -58 38zm65 -43l-69 0 0 51 69 -46 0 -5z"/>
   <path class="fil0" d="M999 661l-30 19 -29 -19 59 0zm14 -5l-87 0 43 29 44 -29z"/>
   <path class="fil0" d="M1217 948l52 0 -52 34 0 -34zm-5 -5l0 47 72 -47 -72 0z"/>
   <path class="fil0" d="M1280 933l-53 0 53 -35 0 35zm4 4l0 -47 -72 47 72 0z"/>
   <path class="fil0" d="M1278 1075l0 37 -55 0 55 -37zm-64 42l69 0 0 -50 -69 46 0 4z"/>
   <path class="fil0" d="M1217 888l52 0 -52 34 0 -34zm-5 -5l0 47 71 -47 -71 0z"/>
   <path class="fil0" d="M917 663l28 19 -57 0 29 -19zm0 -5l-43 28 86 0 -43 -28z"/>
   <path class="fil0" d="M1278 1232l-51 0 51 -34 0 34zm5 4l0 -46 -71 46 71 0z"/>
   <path class="fil0" d="M683 661l-30 19 -29 -19 59 0zm14 -5l-87 0 43 29 44 -29z"/>
   <path class="fil0" d="M572 682l29 -19 28 19 -57 0zm-14 4l86 0 -43 -28 -43 28z"/>
   <path class="fil0" d="M706 663l29 19 -58 0 29 -19zm0 -5l-43 28 86 0 -43 -28z"/>
   <path class="fil0" d="M1218 1427l51 0 -51 33 0 -33zm-4 41l69 -46 -69 0 0 46z"/>
   <path class="fil0" d="M1285 784l-12 0 0 -24 12 0 0 24zm4 -29l-21 0 0 34 21 0 0 -34z"/>
   <path class="fil0" d="M1278 1292l-51 0 51 -34 0 34zm5 4l0 -46 -71 46 71 0z"/>
   <path class="fil0" d="M893 661l-29 19 -29 -19 58 0zm15 -5l-88 0 44 29 44 -29z"/>
   <path class="fil0" d="M1218 699l51 0 -43 28c-2,-2 -5,-4 -8,-5l0 -23zm-4 26l2 1c3,0 6,2 7,5l2 2 58 -39 -69 0 0 31z"/>
   <path class="fil0" d="M1218 1247l51 0 -51 33 0 -33zm-4 -5l0 46 69 -46 -69 0z"/>
   <path class="fil0" d="M1278 1352l-51 0 51 -34 0 34zm5 4l0 -46 -71 46 71 0z"/>
   <path class="fil0" d="M783 682l28 -19 29 19 -17 0c-1,-1 -2,-1 -3,-1l-32 0c-1,0 -2,0 -3,1l-2 0zm2 4c1,0 2,0 3,0l32 0c1,0 1,0 2,0l32 0 -43 -28 -43 28 17 0 0 0z"/>
   <path class="fil0" d="M788 661l-29 19 -30 -19 59 0zm14 -5l-87 0 44 29 43 -29z"/>
   <path class="fil0" d="M855 957l-72 0c-1,0 -2,1 -2,2 0,1 1,2 2,2l72 0c1,0 2,-1 2,-2 0,-1 -1,-2 -2,-2z"/>
   <path class="fil0" d="M761 957l-35 0 0 -41c0,-1 -1,-2 -2,-2 -2,0 -3,1 -3,2l0 45 40 0c1,0 2,-1 2,-2 0,-1 -1,-2 -2,-2z"/>
   <path class="fil0" d="M866 914c0,1 1,2 2,2l18 0 0 39c0,1 1,2 2,2 1,0 2,-1 2,-2l0 -43 -22 0c-1,0 -2,1 -2,2z"/>
   <path class="fil0" d="M755 916l73 0c2,0 2,-1 2,-2 0,-1 0,-2 -2,-2l-73 0c-1,0 -2,1 -2,2 0,1 1,2 2,2z"/>
   <path class="fil0" d="M933 428c4,0 7,1 10,3l4 1 -1 -4c0,-3 0,-5 0,-8 0,-31 25,-56 56,-56 23,0 44,15 52,37l1 2 2 -1c4,-1 8,-2 11,-2 21,0 38,17 38,38 0,0 0,0 0,1l0 2 2 0c2,-1 3,-1 5,-1 11,0 20,9 20,21 0,11 -9,20 -20,20l-180 0c-15,0 -26,-12 -26,-26 0,-15 11,-27 26,-27zm0 57l180 0c13,0 25,-11 25,-24 0,-15 -13,-27 -28,-25 -1,-22 -19,-40 -42,-40 -3,0 -7,0 -11,2 -9,-23 -31,-38 -55,-38 -34,0 -60,27 -60,60 0,2 0,3 0,5 -3,-1 -6,-1 -9,-1 -17,0 -31,14 -31,31 0,17 14,30 31,30z"/>
   <path class="fil0" d="M151 1393c-8,7 4,20 12,12 16,-15 40,-15 55,0 8,8 21,-5 13,-12 -23,-22 -58,-22 -80,0z"/>
   <path class="fil0" d="M125 1369c-9,8 4,21 12,13 30,-29 77,-29 107,0 8,8 21,-5 13,-13 -37,-36 -96,-36 -132,0z"/>
   <path class="fil0" d="M98 1346c-8,8 5,20 13,12 44,-43 115,-43 159,0 8,8 21,-4 13,-12 -51,-50 -134,-50 -185,0z"/>
   <path class="fil0" d="M208 1433c0,10 -8,18 -17,18 -10,0 -18,-8 -18,-18 0,-10 8,-18 18,-18 9,0 17,8 17,18z"/>
   <path class="fil0" d="M594 1673l17 0 0 34c0,1 1,2 2,2 1,0 2,-1 2,-2l0 -39 -21 0c-2,0 -2,1 -2,2 0,2 0,3 2,3z"/>
   <path class="fil0" d="M532 1670c0,-1 -1,-2 -2,-2l-44 0c-1,0 -2,1 -2,2 0,2 1,3 2,3l44 0c1,0 2,-1 2,-3z"/>
   <path class="fil0" d="M493 1656c0,-1 -1,-2 -2,-2l-34 0 0 -33c0,-2 -1,-3 -2,-3 -1,0 -2,1 -2,3l0 37 38 0c1,0 2,-1 2,-2z"/>
   <path class="fil0" d="M549 1618l62 0 0 28c0,1 1,2 2,2 1,0 2,-1 2,-2l0 -33 -66 0c-2,0 -3,1 -3,3 0,1 1,2 3,2z"/>
   <path class="fil0" d="M784 1710l-46 0c-1,0 -2,1 -2,2 0,2 1,3 2,3l46 0c2,0 2,-1 2,-3 0,-1 0,-2 -2,-2z"/>
   <path class="fil0" d="M652 1710l-22 0 0 -28c0,-1 -1,-2 -2,-2 -1,0 -2,1 -2,2l0 33 26 0c1,0 2,-1 2,-3 0,-1 -1,-2 -2,-2z"/>
   <path class="fil0" d="M767 1668c-1,0 -2,1 -2,2 0,2 1,3 2,3l17 0 0 23c0,1 1,2 2,2 0,0 0,0 0,0 1,0 2,-1 2,-2l0 -28 -21 0z"/>
   <path class="fil0" d="M750 1670c0,-1 -1,-2 -2,-2l-30 0c-1,0 -2,1 -2,2 0,2 1,3 2,3l30 0c1,0 2,-1 2,-3z"/>
   <path class="fil0" d="M696 1710l-22 0c-1,0 -2,1 -2,2 0,2 1,3 2,3l22 0c2,0 3,-1 3,-3 0,-1 -1,-2 -3,-2z"/>
   <path class="fil0" d="M660 1668l-30 0c-2,0 -2,1 -2,2 0,2 0,3 2,3l30 0c1,0 2,-1 2,-3 0,-1 -1,-2 -2,-2z"/>
   <path class="fil0" d="M848 1658l46 0c2,0 3,-1 3,-2 0,-1 -1,-2 -3,-2l-46 0c-1,0 -2,1 -2,2 0,1 1,2 2,2z"/>
   <path class="fil0" d="M827 1656c0,-1 -1,-2 -2,-2l-22 0 0 -37 29 0c1,0 2,-1 2,-2 0,-1 -1,-2 -2,-2l-33 0 0 45 26 0c1,0 2,-1 2,-2z"/>
   <path class="fil0" d="M938 1654c-2,0 -2,1 -2,2 0,2 0,3 2,3l24 0 -1 -45c0,-1 0,-2 -2,-2l0 0c-1,0 -2,1 -2,2l0 40 -19 0z"/>
   <path class="fil0" d="M869 1616l79 0c1,0 2,-1 2,-2 0,-1 -1,-2 -2,-2l-79 0c-1,0 -2,1 -2,2 0,1 1,2 2,2z"/>
   <path class="fil0" d="M847 1709l-44 0 0 -37c0,-1 -1,-2 -2,-2 -1,0 -2,1 -2,2l0 42 48 0c1,0 2,-1 2,-2 0,-2 -1,-3 -2,-3z"/>
   <path class="fil0" d="M890 1709l-32 0c-1,0 -2,1 -2,3 0,1 1,2 2,2l32 0c1,0 2,-1 2,-2 0,-2 -1,-3 -2,-3z"/>
   <path class="fil0" d="M959 1668l0 0c-1,0 -2,1 -2,2l0 39 -23 0c-1,0 -2,1 -2,3 0,1 1,2 2,2l28 0 -1 -44c0,-1 0,-2 -2,-2z"/>
   <path class="fil0" d="M922 1670l-91 0c-1,0 -2,1 -2,2 0,1 1,2 2,2l91 0c1,0 2,-1 2,-2 0,-1 -1,-2 -2,-2z"/>
   <path class="fil0" d="M752 1654l-61 0c-1,0 -2,1 -2,2 0,1 1,2 2,2l61 0c1,0 2,-1 2,-2 0,-1 -1,-2 -2,-2z"/>
   <path class="fil0" d="M652 1654l-22 0 0 -38c0,-1 -1,-2 -2,-2 -1,0 -2,1 -2,2l0 42 26 0c1,0 2,-1 2,-2 0,-1 -1,-2 -2,-2z"/>
   <path class="fil0" d="M786 1612l0 0c-1,0 -2,1 -2,2l0 37 -20 0c-1,0 -2,1 -2,2 0,2 1,2 2,2l24 0 0 -41c0,-1 -1,-2 -2,-2z"/>
   <path class="fil0" d="M643 1616l83 0c1,0 2,-1 2,-2 0,-1 -1,-2 -2,-2l-83 0c-1,0 -2,1 -2,2 0,1 1,2 2,2z"/>
   <path class="fil0" d="M944 1597l-73 0c-1,0 -2,1 -2,2 0,2 1,3 2,3l73 0c1,0 2,-1 2,-3 0,-1 -1,-2 -2,-2z"/>
   <path class="fil0" d="M824 1599c0,-1 -1,-2 -2,-2l-19 0 0 -37c0,-1 -1,-2 -2,-2 -1,0 -2,1 -2,2l0 42 23 0c1,0 2,-1 2,-3z"/>
   <path class="fil0" d="M920 1562l37 0 0 35c0,1 1,2 2,2 0,0 0,0 0,0 2,0 3,-1 3,-2l-1 -40 -41 0c-1,0 -2,1 -2,2 0,2 1,3 2,3z"/>
   <path class="fil0" d="M829 1562l45 0c2,0 3,-1 3,-3 0,-1 -1,-2 -3,-2l-45 0c-1,0 -2,1 -2,2 0,2 1,3 2,3z"/>
   <path class="fil0" d="M1068 1653l-47 0c-1,0 -2,1 -2,3 0,1 1,2 2,2l47 0c1,0 2,-1 2,-2 0,-2 -1,-3 -2,-3z"/>
   <path class="fil0" d="M1000 1656c0,-2 -1,-3 -2,-3l-22 0 0 -37c0,-1 -1,-2 -2,-2 -1,0 -2,1 -2,2l0 42 26 0c1,0 2,-1 2,-2z"/>
   <path class="fil0" d="M1113 1618l17 0 0 35c0,2 1,2 3,2 0,0 0,0 0,0 1,0 2,0 2,-2l0 -40 -22 0c-1,0 -2,1 -2,3 0,1 1,2 2,2z"/>
   <path class="fil0" d="M1004 1618l90 0c1,0 2,-1 2,-2 0,-2 -1,-3 -2,-3l-90 0c-1,0 -2,1 -2,3 0,1 1,2 2,2z"/>
   <path class="fil0" d="M1038 1674l80 0c1,0 2,-1 2,-2 0,-1 -1,-2 -2,-2l-80 0c-1,0 -2,1 -2,2 0,1 1,2 2,2z"/>
   <path class="fil0" d="M994 1670l-22 0 0 44 18 0c1,0 2,-1 2,-2 0,-1 -1,-2 -2,-2l-14 0 0 -36 18 0c1,0 2,-1 2,-2 0,-1 -1,-2 -2,-2z"/>
   <path class="fil0" d="M1063 1710l-50 0c-1,0 -2,1 -2,2 0,1 1,2 2,2l50 0c1,0 2,-1 2,-2 0,-1 -1,-2 -2,-2z"/>
   <path class="fil0" d="M1132 1670l0 0c-1,0 -2,1 -2,2l0 38 -18 0c-1,0 -2,1 -2,2 0,1 1,2 2,2l23 0 0 -42c0,-1 -1,-2 -3,-2z"/>
   <path class="fil0" d="M1037 1562l60 0c1,0 2,-1 2,-2 0,-1 -1,-2 -2,-2l-60 0c-1,0 -2,1 -2,2 0,1 1,2 2,2z"/>
   <path class="fil0" d="M988 1599c0,-1 -1,-2 -2,-2l-10 0 0 -35 27 0c1,0 2,-1 2,-2 0,-1 -1,-2 -2,-2l-31 0 0 44 14 0c1,0 2,-1 2,-3z"/>
   <path class="fil0" d="M1016 1602l94 0c2,0 3,-1 3,-3 0,-1 -1,-2 -3,-2l-94 0c-1,0 -2,1 -2,2 0,2 1,3 2,3z"/>
   <path class="fil0" d="M1113 1562l17 0 0 35c0,1 1,2 3,2 0,0 0,0 0,0 1,0 2,-1 2,-2l0 -39 -22 0c-1,0 -2,1 -2,2 0,1 1,2 2,2z"/>
   <path class="fil0" d="M1320 1671c-1,0 -2,1 -2,2l0 42 23 0c2,0 3,-1 3,-3 0,-1 -1,-2 -3,-2l-18 0 0 -37c0,-1 -1,-2 -3,-2z"/>
   <path class="fil0" d="M1349 1670c-2,0 -3,1 -3,2 0,2 1,3 3,3l45 0c1,0 2,-1 2,-3 0,-1 -1,-2 -2,-2l-45 0z"/>
   <path class="fil0" d="M1370 1559c0,-1 -1,-2 -2,-2l-46 0c-1,0 -2,1 -2,2 0,1 1,2 2,2l46 0c1,0 2,-1 2,-2z"/>
   <path class="fil0" d="M1322 1599l0 -24c0,-1 -1,-2 -2,-2 0,0 0,0 0,0 -1,0 -2,1 -2,2l0 28 22 0c1,0 2,-1 2,-2 0,-1 -1,-2 -2,-2l-18 0z"/>
   <path class="fil0" d="M1359 1603l30 0c1,0 2,-1 2,-2 0,-1 -1,-2 -2,-2l-30 0c-2,0 -2,1 -2,2 0,1 0,2 2,2z"/>
   <path class="fil0" d="M1212 1617l46 0c1,0 2,-1 2,-2 0,-1 -1,-2 -2,-2l-46 0c-1,0 -2,1 -2,2 0,1 1,2 2,2z"/>
   <path class="fil0" d="M1275 1658l33 0 0 -45 -26 0c-2,0 -3,1 -3,2 0,1 1,2 3,2l21 0 0 37 -28 0c-1,0 -2,1 -2,2 0,2 1,2 2,2z"/>
   <path class="fil0" d="M1147 1659l0 0c1,0 2,-1 2,-2l0 -40 20 0c1,0 2,-1 2,-2 0,-1 -1,-2 -2,-2l-24 0 0 44c0,1 1,2 2,2z"/>
   <path class="fil0" d="M1237 1655l-79 0c-1,0 -2,1 -2,2 0,1 1,2 2,2l79 0c1,0 2,-1 2,-2 0,-1 -1,-2 -2,-2z"/>
   <path class="fil0" d="M1259 1562l44 0 0 37c0,1 1,2 2,2 2,0 3,-1 3,-2l0 -42 -49 0c-1,0 -2,1 -2,3 0,1 1,2 2,2z"/>
   <path class="fil0" d="M1215 1560c0,1 1,2 2,2l31 0c1,0 2,-1 2,-2 0,-2 -1,-3 -2,-3l-31 0c-1,0 -2,1 -2,3z"/>
   <path class="fil0" d="M1172 1557l-27 0 0 44c0,1 1,2 2,2l0 0c1,0 2,-1 2,-2l0 -39 23 0c1,0 2,-1 2,-2 0,-2 -1,-3 -2,-3z"/>
   <path class="fil0" d="M1276 1597l-91 0c-2,0 -3,1 -3,2 0,1 1,2 3,2l91 0c1,0 2,-1 2,-2 0,-1 -1,-2 -2,-2z"/>
   <path class="fil0" d="M1399 1613l-45 0c-1,0 -2,1 -2,2 0,1 1,2 2,2l45 0c1,0 2,-1 2,-2 0,-1 -1,-2 -2,-2z"/>
   <path class="fil0" d="M1345 1618c0,-1 -1,-2 -2,-2l-25 0 0 41c0,1 1,2 2,2 0,0 0,0 0,0 1,0 2,-1 2,-2l0 -37 21 0c1,0 2,-1 2,-2z"/>
   <path class="fil0" d="M1190 1544c0,-1 -1,-2 -2,-2l-69 0c-2,0 -3,1 -3,2 0,2 1,3 3,3l69 0c1,0 2,-1 2,-3z"/>
   <path class="fil0" d="M1098 1542l-34 0 0 -39c0,-1 -1,-2 -2,-2 -2,0 -3,1 -3,2l0 44 39 0c1,0 2,-1 2,-3 0,-1 -1,-2 -2,-2z"/>
   <path class="fil0" d="M1201 1503l17 0 0 38c0,1 1,2 2,2 1,0 2,-1 2,-2l0 -42 -21 0c-2,0 -2,1 -2,2 0,1 0,2 2,2z"/>
   <path class="fil0" d="M1092 1503l70 0c2,0 3,-1 3,-2 0,-1 -1,-2 -3,-2l-70 0c-2,0 -3,1 -3,2 0,1 1,2 3,2z"/>
   <path class="fil0" d="M1295 1543c0,2 1,3 2,3l61 0c1,0 2,-1 2,-3 0,-1 -1,-2 -2,-2l-61 0c-1,0 -2,1 -2,2z"/>
   <path class="fil0" d="M1260 1543c0,-1 -1,-2 -2,-2l-22 0 0 -38c0,-1 -1,-2 -2,-2 -2,0 -3,1 -3,2l0 43 27 0c1,0 2,-1 2,-3z"/>
   <path class="fil0" d="M1370 1543l24 0 0 -42c0,-1 -1,-2 -2,-2 0,0 0,0 0,0 -1,0 -2,1 -2,2l0 37 -20 0c-2,0 -3,1 -3,3 0,1 1,2 3,2z"/>
   <path class="fil0" d="M1249 1504l83 0c1,0 2,-1 2,-3 0,-1 -1,-2 -2,-2l-83 0c-2,0 -3,1 -3,2 0,2 1,3 3,3z"/>
   <path class="fil0" d="M1163 1674l72 0c2,0 3,-1 3,-2 0,-1 -1,-2 -3,-2l-72 0c-2,0 -3,1 -3,2 0,1 1,2 3,2z"/>
   <path class="fil0" d="M1282 1672c0,1 1,2 2,2l19 0 0 37c0,1 1,2 2,2 2,0 3,-1 3,-2l0 -41 -24 0c-1,0 -2,1 -2,2z"/>
   <path class="fil0" d="M1186 1710l-37 0 0 -36c0,-1 -1,-2 -2,-2 0,0 0,0 0,0 -1,0 -2,1 -2,2l0 40 41 0c1,0 2,-1 2,-2 0,-2 -1,-2 -2,-2z"/>
   <path class="fil0" d="M1277 1710l-45 0c-1,0 -2,0 -2,2 0,1 1,2 2,2l45 0c2,0 3,-1 3,-2 0,-2 -1,-2 -3,-2z"/>
   <path class="fil0" d="M1233 1844l-28 0c-2,0 -3,1 -3,3 0,1 1,2 3,2l28 0c2,0 2,-1 2,-2 0,-2 0,-3 -2,-3z"/>
   <path class="fil0" d="M1159 1943l-66 0c-1,0 -2,1 -2,2 0,1 1,2 2,2l66 0c2,0 3,-1 3,-2 0,-1 -1,-2 -3,-2z"/>
   <path class="fil0" d="M455 1715l36 0c1,0 2,-1 2,-3 0,-1 -1,-2 -2,-2l-34 0 0 -30c0,-1 -1,-2 -2,-2 -1,0 -2,1 -2,2l0 34 -3 -2c0,0 0,0 0,0l0 -46c0,0 0,0 0,0 1,0 1,0 1,0l167 0 0 51c0,1 0,1 0,1l-154 0c-1,0 -2,-1 -3,-1l-6 -2zm-5 -105c0,0 1,-1 1,-1l167 0c0,1 0,1 0,1l0 51c0,0 0,0 0,0l-167 0c0,0 0,0 -1,0 0,0 0,0 0,0l0 -51zm194 -173c0,-5 2,-10 6,-14l187 -157c3,-3 7,-5 11,-5l57 0c4,0 8,2 11,5l187 157c4,4 6,9 6,14l0 55 -52 0c-3,0 -5,2 -5,5l0 51c0,1 0,1 0,1l-83 0c-1,0 -2,0 -3,1 0,-1 -1,-1 -2,-1l-168 0c-3,0 -5,2 -5,5l0 51c0,0 0,0 0,0 0,0 0,0 0,0l-147 0 0 -168zm753 60l0 51c0,1 0,1 0,1l-81 0c0,0 0,0 0,0l-5 0c0,0 0,0 -1,0l-81 0c0,0 0,0 0,-1l0 -51c0,0 0,0 0,0l168 0c0,0 0,0 0,0zm-606 164c0,0 0,0 0,0 0,0 0,0 0,0l-167 0c0,0 0,0 0,0l0 -51c0,0 -1,0 -1,-1l168 0c0,0 0,1 0,1l0 51zm520 -107l0 51c0,0 0,0 0,0 0,0 0,0 -1,0l-167 0c-1,0 -1,0 -1,0 0,0 0,0 0,0l0 -51c0,-1 0,-1 0,-1l83 0c0,0 0,0 0,0l4 0c0,0 0,0 0,0l82 0c0,0 0,0 0,1zm-168 56l167 0c1,0 1,0 1,0 0,0 0,0 0,0l0 51c0,0 0,0 0,0 0,0 0,0 -1,0l-167 0c-1,0 -1,0 -1,0 0,0 0,0 0,0l0 -51c0,0 0,0 0,0 0,0 0,0 1,0zm-174 0l168 0c0,0 0,0 0,0 0,0 0,0 0,0l0 51c0,0 0,0 0,0 0,0 0,0 0,0l-168 0c0,0 0,0 0,0 0,0 0,0 0,0l0 -51c0,0 0,0 0,0 0,0 0,0 0,0zm-173 0l168 0c0,0 0,0 0,0 0,0 0,0 0,0l0 51c0,0 0,0 0,0 0,0 0,0 0,0l-168 0c0,0 0,0 0,0 0,0 0,0 0,0l0 -51c0,0 0,0 0,0 0,0 0,0 0,0zm-5 56l0 51c0,1 0,1 0,1l-168 0c0,0 1,0 1,-1l0 -51 167 0c0,0 0,0 0,0 0,0 0,0 0,0zm173 0l0 51c0,1 0,1 0,1l-168 0c0,0 0,0 0,-1l0 -51c0,0 0,0 0,0 0,0 0,0 0,0l168 0c0,0 0,0 0,0 0,0 0,0 0,0zm173 0l0 51c0,1 0,1 0,1l-168 0c0,0 0,0 0,-1l0 -51c0,0 0,0 0,0 0,0 0,0 0,0l168 0c0,0 0,0 0,0 0,0 0,0 0,0zm173 52l-167 0c-1,0 -1,0 -1,-1l0 -51c0,0 0,0 0,0 0,0 0,0 1,0l167 0c1,0 1,0 1,0 0,0 0,0 0,1l0 51c0,0 0,0 -1,0zm-254 -170l0 -51c0,0 0,0 1,0l167 0c0,0 0,0 0,0l0 51c0,1 0,1 0,1l-81 0c0,0 -1,0 -1,0l-5 0c0,0 0,0 0,0l-80 0c-1,0 -1,0 -1,-1zm-87 57l0 -51c0,-1 0,-1 0,-1l88 0c0,0 0,0 0,0l80 0c0,0 0,0 0,1l0 51c0,0 0,0 0,0 0,0 0,0 0,0l-168 0c0,0 0,0 0,0 0,0 0,0 0,0zm-173 0l0 -51c0,-1 0,-1 0,-1l168 0c0,0 0,0 0,1l0 51c0,0 0,0 0,0 0,0 0,0 0,0l-168 0c0,0 0,0 0,0 0,0 0,0 0,0zm-614 51l2 -81 11 0 2 81c0,0 0,0 0,0l-15 0c0,0 0,0 0,0zm6 -161c0,-1 1,-1 2,-1 0,0 1,0 1,1l1 63 -5 0 1 -63zm1211 223l-84 0c0,0 0,0 0,0 0,0 0,0 0,-1l0 -51c0,0 0,0 0,0l83 0c1,0 2,0 2,0 0,-1 1,-1 1,-2 0,-1 -1,-2 -2,-2l-83 0c-1,0 -1,0 -1,-1l0 -51c0,0 0,0 0,0 0,0 1,0 1,0l83 0c1,0 2,-1 2,-2 0,0 0,0 0,-1 0,0 0,0 0,0 0,-1 -1,-2 -2,-2l-83 0c0,0 -1,0 -1,0 0,0 0,0 0,0l0 -51c0,-1 0,-1 1,-1l81 0c0,0 0,0 0,0l2 0c1,0 2,-1 2,-2 0,0 0,0 0,0 0,-1 0,-2 0,-3l0 -51c0,-3 -2,-5 -4,-5l-168 0c-1,0 -2,0 -2,1 -1,-1 -2,-1 -2,-1l-112 0 0 -55c0,-7 -2,-13 -7,-17l-187 -158c-4,-3 -9,-5 -14,-5l-57 0c-5,0 -10,2 -14,5l-187 158c-5,4 -8,10 -8,17l0 168 -16 0c-1,0 -2,0 -2,1 -1,-1 -1,-1 -2,-1l-168 0c-3,0 -5,2 -5,5l0 51c0,1 0,2 1,3 -1,0 -1,1 -1,2l0 45 -125 -53c-3,-1 -6,-2 -9,-2l-110 0c0,0 0,0 0,0l-3 -81 2 0c3,0 5,-2 5,-5l0 -8c0,-2 -2,-4 -5,-4l-4 0 -2 -63c0,-3 -2,-6 -5,-6 -4,0 -6,3 -6,6l-1 63 -5 0c-3,0 -5,2 -5,4l0 8c0,3 2,5 5,5l2 0 -3 81c0,0 0,0 1,0l-40 0c-4,0 -7,3 -9,6 -1,4 0,8 4,11 65,50 106,123 129,175 1,2 -1,12 -3,19 0,2 -1,4 -1,6 -2,6 -7,12 -14,12 -21,3 -59,10 -79,30 -1,0 -2,0 -3,0 -7,0 -14,4 -17,11 0,1 0,2 2,3 1,0 2,0 2,-2 2,-5 7,-8 13,-8 7,0 13,6 13,14 0,8 -6,14 -13,14 -1,0 -2,1 -2,2 0,2 1,3 2,3 4,0 8,-2 11,-5 0,0 1,0 1,0l519 0c-5,3 -9,8 -9,14 0,5 2,9 5,12l-28 0c-1,0 -2,1 -2,2 0,1 1,2 2,2l39 0 0 -4c-7,0 -12,-5 -12,-12 0,-6 5,-11 12,-11 6,0 11,5 11,11 0,2 1,3 2,3 1,0 2,-1 2,-3 0,-6 -4,-11 -9,-14l80 0c1,7 7,13 15,13 1,0 2,-1 2,-2 0,-1 -1,-2 -2,-2 -6,0 -11,-5 -11,-11 0,-7 5,-11 11,-11 6,0 11,4 11,11 0,1 1,2 2,2 0,0 0,0 1,0 -3,3 -4,7 -4,12 0,1 1,2 2,2 1,0 2,-1 2,-2 0,-11 9,-19 19,-19 10,0 19,8 19,19 0,10 -9,18 -19,18l-85 0c-1,0 -2,1 -2,2 0,2 1,3 2,3l85 0c13,0 23,-11 23,-23 0,-5 -1,-8 -3,-12l96 0c1,0 2,-1 2,-2 0,-1 -1,-2 -2,-2l-99 0c0,0 0,0 0,0 -4,-5 -10,-7 -17,-7 -7,0 -13,3 -18,8 0,-8 -7,-15 -15,-15 -8,0 -14,6 -15,14l-609 0c2,-3 3,-6 3,-10 0,-7 -4,-14 -10,-17 19,-18 54,-24 74,-26 9,-1 16,-8 18,-17 1,-1 1,-3 1,-5 3,-9 4,-15 4,-19l891 0c1,0 2,-1 2,-2 0,-2 -1,-3 -2,-3l-893 0c-23,-52 -64,-124 -130,-174 -2,-2 -2,-5 -2,-6 1,-2 3,-4 5,-4l174 0c2,0 5,1 7,2l140 59c1,0 1,0 2,1 0,0 1,0 2,0l0 0c2,1 4,1 6,1l846 0c0,0 0,0 0,0l83 0c0,0 0,0 0,0l1 0c1,0 2,-1 2,-2 0,-2 -1,-3 -2,-3z"/>
   <path class="fil0" d="M261 1972l-139 0c-13,0 -23,-10 -23,-23 0,-13 10,-24 23,-24 12,0 23,11 23,24 0,1 1,2 2,2 1,0 2,-1 2,-2 0,-16 -12,-28 -27,-28 -6,0 -11,2 -16,5 0,-1 0,-2 0,-2 0,-12 -9,-22 -22,-22 -12,0 -22,10 -22,22 0,7 4,13 10,17 0,1 2,1 3,0 0,-1 0,-2 -1,-3 -5,-3 -7,-9 -7,-14 0,-10 8,-18 17,-18 10,0 18,8 18,18 0,7 -4,13 -11,16 -1,0 -1,2 -1,3 1,1 1,1 2,1 0,0 1,0 1,0 1,0 2,-1 3,-1 -1,2 -1,4 -1,6 0,15 12,28 27,28l139 0c1,0 2,-1 2,-3 0,-1 -1,-2 -2,-2z"/>
   <path class="fil0" d="M203 1955c1,0 2,-1 2,-2 0,-1 -1,-2 -2,-2l-35 0c-1,0 -2,1 -2,2 0,1 1,2 2,2l35 0z"/>
   <path class="fil0" d="M291 1958l-85 0c-1,0 -2,1 -2,2 0,1 1,2 2,2l85 0c1,0 2,-1 2,-2 0,-1 -1,-2 -2,-2z"/>
   <path class="fil0" d="M29 1949l47 0c1,0 2,-1 2,-2 0,-2 -1,-3 -2,-3l-47 0c-1,0 -2,1 -2,3 0,1 1,2 2,2z"/>
   <path class="fil0" d="M83 1951l-40 0c-1,0 -2,1 -2,3 0,1 1,2 2,2l40 0c2,0 2,-1 2,-2 0,-2 0,-3 -2,-3z"/>
   <path class="fil0" d="M59 1960l-57 0c-2,0 -3,1 -3,2 0,1 1,2 3,2l57 0c1,0 2,-1 2,-2 0,-1 -1,-2 -2,-2z"/>
   <path class="fil0" d="M663 1956c0,-1 -1,-2 -2,-2l-179 0c-1,0 -2,1 -2,2 0,1 1,2 2,2l179 0c1,0 2,-1 2,-2z"/>
   <path class="fil0" d="M727 1958l54 0c1,0 2,-1 2,-2 0,-1 -1,-2 -2,-2l-54 0c-1,0 -2,1 -2,2 0,1 1,2 2,2z"/>
   <path class="fil0" d="M663 1981l-49 0c-1,0 -2,1 -2,2 0,1 1,2 2,2l49 0c1,0 2,-1 2,-2 0,-1 -1,-2 -2,-2z"/>
   <path class="fil0" d="M721 1970c-5,0 -10,5 -10,11 0,6 5,10 10,10 2,0 2,-1 2,-2 0,-1 0,-2 -2,-2 -3,0 -6,-3 -6,-6 0,-4 3,-6 6,-6 4,0 7,2 7,6 0,1 1,2 2,2 1,0 2,-1 2,-2 0,-6 -5,-11 -11,-11z"/>
   <path class="fil0" d="M834 1967c-1,0 -2,1 -2,2 0,2 1,3 2,3 7,0 13,-6 13,-13 0,-8 -6,-13 -13,-13 -1,0 -2,1 -2,2 0,1 1,2 2,2 5,0 9,4 9,9 0,4 -4,8 -9,8z"/>
   <path class="fil0" d="M727 1968l90 0c1,0 2,-1 2,-2 0,-2 -1,-3 -2,-3l-90 0c-1,0 -2,1 -2,3 0,1 1,2 2,2z"/>
   <path class="fil0" d="M919 1315c-1,-3 -3,-6 -6,-9l0 -1 -73 0 -1 1c-2,3 -4,6 -5,9l-2 3 89 0 -2 -3z"/>
   <path class="fil0" d="M861 1379c5,2 10,2 15,2 6,0 11,0 16,-2l12 -4 -55 0 12 4z"/>
   <path class="fil0" d="M923 1334c0,-4 0,-7 -1,-10l0 -2 -91 0 0 2c-1,3 -1,6 -1,10l0 2 93 0 0 -2z"/>
   <path class="fil0" d="M830 1342c1,4 2,7 3,10l0 1 86 0 1 -1c1,-3 2,-6 3,-10l0 -2 -93 0 0 2z"/>
   <path class="fil0" d="M837 1361c3,3 6,6 9,9l1 1 59 0 1 -1c3,-3 6,-6 8,-9l3 -4 -83 0 2 4z"/>
   <path class="fil0" d="M905 1297c-8,-6 -18,-9 -29,-9 -10,0 -20,3 -28,9l-5 4 67 0 -5 -4z"/>
   <path class="fil0" d="M378 1749c15,0 9,9 7,20 -1,5 -3,10 -6,14 -2,3 -6,6 -10,6l-25 0c-9,0 -14,-9 -16,-20 0,-6 -2,-11 -2,-14 0,-4 2,-6 9,-6l43 0z"/>
   <path class="fil0" d="M534 1759c17,0 31,14 31,31 0,17 -14,31 -31,31 -17,0 -31,-14 -31,-31 0,-17 14,-31 31,-31z"/>
   <path class="fil0" d="M335 1751c-7,0 -7,3 -7,4 0,1 0,3 1,6 0,2 1,5 1,8 1,4 4,17 14,17l25 0c3,0 6,-1 9,-4 2,-3 4,-8 5,-13 0,-3 1,-5 1,-7 1,-4 2,-7 1,-9 -1,-1 -3,-2 -7,-2l-43 0zm34 40l-25 0c-9,0 -16,-8 -18,-22 0,-2 -1,-5 -1,-7 -1,-3 -2,-5 -2,-7 0,-7 7,-8 12,-8l43 0c5,0 9,1 10,4 3,3 2,7 1,12 -1,2 -2,4 -2,6 -1,7 -3,12 -6,15 -3,5 -7,7 -12,7z"/>
   <path class="fil0" d="M534 1761c-16,0 -29,13 -29,29 0,16 13,28 29,28 16,0 28,-12 28,-28 0,-16 -12,-29 -28,-29zm0 62c-19,0 -33,-15 -33,-33 0,-19 14,-33 33,-33 18,0 33,14 33,33 0,18 -15,33 -33,33z"/>
   <path class="fil0" d="M950 1460l0 13 -148 0 0 -13c0,-3 3,-6 5,-6l138 0c3,0 5,3 5,6z"/>
   <polygon class="fil0" points="950,1489 950,1504 802,1504 802,1489 "/>
   <polygon class="fil0" points="950,1520 950,1535 802,1535 802,1520 "/>
   <path class="fil0" d="M804 1533l0 -11 144 0 0 11 -144 0zm0 -47l0 -11 144 0 0 11 -144 0zm144 20l0 12 -144 0 0 -12 144 0zm-144 -4l0 -11 144 0 0 11 -144 0zm3 -45l138 0c1,0 3,1 3,3l0 11 -144 0 0 -11c0,-2 2,-3 3,-3zm138 -5l-138 0c-4,0 -7,4 -7,8l0 90 4 0 0 -12 144 0 0 13 4 0 0 -91c0,-4 -3,-8 -7,-8z"/>
   <path class="fil0" d="M760 2186l-30 -30 2 -13c0,-1 1,-2 1,-3l23 23 4 23z"/>
   <polygon class="fil0" points="729,2166 761,2199 762,2206 762,2207 750,2207 727,2184 "/>
   <path class="fil0" d="M1173 2058c-2,0 -3,1 -3,2 -1,-1 -2,-1 -3,-1 -2,0 -4,0 -4,2l0 36c0,2 2,3 4,3 1,0 2,-1 3,-2 0,1 1,2 3,2 2,0 3,-1 3,-3l0 -36c0,-2 -1,-3 -3,-3z"/>
   <path class="fil0" d="M1173 1803c-1,0 -2,1 -3,2l0 -1c0,-1 -2,-3 -3,-3 -2,0 -4,2 -4,3l0 14c0,2 2,2 4,2 1,0 2,1 3,0 0,1 1,0 3,0 2,0 3,1 3,-1l0 -13c0,-2 -1,-3 -3,-3z"/>
   <path class="fil0" d="M1173 1835c-2,0 -3,-1 -3,0 -1,-1 -2,0 -3,0 -2,0 -4,-1 -4,1l0 210c0,2 2,2 4,2 1,0 3,0 3,-2l0 0c1,1 2,0 3,0 2,0 3,0 3,-2l0 -207c0,-2 -1,-2 -3,-2z"/>
   <path class="fil0" d="M1054 2176c5,-11 17,-49 21,-58 3,-8 13,-15 24,-18 4,-1 9,-2 13,-2l61 0c2,0 4,2 4,4 0,2 -2,3 -4,3l-57 0c-16,0 -31,9 -35,19 -3,8 -14,40 -18,52 -1,1 -2,2 -2,3 -1,1 -2,2 -3,2 -3,0 -5,-3 -4,-5z"/>
   <path class="fil0" d="M1015 2116l1 0 0 1c-2,0 -3,2 -3,4 0,2 1,5 1,7 0,7 5,13 12,13l13 0c3,0 6,-1 8,-4 3,-2 4,-5 4,-9 0,0 0,-1 0,-2l0 -1c4,1 7,0 10,-3l24 -25c1,-1 2,-3 2,-5l0 -1 3 -1c3,-1 5,-3 5,-6l0 0 2 -1 0 0 2 16 0 1c-11,3 -21,10 -24,18 -4,9 -16,47 -21,58l-112 0c-4,0 -7,-1 -10,-4 -3,-3 -5,-7 -5,-11l0 -31c0,0 -2,-10 -12,-10l-31 0c-3,0 -5,-1 -6,-3 -1,-1 -2,-3 -2,-5l6 -36c0,-3 3,-6 7,-6l55 0 7 -146 19 0c-4,0 -8,4 -8,8l0 145c0,5 4,10 9,11l27 4c5,1 9,5 9,11l0 3c0,5 4,9 8,10z"/>
   <path class="fil0" d="M1071 1916c2,0 4,1 4,4 0,2 -2,4 -4,4l-120 0c-2,0 -4,-2 -4,-4 0,-3 2,-4 4,-4l120 0z"/>
   <path class="fil0" d="M1066 1931c-1,-4 -5,-7 -9,-7l14 0 2 0 23 153 -3 1 0 0c-2,-1 -5,-2 -7,-1l0 -1 -20 -145z"/>
   <path class="fil0" d="M1063 2025c3,0 5,-3 5,-6l-12 -81c0,-3 -3,-5 -6,-5l-70 0c-4,0 -7,3 -7,7l0 80c0,3 2,5 5,5l85 0zm24 67c0,2 -1,4 -2,5l-24 25c-3,3 -6,4 -10,3 0,0 0,0 -1,0l-34 -9 -1 0c-4,-1 -8,-5 -8,-10l0 -3c0,-6 -4,-10 -9,-11l-27 -4c-5,-1 -9,-6 -9,-11l0 -145c0,-4 4,-8 8,-8l87 0c4,0 8,3 9,7l20 145 0 1c0,0 -1,0 -1,0l-7 2c-3,1 -5,4 -5,7 0,1 1,2 1,3 1,3 6,5 9,4l4 -2 0 1z"/>
   <path class="fil0" d="M1399 2015l-169 0c-2,0 -4,-1 -4,-3l0 -142c0,-2 -1,-3 -3,-3l-7 0c-1,0 -3,1 -3,3l0 153c0,2 2,3 3,3l151 0 32 -1 0 -10z"/>
   <path class="fil0" d="M1197 1771l0 30c0,5 -4,9 -9,8l-29 -6 -5 -2c-4,0 -7,-4 -7,-7l0 -23c0,-5 4,-8 8,-8l34 0c4,0 8,3 8,6 0,1 0,1 0,2z"/>
   <path class="fil0" d="M765 2215l-44 0c-1,0 -3,-1 -3,-3 0,-1 2,-2 3,-2l44 0c1,0 2,1 2,2 0,2 -1,3 -2,3zm-31 -71c1,-3 2,-4 3,-6 2,-1 4,-2 6,-2 4,0 8,3 8,8l9 61 -34 0 8 -61zm31 61l0 0 -9 -62c-1,-6 -7,-11 -13,-11 -3,0 -6,1 -9,3 -2,2 -3,5 -4,8l-9 62 0 0c-4,0 -7,3 -7,7 0,4 3,7 7,7l44 0c4,0 7,-3 7,-7 0,-4 -3,-7 -7,-7z"/>
   <path class="fil0" d="M1141 2163c0,2 2,3 4,3 2,0 4,-1 4,-3 0,-3 -2,-4 -4,-4 -2,0 -4,1 -4,4z"/>
   <path class="fil0" d="M1138 2171c-2,2 -2,4 0,5 1,2 4,2 5,0 2,-1 2,-3 0,-5 -1,-1 -4,-1 -5,0z"/>
   <path class="fil0" d="M1143 2154c2,-1 2,-4 0,-5 -1,-2 -4,-2 -5,0 -2,1 -2,4 0,5 1,2 4,2 5,0z"/>
   <path class="fil0" d="M1129 2151c2,0 4,-2 4,-4 0,-2 -2,-4 -4,-4 -2,0 -4,2 -4,4 0,2 2,4 4,4z"/>
   <path class="fil0" d="M1129 2175c-2,0 -3,1 -3,4 0,2 1,3 3,3 3,0 4,-1 4,-3 0,-3 -1,-4 -4,-4z"/>
   <path class="fil0" d="M1115 2171c-1,2 -1,4 0,6 2,1 4,1 6,0 1,-2 1,-4 0,-6 -2,-1 -4,-1 -6,0z"/>
   <path class="fil0" d="M1121 2154c1,-1 1,-4 0,-5 -2,-2 -4,-2 -6,0 -1,1 -1,4 0,5 2,2 4,2 6,0z"/>
   <path class="fil0" d="M1117 2163c0,-2 -1,-4 -4,-4 -2,0 -3,2 -3,4 0,2 1,4 3,4 3,0 4,-2 4,-4z"/>
   <path class="fil0" d="M890 2170c0,2 1,3 3,3 2,0 4,-1 4,-3 0,-2 -2,-3 -4,-3 -2,0 -3,1 -3,3z"/>
   <path class="fil0" d="M887 2177c-1,1 -1,4 0,5 1,1 3,1 5,0 1,-1 1,-4 0,-5 -2,-1 -4,-1 -5,0z"/>
   <path class="fil0" d="M891 2163c2,-2 2,-4 0,-5 -1,-1 -3,-1 -4,0 -1,1 -1,3 0,5 1,1 3,1 4,0z"/>
   <path class="fil0" d="M880 2180c-2,0 -3,2 -3,4 0,1 1,3 3,3 2,0 3,-2 3,-3 0,-2 -1,-4 -3,-4z"/>
   <path class="fil0" d="M880 2160c1,0 3,-2 3,-3 0,-2 -2,-4 -3,-4 -2,0 -4,2 -4,4 0,1 2,3 4,3z"/>
   <path class="fil0" d="M868 2177c-1,2 -1,4 0,5 1,1 3,1 5,0 1,-1 1,-3 0,-5 -2,-1 -4,-1 -5,0z"/>
   <path class="fil0" d="M872 2163c2,-1 2,-3 0,-5 -1,-1 -3,-1 -4,0 -1,2 -1,4 0,5 1,1 3,1 4,0z"/>
   <path class="fil0" d="M870 2170c0,-2 -2,-3 -4,-3 -2,0 -3,1 -3,3 0,2 1,3 3,3 2,0 4,-1 4,-3z"/>
   <path class="fil0" d="M1069 2036l0 -1c0,-2 -2,-4 -4,-4l-22 0c-2,0 -4,2 -4,4l0 1c0,2 2,4 4,4l22 0c2,0 4,-2 4,-4z"/>
   <path class="fil0" d="M1174 2055c2,0 4,-1 4,-4 0,-2 -2,-4 -4,-4 -2,0 -4,2 -4,4 0,3 2,4 4,4z"/>
   <path class="fil0" d="M1174 1828c0,-3 -2,-5 -4,-5 -2,0 -4,2 -4,5 0,2 2,4 4,4 2,0 4,-2 4,-4z"/>
   <path class="fil0" d="M1082 2081c-2,0 -4,2 -4,4 0,3 2,5 4,5 3,0 4,-2 4,-5 0,-2 -1,-4 -4,-4z"/>
   <path class="fil0" d="M986 2103l0 0c-3,0 -5,2 -5,4l0 12c0,2 2,4 5,4l0 0c3,0 5,-2 5,-4l0 -12c0,-2 -2,-4 -5,-4z"/>
   <path class="fil0" d="M971 2103l-1 0c-2,0 -5,2 -5,4l0 12c0,2 3,4 5,4l1 0c2,0 4,-2 4,-4l0 -12c0,-2 -2,-4 -4,-4z"/>
   <path class="fil0" d="M955 2103l-1 0c-2,0 -4,2 -4,4l0 12c0,2 2,4 4,4l1 0c2,0 4,-2 4,-4l0 -12c0,-2 -2,-4 -4,-4z"/>
   <path class="fil0" d="M939 2103l-1 0c-2,0 -4,2 -4,4l0 12c0,2 2,4 4,4l1 0c3,0 5,-2 5,-4l0 -12c0,-2 -2,-4 -5,-4z"/>
   <path class="fil0" d="M934 2170c-3,-2 -5,-5 -5,-9l0 -31c0,-4 -4,-12 -14,-12l-31 0c-2,0 -3,-1 -4,-2 -1,-1 -2,-3 -1,-4l5 -35c0,-3 2,-5 5,-5l57 0 7 -146 9 0c-2,2 -2,4 -2,6l0 145c0,7 4,12 11,13l27 4c4,1 7,4 7,9l0 3c0,4 3,9 7,11 -1,1 -1,2 -1,4 0,1 0,2 0,4 0,1 0,2 0,3 0,9 7,15 15,15l13 0c3,0 7,-1 10,-4 3,-3 4,-7 4,-11 0,0 0,0 0,0 4,0 7,-2 9,-4l24 -26c2,-1 3,-3 3,-5l2 -1c2,0 3,-2 4,-3l2 9c-12,4 -21,11 -24,19 -2,4 -5,13 -8,22 -4,13 -9,28 -12,35l-111 0c-3,0 -6,-1 -8,-4zm-9 4l0 -6 -3 -1 0 -4 3 -2 -4 -11 -3 0 -3 -4 2 -2 -7 -9 -3 2 -4 -3 1 -3 -11 -5 -2 3 -5 -1 0 -4 -7 0 0 -3c2,1 3,1 5,1l31 0c8,0 10,8 10,8l0 31c0,5 2,9 6,13 0,0 0,0 0,0l-6 0zm-24 -5c0,12 -10,21 -21,21 -12,0 -21,-9 -21,-21 0,-11 9,-20 21,-20 11,0 21,9 21,20zm50 -251l120 0c1,0 2,1 2,2 0,1 -1,2 -2,2l-120 0c-1,0 -2,-1 -2,-2 0,-1 1,-2 2,-2zm142 158c-2,-1 -4,-2 -5,-2l-20 -143c-1,-2 -1,-4 -2,-5l5 0c0,0 0,0 0,0l22 149 0 1zm68 -255l11 0c3,0 6,3 6,7 0,3 -3,6 -6,6l-11 0 0 -13zm3 233c0,-1 0,-1 0,-1 0,-2 1,-4 3,-4l7 -3 0 0c3,-1 6,1 7,3 0,1 0,1 0,2 0,2 -1,4 -3,5l-7 2c-1,1 -2,1 -4,0 0,0 -1,0 -2,-1 0,-1 -1,-1 -1,-2 0,0 0,-1 0,-1zm23 -243c1,0 2,0 2,0 3,0 5,-1 7,-2 2,-2 4,-5 4,-8l0 -28c1,1 2,4 2,6l0 386c0,5 -3,9 -8,9l-13 0 1 -13 -3 -1 -1 -6 4 -2 -5 -12 -3 0 -3 -5 2 -3 -9 -10 -3 2 -5 -4 1 -3 -12 -6 -2 3 -6 -1 -1 -4 -13 0 -1 4 -6 1 -2 -3 -2 1c-4,2 -4,2 -6,3l-4 2 1 3 -5 4 -3 -2 -9 10 2 3 -3 5 -4 0 -4 12 4 2 -1 6 -4 1 2 13 -12 0c2,-7 5,-16 9,-26 3,-10 7,-20 8,-23 4,-10 18,-18 33,-18l57 0c3,0 6,-2 6,-5 0,-3 -3,-6 -6,-6l-12 0 0 -34 2 -1c1,1 2,1 3,2 1,0 2,0 3,0 1,0 2,0 3,-1l7 -2c4,-1 6,-5 6,-9 0,-1 0,-2 0,-3 -2,-5 -8,-8 -12,-6l-7 3c-2,0 -4,2 -5,4l0 -211 11 0c5,0 10,-5 10,-10 0,-6 -5,-11 -10,-11l-11 0 0 -12 26 6zm-37 -17l0 -23c0,-3 2,-6 5,-6l34 0c3,0 6,2 6,5l0 0c0,0 0,0 0,1l0 30c0,2 -1,4 -2,5 -1,1 -3,1 -5,1l-34 -8c-3,0 -4,-3 -4,-5zm4 368c0,14 -11,25 -25,25 -13,0 -24,-11 -24,-25 0,-14 11,-25 24,-25 14,0 25,11 25,25zm3 -99l0 33 -45 0c-4,0 -7,0 -11,1l-2 -12 58 -22zm3 -8l0 0c0,1 0,1 0,2 0,0 0,0 0,0l-63 24c0,0 0,0 -1,-1 0,0 0,-1 0,-1l64 -24zm-71 33l-6 3c-2,0 -3,0 -4,0 -2,-1 -3,-2 -3,-3 0,-1 0,-1 0,-2 0,-2 1,-4 3,-5l7 -2c0,0 0,0 0,0 1,0 1,-1 2,-1 1,0 2,1 3,2 1,0 1,1 1,2 1,0 1,1 1,2l0 0c0,2 -2,4 -4,4zm-37 35c-1,0 -1,0 -1,0l-34 -9 -1 0c-4,-1 -7,-4 -7,-8l0 -3c0,-7 -4,-12 -11,-13l-27 -4c-4,-1 -7,-5 -7,-9l0 -145c0,-3 3,-6 6,-6l87 0c3,0 6,2 6,5l21 144 -6 2c-4,2 -7,5 -7,9 0,1 1,2 1,3 1,4 5,7 9,7 1,0 2,-1 2,-1 0,0 0,0 0,0l-24 26c-2,2 -5,3 -7,2zm9 52c-1,1 -1,2 -2,3 0,1 -1,1 -1,1 -1,0 -2,0 -2,-1 0,0 0,0 0,-1 3,-7 8,-22 13,-36 3,-10 6,-19 8,-22 3,-8 12,-14 23,-17 4,-1 8,-2 12,-2l61 0c1,0 1,1 1,2 0,1 0,1 -1,1l-57 0c-16,0 -32,9 -37,20 -1,4 -5,13 -8,24 -4,11 -8,22 -10,28zm-8 6c1,1 3,2 5,2 2,0 4,-1 5,-3 0,0 1,-1 1,-2l19 0 0 2 -2 3 6 11 4 -1 4 4 -2 4 11 7 3 -2 5 2 0 4 13 3 1 -4 6 0 2 4 13 -3 0 -4 5 -2 3 2 2 -1c3,-2 3,-2 6,-4l3 -2 -2 -4 4 -4 4 1 6 -11 -3 -3 1 -2 18 0c7,0 13,-6 13,-13l0 -150 4 0 0 8c0,3 2,5 5,5l151 0 32 -1 0 -4 -32 1 -151 0c0,0 -1,-1 -1,-1l0 -153c0,0 1,-1 1,-1l7 0c0,0 1,1 1,1l0 142c0,3 3,5 6,5l169 0 0 -4 -169 0c-1,0 -2,0 -2,-1l0 -142c0,-3 -2,-5 -5,-5l-7 0c-3,0 -5,2 -5,5l0 85 -4 0 0 -176c0,-5 -3,-10 -8,-12l0 0c-1,-4 -5,-6 -10,-6l-34 0c-5,0 -10,4 -10,10l0 23c0,4 4,9 8,10l4 0 0 248 -59 22 -17 -109c3,4 7,9 10,8 5,-1 9,-6 8,-11l-3 -18c-1,-5 -6,-9 -11,-8 -3,1 -6,6 -7,10l-3 -22c1,-1 2,-3 2,-4 0,-4 -3,-7 -6,-7l-120 0c-3,0 -6,3 -6,7 0,2 2,5 4,6l-7 142 -53 0c-5,0 -9,3 -10,8l-5 35c0,3 0,5 1,7l-1 6 0 0 -1 4 -4 1 -2 -3 -11 5 1 3 -4 3 -3 -2 -8 9 2 2 -2 4 -3 0 -4 11 3 2 0 4 -4 1 2 12 3 0 0 0c0,2 1,3 1,5l-2 2 6 10 3 -1 3 4 -1 1 0 2 9 6 2 -2 5 2 0 3 11 3 2 -3 4 0 2 3 11 -3 0 -3 4 -2 3 2 9 -6 -1 -3 3 -4 3 1 6 -10 -3 -2 2 -5 3 0 0 -2 128 0c0,1 0,2 1,3z"/>
   <path class="fil0" d="M975 2020l0 -80c0,-3 2,-5 5,-5l70 0c2,0 4,2 4,4l12 81c0,1 -1,1 -1,2 -1,0 -1,1 -2,1l-85 0c-2,0 -3,-1 -3,-3zm93 5c2,-2 2,-4 2,-6l-11 -81c-1,-4 -5,-7 -9,-7l-70 0c-5,0 -9,4 -9,9l0 80c0,4 3,7 7,7l85 0c2,0 4,-1 5,-2z"/>
   <path class="fil0" d="M880 2162c-4,0 -8,3 -8,7 0,5 4,8 8,8 4,0 8,-3 8,-8 0,-4 -4,-7 -8,-7z"/>
   <path class="fil0" d="M1129 2153c-4,0 -8,4 -8,9 0,5 4,9 8,9 5,0 9,-4 9,-9 0,-5 -4,-9 -9,-9z"/>
   <path class="fil0" d="M1246 2011l152 0 0 -5 -152 0c-6,0 -10,-4 -10,-10l0 -169c0,-6 4,-11 10,-11l153 0 0 -4 -153 0c-8,0 -15,7 -15,15l0 169c0,8 7,15 15,15z"/>
   <polygon class="fil0" points="973,2219 1420,2219 1420,2215 973,2215 "/>
   <polygon class="fil0" points="785,2219 932,2219 932,2215 785,2215 "/>
   <path class="fil0" d="M2021 2136c0,8 -7,15 -15,15l-224 0c-8,0 -14,-7 -14,-15l0 -3c0,-8 6,-14 14,-14l224 0c8,0 15,6 15,14l0 3zm254 -5l-20 20 0 5 -9 0 0 -66 -2 0 0 -32 -734 0c-34,0 -62,-28 -62,-63l0 -1731c0,-35 28,-63 62,-63l765 0c35,0 63,28 63,63l0 1522 47 0 0 -2 0 -1522c0,-60 -48,-109 -108,-109l-769 0c-59,0 -108,49 -108,109l0 1846c0,59 49,108 108,108l769 0c52,0 95,-37 106,-85l-108 0z"/>
   <path class="fil0" d="M1448 1657l257 -155c10,21 21,42 32,63l-289 174 0 5 294 -177 -1 -2c-11,-22 -22,-45 -33,-67l-1 -2 -259 156 0 5z"/>
   <path class="fil0" d="M2101 497l-22 112 -98 -16c3,-7 5,-14 6,-21l14 -100 100 25zm-118 74c-2,8 -4,16 -8,23l-1 2 108 18 24 -120 -109 -27 -14 104z"/>
   <path class="fil0" d="M2143 760l25 -116 75 2 -30 130 -70 -16zm105 -118l-83 -2 -27 123 79 18 31 -139z"/>
   <path class="fil0" d="M2148 620l-49 -8 22 -110 50 13 -23 105zm-31 -123l-23 119 57 9 25 -114 -59 -14z"/>
   <path class="fil0" d="M2077 946l-92 -22 64 -36 30 52 -2 6zm6 -7l-33 -57 -77 44 108 25 2 -12z"/>
   <path class="fil0" d="M2072 887l17 4 -4 18 -13 -22zm22 1l-30 -7 23 40 7 -33z"/>
   <path class="fil0" d="M2118 876l21 -96 70 16 -22 96 -69 -16zm96 -83l-78 -18 -23 105 77 17 24 -104z"/>
   <path class="fil0" d="M1678 1772l25 47 -157 94 -26 -46 158 -95zm31 49l-29 -55 -166 100 31 53 164 -98z"/>
   <polygon class="fil0" points="2338,926 2288,915 2309,819 2338,826 2338,821 2306,814 2283,918 2338,931 "/>
   <path class="fil0" d="M1916 875l32 53c-1,2 -2,3 -2,5l-20 63 -81 -20 -27 -46 98 -55zm13 126l21 -66c0,-2 1,-4 2,-6l1 -1 -36 -58 -105 59 30 51 87 21z"/>
   <polygon class="fil0" points="1545,2059 1544,2059 1590,2032 1605,2059 1610,2059 1591,2026 1538,2057 1540,2059 "/>
   <path class="fil0" d="M2067 865c-3,-1 -6,-1 -8,-1 0,0 0,0 -1,0l-7 -13 2 1 17 -87 45 10 -21 96 -27 -6zm53 -93l-53 -13 -17 87 -7 -1 13 23 1 0c3,0 6,0 9,1l31 7 23 -104z"/>
   <path class="fil0" d="M1457 1757l163 -97 49 93 -159 96 -53 -92zm165 -103l-169 101 -2 1 57 99 167 -100 -53 -101z"/>
   <path class="fil0" d="M1686 2042l-25 -53 27 -16 27 52 -29 17zm-31 -54l29 60 37 -21 -32 -60 -34 21z"/>
   <path class="fil0" d="M1735 1945l27 54 -29 16 -28 -52 30 -18zm33 55l-31 -61 -37 22 31 60 37 -21z"/>
   <path class="fil0" d="M1579 514l-20 -33 83 -50 19 33 -82 50zm-26 -35l24 41 90 -55 -24 -39 -90 53z"/>
   <path class="fil0" d="M1874 592l25 42 -185 116 -27 -46 187 -112zm31 43l-29 -49 -194 117 31 53 192 -121z"/>
   <path class="fil0" d="M1829 514l35 60 -187 112 -35 -60c70,-42 132,-79 187,-112zm41 61l-40 -67 -2 2c-55,32 -119,71 -190,114l-2 1 39 67 195 -117z"/>
   <path class="fil0" d="M1672 482l38 64c-26,16 -54,33 -82,50l-39 -64 83 -50zm-44 119c30,-18 59,-36 86,-52l2 -1 -43 -72 -89 54 42 72 2 -1z"/>
   <path class="fil0" d="M1679 453l-19 -32 85 -51 18 31 -84 52zm-25 -34l23 40 92 -56 -22 -39 -93 55z"/>
   <path class="fil0" d="M1830 475l-38 -66 84 -52 42 66c-27,16 -56,33 -88,52zm-44 -68l42 74 2 -1c33,-20 64,-38 92,-54l2 -1 -46 -74 -92 56z"/>
   <path class="fil0" d="M1966 569l0 0c0,2 -1,5 -1,7l-57 -108c29,-17 56,-32 79,-46l-21 147zm-62 -104l-2 1 64 121 1 -5c2,-4 3,-8 4,-13l0 0 22 -155 -4 2c-25,14 -54,31 -85,49z"/>
   <path class="fil0" d="M1651 1394c15,29 29,59 45,89l-248 150 0 5 251 -152 2 -1 -1 -2c-16,-31 -31,-62 -46,-93l-1 -2 -205 122 0 5 203 -121z"/>
   <polygon class="fil0" points="2338,804 2314,799 2338,690 2338,670 2309,802 2338,809 "/>
   <path class="fil0" d="M1728 535l-38 -64 84 -52 38 67c-27,15 -55,32 -84,49zm-44 -66l43 72 2 -1c30,-18 59,-35 87,-52l2 -1 -43 -74 -91 56z"/>
   <path class="fil0" d="M2338 1392c-52,-15 -107,-27 -163,-36l47 -90 111 40c2,0 3,1 5,1l0 -4c-1,-1 -2,-1 -3,-1l-115 -42 -51 99 3 1c57,9 112,21 166,37l0 -5z"/>
   <path class="fil0" d="M2080 1055l122 30c2,0 4,1 5,1l-60 131 -95 -35 28 -127zm70 167l63 -138 -2 -1c-3,-1 -5,-2 -8,-2l-127 -31 -29 135 103 37z"/>
   <path class="fil0" d="M2075 630l-8 42 -65 -16c-8,-1 -16,-2 -23,-2 -14,0 -27,2 -39,8l-13 -21 23 -15c7,-3 13,-8 18,-14l107 18zm-110 -21c-5,5 -11,10 -17,14l-26 16 16 28 2 -1c19,-8 41,-10 61,-5l69 16 10 -51 -114 -18 -1 1z"/>
   <polygon class="fil0" points="2338,1285 2232,1247 2292,1134 2338,1161 2338,1156 2292,1129 2290,1128 2226,1249 2338,1290 "/>
   <path class="fil0" d="M1963 2059l15 -8 4 8 5 0 -6 -12 -1 -2 -2 2c-8,4 -15,8 -24,12l9 0z"/>
   <path class="fil0" d="M1816 2059l-7 -13 134 -65 20 41c-21,11 -45,24 -69,37l9 0c23,-12 44,-24 64,-35l2 -1 -24 -48 -142 69 8 15 5 0z"/>
   <path class="fil0" d="M1864 881l-45 -76 40 -23 46 75 -41 24zm-51 -77l49 82 49 -27 -51 -83 -47 28z"/>
   <path class="fil0" d="M1953 726l46 78 -76 43 -46 -76 76 -45zm52 80l-50 -86 -84 50 51 83 83 -47z"/>
   <path class="fil0" d="M2095 633l49 8 -25 113 -45 -10 21 -111zm27 126l27 -122 -57 -9 -23 119 53 12z"/>
   <path class="fil0" d="M1643 2000l26 54c1,2 2,4 4,5l11 0c-1,0 -2,0 -3,0 -4,-1 -7,-4 -8,-7l-28 -58 -43 25 23 40 5 0 -22 -38 35 -21zm54 59l75 -42 7 15 -56 27 10 0 52 -25 -12 -23 -82 47c-2,1 -4,1 -6,1l12 0z"/>
   <path class="fil0" d="M1713 1838l38 73 -154 92 -40 -71 156 -94zm-162 92l45 79 160 -96 -42 -81 -161 97 -2 1z"/>
   <path class="fil0" d="M2338 1634c-35,61 -64,112 -88,152l5 0c23,-38 50,-86 83,-143l0 -9zm-95 165c-20,33 -35,58 -46,75l-73 -43 124 -109c10,-8 18,-18 24,-29l66 -120 0 -9 -69 127c-6,10 -14,20 -23,28l-130 113 83 48 1 -2c10,-16 24,-40 43,-70l0 -9z"/>
   <path class="fil0" d="M2183 1894c-14,12 -78,50 -191,111l-20 -42 132 -115 79 46zm-217 68l25 49 2 -1c121,-66 185,-104 195,-114l1 -3 -86 -50 -137 119z"/>
   <path class="fil0" d="M2073 967l-13 61 -114 -27 19 -60 108 26zm-111 -31l0 2c0,0 0,0 -1,0l-20 66 122 30 15 -71 -114 -27 -2 0z"/>
   <path class="fil0" d="M2283 1104l-47 -28c0,0 -1,0 -1,0l28 -61c0,0 0,0 1,1l50 31 -31 57zm-19 -93l-3 -2 -32 69 3 1c1,0 1,1 2,1l51 30 34 -65 -53 -33c-1,-1 -2,-1 -2,-1z"/>
   <polygon class="fil0" points="2243,1951 2220,1904 2243,1912 2243,1908 2216,1897 2214,1901 2243,1961 "/>
   <path class="fil0" d="M2284 1786l5 0c14,-25 31,-53 49,-85l0 -9c-20,36 -38,67 -54,94zm54 -644l0 -5 -37 -22 31 -57 6 3 0 -5 -8 -5 -34 66 42 25zm0 -100l0 -17 -3 15 3 2zm-1 -788c0,-2 -1,-3 -1,-5 -35,11 -65,20 -91,29l0 -60 11 -16 -5 0 -9 12 -2 -1 0 71 3 -1c27,-9 58,-18 94,-29zm-831 -52c-3,1 -7,1 -10,2l12 3 26 44 -31 167 -55 32 0 5 59 -34 31 -171 -28 -46 -4 -2zm-58 1572l0 8 80 142 -80 49 0 5 84 -51 2 -1 -86 -152zm566 285l5 0 -12 -24c109,-59 172,-97 194,-113l42 88 0 -10 -40 -84 -3 1c-19,15 -83,53 -197,116l-1 1 0 1 12 24zm229 -164l0 -5 -14 -5c4,-6 9,-13 14,-21l0 -9c-7,12 -13,21 -19,30l-1 2 20 8z"/>
   <polygon class="fil0" points="1448,1997 1477,1980 1521,2059 1526,2059 1478,1974 1448,1992 1448,1997 "/>
   <path class="fil0" d="M1808 787l-31 -52 39 -24 32 53 -40 23zm-37 -53l36 59 47 -28 -37 -60 -46 29z"/>
   <path class="fil0" d="M1943 708l-77 45 -33 -53 77 -48 33 56zm-79 51l85 -49 -38 -64 -84 53 37 60z"/>
   <path class="fil0" d="M1801 816l45 75 -38 21 -44 -75 37 -21zm51 76l-50 -82 -44 26 48 82 46 -26z"/>
   <path class="fil0" d="M1754 819l-29 -51 34 -21 31 51 -36 21zm-35 -52l33 58 44 -26 -35 -58 -42 26z"/>
   <path class="fil0" d="M1882 1858c17,33 33,67 50,100l-134 65 -45 -89 129 -76zm56 102l-1 -2c-17,-34 -35,-69 -52,-104l-1 -2 -137 81 49 96 142 -69z"/>
   <path class="fil0" d="M1539 1942l40 71 -45 27 -40 -71 45 -27zm46 73l-45 -79 -51 31 43 79 53 -31z"/>
   <path class="fil0" d="M2037 827l-48 -81 61 14 -13 67zm-56 -87l58 99 16 -82 -74 -17z"/>
   <polygon class="fil0" points="1781,2059 1790,2055 1793,2059 1798,2059 1792,2049 1771,2059 "/>
   <path class="fil0" d="M2081 1835l-121 105c-41,-82 -82,-166 -123,-248l244 143zm-122 112l129 -113 -262 -153 4 6c42,86 85,172 127,258l2 2z"/>
   <path class="fil0" d="M2010 822l28 48 -75 42 -29 -47 76 -43zm-46 95c0,0 0,0 0,0l80 -45 -33 -56 -83 48 33 54 3 -1z"/>
   <path class="fil0" d="M2337 948l-16 78 -47 -28c-1,-1 -2,-2 -4,-3l14 -59 53 12zm1 18l0 -23 -58 -13 -15 68 2 0c2,1 3,2 5,3l52 32 14 -67z"/>
   <path class="fil0" d="M1798 1153c4,-3 8,-6 12,-10l68 3 -62 196c-50,4 -100,10 -145,18 -18,-36 -35,-70 -52,-103l179 -104zm101 -4l125 45 -31 144c-51,-1 -103,-1 -155,3l61 -192zm-231 216l2 -1c47,-8 100,-14 152,-18l10 -1 0 0 3 0c53,-3 107,-4 159,-2l2 0 33 -152 -133 -47 -64 201 -11 -4 63 -199 -76 -3 0 0c-4,4 -8,7 -13,10l-181 107 0 1c18,34 35,70 54,106l0 2z"/>
   <path class="fil0" d="M1975 722l-25 -42c15,-6 32,-7 47,-3l66 16 -9 46 -79 -17zm93 -33l-70 -16c-17,-5 -35,-3 -52,4l-2 1 28 47 85 20 11 -56z"/>
   <path class="fil0" d="M1940 608l-23 15 -70 -119c15,-9 29,-17 43,-26l63 120c-4,4 -9,8 -13,10zm-50 -134c-15,8 -31,18 -47,27l-2 1 74 127 27 -17c6,-3 11,-7 15,-12l1 -2 -66 -126 -2 2z"/>
   <path class="fil0" d="M1548 463l-20 -34 83 -48 20 33 -83 49zm-26 -36l25 41 90 -53 -24 -40 -91 52z"/>
   <path class="fil0" d="M1624 637l35 60 -79 48 -36 -59c27,-17 54,-33 80,-49zm41 62l-39 -68 -2 1c-28,17 -56,34 -84,51l-2 1 41 67 86 -52z"/>
   <path class="fil0" d="M1678 255l28 47 -87 50 -82 -137 141 40zm34 49l-31 -53 -153 -43 89 150 95 -54z"/>
   <path class="fil0" d="M1735 352l-86 51 -20 -33 87 -50 19 32zm-88 57l94 -55 -23 -40 -95 55 24 40z"/>
   <path class="fil0" d="M1572 543l38 64c-27,16 -55,33 -84,50l-38 -63 84 -51zm-45 119c29,-18 59,-36 87,-53l2 -1 -43 -71 -91 55 43 71 2 -1z"/>
   <path class="fil0" d="M2299 296c12,-4 25,-8 39,-12l0 -5c-17,5 -33,10 -47,15l-7 2 54 15 0 -5 -39 -10z"/>
   <path class="fil0" d="M1561 525l-84 51 -21 -35 85 -50 20 34zm-86 57l92 -56 -25 -41 -92 55 25 42z"/>
   <polygon class="fil0" points="1648,202 1660,224 1584,202 1568,202 1669,231 1653,202 "/>
   <path class="fil0" d="M1967 1449l31 50 -22 13 -31 -50 22 -13zm37 51l-36 -57 -29 18 36 57 29 -18z"/>
   <path class="fil0" d="M1724 292l-17 -29 45 12 -28 17zm-2 6l42 -24 -66 -18 24 42z"/>
   <path class="fil0" d="M1883 329l-13 -21 32 9 -19 12zm-2 5l32 -19 -53 -14 21 33z"/>
   <path class="fil0" d="M1781 391l-18 -31 84 -50 18 29 -84 52zm-24 -33l23 39 91 -56 -23 -37 -91 54z"/>
   <polygon class="fil0" points="1510,439 1530,473 1448,522 1448,527 1536,475 1511,433 1448,470 1448,475 "/>
   <path class="fil0" d="M1550 278l51 85 -74 42 23 -127zm-2 -12l-27 147 86 -49 -59 -98z"/>
   <path class="fil0" d="M1829 296l-76 46 -19 -32 47 -27 48 13zm-101 12l23 39 89 -52 -60 -17 -52 30z"/>
   <path class="fil0" d="M2040 355c-27,14 -62,34 -104,58l-42 -67 36 -22 110 31zm-152 -10l47 74 2 -1c45,-26 81,-47 109,-62l5 -2 -122 -34 -41 25z"/>
   <path class="fil0" d="M1800 1618l-25 -51 96 -60 31 50 -102 61zm-31 -53l29 59 109 -66 -34 -57 -104 64z"/>
   <polygon class="fil0" points="1525,1403 1541,1430 1448,1486 1448,1491 1547,1432 1526,1397 1448,1443 1448,1448 "/>
   <path class="fil0" d="M2338 1521l-87 160c-5,8 -11,16 -19,23l-131 113 -284 -166 0 0 -8 -15 218 -130 -53 -86 -40 24 -47 -76 -163 98c-14,-28 -28,-56 -41,-83 109,-18 377,-47 655,35l0 -4c-281,-83 -551,-53 -659,-35l-3 1 1 3c15,28 29,57 44,87l1 2 164 -98 47 76 39 -24 49 78 -217 131 12 25 2 -3 284 166 133 -116c8,-7 14,-15 19,-24l84 -153 0 -9z"/>
   <polygon class="fil0" points="1514,1385 1448,1424 1448,1429 1520,1387 1487,1330 1448,1353 1448,1358 1485,1336 "/>
   <path class="fil0" d="M1590 1274c16,32 33,64 50,98l-81 48 -56 -95 87 -51zm55 100l-1 -2c-17,-35 -34,-69 -51,-102l-1 -2 -95 56 60 102 88 -52z"/>
   <path class="fil0" d="M1888 202l0 1 2 1c13,9 27,17 41,23l71 29 -70 43 -82 -23 -47 -74 -5 0 49 78 85 24 80 -49 -79 -32c-14,-5 -27,-12 -38,-21l-7 0z"/>
   <path class="fil0" d="M2220 202l0 84c-11,3 -21,6 -31,9l-230 -93 -11 0 238 97 -2 2 5 -1c10,-4 22,-7 33,-11l2 0 0 -87 -4 0z"/>
   <path class="fil0" d="M1538 1171c14,27 28,55 43,84l-88 52 -45 -77 0 9 43 74 96 -56 -1 -2c-16,-31 -31,-60 -45,-88l-1 -2 -92 53 0 5 90 -52z"/>
   <path class="fil0" d="M1670 715l26 46 -76 49 -29 -47 79 -48zm32 48l-31 -54 -86 52 33 55 84 -53z"/>
   <path class="fil0" d="M1613 839l83 136 -171 97c-28,-55 -52,-100 -70,-134l158 -99zm-163 99c19,34 43,81 72,138l1 2 179 -101 -88 -144 -165 103 1 2z"/>
   <path class="fil0" d="M1919 1546l-30 -50 38 -23 31 50 -39 23zm-36 -51l35 57 46 -28 -35 -57 -46 28z"/>
   <polygon class="fil0" points="2240,314 2255,310 2338,332 2338,328 2255,305 2254,305 2236,311 2213,417 2338,457 2338,452 2218,414 "/>
   <path class="fil0" d="M1529 1152l-81 47 0 5 86 -50 -1 -2c-10,-20 -20,-40 -29,-58l-1 -2 -55 33 0 5 53 -32c9,17 18,35 28,54z"/>
   <polygon class="fil0" points="1778,202 1820,268 1689,232 1672,202 1667,202 1686,235 1829,275 1783,202 "/>
   <polygon class="fil0" points="2338,535 2200,500 2214,435 2338,474 2338,470 2210,429 2194,503 2338,539 "/>
   <path class="fil0" d="M1905 1129l35 -108 49 12 -29 116 -55 -20zm89 -99l-57 -14 -37 116 63 23 31 -125z"/>
   <path class="fil0" d="M1980 1156l29 -118 46 11 -27 125 -48 -18zm80 -110l-54 -14 -31 127 56 20 29 -133z"/>
   <path class="fil0" d="M1823 1123c0,-2 1,-3 1,-4l26 -120c0,0 0,0 0,0l69 17 -34 109 -62 -2zm102 -110l-79 -19 0 3c0,0 0,1 0,1l-26 120c-1,2 -1,4 -2,6l-2 3 72 3 37 -117z"/>
   <path class="fil0" d="M1468 1034c7,14 15,30 23,45l-43 27 0 5 49 -30 -1 -2c-9,-17 -17,-33 -25,-49l-1 -2 -22 13 0 5 20 -12z"/>
   <path class="fil0" d="M2167 1224l59 -129 48 28 -62 117 -45 -16zm112 -103l-51 -30c0,-1 -1,-1 -1,-1l-3 -1 -63 137 54 19 64 -124z"/>
   <path class="fil0" d="M2048 1203l155 56 -50 94c-44,-7 -89,-11 -135,-13l30 -137zm-33 141c47,2 94,6 139,13l2 0 53 -101 -165 -59 -31 147 2 0z"/>
   <path class="fil0" d="M1802 1697l24 49 -105 63 -25 -48 106 -64zm30 50l-28 -56 -113 69 28 55 113 -68z"/>
   <path class="fil0" d="M1707 993l85 138c-2,1 -3,3 -5,4l-177 104c-28,-55 -53,-105 -76,-149l173 -97zm-177 98c22,44 48,95 77,152l1 2 181 -107c3,-1 5,-3 7,-5l1 -1 -88 -145 -180 102 1 2z"/>
   <path class="fil0" d="M1746 848l44 74 -76 43 -44 -72 76 -45zm50 76l-48 -82 -84 49 49 80 83 -47z"/>
   <path class="fil0" d="M1836 1764c12,25 24,50 37,75l-104 62 -38 -74 105 -63zm42 76l-1 -1c-13,-26 -25,-53 -38,-79l-1 -2 -113 68 42 81 111 -67z"/>
   <polygon class="fil0" points="1460,1292 1475,1318 1448,1334 1448,1339 1481,1319 1461,1286 1448,1294 1448,1299 "/>
   <path class="fil0" d="M1448 995c3,7 7,13 10,21l-10 6 0 5 16 -10 -1 -2c-5,-10 -10,-20 -15,-29l0 9z"/>
   <path class="fil0" d="M1725 983l75 -42 29 49c1,2 1,3 1,5l-26 117 -79 -129zm82 135c0,-1 1,-2 1,-3l26 -119c0,-3 0,-5 -1,-8l-31 -53 -83 46 86 141 2 -4z"/>
   <polygon class="fil0" points="1448,1271 1449,1274 1448,1275 1448,1280 1455,1276 1448,1263 "/>
   <path class="fil0" d="M1448 744c26,-16 52,-32 78,-47l36 59 -114 69 0 5 120 -73 -41 -66 -1 1c-26,16 -52,31 -78,47l0 5z"/>
   <path class="fil0" d="M1448 618l22 -13 39 63c-21,12 -41,25 -61,37l0 5c21,-13 43,-26 65,-39l2 -1 -44 -71 -23 14 0 5z"/>
   <polygon class="fil0" points="2173,623 2195,521 2338,556 2338,552 2192,515 2168,627 2334,631 2338,613 2338,593 2330,627 "/>
   <path class="fil0" d="M1736 830l-77 45 -28 -47 76 -48 29 50zm-78 51l84 -50 -34 -57 -83 52 33 55z"/>
   <path class="fil0" d="M2175 494l-171 -43 6 -42c17,-9 32,-18 45,-25l135 43 -15 67zm-120 -114l-1 0c-14,7 -30,16 -47,26l-1 1 -7 48 180 44 16 -75 -140 -44z"/>
   <path class="fil0" d="M2140 311c-17,6 -29,10 -38,13l0 0c-7,3 -17,7 -30,14l-113 -31 67 -41 114 45zm-192 -3l125 35 0 -1c14,-7 24,-11 31,-14l0 0c9,-3 24,-8 43,-14l5 -2 -126 -51 -78 47z"/>
   <path class="fil0" d="M1880 1396l36 59 -151 93c-11,-21 -21,-42 -32,-63l147 -89zm-118 156l1 2 159 -97 -40 -67 -154 93 1 2c11,22 22,44 33,67z"/>
   <path class="fil0" d="M2216 1067c-3,-1 -6,-2 -9,-3l-123 -30 13 -62 146 36 -27 59zm33 -62l-155 -38 -15 71 127 31c3,0 7,1 10,3l2 0 30 -65 1 -2z"/>
   <path class="fil0" d="M2081 371c15,-8 26,-13 33,-15 17,-7 50,-18 98,-33l-18 84 -113 -36zm137 -54l-3 1c-51,16 -85,27 -103,34 -8,2 -21,8 -38,17l-4 3 127 40 21 -95z"/>
   <path class="fil0" d="M2102 952l12 -55 149 34 -12 57c0,0 -1,0 -1,0l-148 -36zm152 41l14 -65 -158 -36 -13 63 152 37c1,0 1,0 2,0l3 1z"/>
   <polygon class="fil0" points="1573,774 1602,821 1448,918 1448,923 1608,822 1574,768 1448,844 1448,849 "/>
   <path class="fil0" d="M2234 780l30 -134 62 2 -32 146 -60 -14zm97 -137l-70 -1 -32 142 68 15 34 -156z"/>
   <polygon class="fil0" points="1448,568 1459,587 1448,594 1448,599 1465,588 1448,560 "/>
   <path class="fil0" d="M2207 897l22 -96 60 13 -21 96 -61 -13zm87 -86l-68 -15 -24 104 69 16 23 -105z"/>
   <path class="fil0" d="M1793 1679l-106 64 -49 -94 108 -65c16,31 31,63 47,95zm-108 70l114 -69 -1 -2c-17,-33 -33,-65 -49,-98l-1 -2 -116 69 53 102z"/>
   <path class="fil0" d="M2277 2219l-769 0c-61,0 -110,-49 -110,-110l0 -1846c0,-61 49,-111 110,-111l769 0c61,0 111,50 111,111l0 1523 -5 0 0 -1523c0,-59 -47,-106 -106,-106l-769 0c-58,0 -106,47 -106,106l0 1846c0,58 48,106 106,106l769 0c50,0 94,-36 104,-85l4 1c-10,51 -55,88 -108,88z"/>
   <path class="fil0" d="M2124 514c-32,0 -58,-26 -58,-59 0,-32 26,-58 58,-58 32,0 58,26 58,58 0,33 -26,59 -58,59zm0 -135l0 0c-43,0 -77,35 -77,77 0,18 5,33 13,45 8,11 64,84 64,84 0,0 56,-73 64,-84 8,-12 13,-27 13,-45 0,-42 -34,-77 -77,-77z"/>
   <path class="fil0" d="M2148 493c0,-3 0,-6 -1,-11 0,0 0,0 1,0l4 -4c1,-2 1,-3 0,-4l0 0c-1,-1 -3,-1 -4,0l-2 1c0,-3 -1,-6 -1,-9 0,0 0,0 0,0l4 -4c1,-1 1,-3 0,-4 -1,-1 -2,-1 -3,0l-2 2c-1,-4 -2,-8 -2,-11 0,0 25,-25 20,-30l-1 -1c-5,-5 -30,21 -30,21 -2,-1 -6,-2 -10,-3l1 -1c1,-2 1,-3 0,-4 -1,-1 -2,-1 -3,0l-4 4c-1,0 -1,0 -1,0 -3,0 -6,-1 -9,-1l2 -2c1,-1 1,-2 0,-4l0 0c-1,-1 -3,-1 -4,0l-4 4c0,1 0,1 -1,1 -4,-1 -8,-1 -10,-1 -2,-1 -3,0 -4,1 -4,4 0,6 0,6l31 16c-4,3 -19,22 -19,22l-13 -1c0,0 -1,0 -1,1l-1 2c0,1 0,1 1,2l11 6 0 1 7 11c0,1 1,1 2,1l2 -1c0,-1 1,-1 1,-2l-2 -13c0,0 19,-15 23,-19l16 31c0,0 1,4 5,1 1,-1 2,-3 1,-4z"/>
   <path class="fil0" d="M1611 1160c-32,0 -58,-27 -58,-59 0,-33 26,-59 58,-59 32,0 58,26 58,59 0,32 -26,59 -58,59zm0 -135l0 0c-43,0 -77,34 -77,77 0,17 5,32 13,44 8,12 64,85 64,85 0,0 56,-73 64,-85 8,-12 13,-27 13,-44 0,-43 -34,-77 -77,-77z"/>
   <path class="fil0" d="M1597 1123c0,-4 -3,-7 -8,-7 -4,0 -7,3 -7,7 0,5 3,8 7,8 5,0 8,-3 8,-8z"/>
   <path class="fil0" d="M1644 1123c0,-4 -3,-7 -8,-7 -4,0 -7,3 -7,7 0,5 3,8 7,8 5,0 8,-3 8,-8z"/>
   <path class="fil0" d="M1573 1081c0,-1 1,-2 2,-2l41 0c1,0 2,1 2,2 0,1 -1,2 -2,2l-41 0c-1,0 -2,-1 -2,-2zm0 9c0,-1 1,-2 2,-2l41 0c1,0 2,1 2,2 0,2 -1,3 -2,3l-41 0c-1,0 -2,-1 -2,-3zm0 10c0,-1 1,-2 2,-2l41 0c1,0 2,1 2,2 0,1 -1,2 -2,2l-41 0c-1,0 -2,-1 -2,-2zm60 -7l12 0c2,0 4,3 4,5l0 7 -16 0 0 -12zm-67 -21l0 51 12 0c0,-6 5,-11 11,-11 7,0 12,5 12,11l23 0c0,-6 5,-11 12,-11 6,0 11,5 11,11l12 0c2,0 3,-2 3,-4 0,-2 -1,-4 -3,-4l-2 0 0 -17c0,-8 -7,-15 -15,-15l-16 0 0 -11 -60 0z"/>
   <path class="fil0" d="M2075 1684c-32,0 -58,-27 -58,-59 0,-32 26,-59 58,-59 33,0 59,27 59,59 0,32 -26,59 -59,59zm1 -135l-1 0c-42,0 -77,35 -77,77 0,17 5,32 14,44 7,12 63,85 63,85 0,0 56,-73 64,-85 8,-12 13,-27 13,-44 0,-42 -34,-77 -76,-77z"/>
   <path class="fil0" d="M2061 1647c0,-4 -3,-7 -7,-7 -4,0 -8,3 -8,7 0,5 4,8 8,8 4,0 7,-3 7,-8z"/>
   <path class="fil0" d="M2108 1647c0,-4 -3,-7 -7,-7 -4,0 -8,3 -8,7 0,5 4,8 8,8 4,0 7,-3 7,-8z"/>
   <path class="fil0" d="M2037 1605c0,-1 1,-2 2,-2l41 0c1,0 2,1 2,2 0,1 -1,2 -2,2l-41 0c-1,0 -2,-1 -2,-2zm0 10c0,-2 1,-3 2,-3l41 0c1,0 2,1 2,3 0,1 -1,2 -2,2l-41 0c-1,0 -2,-1 -2,-2zm0 9c0,-1 1,-2 2,-2l41 0c1,0 2,1 2,2 0,1 -1,2 -2,2l-41 0c-1,0 -2,-1 -2,-2zm60 -6l12 0c2,0 5,2 5,4l0 7 -17 0 0 -11zm-66 -21l0 50 11 0c0,-6 5,-11 12,-11 6,0 11,5 11,11l23 0c1,-6 6,-11 12,-11 6,0 11,5 12,11l11 0c2,0 4,-2 4,-4 0,-2 -2,-4 -4,-4l-2 0 0 -17c0,-8 -7,-15 -15,-15l-15 0 0 -10 -60 0z"/>
   <path class="fil0" d="M2244 2062l-734 0c-35,0 -65,-30 -65,-65l0 -1732c0,-36 30,-65 65,-65l765 0c36,0 65,29 65,65l0 1520 -4 0 0 -1520c0,-33 -27,-60 -61,-60l-765 0c-33,0 -60,27 -60,60l0 1732c0,33 27,60 60,60l734 0 0 5z"/>
   <path class="fil0" d="M1629 143c-24,0 -43,-19 -43,-43 0,-23 19,-43 43,-43 23,0 42,20 42,43 0,24 -19,43 -42,43zm0 -142l-1 0c-55,0 -100,45 -100,100 0,22 6,42 17,58 10,15 84,110 84,110 0,0 73,-95 83,-110 11,-16 17,-36 17,-58 0,-55 -44,-100 -100,-100z"/>
   <path class="fil0" d="M3331 1220c-5,4 3,12 8,7 9,-9 24,-9 34,0 5,5 13,-3 8,-7 -14,-14 -36,-14 -50,0z"/>
   <path class="fil0" d="M3315 1205c-5,5 3,13 8,8 18,-18 48,-18 66,0 5,5 13,-3 8,-8 -23,-22 -59,-22 -82,0z"/>
   <path class="fil0" d="M3299 1191c-5,5 2,12 7,7 28,-26 72,-26 99,0 5,5 13,-2 8,-7 -32,-31 -83,-31 -114,0z"/>
   <path class="fil0" d="M3367 1245c0,6 -5,11 -11,11 -6,0 -11,-5 -11,-11 0,-6 5,-11 11,-11 6,0 11,5 11,11z"/>
   <path class="fil0" d="M3358 1697c-6,6 4,16 10,10 13,-12 32,-12 45,0 7,6 17,-4 10,-10 -18,-18 -46,-18 -65,0z"/>
   <path class="fil0" d="M3337 1678c-7,6 4,16 10,10 24,-24 63,-24 87,0 7,6 17,-4 10,-10 -29,-29 -77,-29 -107,0z"/>
   <path class="fil0" d="M3316 1659c-7,7 3,17 10,10 36,-35 94,-35 130,0 6,7 16,-3 10,-10 -42,-41 -109,-41 -150,0z"/>
   <path class="fil0" d="M3405 1730c0,8 -6,14 -14,14 -8,0 -15,-6 -15,-14 0,-8 7,-15 15,-15 8,0 14,7 14,15z"/>
   <path class="fil0" d="M3427 1838c3,0 5,-2 5,-4l0 -21c0,-1 -1,-3 -2,-4l-8 -6c-1,-1 -3,-1 -4,-1l-34 0c-3,0 -6,2 -6,6l-2 25c0,3 2,5 5,5l46 0zm-57 -43c0,-4 3,-7 7,-7l40 0c1,0 3,0 4,1l12 9c1,1 3,2 4,2l123 0c3,0 6,2 7,4l22 59c2,5 -2,10 -7,10l-210 0c-4,0 -8,-3 -7,-8l5 -70z"/>
   <path class="fil0" d="M3502 2090l0 1c47,0 85,38 85,85l20 0c1,0 3,0 4,0 8,-2 14,-9 15,-16 0,-2 -1,-3 -2,-4 -1,-2 -3,-3 -4,-4 -1,-1 -2,-2 -2,-4l0 -31c0,-1 1,-3 2,-4l4 -4c1,-1 2,-3 2,-4 -1,-3 -2,-7 -4,-9l-4 -6 0 0 -116 0z"/>
   <path class="fil0" d="M3459 1994c1,1 2,2 4,2l27 0c3,0 5,-2 5,-5 0,-1 -1,-2 -2,-3 0,-1 -2,-1 -3,-1l-27 0c-3,0 -5,2 -5,4 0,1 1,3 1,3zm-56 -43l22 0c6,0 12,-5 12,-11l0 -43c0,-6 -6,-11 -12,-11l-22 0c-6,0 -11,5 -11,11l0 43c0,6 5,11 11,11zm-4 160l2 0c3,0 5,-2 5,-5l0 -1c0,-3 -2,-5 -5,-5l-31 0 0 -227 213 0c0,0 39,97 39,164l0 41c0,2 -1,3 -3,3l-235 0c-3,0 -5,2 -5,5 0,1 1,2 2,3 0,1 2,1 3,1l118 0 0 1c47,0 85,38 85,85l-66 0c1,-3 1,-5 1,-8 0,-28 -22,-51 -50,-51 -28,0 -50,23 -50,51 0,3 0,5 0,8l-23 0 0 -65zm141 -157l7 7c2,2 5,3 8,3l22 0 17 0c2,0 3,-1 2,-3 -7,-29 -16,-56 -21,-68 -2,-4 -6,-7 -11,-7l-96 0c-6,0 -11,5 -11,11l0 43c0,6 5,11 11,11l64 0c3,0 6,1 8,3z"/>
   <path class="fil0" d="M2955 2111c-2,0 -3,2 -3,3l0 59c0,1 2,3 4,3 2,0 3,-2 3,-4 0,-1 0,-3 0,-4 0,-28 23,-51 51,-51l0 -6 -54 0c-1,0 -1,0 -1,0z"/>
   <path class="fil0" d="M3092 2145l200 0c2,0 3,-1 3,-3l0 -10c0,-2 -1,-3 -3,-3l-200 0c-2,0 -3,1 -3,3l0 10c0,2 1,3 3,3zm227 -34l0 65 -259 0c0,-3 1,-5 1,-8 0,-28 -23,-51 -51,-51l0 -6 309 0z"/>
   <polygon class="fil0" points="2920,2155 2904,2139 2904,2132 2909,2132 2920,2143 "/>
   <polygon class="fil0" points="2904,2149 2920,2165 2920,2169 2913,2169 2904,2161 "/>
   <path class="fil0" d="M3463 1996l27 0c3,0 5,-2 5,-5 0,-1 -1,-2 -2,-3 0,-1 -2,-1 -3,-1l-27 0c-3,0 -5,2 -5,4 0,1 1,3 1,3 1,1 2,2 4,2z"/>
   <path class="fil0" d="M3461 2169c0,-2 -1,-3 -3,-3 -2,0 -3,1 -3,3 0,2 1,3 3,3 2,0 3,-1 3,-3z"/>
   <path class="fil0" d="M3459 2160c0,0 0,1 1,2 0,0 1,1 2,1 1,0 1,-1 2,-1 1,-2 1,-4 0,-5 -1,-1 -3,-1 -4,0 -1,1 -1,2 -1,2 0,0 0,0 0,1z"/>
   <path class="fil0" d="M3471 2162c-1,0 -2,1 -4,2 -1,1 -1,3 -1,4 0,2 0,3 1,4 2,1 3,2 4,2 4,0 6,-3 6,-6 0,-3 -2,-6 -6,-6z"/>
   <path class="fil0" d="M3486 2166c0,-1 -1,-1 -1,-1 -2,0 -3,1 -3,2 0,1 -1,1 -1,2 0,0 1,0 1,1 0,1 1,2 3,2 0,0 1,0 1,0 1,-1 2,-2 2,-3 0,-2 -1,-3 -2,-3z"/>
   <path class="fil0" d="M3471 2191c-12,0 -22,-10 -22,-23 0,-12 10,-23 22,-23 13,0 23,11 23,23 0,13 -10,23 -23,23zm1 -68c-25,0 -44,20 -44,45 0,24 19,44 44,44 24,0 44,-20 44,-44 0,-25 -20,-45 -44,-45z"/>
   <path class="fil0" d="M3482 2175c-1,0 -2,0 -3,1 -2,1 -2,3 0,4 1,1 2,2 3,1 0,0 1,0 1,-1 1,-1 1,-3 0,-4 0,0 -1,-1 -1,-1z"/>
   <path class="fil0" d="M3483 2161c1,-1 1,-3 0,-4 0,0 -1,-1 -1,-1 -1,0 -2,0 -3,0 0,0 0,1 -1,1 0,0 -1,1 -1,2 0,1 1,2 1,2 2,2 4,2 5,0z"/>
   <path class="fil0" d="M3471 2159c2,0 3,-2 3,-4 0,-1 -1,-3 -3,-3 -2,0 -3,2 -3,3 0,2 1,4 3,4z"/>
   <path class="fil0" d="M3473 2179c-1,0 -1,0 -2,0 -1,0 -2,1 -2,2 -1,0 -1,1 -1,1 0,1 0,1 1,1 0,2 1,2 2,2 1,0 1,0 2,0 1,0 2,-2 2,-3 0,-1 -1,-2 -2,-3z"/>
   <path class="fil0" d="M3465 2177c0,0 0,-1 -1,-1l0 0c0,0 0,-1 -1,-1 -1,0 -1,0 -2,0 -1,0 -1,1 -1,1 -1,1 -1,2 -1,2 0,1 0,1 0,2 0,0 0,0 1,1 1,1 2,1 3,0 1,0 1,0 1,0 1,-1 1,-2 1,-3 0,0 0,0 0,-1z"/>
   <path class="fil0" d="M2996 2160c0,0 1,1 1,2 1,0 2,1 2,1 1,0 2,-1 3,-1 1,-2 1,-4 0,-5 -2,-1 -4,-1 -5,0 0,1 -1,2 -1,2 0,0 0,0 0,1z"/>
   <path class="fil0" d="M2999 2169c0,-2 -2,-3 -3,-3 -2,0 -4,1 -4,3 0,2 2,3 4,3 1,0 3,-1 3,-3z"/>
   <path class="fil0" d="M3009 2162c-1,0 -3,1 -4,2 -1,1 -2,3 -2,4 0,2 1,3 2,4 1,1 3,2 4,2 3,0 6,-3 6,-6 0,-3 -3,-6 -6,-6z"/>
   <path class="fil0" d="M3009 2191c-12,0 -23,-10 -23,-23 0,-12 11,-23 23,-23 13,0 23,11 23,23 0,13 -10,23 -23,23zm0 -68c-24,0 -44,20 -44,45 0,24 20,44 44,44 25,0 45,-20 45,-44 0,-25 -20,-45 -45,-45z"/>
   <path class="fil0" d="M3024 2166c-1,-1 -1,-1 -2,-1 -1,0 -2,1 -3,2 0,1 0,1 0,2 0,0 0,0 0,1 1,1 2,2 3,2 1,0 1,0 2,0 1,-1 2,-2 2,-3 0,-2 -1,-3 -2,-3z"/>
   <path class="fil0" d="M3020 2175c-1,0 -3,0 -4,1 -1,1 -1,3 0,4 1,1 3,2 4,1 0,0 0,0 1,-1 1,-1 1,-3 0,-4 -1,0 -1,-1 -1,-1z"/>
   <path class="fil0" d="M3021 2161c1,-1 1,-3 0,-4 -1,0 -1,-1 -2,-1 0,0 -1,0 -2,0 0,0 -1,1 -1,1 -1,0 -1,1 -1,2 0,1 0,2 1,2 1,2 3,2 5,0z"/>
   <path class="fil0" d="M3009 2159c2,0 3,-2 3,-4 0,-1 -1,-3 -3,-3 -2,0 -3,2 -3,3 0,2 1,4 3,4z"/>
   <path class="fil0" d="M3010 2179c0,0 0,0 -1,0 -1,0 -2,1 -3,2 0,0 0,1 0,1 0,1 0,1 0,1 1,2 2,2 3,2 1,0 1,0 1,0 2,0 2,-2 2,-3 0,-1 0,-2 -2,-3z"/>
   <path class="fil0" d="M3003 2177c-1,0 -1,-1 -1,-1l0 0c0,0 -1,-1 -1,-1 -1,0 -2,0 -3,0 0,0 0,1 -1,1 0,1 -1,2 -1,2 0,1 1,1 1,2 0,0 0,0 0,1 1,1 3,1 4,0 0,0 1,0 1,0 1,-1 1,-2 1,-3 0,0 0,0 0,-1z"/>
   <path class="fil0" d="M2662 2191c-12,0 -22,-10 -22,-23 0,-12 10,-23 22,-23 13,0 23,11 23,23 0,13 -10,23 -23,23zm-94 0c-13,0 -23,-10 -23,-23 0,-12 10,-23 23,-23 12,0 22,11 22,23 0,13 -10,23 -22,23zm-95 0c-12,0 -22,-10 -22,-23 0,-12 10,-23 22,-23 13,0 23,11 23,23 0,13 -10,23 -23,23zm145 -23c0,24 20,44 45,44 24,0 44,-20 44,-44 0,-15 -7,-27 -17,-35l7 0 0 -5 -14 0c-6,-3 -13,-5 -20,-5 -8,0 -15,2 -21,5l-54 0c-6,-3 -13,-5 -20,-5 -7,0 -14,2 -20,5l-54 0c-6,-3 -13,-5 -20,-5 -8,0 -15,2 -21,5l-15 0 0 5 9 0c-11,8 -18,20 -18,35 0,24 20,44 45,44 24,0 44,-20 44,-44 0,-15 -7,-27 -17,-35l40 0c-10,8 -17,20 -17,35 0,24 20,44 44,44 25,0 44,-20 44,-44 0,-15 -6,-27 -17,-35l41 0c-11,8 -18,20 -18,35z"/>
   <path class="fil0" d="M2669 2161c1,1 2,1 2,1 1,0 2,0 3,-1 0,0 1,-1 1,-2 0,-1 -1,-2 -1,-2 -1,0 -1,-1 -1,-1 -1,0 -1,0 -2,0 0,0 -1,0 -1,0 0,1 -1,1 -1,1 0,0 0,0 0,1 -1,1 -1,2 0,3z"/>
   <path class="fil0" d="M2662 2162c-1,0 -3,1 -4,2 -1,1 -1,3 -1,4 0,2 0,3 1,4 1,1 3,2 4,2 2,0 3,-1 4,-2 1,-1 2,-2 2,-4 0,-1 -1,-3 -2,-4 -1,-1 -2,-2 -4,-2z"/>
   <path class="fil0" d="M2677 2166c-1,-1 -1,-1 -2,-1l0 0c0,0 0,0 -1,1 0,0 0,0 -1,0 0,1 -1,2 -1,3 0,0 1,1 1,2 1,0 1,0 1,1 1,0 1,0 1,0l0 0c1,0 1,0 2,0 1,-1 2,-2 2,-3 0,-2 -1,-3 -2,-3z"/>
   <path class="fil0" d="M2672 2175c-1,0 -1,0 -2,0 0,0 0,1 -1,1 0,0 0,1 0,1 -1,1 -1,2 0,2 0,1 0,1 0,1 1,1 1,1 1,1 1,0 1,0 2,0 1,0 1,0 2,-1 1,-1 1,-3 0,-4 -1,-1 -1,-1 -2,-1z"/>
   <path class="fil0" d="M2662 2159l0 0c0,0 0,-1 0,-1 2,0 3,-1 3,-3 0,-1 0,-1 -1,-2 0,-1 -1,-1 -2,-1l0 0c-1,0 -2,1 -3,2 0,0 0,1 0,1 0,2 1,4 3,4z"/>
   <path class="fil0" d="M2662 2179c-1,0 -3,1 -3,3 0,2 2,3 3,3 2,0 4,-1 4,-3 0,-2 -2,-3 -4,-3z"/>
   <path class="fil0" d="M2655 2176c-1,-1 -1,-1 -2,-1 -1,0 -1,0 -1,0 -1,0 -1,1 -1,1 -1,1 -1,2 -1,2 0,1 0,1 0,2 0,0 0,0 1,1 0,0 0,0 1,0 0,0 0,1 1,1 1,0 1,-1 2,-1 0,-1 1,-1 1,-1 0,-1 0,-1 0,-2 0,0 0,-1 -1,-2z"/>
   <path class="fil0" d="M2650 2162c1,0 1,0 1,0 1,0 1,1 2,1 0,0 0,-1 1,-1 0,0 1,0 1,0 0,-1 0,-1 1,-1 0,-1 0,-1 0,-2 0,0 0,-1 -1,-2 -1,-1 -2,-1 -2,-1 0,0 -1,0 -1,0 0,0 -1,0 -2,1 0,0 0,1 0,1 -1,1 -1,2 0,3 0,0 0,0 0,1z"/>
   <path class="fil0" d="M2650 2172c1,-1 2,-2 2,-3 0,-1 -1,-3 -2,-3 0,0 -1,0 -1,0l0 0c-2,0 -3,0 -3,2 0,0 0,0 0,1 0,0 0,1 0,1 0,1 1,2 3,2l0 0c0,0 1,0 1,0z"/>
   <path class="fil0" d="M2555 2161c0,0 1,0 1,1 0,0 1,0 1,0 0,0 1,1 1,1 1,0 1,-1 1,-1 1,0 1,0 1,0 1,-1 1,-1 1,-1 0,-1 0,-1 0,-2 0,0 0,-1 -1,-2 0,-1 -1,-1 -2,-1 0,0 0,0 0,0 -1,0 -2,0 -2,1 -1,1 -1,2 -1,2 0,1 0,1 0,2z"/>
   <path class="fil0" d="M2568 2162c-2,0 -3,1 -4,2 -1,1 -2,3 -2,4 0,2 1,3 2,4 1,1 2,2 4,2 1,0 3,-1 4,-2 1,-1 1,-2 1,-4 0,-1 0,-3 -1,-4 -1,-1 -3,-2 -4,-2z"/>
   <path class="fil0" d="M2582 2166c0,-1 -1,-1 -1,-1l0 0c-1,0 -2,1 -3,2 0,1 0,1 0,2 0,0 0,0 0,1 1,1 2,2 3,2l0 0c0,0 1,0 1,0 1,-1 2,-2 2,-3 0,-2 -1,-3 -2,-3z"/>
   <path class="fil0" d="M2576 2175c0,0 -1,1 -1,1 0,0 -1,1 -1,1 0,1 0,2 0,2 0,1 1,1 1,1 0,1 1,1 1,1 1,1 3,0 3,-1 2,-1 2,-3 0,-4 0,-1 -2,-1 -3,-1z"/>
   <path class="fil0" d="M2577 2162c1,0 2,0 2,-1 1,0 1,-1 1,-2 0,-1 0,-2 -1,-2 0,0 0,0 0,-1 -1,0 -1,0 -2,0 0,0 -1,0 -1,0 -1,0 -1,1 -1,1 -1,0 -1,1 -1,2 0,1 0,2 1,2 0,1 1,1 2,1z"/>
   <path class="fil0" d="M2568 2159l0 0c0,0 0,-1 0,-1 1,0 3,-1 3,-3 0,-1 -1,-1 -1,-2 -1,-1 -2,-1 -2,-1l0 0c-2,0 -3,1 -3,2 -1,0 -1,1 -1,1 0,2 2,4 4,4z"/>
   <path class="fil0" d="M2568 2179c-2,0 -3,1 -3,3 0,2 1,3 3,3 2,0 3,-1 3,-3 0,-2 -1,-3 -3,-3z"/>
   <path class="fil0" d="M2561 2176c-1,0 -1,-1 -1,-1 -1,0 -2,0 -3,0 0,0 -1,1 -1,1 -1,1 -1,3 0,5 0,0 1,0 1,0 1,1 3,1 4,0 0,-1 0,-1 0,-1 0,-1 1,-1 1,-2 0,0 -1,-1 -1,-2z"/>
   <path class="fil0" d="M2558 2169c0,-2 -2,-3 -4,-3 0,0 -1,0 -1,0 -1,0 -2,2 -2,3 0,1 1,2 2,3 0,0 1,0 1,0 2,0 4,-1 4,-3z"/>
   <path class="fil0" d="M2473 2162c-1,0 -3,1 -4,2 -1,1 -1,3 -1,4 0,2 0,3 1,4 1,1 3,2 4,2 2,0 3,-1 4,-2 1,-1 2,-2 2,-4 0,-1 -1,-3 -2,-4 -1,-1 -2,-2 -4,-2z"/>
   <path class="fil0" d="M2461 2161c0,0 0,0 0,1 1,0 2,1 3,1 0,0 1,-1 2,-1 0,-1 0,-1 1,-1 0,-1 0,-1 0,-2 0,0 0,-1 -1,-2 -1,-1 -3,-1 -5,0 0,1 -1,2 -1,2 0,1 0,1 1,2z"/>
   <path class="fil0" d="M2486 2165l0 0c-1,0 -2,1 -2,2 -1,1 -1,1 -1,2 0,0 0,0 1,1 0,1 1,2 2,2l0 0c1,0 2,-1 3,-1 0,-1 1,-2 1,-2 0,-1 -1,-2 -1,-3 -1,0 -2,-1 -3,-1z"/>
   <path class="fil0" d="M2483 2175c-1,0 -2,0 -3,1 -1,1 -1,3 0,4 1,1 2,1 3,1 1,0 1,0 2,-1 1,-1 1,-3 0,-4 -1,-1 -1,-1 -2,-1z"/>
   <path class="fil0" d="M2482 2162c1,0 1,0 2,0 0,0 0,0 1,-1 0,0 0,0 0,-1 1,0 1,0 1,-1 0,-1 -1,-2 -1,-2 -1,0 -1,-1 -1,-1 -1,0 -1,0 -2,0 0,0 -1,0 -2,1 0,0 -1,1 -1,2 0,1 1,2 1,2 1,1 2,1 2,1z"/>
   <path class="fil0" d="M2473 2159c2,0 3,-2 3,-4 0,-1 -1,-3 -3,-3 -2,0 -3,2 -3,3 0,2 1,4 3,4z"/>
   <path class="fil0" d="M2473 2179c-1,0 -3,1 -3,3 0,2 2,3 3,3 2,0 4,-1 4,-3 0,-2 -2,-3 -4,-3z"/>
   <path class="fil0" d="M2466 2176c0,0 -1,-1 -1,-1 0,0 -1,0 -1,0 -1,0 -1,0 -2,1 0,0 0,0 0,0 -2,1 -2,3 0,5 0,0 1,1 2,1 1,0 1,-1 2,-1 0,-1 1,-1 1,-1 0,-1 0,-1 0,-2 0,0 0,-1 -1,-2z"/>
   <path class="fil0" d="M2463 2169c0,-1 0,-2 -1,-2 0,-1 -1,-1 -2,-1 -2,0 -3,1 -3,3 0,2 1,3 3,3 1,0 2,0 2,-1 1,0 1,-1 1,-2z"/>
   <path class="fil0" d="M3375 2160c5,0 8,-4 8,-8 0,-5 -3,-8 -8,-8 -4,0 -8,3 -8,8 0,4 4,8 8,8z"/>
   <path class="fil0" d="M3344 2160c4,0 8,-4 8,-8 0,-5 -4,-8 -8,-8 -5,0 -8,3 -8,8 0,4 3,8 8,8z"/>
   <path class="fil0" d="M3284 2095l-12 0c-3,0 -5,2 -5,5l0 0c0,3 2,5 5,5l12 0c3,0 5,-2 5,-5l0 0c0,-3 -2,-5 -5,-5z"/>
   <path class="fil0" d="M3083 2095l-12 0c-3,0 -5,2 -5,5l0 0c0,3 2,5 5,5l12 0c3,0 5,-2 5,-5l0 0c0,-3 -2,-5 -5,-5z"/>
   <path class="fil0" d="M2882 2095l-12 0c-3,0 -5,2 -5,5l0 0c0,3 2,5 5,5l12 0c3,0 5,-2 5,-5l0 0c0,-3 -2,-5 -5,-5z"/>
   <path class="fil0" d="M2681 2095l-12 0c-3,0 -5,2 -5,5l0 0c0,3 2,5 5,5l12 0c3,0 5,-2 5,-5l0 0c0,-3 -2,-5 -5,-5z"/>
   <path class="fil0" d="M2480 2095l-12 0c-3,0 -5,2 -5,5l0 0c0,3 2,5 5,5l12 0c3,0 5,-2 5,-5l0 0c0,-3 -2,-5 -5,-5z"/>
   <path class="fil0" d="M2279 2095l-12 0c-3,0 -5,2 -5,5l0 0c0,3 2,5 5,5l12 0c3,0 5,-2 5,-5l0 0c0,-3 -2,-5 -5,-5z"/>
   <path class="fil0" d="M3380 1808c0,-2 2,-4 4,-4l34 0c1,0 2,0 2,1l9 6c0,1 1,1 1,2l0 21c0,1 -1,2 -3,2l-46 0c-1,0 -2,-1 -2,-1 0,0 -1,-1 0,-2l1 -25zm1 32l46 0c4,0 7,-3 7,-6l0 -21c0,-2 -1,-4 -3,-5l-8 -7c-1,-1 -3,-1 -5,-1l-34 0c-4,0 -8,3 -8,7l-2 26c0,2 1,4 2,5 1,1 3,2 5,2z"/>
   <path class="fil0" d="M3434 1940c0,5 -4,9 -9,9l-22 0c-5,0 -9,-4 -9,-9l0 -43c0,-5 4,-9 9,-9l22 0c5,0 9,4 9,9l0 43zm-9 -56l-22 0c-7,0 -13,6 -13,13l0 43c0,7 6,13 13,13l22 0c8,0 14,-6 14,-13l0 -43c0,-7 -6,-13 -14,-13z"/>
   <path class="fil0" d="M3091 2132c0,0 1,-1 1,-1l200 0c1,0 1,1 1,1l0 10c0,1 0,1 -1,1l-30 0c-2,-3 -5,-5 -8,-5l-23 0c-3,0 -6,2 -7,5l-132 0c0,0 -1,0 -1,-1l0 -10zm1 15l131 0 0 0c0,5 4,9 8,9l23 0c5,0 8,-4 8,-9l0 0 30 0c3,0 5,-2 5,-5l0 -10c0,-3 -2,-5 -5,-5l-200 0c-3,0 -5,2 -5,5l0 10c0,3 2,5 5,5z"/>
   <path class="fil0" d="M2246 2153l0 -40 6 0 0 40 -6 0zm-2 -363c0,-1 1,-2 2,-2l16 0c1,0 1,0 1,0 1,1 1,1 1,2l0 17c0,1 -1,2 -2,2l-16 0c0,0 -1,0 -1,-1l0 0c-1,0 -1,-1 -1,-1l0 -17zm1038 -2l17 0c1,0 2,1 2,2l0 17c0,0 -1,1 -1,1 0,0 -1,1 -1,1l-17 0c-1,0 -1,-1 -1,-2l0 -17c0,-1 0,-1 1,-2 0,0 0,0 0,0zm-1038 279c0,-1 0,-1 1,-2 0,0 1,0 1,0l16 0c1,0 2,1 2,2l0 17c0,1 -1,1 -2,1l-16 0c-1,0 -2,0 -2,-1l0 -17zm13 -6l-11 0 0 -248 11 0 0 248zm9 1c-1,-1 -2,-1 -4,-1l0 0 0 -248 0 0c2,0 3,0 4,-1l0 250zm1010 -272l0 11 -1007 0 0 -11c0,-1 -1,-1 -1,-2l1009 0c-1,1 -1,1 -1,2zm25 294c0,1 -1,1 -2,1l-17 0 0 0 -1 0c0,0 0,-1 0,-1l0 -17c0,-1 0,-2 1,-2l17 0c1,0 1,0 1,1 0,0 1,0 1,1l0 17zm-1032 0l0 -10 1007 0 0 10c0,0 0,1 0,1l-1008 0c1,0 1,-1 1,-1zm13 -15l-9 0 0 -263 9 0 0 263zm11 0l-7 0 0 -263 7 0 0 263zm16 0l-8 0 0 -263 8 0 0 263zm12 0l-8 0 0 -263 8 0 0 263zm16 0l-9 0 0 -263 9 0 0 263zm11 0l-7 0 0 -263 7 0 0 263zm16 0l-8 0 0 -263 8 0 0 263zm12 0l-8 0 0 -263 8 0 0 263zm16 0l-9 0 0 -263 9 0 0 263zm11 0l-7 0 0 -263 7 0 0 263zm16 0l-8 0 0 -263 8 0 0 263zm12 0l-8 0 0 -263 8 0 0 263zm16 0l-9 0 0 -263 9 0 0 263zm11 0l-7 0 0 -263 7 0 0 263zm16 0l-8 0 0 -263 8 0 0 263zm12 0l-8 0 0 -263 8 0 0 263zm16 0l-9 0 0 -263 9 0 0 263zm11 0l-7 0 0 -263 7 0 0 263zm16 0l-8 0 0 -263 8 0 0 263zm12 0l-8 0 0 -263 8 0 0 263zm16 0l-9 0 0 -263 9 0 0 263zm11 0l-7 0 0 -263 7 0 0 263zm16 0l-8 0 0 -263 8 0 0 263zm12 0l-8 0 0 -263 8 0 0 263zm16 0l-9 0 0 -263 9 0 0 263zm11 0l-7 0 0 -263 7 0 0 263zm16 0l-8 0 0 -263 8 0 0 263zm12 0l-8 0 0 -263 8 0 0 263zm16 0l-9 0 0 -263 9 0 0 263zm11 0l-7 0 0 -263 7 0 0 263zm16 0l-9 0 0 -263 9 0 0 263zm12 0l-8 0 0 -263 8 0 0 263zm16 0l-9 0 0 -263 9 0 0 263zm11 0l-7 0 0 -263 7 0 0 263zm16 0l-9 0 0 -263 9 0 0 263zm12 0l-8 0 0 -263 8 0 0 263zm16 0l-9 0 0 -263 9 0 0 263zm11 0l-7 0 0 -263 7 0 0 263zm16 0l-9 0 0 -263 9 0 0 263zm12 0l-8 0 0 -263 8 0 0 263zm16 0l-9 0 0 -263 9 0 0 263zm11 0l-7 0 0 -263 7 0 0 263zm16 0l-9 0 0 -263 9 0 0 263zm12 0l-8 0 0 -263 8 0 0 263zm16 0l-9 0 0 -263 9 0 0 263zm11 0l-7 0 0 -263 7 0 0 263zm16 0l-9 0 0 -263 9 0 0 263zm12 0l-8 0 0 -263 8 0 0 263zm16 0l-9 0 0 -263 9 0 0 263zm11 0l-7 0 0 -263 7 0 0 263zm16 0l-9 0 0 -263 9 0 0 263zm12 0l-8 0 0 -263 8 0 0 263zm16 0l-9 0 0 -263 9 0 0 263zm11 0l-7 0 0 -263 7 0 0 263zm16 0l-9 0 0 -263 9 0 0 263zm12 0l-8 0 0 -263 8 0 0 263zm16 0l-9 0 0 -263 9 0 0 263zm11 0l-7 0 0 -263 7 0 0 263zm16 0l-9 0 0 -263 9 0 0 263zm12 0l-8 0 0 -263 8 0 0 263zm15 0l-8 0 0 -263 8 0 0 263zm12 0l-7 0 0 -263 7 0 0 263zm16 0l-9 0 0 -263 9 0 0 263zm12 0l-8 0 0 -263 8 0 0 263zm15 0l-8 0 0 -263 8 0 0 263zm12 0l-7 0 0 -263 7 0 0 263zm16 0l-9 0 0 -263 9 0 0 263zm12 0l-8 0 0 -263 8 0 0 263zm15 0l-8 0 0 -263 8 0 0 263zm12 0l-7 0 0 -263 7 0 0 263zm16 0l-9 0 0 -263 9 0 0 263zm13 0l-9 0 0 -263 9 0 0 263zm20 -260l0 256c-1,1 -1,1 -1,2l0 2 -12 0 0 -263 12 0 0 1c0,0 0,1 1,2zm23 252c-1,0 -1,0 -1,0l-11 0 0 -248 -2 0 0 0 13 0c0,0 0,0 1,0l0 248zm-344 48c-1,0 -1,0 -1,0l-709 0 0 -18 1054 0 0 18 -344 0zm416 -314c0,-3 2,-5 5,-5l40 0c1,0 2,0 3,1l12 9c1,1 3,2 5,2l123 0c2,0 4,1 5,3l22 59c0,2 0,3 -1,5 -1,1 -2,2 -4,2l-210 0c-2,0 -3,-1 -4,-2 -1,-1 -1,-2 -1,-3l5 -71zm250 89c3,6 6,14 9,23l-10 0 0 -14c0,-4 -3,-6 -6,-6l-1 0c-3,0 -5,2 -5,6l0 34c0,4 2,6 5,6l1 0c3,0 6,-2 6,-6l0 -16 12 0c1,5 3,10 4,15 0,1 -1,3 -2,4l-24 23c-9,-36 -21,-66 -25,-77l24 0c5,0 10,3 12,8zm-154 65c-5,0 -9,-4 -9,-9l0 -43c0,-5 4,-9 9,-9l96 0c4,0 8,2 9,6 5,13 14,39 21,67l0 1 -39 0c-3,0 -5,-1 -7,-3l-6 -6c-3,-3 -6,-4 -10,-4l-64 0zm152 129c0,1 0,1 -1,1l-114 0 0 -126 27 0c2,0 5,1 7,3l6 6c3,3 6,4 10,4l39 0c1,0 3,0 4,-1 1,-2 1,-3 0,-5 -7,-28 -16,-55 -21,-68 -2,-5 -7,-8 -13,-8l-96 0c-7,0 -13,6 -13,13l0 43c0,7 6,13 13,13l32 0 0 126 -116 0c-4,0 -7,3 -7,7 0,1 1,3 2,5 1,1 3,2 5,2l118 0 0 0c45,0 81,36 82,81l-60 0c0,-2 0,-4 0,-6 0,-29 -23,-53 -52,-53 -29,0 -53,24 -53,53 0,2 1,4 1,6l-19 0 0 -61c4,0 7,-3 7,-7l0 -1c0,-4 -3,-7 -7,-7l-29 0 0 -223 209 0c5,12 39,101 39,162l0 41zm-7 10l0 0 -229 0c-1,0 -2,0 -2,0 0,-1 -1,-2 -1,-2 0,-2 1,-3 3,-3l228 0c-1,2 0,3 1,5zm11 17c0,1 0,2 -1,2l-4 5c-2,1 -3,3 -3,5l0 31c0,2 1,4 3,5l4 4c0,1 1,2 1,3 -1,6 -6,12 -13,14 -1,0 -3,0 -4,0l-18 0c-1,-38 -27,-71 -62,-81l90 0 3 4c2,2 3,5 4,8zm-227 8l0 61 -76 0 0 -61 76 0zm-387 1c-29,0 -53,24 -53,54 0,1 0,3 0,4 0,1 0,1 0,1 -1,1 -1,1 -1,1 -1,0 -2,-1 -2,-1l0 -59c0,0 1,-1 1,-1l8 0 0 0 354 0 0 61 -254 0c0,-2 0,-4 0,-6 0,-30 -24,-54 -53,-54zm-80 68l0 6c0,0 0,0 0,0l-36 0c0,0 0,0 0,0l0 -6c0,0 0,0 0,0l36 0c0,0 0,0 0,0zm-24 -46c0,-1 1,-1 1,-1l10 0c0,0 1,0 1,1l0 31 -12 0 0 -31zm-481 -3l0 -5 -151 0 -17 17 0 -32 666 0 0 31c0,0 0,0 0,0l-1 0 0 -8c0,-3 -2,-6 -5,-6l-10 0c-3,0 -5,3 -5,6l0 8 -1 0c-1,0 -1,0 -1,0l0 -16 -191 0 0 5 187 0 0 11c0,2 2,5 5,5l1 0 0 20 -3 2c0,1 -1,2 -1,3l0 5 -4 0c-2,0 -3,1 -3,3l0 6c0,2 1,3 3,3l36 0c2,0 3,-1 3,-3l0 -6c0,-2 -1,-3 -3,-3l-4 0 0 -5c0,-1 0,-2 -1,-3l-3 -3 0 -19 1 0c2,0 5,-3 5,-5l0 -31 22 0c0,0 0,1 0,1l0 59c0,3 2,5 6,5 1,0 3,0 4,-2 1,-1 1,-2 1,-4 0,-1 0,-3 0,-4 0,-27 22,-49 49,-49 27,0 49,22 49,49 0,2 -1,5 -1,8l0 2 367 0 -1 -2c0,-3 0,-6 0,-8 0,-27 21,-49 48,-49 26,0 48,22 48,49 0,2 0,5 -1,8l0 2 88 0c2,0 3,0 5,0 8,-2 15,-9 16,-18 0,-2 -1,-4 -2,-6l-4 -4c-1,0 -1,-1 -1,-2l0 -6 3 0 0 4c0,0 0,1 1,1l5 6c1,0 1,0 2,0l2 0c1,0 2,0 2,-1l0 -40c0,-1 -1,-1 -2,-1l-3 0c-1,0 -1,0 -2,0l-4 5c-1,0 -1,1 -1,1l0 4 -3 0 0 -4c0,-1 0,-1 1,-2l4 -4c2,-2 2,-4 2,-6 -1,-4 -2,-8 -4,-11l-8 -9c0,0 0,-1 0,-1 0,0 0,-1 1,-1l2 0c3,0 5,-2 5,-5l0 -41c0,-24 -5,-53 -12,-80l26 -23c3,-3 4,-6 3,-9 -3,-15 -10,-32 -15,-43 -3,-6 -9,-10 -16,-10l-21 0c0,0 1,-1 1,-1 2,-2 2,-6 1,-8l-22 -59c-2,-4 -5,-6 -9,-6l-123 0c-1,0 -2,-1 -3,-1l-11 -9c-2,-2 -4,-2 -6,-2l-40 0c-5,0 -9,4 -10,8l-4 71c-1,3 0,5 2,7 1,1 2,2 3,2l0 215 -37 0c-3,0 -6,3 -6,6l0 14 -21 0 0 -22c1,-1 1,-2 1,-3l0 -17c0,-1 0,-3 -1,-4l0 0 0 -253 0 0c1,-1 1,-2 1,-3l0 -17c0,-3 -3,-6 -6,-6l-17 0c0,0 0,0 0,0l0 0 -1029 0 0 0 -7 0c-3,0 -6,3 -6,6l0 17c0,1 0,3 2,4l0 252c-2,1 -2,2 -2,4l0 17c0,1 1,3 2,4l0 69 15 0 0 -6 19 -18 149 0z"/>
   <polygon class="fil0" points="2392,2219 3202,2219 3202,2215 2392,2215 "/>
   <polygon class="fil0" points="3291,2219 3684,2219 3684,2215 3291,2215 "/>
   <path class="fil0" d="M2448 2109l-10 5c-6,4 -11,9 -16,14 -7,10 -12,22 -13,35l0 0c0,5 3,8 8,8 4,0 7,-3 7,-7 1,-12 7,-23 16,-31 8,-8 20,-13 32,-13l190 0c12,0 24,5 32,13 9,8 14,19 15,31 1,4 4,7 8,7 2,0 4,-1 6,-2 1,-2 2,-4 2,-6 -1,-13 -6,-24 -13,-34 -5,-6 -10,-11 -17,-15l-12 -6c0,0 -1,0 -1,0l-232 0c-1,0 -1,1 -2,1z"/>
  </g>
 </g>
</svg>
