<?xml version="1.0" encoding="UTF-8"?>
<!DOCTYPE svg PUBLIC "-//W3C//DTD SVG 1.1//EN" "http://www.w3.org/Graphics/SVG/1.1/DTD/svg11.dtd">
<!-- Creator: CorelDRAW X7 -->
<svg xmlns="http://www.w3.org/2000/svg" xml:space="preserve" width="0.54in" height="0.694in" version="1.1" style="shape-rendering:geometricPrecision; text-rendering:geometricPrecision; image-rendering:optimizeQuality; fill-rule:evenodd; clip-rule:evenodd"
viewBox="0 0 540 694"
 xmlns:xlink="http://www.w3.org/1999/xlink"
 data-name="&lt;Layer&gt;">
 <defs>
  <style type="text/css">
   <![CDATA[
    .fil0 {fill:#FEFEFE}
   ]]>
  </style>
 </defs>
 <g id="Layer_x0020_1">
  <metadata id="CorelCorpID_0Corel-Layer"/>
  <path class="fil0" d="M0 602c0,0 0,0 1,0l2 3c3,1 1,0 4,2 1,1 0,0 1,2 5,1 3,1 6,4 0,0 0,0 0,0l37 23c6,2 5,4 12,7 4,2 8,3 12,5 4,3 7,5 11,7l9 3c3,2 2,1 3,3 4,-1 6,1 10,2 4,2 7,4 10,5 5,2 13,4 20,6 5,2 1,2 7,3l6 1c3,1 5,2 8,2 6,2 5,1 7,3 5,0 2,-1 8,1 5,2 3,-1 7,2 7,0 9,1 15,2 8,2 -3,1 12,2 3,0 3,1 6,1 7,1 0,-2 13,2 3,1 4,1 7,1 3,-2 10,-1 13,0 12,0 23,0 35,0 6,0 10,0 16,-1 7,0 9,1 17,1l1 -2c20,-1 19,-2 35,-5 3,-1 3,-1 4,0 3,-1 4,-1 7,-2l21 -5c1,-1 0,0 3,-1 1,0 3,-1 5,-1 5,-2 5,-1 8,-1 3,-5 20,-8 26,-10 1,-1 1,-1 3,-2 1,0 3,-1 5,-2 5,-2 8,-4 13,-4 2,-3 6,-3 10,-5l20 -11c1,0 2,-1 3,-1 4,-2 3,-3 7,-3l36 -24c11,-6 3,-4 12,-8l0 0c3,-4 2,-2 6,-5l0 0 -23 -14c-3,-2 -6,-3 -8,-5l-20 -8c-5,-3 -4,-1 -11,-6l-4 -1c0,0 -2,-1 -2,-1 -3,-1 -1,0 -2,-1 -6,-1 -37,-14 -45,-18l-5 -3c-7,0 -19,-8 -23,-11l-4 -2c-3,-1 -11,-7 -13,-9 -4,-2 -5,-4 -8,-8 -3,-2 -6,-3 -6,-9 -5,-1 -3,-1 -5,-6 0,-1 -1,-2 -1,-3 -1,-3 -1,-1 -1,-3 -4,-2 -3,-4 -3,-9 0,-4 0,-7 0,-11 -2,-17 -1,-25 -1,-42 0,-9 -1,-12 5,-15 2,-3 2,-2 4,-4 3,-3 1,-2 4,-6 15,-23 8,-16 15,-30 1,0 1,0 1,-1 0,0 0,0 1,0 1,-7 0,-3 2,-7 1,-2 1,-2 1,-4 1,-4 2,-10 4,-12 0,-5 2,-15 4,-19l4 1c1,-1 0,-1 2,-2 0,0 1,-1 2,-1 2,-2 3,-2 5,-3 1,-2 4,-5 6,-8 2,-4 3,-6 4,-10 3,-8 4,-13 7,-20 -4,-4 1,-8 0,-13 0,-4 -1,-3 -1,-6 0,-3 0,-2 0,-7 -3,-1 0,0 -3,-5 -6,-9 -10,-10 -9,-14l5 -14c4,-11 3,-29 8,-31 -1,-8 0,-6 0,-14 1,-7 3,-9 3,-14 -1,-3 -1,-8 1,-9 0,-14 1,-23 -1,-37l0 -1c-1,-2 -3,-21 -4,-27l-2 -9c-3,-1 -1,2 -3,-3 -2,-9 -1,-3 -5,-11 -3,-7 1,-3 -5,-9l-10 -12c-2,-3 -3,-3 -6,-5 -1,-1 -13,-10 -14,-10l-27 -8c-11,-3 -4,-5 -15,-13 -1,-1 -1,-1 -2,-2l-3 -3c-3,0 -6,-2 -9,-4l-31 -8c-5,0 -7,-2 -12,-2 -4,0 -8,1 -12,1 -5,0 -9,-1 -13,0 -5,0 -7,1 -13,1 -8,0 -1,-1 -9,1 -6,2 -1,-1 -9,2 -4,1 -8,1 -11,2 -5,1 -5,2 -11,2 0,0 0,0 0,0l-1 1c-4,1 -13,6 -16,6 -4,5 -4,0 -12,7l-11 7 -10 9c-13,13 -24,32 -24,31 0,0 -1,1 -1,1 0,5 -6,16 -7,20 -1,4 -4,17 -4,20 -1,6 -2,5 -2,11 0,4 0,5 -1,9 -2,9 -1,49 0,53 2,4 3,2 2,8 0,5 -1,1 1,7l10 50c-7,7 -3,2 -8,9 -7,10 0,5 -5,8l0 4 -1 11c5,5 -1,5 2,14 2,4 3,9 5,14 5,15 9,15 13,23 3,0 1,-1 3,0 2,1 1,1 2,2l5 0c4,5 2,3 3,9 1,4 1,5 2,10 2,3 2,6 2,9 1,6 2,2 3,8 2,2 0,-2 2,4 3,11 12,26 20,36 9,12 2,4 10,10l0 37c-1,11 4,39 -10,52 -2,3 -8,10 -11,11 -7,9 -26,18 -34,22 -5,2 -7,3 -14,5 0,1 0,0 -2,2l-23 9c0,0 -1,0 -1,0l-7 3c-4,1 -7,4 -10,3 -4,3 -5,4 -11,6 -4,1 -6,3 -10,4 -6,3 -17,8 -23,10 -2,2 -21,12 -29,18z"/>
 </g>
</svg>
