<?xml version="1.0" encoding="UTF-8"?>
<!DOCTYPE svg PUBLIC "-//W3C//DTD SVG 1.1//EN" "http://www.w3.org/Graphics/SVG/1.1/DTD/svg11.dtd">
<!-- Creator: CorelDRAW X7 -->
<svg xmlns="http://www.w3.org/2000/svg" xml:space="preserve" width="4.075in" height="3.438in" version="1.1" style="shape-rendering:geometricPrecision; text-rendering:geometricPrecision; image-rendering:optimizeQuality; fill-rule:evenodd; clip-rule:evenodd"
viewBox="0 0 4075 3438"
 xmlns:xlink="http://www.w3.org/1999/xlink">
 <defs>
  <style type="text/css">
   <![CDATA[
    .fil13 {fill:none}
    .fil4 {fill:#FEFEFE;fill-rule:nonzero}
    .fil8 {fill:#FAC1B2;fill-rule:nonzero}
    .fil10 {fill:#EE4698;fill-rule:nonzero}
    .fil7 {fill:#F1F3F4;fill-rule:nonzero}
    .fil9 {fill:#EA9E95;fill-rule:nonzero}
    .fil12 {fill:#D12D90;fill-rule:nonzero}
    .fil2 {fill:#D5E9F8;fill-rule:nonzero}
    .fil6 {fill:#D4D1D0;fill-rule:nonzero}
    .fil1 {fill:#C4D9E8;fill-rule:nonzero}
    .fil0 {fill:#5D96CF;fill-rule:nonzero}
    .fil5 {fill:#4572AD;fill-rule:nonzero}
    .fil11 {fill:#39588D;fill-rule:nonzero}
    .fil3 {fill:#35497D;fill-rule:nonzero}
   ]]>
  </style>
 </defs>
 <g id="Layer_x0020_1">
  <metadata id="CorelCorpID_0Corel-Layer"/>
  <g id="_746678080">
   <polygon class="fil0" points="3471,3099 3464,3074 3539,3055 3545,3080 "/>
   <polygon class="fil0" points="3433,3137 3426,3111 3501,3092 3507,3117 "/>
   <polygon class="fil0" points="3395,3174 3388,3148 3463,3129 3469,3155 "/>
   <polygon class="fil0" points="3357,3211 3350,3185 3424,3166 3431,3192 "/>
   <path class="fil1" d="M910 1551c-47,27 -124,28 -172,1 -47,-27 -48,-72 -1,-99 48,-28 125,-29 172,-2 48,27 48,72 1,100zm985 -786l-700 411c-177,-55 -404,-38 -553,49 -181,107 -180,278 3,382 41,23 88,41 138,54 35,8 72,15 109,18 146,15 301,-11 413,-77 136,-80 169,-195 101,-292l97 -56 -3 -62 102 0 -3 -58 102 -1 -3 -57 102 -1 -3 -57 102 -1 -3 -57 109 -1 33 -19 37 -151 -180 -24z"/>
   <path class="fil1" d="M2278 3363l-944 -543c-64,-37 -56,-101 18,-143l916 -529c73,-43 184,-47 248,-11l944 543c63,37 55,101 -18,143l-916 529c-74,43 -185,47 -248,11z"/>
   <path class="fil0" d="M3385 2132l-164 -94 602 -348c29,-16 29,-43 0,-59l-615 -355c-28,-16 -74,-16 -103,0l-601 347 -164 -94 602 -347c118,-69 311,-69 430,0l614 355c119,68 119,179 0,248l-601 347z"/>
   <path class="fil2" d="M3648 2174c0,-88 -53,-189 -119,-227l-1090 -629c-29,-17 -56,-18 -77,-7l0 0 -1301 757 1259 948 1282 -744c4,-2 8,-4 11,-7l0 0 0 0c22,-16 35,-48 35,-91z"/>
   <path class="fil3" d="M2320 3016l1282 -744c4,-2 8,-4 11,-7l0 0 0 0c22,-16 35,-48 35,-91 0,-42 -12,-87 -32,-127l-1462 844 166 125z"/>
   <path class="fil0" d="M2238 3013l-1091 -630c-65,-37 -118,-139 -118,-226 0,-87 53,-127 118,-90l1091 630c65,38 118,139 118,226 0,87 -53,127 -118,90z"/>
   <path class="fil4" d="M2074 2800l-131 -75c-13,-8 -23,-28 -23,-45 0,-18 10,-26 23,-18l131 75c13,8 24,28 24,46 0,17 -11,25 -24,17z"/>
   <polygon class="fil5" points="1090,584 1314,711 1543,577 1542,519 1540,520 1540,516 1641,515 1641,458 1741,457 1740,400 1840,399 1839,341 1939,341 1938,283 2045,282 2078,263 2114,112 2114,54 2096,110 1935,88 "/>
   <polygon class="fil2" points="1313,653 1542,519 1539,457 1641,457 1638,399 1740,399 1737,341 1839,340 1836,283 1938,282 1936,225 2044,224 2077,205 2114,54 1934,30 1089,526 "/>
   <path class="fil5" d="M1466 564c-23,-33 -58,-64 -104,-90 -33,-18 -69,-33 -107,-45l-166 97 224 127 153 -89z"/>
   <polygon class="fil0" points="2108,79 2114,54 2084,50 1370,469 1407,490 "/>
   <polygon class="fil6" points="549,768 546,685 573,741 "/>
   <path class="fil5" d="M951 799c48,27 48,72 1,100 -48,27 -125,28 -172,1 -48,-27 -48,-72 -1,-99 47,-28 124,-29 172,-2zm-264 156c183,103 478,101 660,-5 91,-53 136,-123 135,-192l0 0 -3 -88 -14 17c-21,-44 -62,-84 -121,-118 -183,-104 -479,-102 -660,4 -182,107 -180,278 3,382z"/>
   <path class="fil7" d="M949 717c47,27 47,71 0,99 -47,27 -124,28 -172,1 -47,-27 -48,-72 0,-99 47,-28 124,-29 172,-1zm-265 155c183,104 479,102 660,-5 182,-106 181,-277 -2,-381 -183,-104 -479,-102 -661,5 -181,106 -180,277 3,381z"/>
   <path class="fil0" d="M896 917c-40,6 -84,1 -116,-17 -34,-20 -44,-48 -29,-73l-83 -65c0,0 -44,-49 -87,-98 -66,98 -31,213 106,291 60,34 128,53 204,65l5 -103z"/>
   <path class="fil2" d="M949 717c47,27 47,71 0,99 -47,27 -124,28 -172,1 -47,-27 -48,-72 0,-99 47,-28 124,-29 172,-1zm-265 155c41,23 88,41 138,54 35,9 72,15 109,19 146,14 301,-12 413,-78 182,-106 181,-277 -2,-381 -183,-104 -479,-102 -661,5 -181,106 -180,277 3,381z"/>
   <path class="fil5" d="M598 683c9,-53 48,-105 118,-146 162,-95 425,-97 587,-4 81,46 122,106 123,167 12,-69 -29,-140 -121,-193 -163,-92 -425,-90 -587,4 -81,48 -121,110 -120,172z"/>
   <path class="fil5" d="M714 735c-33,0 -70,11 -108,34 -137,80 -248,275 -247,433 1,74 25,129 70,154 44,25 103,18 167,-19 137,-80 248,-275 247,-434 -1,-43 -10,-81 -26,-110 -11,-19 -26,-33 -44,-44 -17,-10 -37,-14 -59,-14zm-226 702c-33,0 -64,-8 -92,-24 -66,-37 -102,-112 -103,-210 -1,-180 124,-400 279,-491 85,-50 168,-57 234,-20 28,16 51,39 68,68 22,39 34,87 35,143 1,180 -124,400 -280,491 -48,29 -97,43 -141,43z"/>
   <path class="fil2" d="M800 881l131 31 18 -96c-47,27 -124,28 -172,1l23 64z"/>
   <path class="fil2" d="M684 872c41,23 88,41 138,54 35,9 72,15 109,19 146,14 301,-12 413,-78l-530 -12 -130 17z"/>
   <path class="fil5" d="M880 939c0,0 -56,-10 -115,-30l0 81c28,10 74,24 114,30 121,16 1,-81 1,-81z"/>
   <path class="fil0" d="M796 919c-25,-7 -51,-17 -75,-28 -71,-33 18,90 18,90 0,0 25,10 57,19l0 -81z"/>
   <polygon class="fil0" points="2127,2349 1895,2499 1782,2480 2058,2347 "/>
   <path class="fil3" d="M1846 3105c0,0 -67,-34 -108,16 -41,51 -100,169 -101,249 -2,80 63,75 102,56 38,-19 152,-183 159,-215 6,-33 -9,-76 -19,-85 -11,-8 -33,-21 -33,-21z"/>
   <path class="fil0" d="M1861 3089l3 69c0,15 -7,29 -20,36 -12,7 -28,12 -51,8 -51,-8 -55,-22 -59,-92 -3,-69 127,-21 127,-21z"/>
   <path class="fil3" d="M1601 2972c0,0 -67,-34 -108,16 -41,50 -99,169 -101,249 -2,80 63,75 102,56 39,-19 152,-183 159,-216 7,-32 -8,-75 -19,-84 -11,-8 -33,-21 -33,-21z"/>
   <path class="fil0" d="M1616 2956l3 69c1,15 -7,29 -20,36 -11,7 -28,12 -51,8 -51,-8 -55,-22 -59,-92 -3,-69 127,-21 127,-21z"/>
   <path class="fil2" d="M2213 1684c-20,-322 -349,47 -349,47l-225 221 -203 223c-40,43 -58,102 -50,160l82 625c4,30 30,53 61,53 9,0 19,-1 30,-3 74,-11 68,-81 68,-81l-15 -584 426 -256c0,0 194,-83 175,-405z"/>
   <path class="fil0" d="M1775 2235l-61 -22c-1,0 -103,98 -102,132l46 15 114 -111 3 -14z"/>
   <path class="fil0" d="M2127 2349c0,0 253,-144 283,-205 12,-24 30,-49 -44,-84l-337 240 15 83 83 -34z"/>
   <path class="fil2" d="M2457 1808c-21,-322 -348,47 -348,47l-226 221 -202 223c-40,43 -58,102 -51,160l82 625c4,31 31,53 62,53 9,0 19,-1 30,-3 73,-11 68,-80 68,-80l-15 -585 426 -256c0,0 194,-111 174,-405z"/>
   <path class="fil0" d="M2263 773c249,103 244,251 244,251 0,0 -49,540 -32,901 7,151 -802,162 -681,-240 142,-475 89,-859 155,-917 67,-58 249,-22 314,5z"/>
   <path class="fil8" d="M2343 903c-13,51 -79,78 -148,60 -69,-18 -114,-73 -101,-124 13,-50 79,-77 148,-59 69,17 114,73 101,123z"/>
   <path class="fil4" d="M2199 786c-46,0 -85,22 -94,56 -5,21 1,44 18,64 17,21 44,38 75,45 62,16 122,-6 133,-51 6,-20 0,-43 -17,-63 -18,-22 -44,-38 -75,-46 -13,-3 -27,-5 -40,-5zm38 194c-15,0 -30,-2 -45,-5 -36,-10 -67,-29 -88,-54 -21,-26 -29,-56 -22,-85 15,-57 88,-87 163,-68 36,9 67,28 87,54 22,26 30,56 22,84 -11,46 -60,74 -117,74z"/>
   <path class="fil8" d="M2163 761c0,0 2,10 -2,89 -2,25 85,49 108,26 22,-22 13,-46 19,-130 5,-85 -125,15 -125,15z"/>
   <path class="fil9" d="M2288 746c0,0 -22,78 -127,108l1 -71 126 -37z"/>
   <path class="fil8" d="M2354 546c27,103 -35,208 -137,234 -103,27 -208,-35 -234,-137 -27,-103 35,-208 138,-234 102,-27 207,35 233,137z"/>
   <path class="fil9" d="M2213 602c0,0 -106,45 -179,45 -73,1 -57,-60 -57,-60l217 -32 19 47z"/>
   <path class="fil10" d="M2012 613c0,0 92,-39 173,-22 19,3 36,14 49,29 4,5 9,9 14,10 15,4 38,-56 66,-57 28,-2 46,18 24,55 -23,36 -15,77 -5,83 11,6 122,-79 24,-274 -99,-195 -348,-90 -387,-50 0,0 -41,35 -74,3 0,0 -38,280 116,223z"/>
   <path class="fil8" d="M2367 1418l0 146c0,17 -7,33 -19,44l-300 274 34 52 396 -287c19,-14 30,-34 33,-57l27 -255 -171 83z"/>
   <path class="fil0" d="M2486 950c0,0 91,137 125,498 0,0 -156,50 -244,21 -88,-28 119,-519 119,-519z"/>
   <path class="fil5" d="M2351 1124c0,0 -36,190 -38,280 -1,25 14,47 38,55l0 -335z"/>
   <path class="fil3" d="M2273 2072l-67 -9 -428 -247c-13,-8 -37,-7 -53,2l-303 175 -41 -5 0 40 1 0c-1,5 2,10 9,14l485 280c14,8 37,7 53,-2l331 -191c9,-5 13,-12 13,-18l0 -39z"/>
   <path class="fil5" d="M1951 1916l-30 -18 -335 0 -164 95 -41 -5 0 40 1 0c-1,5 2,10 9,14l485 280c7,4 17,6 27,5l48 -411z"/>
   <path class="fil0" d="M1399 1990l-18 -2 0 40 1 0c-1,5 2,10 9,14l8 5 0 -57z"/>
   <path class="fil11" d="M1881 2324c13,5 31,4 45,-3l0 -68 -45 0 0 71z"/>
   <path class="fil4" d="M1876 2282l-485 -280c-14,-8 -12,-22 4,-31l330 -191c16,-9 40,-10 53,-2l485 280c14,8 12,22 -3,31l-331 191c-16,9 -39,10 -53,2z"/>
   <path class="fil2" d="M1868 2240l-404 -233c-11,-7 -10,-18 3,-26l177 -100c14,-7 34,-8 45,-1l403 233c12,6 10,18 -3,25l-177 100c-13,7 -33,8 -44,2z"/>
   <path class="fil8" d="M1744 1771l-5 34c-5,28 -4,57 2,86l6 29c3,17 16,30 33,33 13,2 25,-7 27,-20l8 -72c0,0 18,24 27,24 9,0 -10,-72 -30,-112 -20,-41 -68,-2 -68,-2z"/>
   <path class="fil8" d="M1908 1239l-52 103c-12,25 -20,51 -21,79l-23 352 -68 -2 -31 -395c-1,-13 -1,-25 1,-37l36 -201 158 101z"/>
   <path class="fil3" d="M1859 2309l-40 -53 -428 -248c-14,-8 -25,-29 -25,-47l1 -350 -25 -33 23 -13 0 0c4,-3 10,-3 17,1l485 281c13,8 24,29 24,47l0 382c0,10 -4,17 -9,20l-23 13z"/>
   <path class="fil5" d="M1564 2108l-31 -17 -167 -290 1 -190 -25 -33 23 -13 0 0c4,-3 10,-3 17,1l485 281c7,4 13,12 18,21l-321 240z"/>
   <path class="fil0" d="M1353 1593l-11 -15 23 -13 0 0c4,-3 10,-3 17,1l8 5 -37 22z"/>
   <path class="fil11" d="M1871 1850c11,9 19,25 20,41l-47 27 -23 -39 50 -29z"/>
   <path class="fil0" d="M1844 1860l-485 -281c-14,-8 -25,1 -25,19l-1 382c0,18 12,39 25,47l485 281c14,8 25,-1 25,-19l0 -381c0,-19 -11,-40 -24,-48z"/>
   <path class="fil8" d="M2082 1934l-8 16c-9,19 -23,34 -40,45l-49 30c-15,9 -34,10 -49,1l-1 -1c-16,-10 -17,-32 -4,-45l50 -51c0,0 -28,21 -36,13 -6,-7 27,-38 53,-39 25,-1 50,-21 50,-21l34 52z"/>
   <path class="fil0" d="M1954 767c0,0 -184,201 -259,385 0,0 63,114 218,158 154,45 41,-543 41,-543z"/>
   <path class="fil5" d="M1878 1298l30 -288 -70 270c12,7 26,13 40,18z"/>
   <path class="fil4" d="M2092 727l-49 -14c0,0 24,37 58,47 35,9 40,-20 40,-20l-49 -13z"/>
   <path class="fil2" d="M1152 36c-60,0 -109,48 -109,108 0,60 49,109 109,109 60,0 108,-49 108,-109 0,-60 -48,-108 -108,-108zm0 247c-77,0 -139,-62 -139,-139 0,-76 62,-139 139,-139 76,0 139,63 139,139 0,77 -63,139 -139,139z"/>
   <path class="fil0" d="M3958 1117c-37,0 -68,30 -68,68 0,38 31,68 68,68 38,0 69,-30 69,-68 0,-38 -31,-68 -69,-68zm0 166c-54,0 -98,-44 -98,-98 0,-54 44,-98 98,-98 55,0 99,44 99,98 0,54 -44,98 -99,98z"/>
   <path class="fil0" d="M704 2940l40 81 82 -40 -40 -81 -82 40zm26 122l-66 -136 136 -67 66 136 -136 67z"/>
   <path class="fil0" d="M2677 833l40 82 81 -40 -40 -82 -81 40zm26 122l-67 -135 136 -67 67 136 -136 66z"/>
   <polygon class="fil0" points="579,2296 516,2326 485,2264 548,2233 "/>
   <path class="fil12" d="M2997 218l-372 -214c-7,-5 -14,-5 -19,-2l0 0 -36 21c0,0 16,5 26,9l0 270c0,22 13,48 29,57l355 205 0 32 37 -21 0 0c6,-4 10,-12 10,-24l0 -276c0,-22 -14,-47 -30,-57z"/>
   <path class="fil10" d="M2960 595l-371 -214c-17,-10 -30,-36 -30,-58l0 -276c0,-22 13,-32 30,-22l371 214c17,10 30,35 30,57l0 276c0,22 -13,32 -30,23z"/>
   <path class="fil4" d="M2714 285c0,16 -12,23 -25,15 -14,-8 -26,-28 -26,-44 0,-16 12,-22 26,-14 13,8 25,27 25,43z"/>
   <path class="fil4" d="M2789 329c0,16 -11,23 -25,15 -13,-8 -25,-28 -25,-44 0,-16 12,-22 25,-14 14,8 25,27 25,43z"/>
   <path class="fil4" d="M2865 373c0,16 -11,22 -25,14 -13,-7 -25,-27 -25,-43 0,-16 12,-22 25,-14 14,8 25,27 25,43z"/>
   <path class="fil0" d="M430 2567l-365 -210c-7,-4 -14,-4 -19,-2l0 0 -35 21c0,0 16,5 25,9l0 265c0,22 13,47 29,56l348 201 0 31 36 -20 0 0c6,-4 10,-12 10,-24l0 -271c0,-21 -13,-46 -29,-56z"/>
   <path class="fil2" d="M394 2937l-365 -210c-16,-10 -29,-35 -29,-56l0 -271c0,-22 13,-32 29,-22l365 210c16,9 29,35 29,56l0 271c0,22 -13,32 -29,22z"/>
   <path class="fil4" d="M152 2633c0,16 -11,22 -25,15 -13,-8 -24,-27 -24,-43 0,-16 11,-22 24,-14 14,8 25,27 25,42z"/>
   <path class="fil4" d="M226 2676c0,16 -11,22 -24,15 -14,-8 -25,-27 -25,-43 0,-16 11,-22 25,-14 13,8 24,27 24,42z"/>
   <path class="fil4" d="M301 2719c0,16 -11,22 -25,15 -13,-8 -24,-27 -24,-43 0,-16 11,-22 24,-14 14,8 25,27 25,42z"/>
  </g>
 </g>
 <g id="Layer_x0020_1_0">
  <metadata id="CorelCorpID_1Corel-Layer"/>
  <path class="fil13" d="M22863 17142l-41651 0c0,0 156,-3072 1820,-5575l0 3494 37884 0 0 -9841c88,-87 171,-177 251,-269 21,-24 41,-49 62,-73 52,-63 102,-127 150,-192 34,-46 68,-93 100,-139 17,-25 33,-49 49,-73m112 -175c19,-32 39,-65 58,-98 36,-63 72,-126 106,-191 6,-10 11,-21 17,-32 20,-38 40,-77 59,-116 20,-41 40,-82 59,-124 10,-21 20,-43 30,-64 22,-49 44,-99 65,-148 15,-36 30,-71 45,-107 8,-20 16,-41 24,-61m43 -112c18,-47 36,-95 53,-143 2,-6 4,-11 6,-16l0 0c41,-117 79,-235 116,-354 10,-32 19,-64 29,-96 23,-78 45,-156 67,-235 17,-64 34,-127 50,-191 4,-16 8,-32 12,-48 10,-40 20,-79 29,-119 16,-67 32,-134 47,-201 43,-190 82,-383 120,-576 3,-16 6,-32 9,-48 23,-123 46,-247 68,-370 11,-61 21,-121 32,-181 8,-50 17,-99 25,-148 8,-48 16,-96 24,-143 9,-52 18,-103 26,-155l4 -24 0 16944m-1267 -12772c2,-4 4,-7 6,-11 13,-20 25,-40 38,-60"/>
 </g>
</svg>
