<?xml version="1.0" encoding="UTF-8"?>
<!DOCTYPE svg PUBLIC "-//W3C//DTD SVG 1.1//EN" "http://www.w3.org/Graphics/SVG/1.1/DTD/svg11.dtd">
<!-- Creator: CorelDRAW X7 -->
<svg xmlns="http://www.w3.org/2000/svg" xml:space="preserve" width="0.228in" height="0.168in" version="1.1" style="shape-rendering:geometricPrecision; text-rendering:geometricPrecision; image-rendering:optimizeQuality; fill-rule:evenodd; clip-rule:evenodd"
viewBox="0 0 228 168"
 xmlns:xlink="http://www.w3.org/1999/xlink">
 <defs>
  <style type="text/css">
   <![CDATA[
    .fil0 {fill:#FEFEFE}
   ]]>
  </style>
 </defs>
 <g id="Layer_x0020_1">
  <metadata id="CorelCorpID_0Corel-Layer"/>
  <g id="_747740256">
   <path class="fil0" d="M0 138c3,6 3,16 13,23 9,6 15,7 29,7l143 0c14,0 20,0 29,-7 4,-2 7,-5 9,-9 3,-5 3,-10 5,-14l0 -90c-5,2 -10,6 -15,9 -5,3 -9,5 -14,8l-57 34c-5,4 -22,16 -28,15 -10,0 -100,-60 -114,-66l0 90z"/>
   <path class="fil0" d="M1 26c3,3 48,30 56,35 10,5 19,11 29,17 5,3 24,16 29,17 9,-5 18,-12 27,-17 10,-6 19,-12 29,-17 8,-5 53,-32 56,-35 -2,-10 -8,-16 -14,-20 -10,-6 -17,-6 -30,-6l-137 0c-18,0 -39,1 -45,26z"/>
  </g>
 </g>
</svg>
