<?xml version="1.0" encoding="UTF-8"?>
<!DOCTYPE svg PUBLIC "-//W3C//DTD SVG 1.1//EN" "http://www.w3.org/Graphics/SVG/1.1/DTD/svg11.dtd">
<!-- Creator: CorelDRAW X7 -->
<svg xmlns="http://www.w3.org/2000/svg" xml:space="preserve" width="0.196378in" height="0.208346in" version="1.1" style="shape-rendering:geometricPrecision; text-rendering:geometricPrecision; image-rendering:optimizeQuality; fill-rule:evenodd; clip-rule:evenodd"
viewBox="0 0 196 208"
 xmlns:xlink="http://www.w3.org/1999/xlink">
 <defs>
  <style type="text/css">
   <![CDATA[
    .fil0 {fill:#FEFEFE}
   ]]>
  </style>
 </defs>
 <g id="Layer_x0020_1">
  <metadata id="CorelCorpID_0Corel-Layer"/>
  <g id="_738538064">
   <path class="fil0" d="M0 56c0,64 73,144 126,152l16 0c16,-2 29,-14 35,-38 -5,-8 -8,-13 -16,-22 -25,-30 -23,-17 -53,3 -13,-8 -19,-15 -31,-26l-26 -31c7,-11 16,-21 25,-31 -13,-19 -19,-32 -38,-45 -17,5 -38,18 -38,38z"/>
   <path class="fil0" d="M95 6c19,25 77,27 82,95l19 0c-1,-72 -88,-117 -101,-95z"/>
   <path class="fil0" d="M139 107c22,-11 24,-8 10,-34 -8,-13 -24,-29 -39,-32 -51,-8 19,22 29,66z"/>
  </g>
 </g>
</svg>
