<?xml version="1.0" encoding="UTF-8"?>
<!DOCTYPE svg PUBLIC "-//W3C//DTD SVG 1.1//EN" "http://www.w3.org/Graphics/SVG/1.1/DTD/svg11.dtd">
<!-- Creator: CorelDRAW X7 -->
<svg xmlns="http://www.w3.org/2000/svg" xml:space="preserve" width="4.0661in" height="2.44843in" version="1.1" style="shape-rendering:geometricPrecision; text-rendering:geometricPrecision; image-rendering:optimizeQuality; fill-rule:evenodd; clip-rule:evenodd"
viewBox="0 0 4066 2448"
 xmlns:xlink="http://www.w3.org/1999/xlink">
 <defs>
  <style type="text/css">
   <![CDATA[
    .fil0 {fill:#9900CC;fill-rule:nonzero}
   ]]>
  </style>
 </defs>
 <g id="Layer_x0020_1">
  <metadata id="CorelCorpID_0Corel-Layer"/>
  <g id="_740969104">
   <path class="fil0" d="M2991 1111l-103 -58 0 -1 19 0c1,0 1,0 1,0l65 35 18 10 246 -31 1 7 0 25c-5,3 -9,15 -11,20 0,0 -1,0 -1,0l-4 -33 -1 -3 -27 3c0,0 0,0 0,0l-52 7 -151 19z"/>
   <path class="fil0" d="M3237 1066l180 -23 0 4c-1,1 -2,2 -2,3l0 21c-4,5 -6,14 -7,18 0,1 -1,1 -1,0l-5 -27 -1 -6 -27 4 -74 12 0 1 -62 0 -1 -7z"/>
   <path class="fil0" d="M3417 1043l174 -22c23,7 17,4 33,8 17,3 19,12 20,16 2,4 -2,15 -24,16 -20,1 -64,2 -69,2 0,-2 -2,-4 -4,-5l-7 -4c-1,0 -1,0 -2,0 -1,0 -1,0 -2,0l-20 1c-4,-4 -10,-6 -13,-7 -1,0 -3,-1 -4,-1l-81 0c0,0 -1,0 -1,0l0 -4z"/>
   <path class="fil0" d="M2636 938l108 0c2,0 3,1 3,3l0 6c0,1 -1,2 -2,2l-12 3 0 0 -98 0c-4,-3 -4,-9 1,-14z"/>
   <path class="fil0" d="M3191 675c2,0 3,0 6,0l3 1 -1 -3c0,0 0,0 0,-1 0,-27 22,-49 49,-49 5,0 10,1 15,3l3 0 0 -2c11,-28 38,-47 68,-47 40,0 73,32 73,72 0,3 0,7 -1,11l-1 4 4 -2c5,-2 9,-3 14,-3 19,0 35,16 35,35 0,19 -16,34 -35,34l-232 0c-15,0 -27,-12 -27,-26 0,-15 12,-27 27,-27zm0 58l232 0c22,0 39,-17 39,-39 0,-22 -17,-39 -39,-39 -4,0 -8,0 -12,1 0,-2 1,-4 1,-7 0,-42 -35,-77 -78,-77 -31,0 -59,19 -71,49 -5,-2 -10,-3 -15,-3 -29,0 -53,23 -53,52 -2,0 -3,0 -4,0 -18,0 -32,14 -32,32 0,17 14,31 32,31z"/>
   <path class="fil0" d="M2885 753c6,-8 11,-9 16,-9 1,0 2,0 3,0l5 1 -2 -4c-2,-5 -3,-11 -2,-17 2,-13 13,-24 26,-25 9,-1 17,1 24,7 6,5 10,13 10,21l1 4 3 -2c2,-1 5,-1 8,-1 2,0 3,0 5,1l2 1 1 -2c7,-8 16,-12 27,-12 19,0 34,15 34,34 0,6 -2,12 -5,18l-2 3 46 0c2,0 5,2 5,5l0 4c0,2 -3,4 -5,4l-184 0c-11,0 -20,-9 -20,-20 -1,-4 1,-8 4,-11zm16 36l184 0c5,0 9,-4 9,-9l0 -4c0,-5 -4,-9 -9,-9l-38 0c3,-6 4,-11 4,-17 0,-22 -18,-39 -39,-39 -11,0 -22,5 -29,13 -2,-1 -4,-1 -6,-1 -3,0 -5,0 -7,1 -1,-9 -6,-16 -12,-22 -8,-6 -17,-9 -27,-8 -16,2 -28,14 -31,30 0,5 0,10 1,15 -5,0 -12,2 -20,10 -3,5 -5,10 -5,15 0,14 11,25 25,25z"/>
   <path class="fil0" d="M3864 961c-3,-9 -5,-18 -7,-25 -8,1 -13,1 -14,1l4 25c0,0 6,0 17,-1z"/>
   <path class="fil0" d="M3876 934c-3,1 -7,1 -10,1 2,7 4,16 7,24 7,-1 17,-2 28,-5 -12,-8 -20,-15 -25,-20z"/>
   <path class="fil0" d="M3931 947l-31 -18c-5,2 -9,3 -13,3 6,5 14,12 27,19 5,-1 11,-3 17,-4z"/>
   <path class="fil0" d="M2696 959l-63 -3 -1 5 63 3c0,0 1,0 1,0 1,0 2,0 3,0l46 -12c3,-1 4,-3 4,-5l0 -6c0,-3 -2,-5 -5,-5l-109 0 0 4 109 1 0 6 -11 3 0 0 -99 0 0 5 81 0 -17 4c-1,0 -2,0 -2,0z"/>
   <path class="fil0" d="M2926 982c3,0 6,-2 6,-5l0 -22c0,-3 -3,-5 -6,-5l-8 0c-2,0 -5,2 -5,5l0 22c0,3 3,5 5,5l8 0z"/>
   <path class="fil0" d="M2965 982c3,0 5,-2 5,-5l0 -22c0,-3 -2,-5 -5,-5l-8 0c-3,0 -5,2 -5,5l0 22c0,3 2,5 5,5l8 0z"/>
   <path class="fil0" d="M3004 982c3,0 5,-2 5,-5l0 -22c0,-3 -2,-5 -5,-5l-8 0c-3,0 -5,2 -5,5l0 22c0,3 2,5 5,5l8 0z"/>
   <path class="fil0" d="M3042 982c3,0 6,-2 6,-5l0 -22c0,-3 -3,-5 -6,-5l-7 0c-3,0 -6,2 -6,5l0 22c0,3 3,5 6,5l7 0z"/>
   <path class="fil0" d="M3081 982c3,0 5,-2 5,-5l0 -22c0,-3 -2,-5 -5,-5l-8 0c-3,0 -5,2 -5,5l0 22c0,3 2,5 5,5l8 0z"/>
   <path class="fil0" d="M3120 982c3,0 5,-2 5,-5l0 -22c0,-3 -2,-5 -5,-5l-8 0c-3,0 -5,2 -5,5l0 22c0,3 2,5 5,5l8 0z"/>
   <path class="fil0" d="M3158 982c3,0 6,-2 6,-5l0 -22c0,-3 -3,-5 -6,-5l-7 0c-3,0 -6,2 -6,5l0 22c0,3 3,5 6,5l7 0z"/>
   <path class="fil0" d="M3197 982c3,0 5,-2 5,-5l0 -22c0,-3 -2,-5 -5,-5l-8 0c-3,0 -5,2 -5,5l0 22c0,3 2,5 5,5l8 0z"/>
   <path class="fil0" d="M3236 982c3,0 5,-2 5,-5l0 -22c0,-3 -2,-5 -5,-5l-8 0c-3,0 -5,2 -5,5l0 22c0,3 2,5 5,5l8 0z"/>
   <path class="fil0" d="M3274 982c3,0 6,-2 6,-5l0 -22c0,-3 -3,-5 -6,-5l-7 0c-3,0 -6,2 -6,5l0 22c0,3 3,5 6,5l7 0z"/>
   <path class="fil0" d="M3313 982c3,0 5,-2 5,-5l0 -22c0,-3 -2,-5 -5,-5l-8 0c-3,0 -5,2 -5,5l0 22c0,3 2,5 5,5l8 0z"/>
   <path class="fil0" d="M3352 982c3,0 5,-2 5,-5l0 -22c0,-3 -2,-5 -5,-5l-8 0c-3,0 -5,2 -5,5l0 22c0,3 2,5 5,5l8 0z"/>
   <path class="fil0" d="M3391 982c2,0 5,-2 5,-5l0 -22c0,-3 -3,-5 -5,-5l-8 0c-3,0 -6,2 -6,5l0 22c0,3 3,5 6,5l8 0z"/>
   <path class="fil0" d="M3429 982c3,0 6,-2 6,-5l0 -22c0,-3 -3,-5 -6,-5l-8 0c-2,0 -5,2 -5,5l0 22c0,3 3,5 5,5l8 0z"/>
   <path class="fil0" d="M3468 982c3,0 5,-2 5,-5l0 -22c0,-3 -2,-5 -5,-5l-8 0c-3,0 -5,2 -5,5l0 22c0,3 2,5 5,5l8 0z"/>
   <path class="fil0" d="M3507 982c3,0 5,-2 5,-5l0 -22c0,-3 -2,-5 -5,-5l-8 0c-3,0 -5,2 -5,5l0 22c0,3 2,5 5,5l8 0z"/>
   <path class="fil0" d="M3545 982c3,0 6,-2 6,-5l0 -22c0,-3 -3,-5 -6,-5l-7 0c-3,0 -6,2 -6,5l0 22c0,3 3,5 6,5l7 0z"/>
   <path class="fil0" d="M3584 982c3,0 5,-2 5,-5l0 -22c0,-3 -2,-5 -5,-5l-8 0c-3,0 -5,2 -5,5l0 22c0,3 2,5 5,5l8 0z"/>
   <path class="fil0" d="M3623 982c3,0 5,-2 5,-5l0 -22c0,-3 -2,-5 -5,-5l-8 0c-3,0 -5,2 -5,5l0 22c0,3 2,5 5,5l8 0z"/>
   <path class="fil0" d="M3787 804c-16,-15 -39,-15 -55,0 -5,5 3,14 9,9 10,-11 27,-11 37,0 6,5 14,-4 9,-9z"/>
   <path class="fil0" d="M3805 788c-26,-24 -66,-24 -91,0 -5,6 3,14 9,9 20,-20 53,-20 73,0 6,5 14,-3 9,-9z"/>
   <path class="fil0" d="M3705 781c30,-30 79,-30 109,0 5,5 14,-3 8,-9 -34,-34 -91,-34 -126,0 -5,6 3,14 9,9z"/>
   <path class="fil0" d="M3747 832c0,6 6,12 12,12 7,0 13,-6 13,-12 0,-7 -6,-12 -13,-12 -6,0 -12,5 -12,12z"/>
   <path class="fil0" d="M3620 1059c-13,0 -36,1 -67,2 -1,-2 -3,-4 -5,-5l-7 -4c-1,0 -2,0 -3,-1 -1,0 -1,0 -2,0l-19 2c-4,-3 -8,-5 -13,-7 -2,-1 -3,-1 -5,-1l-79 0 171 -22c15,5 17,5 22,6 2,0 5,1 10,2 15,3 17,10 19,14l0 1c0,0 0,2 -1,4 -1,2 -6,8 -21,9zm-67 33c0,10 -3,21 -4,26 0,2 -1,3 -3,4l-6 3 0 -68 6 3c2,1 3,2 3,4l0 0 0 0c1,5 4,17 4,25l0 3zm-119 25l0 -52c0,-1 1,-1 2,-1l99 -8 0 70 -99 -8c-1,0 -2,0 -2,-1zm-5 -5l0 0c-1,-1 -2,-2 -2,-4l0 -35c0,-1 1,-2 2,-3l0 0 0 42zm-26 -2l0 -32 2 12c0,1 1,2 3,2 0,0 0,0 0,0 1,0 2,-1 2,-2 1,-5 3,-13 7,-17l0 -1 0 -22c0,0 0,0 1,0l81 0c1,0 2,0 3,0 3,1 5,2 7,3l-74 6c-2,0 -4,1 -5,2 -1,1 -1,1 -2,2l-3 4c-2,2 -2,4 -2,6l0 35c0,2 0,3 1,5l-20 -2c-1,0 -1,0 -1,-1zm-23 -26l-5 -2 0 -20 24 -3 0 1c0,1 0,1 0,1 -1,0 -1,1 -2,1l-3 4c-1,2 -2,4 -2,6l0 31c0,1 0,1 0,2l-4 0c-1,-6 -2,-11 -3,-13 -1,-3 -3,-6 -5,-8zm4 40c0,9 -2,22 -4,28 0,2 -1,3 -3,4l-7 4 0 -75 7 4c2,1 3,2 3,4 1,2 2,8 3,14 1,6 1,10 1,14l0 3zm-130 27l0 -58c1,0 2,0 2,0l110 -9 0 77 -110 -9c0,0 -1,0 -2,-1zm-6 -6c0,0 0,0 0,-1 -1,0 -1,-1 -1,-2l0 -39c0,-1 0,-2 1,-4l1 -1 0 48 -1 -1zm-26 -4l0 -40 2 17c0,1 1,2 2,2 0,0 0,0 1,0 1,0 2,0 2,-2 4,-9 7,-17 10,-19l1 0 0 -23 84 0c4,0 8,0 11,2l6 3 -85 7c-2,0 -4,1 -6,2l0 0c0,1 -1,1 -1,2l-4 4c-2,2 -3,5 -3,7l0 39c0,0 0,1 0,1l-19 -2c0,0 -1,0 -1,0zm-7 -9l0 -35c0,-2 1,-3 1,-4l1 0 0 43 -1 -1c0,-1 -1,-2 -1,-3zm-20 0l0 -44 1 0 0 0 21 -3c0,0 0,0 -1,1l-3 4c-2,2 -3,4 -3,7l0 35c0,0 0,1 1,2l-15 -1c0,-1 -1,-1 -1,-1zm-6 -7l0 -30c0,-1 1,-2 1,-2l0 34c0,-1 -1,-1 -1,-2zm-25 -20c-7,-4 -13,-8 -16,-11l39 -5 0 0c-2,2 -2,4 -2,6l0 17c-4,-1 -11,-3 -21,-7zm-267 -5l-30 -45 20 0 0 0 95 54 -76 -4c-3,0 -7,-2 -9,-5zm473 -20l0 -11c0,0 0,-1 1,-1l0 12c0,0 -1,0 -1,0zm-20 0l-13 -6c-4,-2 -8,-3 -13,-3l-1 0 44 -7c-1,1 -1,3 -1,5l0 10 -16 1zm48 25c-1,0 -1,-1 -1,-2l0 -31c0,-1 0,-2 1,-3l0 36zm-407 -6l425 -54c-2,1 -4,3 -4,5l0 20c-2,3 -3,6 -4,10l-5 -27 -103 17 0 1 -65 0 0 25c-3,3 -5,8 -7,14l-5 -31 -27 4 0 -1c-1,0 -2,1 -3,1l0 0 -201 26 -96 -55 11 0 84 45zm136 -33c0,0 0,0 1,0l0 0 346 -52c1,0 73,-4 106,6l-588 75 -12 -7 147 -22zm855 -103l-68 -37 -33 -16c-19,-9 -40,-14 -62,-14l-259 0c-45,0 -138,13 -166,17 -5,1 -10,1 -15,1l-510 0c-18,0 -23,-2 -55,-17 -15,-8 -61,-52 -106,-95 -25,-25 -52,-51 -74,-71l-3 4c22,20 48,45 74,70 47,45 91,88 107,96 13,6 22,11 29,13l-208 0 0 5 746 0c6,0 11,0 16,-1 27,-4 120,-18 165,-18l259 0c21,0 41,5 60,14l33 16 68 37c6,4 10,11 10,18 0,7 -3,13 -8,17 -22,14 -72,40 -163,52 -4,0 -9,0 -13,0l-162 0c0,0 1,-1 1,-2 2,-3 3,-6 2,-8l-1 -1c-1,-4 -5,-13 -22,-17 -5,-1 -8,-1 -10,-2 -5,0 -7,-1 -22,-6l0 0 -1 0 0 0 -9 -3c-33,-10 -105,-6 -108,-5l-347 51c-51,-2 -178,-18 -493,-80l-1 5c231,45 389,72 472,79l-132 19 -64 -34c0,-1 -1,-1 -2,-1l0 0 -41 2c-2,0 -3,0 -4,2 -1,1 -1,3 0,4l31 46c3,4 8,7 13,7l86 4 150 -19c3,3 10,8 20,14 11,5 19,7 23,8l0 8c0,2 0,4 2,5l3 4c0,1 1,1 1,1 1,1 3,2 5,2l17 2 3 3c1,1 1,1 2,2 1,1 3,2 5,2l21 2c0,0 1,0 1,0l4 5c0,1 1,1 1,2 2,1 4,2 6,2l110 9c0,0 0,0 1,0 0,0 1,0 1,0 1,-1 2,-1 4,-2l8 -4c2,-1 4,-4 5,-7 2,-6 4,-19 4,-29l0 -3c0,-3 0,-7 -1,-11l8 0 1 2c1,1 1,1 2,2 1,1 3,1 5,2l23 2 1 1c1,1 1,1 2,1 1,2 3,3 5,3l101 8c0,0 0,0 0,0 1,0 2,0 2,0 1,-1 2,-1 3,-1l7 -4c3,-2 5,-4 6,-7 1,-5 3,-17 3,-27l0 -3c0,-8 -2,-18 -3,-24 31,0 54,-1 66,-2 8,0 14,-2 17,-4l169 0c4,0 9,0 13,-1 93,-11 143,-38 165,-53 7,-4 11,-12 11,-20 0,-9 -5,-18 -13,-22z"/>
   <path class="fil0" d="M3706 1470c-2,-3 -6,-5 -9,-5l-43 0c-7,0 -12,5 -12,12l0 68c0,6 5,11 12,11l54 0c6,0 10,-4 11,-9 0,-1 0,-2 0,-4l-11 -68c-1,-2 -1,-4 -2,-5z"/>
   <path class="fil0" d="M3058 1456l0 -1 0 0c0,0 0,0 0,0l39 0 0 117 -45 0 0 -95c0,-7 2,-15 6,-21zm0 -26l645 0c1,0 2,2 3,3 1,2 2,4 2,7 0,6 -3,10 -5,10l-645 0c-1,0 -2,-1 -3,-2 -1,-2 -2,-5 -2,-8 0,-6 3,-10 5,-10zm559 142l-515 0 0 -117 515 0 0 117zm-565 5l665 0 0 23 4 0 0 -53 0 -5 -13 -72 -3 -15 -5 1 3 15 14 71 0 30 -95 0 0 -117 81 0c5,0 10,-7 10,-15 0,-4 -1,-7 -3,-10 -2,-3 -5,-5 -7,-5l-645 0c-5,0 -10,7 -10,15 0,4 1,8 3,10 1,2 2,3 3,3l0 1c-4,6 -7,15 -7,23l0 124 5 0 0 -24z"/>
   <path class="fil0" d="M3254 1499c0,-3 2,-5 5,-5l202 0c2,0 4,2 4,5l0 29c0,2 -2,4 -4,4l-202 0c-3,0 -5,-2 -5,-4l0 -29zm5 38l202 0c5,0 9,-4 9,-9l0 -29c0,-5 -4,-10 -9,-10l-202 0c-5,0 -9,5 -9,10l0 29c0,5 4,9 9,9z"/>
   <path class="fil0" d="M3190 1499c0,-3 2,-5 4,-5l28 0c2,0 4,2 4,5l0 29c0,2 -2,4 -4,4l-28 0c-2,0 -4,-2 -4,-4l0 -29zm4 38l28 0c5,0 9,-4 9,-9l0 -29c0,-5 -4,-10 -9,-10l-28 0c-5,0 -9,5 -9,10l0 29c0,5 4,9 9,9z"/>
   <path class="fil0" d="M3129 1499c0,-3 2,-5 4,-5l28 0c2,0 4,2 4,5l0 29c0,2 -2,4 -4,4l-28 0c-2,0 -4,-2 -4,-4l0 -29zm4 38l28 0c5,0 9,-4 9,-9l0 -29c0,-5 -4,-10 -9,-10l-28 0c-5,0 -9,5 -9,10l0 29c0,5 4,9 9,9z"/>
   <path class="fil0" d="M3490 1499c0,-3 2,-5 5,-5l27 0c3,0 5,2 5,5l0 29c0,2 -2,4 -5,4l-27 0c-3,0 -5,-2 -5,-4l0 -29zm5 38l27 0c5,0 9,-4 9,-9l0 -29c0,-5 -4,-10 -9,-10l-27 0c-5,0 -10,5 -10,10l0 29c0,5 5,9 10,9z"/>
   <path class="fil0" d="M3551 1499c0,-3 2,-5 5,-5l28 0c2,0 4,2 4,5l0 29c0,2 -2,4 -4,4l-28 0c-3,0 -5,-2 -5,-4l0 -29zm5 38l28 0c4,0 9,-4 9,-9l0 -29c0,-5 -5,-10 -9,-10l-28 0c-5,0 -9,5 -9,10l0 29c0,5 4,9 9,9z"/>
   <path class="fil0" d="M2633 1494l193 0c2,0 4,2 4,5l0 29c0,2 -2,4 -4,4l-193 0 0 -38zm193 43c5,0 9,-4 9,-9l0 -29c0,-5 -4,-10 -9,-10l-193 0c-2,0 -4,2 -4,5l0 39c0,2 2,4 4,4l193 0z"/>
   <path class="fil0" d="M2855 1528l0 -29c0,-3 2,-5 4,-5l28 0c3,0 4,2 4,5l0 29c0,2 -1,4 -4,4l-28 0c-2,0 -4,-2 -4,-4zm32 9c5,0 9,-4 9,-9l0 -29c0,-5 -4,-10 -9,-10l-28 0c-5,0 -9,5 -9,10l0 29c0,5 4,9 9,9l28 0z"/>
   <path class="fil0" d="M2916 1528l0 -29c0,-3 2,-5 5,-5l27 0c3,0 5,2 5,5l0 29c0,2 -2,4 -5,4l-27 0c-3,0 -5,-2 -5,-4zm32 9c5,0 9,-4 9,-9l0 -29c0,-5 -4,-10 -9,-10l-27 0c-5,0 -10,5 -10,10l0 29c0,5 5,9 10,9l27 0z"/>
   <path class="fil0" d="M3035 1572l-45 0 0 -117 39 0 0 0c4,6 6,14 6,22l0 95zm0 -139c1,2 2,4 2,7 0,6 -3,10 -5,10l-399 0 0 5 352 0 0 117 -351 0 0 5 401 0 0 24 5 0 0 -124c0,-7 -2,-15 -6,-22 5,-2 8,-8 8,-15 0,-4 -1,-7 -3,-10 -2,-3 -4,-5 -7,-5l-400 0 0 5 400 0c1,0 2,1 3,3z"/>
   <path class="fil0" d="M3550 1742c-1,4 -5,7 -9,7l-19 0c-1,0 -1,0 -1,0 0,0 0,0 -1,0l-6 -7c-1,-1 -3,-2 -5,-2l-49 0c-2,0 -3,1 -5,2l-6 7c0,0 -1,0 -1,0l-19 0c-5,0 -8,-3 -9,-7l-18 -80 165 0 -17 80zm-609 0c-1,4 -4,7 -9,7l-19 0c0,0 0,0 0,0 -1,0 -1,0 -1,0l-7 -7c-1,-1 -2,-2 -4,-2l-49 0c-2,0 -4,1 -5,2l-6 7c-1,0 -1,0 -2,0l-19 0c-4,0 -8,-3 -9,-7l-17 -80 165 0 -18 80zm826 -141l-1134 0c-2,0 -3,1 -3,2 0,2 1,3 3,3l1134 0c4,0 8,3 8,8l0 17 -1142 0c-2,0 -3,1 -3,3 0,1 1,2 3,2l1142 0 0 13c0,5 -4,9 -8,9l-1134 0c-1,0 -2,1 -2,2 0,1 1,2 2,2l156 0 18 81c1,7 7,11 13,11l17 0 0 216 5 0 0 -216c1,-1 1,-1 2,-2l7 -6c0,-1 1,-1 1,-1l1 0 0 225 5 0 0 -225 36 0 0 225 5 0 0 -225 2 0c0,0 1,0 1,1l7 6c0,0 0,1 0,1l0 215 5 0 0 -214 18 0c7,0 12,-4 14,-11l18 -81 433 0 18 81c2,7 7,11 14,11l16 0 0 216 5 0 0 -216c1,-1 2,-1 2,-2l7 -6c0,-1 1,-1 1,-1l1 0 0 225 5 0 0 -225 37 0 0 225 4 0 0 -225 2 0c1,0 1,0 1,1l7 6c0,0 0,1 1,1l0 215 4 0 0 -214 19 0c6,0 12,-4 13,-11l18 -81 195 0c7,0 13,-5 13,-13l0 -35c0,-7 -6,-13 -13,-13z"/>
   <path class="fil0" d="M1295 822l31 0 0 42 -43 0 7 -38c0,-2 3,-4 5,-4zm-10 3l-8 44 54 0 0 -52 -36 0c-5,0 -9,3 -10,8z"/>
   <path class="fil0" d="M1410 752l-53 0 47 -31 6 31zm6 4l-8 -43 -66 43 74 0z"/>
   <path class="fil0" d="M1399 693l-32 0 29 -18 3 18zm6 5l-6 -31 -47 31 53 0z"/>
   <path class="fil0" d="M1345 1507l56 0 -56 38 0 -38zm-5 46l77 -50 -77 0 0 50z"/>
   <path class="fil0" d="M1391 648l-12 0 11 -7 1 7zm6 4l-4 -19 -30 19 34 0z"/>
   <path class="fil0" d="M1411 1624l-56 0 56 -38 0 38zm5 -47l-77 51 77 0 0 -51z"/>
   <polygon class="fil0" points="1340,1650 1345,1650 1345,1640 1401,1640 1393,1645 1395,1649 1417,1635 1340,1635 "/>
   <path class="fil0" d="M1356 710l36 0 -42 27 6 -27zm52 -5l-56 0 -10 43 66 -43z"/>
   <path class="fil0" d="M1365 664l18 0 -21 14 3 -14zm-10 24l44 -29 -38 0 -6 29z"/>
   <path class="fil0" d="M1374 838l15 0 0 27 -15 0 0 -27zm20 32l0 -37 -24 0 0 37 24 0z"/>
   <path class="fil0" d="M1345 1243l56 0 -56 37 0 -37zm-5 46l77 -51 -77 0 0 51z"/>
   <path class="fil0" d="M913 863l-4 31c0,4 -4,7 -7,7l-8 0 -1 5 0 1c0,1 -1,2 -2,3l-1 0 0 10c-2,1 -4,2 -6,4 -2,2 -4,5 -4,9 1,4 3,8 7,10l0 0c-4,-2 -6,-5 -7,-9 0,-5 2,-10 6,-12l1 -1 2 -10 -2 -1c-1,0 -2,-2 -2,-3l-1 -6 -8 0c-3,0 -7,-3 -7,-7l-4 -31c0,-3 3,-6 7,-7l2 0 31 0c4,0 8,3 8,7zm-16 82l-1 -1c1,0 2,0 3,0 -1,0 -2,0 -2,1zm-75 53l68 -48c0,0 1,0 1,0 0,0 0,0 1,0l68 48 -138 0zm165 5l0 59c0,1 -1,1 -1,1l-193 0c0,0 0,0 0,-1l0 -59c0,0 0,0 0,0l20 0c0,0 1,0 1,0 0,0 0,0 0,0l153 0c1,0 1,0 1,0 0,0 0,0 0,0l18 0c0,0 1,0 1,0zm-109 -221l19 0 0 69 -19 0 0 -69zm448 321l0 -154c0,-2 2,-4 4,-4l10 0 -3 -4c-2,-1 -2,-3 -2,-4l0 -2c0,-2 0,-4 2,-5l5 -4 -60 0 0 -23 -17 0c-7,0 -13,-6 -13,-13l0 -28c0,-1 0,-2 1,-3l11 -49c2,-6 7,-10 13,-10l54 0 0 -34 -415 0 0 2c-1,5 -5,9 -11,9l-35 0c-5,0 -10,-4 -11,-9l0 -2 -267 0c-2,0 -3,-2 -3,-3l0 -4c0,-1 1,-3 3,-3l12 0 49 -32 -8 0c-1,0 -1,-1 -1,-2l0 -4c0,-1 0,-1 1,-1l609 0c1,0 1,0 1,1l0 4 0 2 49 32 27 0 36 -166 -4 0c-5,0 -8,-3 -8,-7l0 -6c0,-4 3,-7 8,-7l9 0 3 -19c1,-2 3,-4 6,-4 2,0 4,2 5,5l3 18 9 0c4,0 7,3 7,7l0 6c0,4 -3,7 -7,7l-5 0 32 166 96 0 0 -20 -1 -1c-1,0 -1,0 -1,-1l0 -4c0,-1 0,-2 1,-2l24 0 0 -4 -24 0c-3,0 -6,2 -6,6l0 4c0,2 1,4 3,5l0 13 -88 0 -30 -157c6,-1 11,-6 11,-12l0 -6c0,-7 -5,-12 -12,-12l-5 0 -3 -14c0,-5 -4,-8 -9,-8 -5,0 -9,3 -10,7l-3 15 -5 0c-7,0 -13,5 -13,12l0 6c0,6 5,11 11,12l-33 157 -22 0 -46 -30 0 -4c0,-3 -3,-6 -6,-6l-609 0c-3,0 -6,3 -6,6l0 4c0,2 0,3 1,5l-37 25 -11 0c-5,0 -8,3 -8,7l0 4c0,4 3,7 8,7l263 0c2,7 7,12 14,12l0 70c-5,2 -9,6 -9,12l5 30c0,7 5,12 11,12l4 0 1 1c0,3 1,5 3,6l-1 5c-5,4 -8,10 -8,16 1,5 4,10 7,12l-70 50c-1,1 -1,1 -2,2l-17 0c-3,0 -5,2 -5,5l0 59c0,3 2,6 5,6l193 0c3,0 5,-3 5,-6l0 -59c0,-3 -2,-5 -5,-5l-15 0c0,-1 0,-1 -1,-2l-69 -48c1,-1 1,-1 2,-2 3,-2 5,-6 6,-10 0,-2 -1,-4 -2,-5 0,0 -1,-1 -2,-1 -2,0 -3,2 -3,4 -1,3 -5,6 -9,6 -4,0 -8,-3 -8,-7 0,-2 1,-4 2,-6 2,-1 4,-2 6,-2l2 0 0 -12c2,-2 2,-4 2,-6l1 -1 4 0c6,0 11,-5 11,-11l5 -31 0 -1c0,-6 -5,-11 -12,-11l0 -70c7,0 13,-5 14,-12l406 0 0 25 -49 0c-9,0 -16,6 -17,14l-12 49c0,2 0,3 0,4l0 28c0,10 8,18 17,18l13 0 0 23 53 0c-1,1 -1,3 -1,4l0 2c0,1 0,2 1,4l-1 0c-4,0 -8,4 -8,8l0 154c0,3 1,6 4,7l0 537 5 0 0 -540 -2 0c-1,-1 -3,-2 -3,-4z"/>
   <path class="fil0" d="M1376 614l4 -19c0,0 0,0 0,0l0 -3 1 3c0,0 0,0 0,0l4 19 -9 0zm5 -24l-1 0 0 0c-2,0 -4,1 -5,4l-5 25 20 0 -4 -25c-1,-2 -3,-4 -5,-4z"/>
   <polygon class="fil0" points="1546,740 1546,735 1528,735 1528,756 1546,756 1546,752 1533,752 1533,740 "/>
   <path class="fil0" d="M1426 826l8 0 0 7 -4 0 0 93 -14 0 4 4c2,1 3,3 3,5l0 2c0,1 -1,3 -2,4l-4 4 9 0c2,0 4,2 4,4l0 154c0,2 -1,3 -3,4l-1 0 0 540 4 0 0 -536c3,-2 5,-5 5,-8l0 -154c0,-4 -4,-8 -8,-8 0,-2 0,-3 0,-4l0 -2c0,-1 0,-3 -1,-4l9 0 0 -93 4 0 0 -16 -9 0 0 -52 114 0 0 -4 -118 0 0 60z"/>
   <path class="fil0" d="M1345 1112l58 0 -58 38 0 -38zm-5 47l79 -52 -79 0 0 52z"/>
   <path class="fil0" d="M1373 630l4 0 -5 3 1 -3zm-8 13l27 -18 -23 0 -4 18z"/>
   <path class="fil0" d="M1411 1293l-56 0 56 -38 0 38zm5 -47l-77 52 77 0 0 -52z"/>
   <path class="fil0" d="M1413 1090l-50 0 50 -33 0 33zm1 4c2,0 4,-1 4,-4l0 -42 -71 46 67 0z"/>
   <path class="fil0" d="M1345 1309l56 0 -56 37 0 -37zm-5 46l77 -51 -77 0 0 51z"/>
   <path class="fil0" d="M1411 822l-54 0 0 -3 54 -36 0 39zm-53 70l-1 0c0,-1 0,-1 0,-2l0 -52 1 0 0 54zm58 -118l-63 42 0 74c0,1 -1,2 -1,4l-1 3 12 0 0 -64 -4 0 0 -7 57 0 0 -52z"/>
   <path class="fil0" d="M1345 1441l56 0 -56 37 0 -37zm-5 46l77 -51 -77 0 0 51z"/>
   <path class="fil0" d="M1219 728l-32 22 -33 -22 65 0zm16 -4l-97 0 49 32 48 -32z"/>
   <path class="fil0" d="M1276 752l-7 0 -3 -7 10 7zm16 4l-37 -24 11 24 26 0z"/>
   <path class="fil0" d="M1411 1163l-64 0 64 -43 0 43zm5 -52l-76 50 0 7 76 0 0 -57z"/>
   <path class="fil0" d="M1243 732l8 20 -38 0 30 -20zm2 -7l-48 31 62 0 -14 -31z"/>
   <path class="fil0" d="M1129 731l31 21 -63 0 32 -21zm0 -6l-48 31 95 0 -47 -31z"/>
   <path class="fil0" d="M1411 1557l-56 0 56 -37 0 37zm5 5l0 -51 -77 51 77 0z"/>
   <path class="fil0" d="M1418 967l0 -5c0,-2 -2,-4 -4,-4l-71 0c-3,0 -4,2 -4,4l0 5 79 0z"/>
   <path class="fil0" d="M1345 1216l0 -42 64 0 -64 42zm71 -47l-76 0 0 56 76 -50 0 -6z"/>
   <path class="fil0" d="M1103 728l-33 22 -32 -22 65 0zm16 -4l-97 0 48 32 49 -32z"/>
   <path class="fil0" d="M1343 1045l58 0 -58 38 0 -38zm-4 -5l0 52 78 -52 -78 0z"/>
   <path class="fil0" d="M1413 1029l-58 0 58 -39 0 39zm5 5l0 -53 -79 53 79 0z"/>
   <path class="fil0" d="M1411 1186l0 41 -61 0 61 -41zm-71 45l76 0 0 -54 -76 50 0 4z"/>
   <path class="fil0" d="M1343 979l58 0 -58 38 0 -38zm-4 -5l0 52 78 -52 -78 0z"/>
   <path class="fil0" d="M1012 731l32 21 -63 0 31 -21zm0 -6l-47 31 95 0 -48 -31z"/>
   <path class="fil0" d="M1411 1359l-56 0 56 -38 0 38zm5 5l0 -51 -77 51 77 0z"/>
   <path class="fil0" d="M754 728l-32 22 -33 -22 65 0zm16 -4l-97 0 49 32 48 -32z"/>
   <path class="fil0" d="M632 752l31 -21 32 21 -63 0zm-16 4l95 0 -48 -31 -47 31z"/>
   <path class="fil0" d="M780 731l31 21 -63 0 32 -21zm0 -6l-48 31 95 0 -47 -31z"/>
   <path class="fil0" d="M1345 1574l56 0 -56 37 0 -37zm-5 46l77 -51 -77 0 0 51z"/>
   <path class="fil0" d="M1419 865l-14 0 0 -27 14 0 0 27zm5 -32l-24 0 0 37 24 0 0 -37z"/>
   <path class="fil0" d="M1411 1425l-56 0 56 -37 0 37zm5 5l0 -51 -77 51 77 0z"/>
   <path class="fil0" d="M986 728l-32 22 -32 -22 64 0zm16 -4l-96 0 48 32 48 -32z"/>
   <path class="fil0" d="M1345 770l56 0 -48 32c-2,-3 -5,-5 -8,-6l0 -26zm-5 30l2 0c4,1 7,3 9,6l1 2 65 -42 -77 0 0 34z"/>
   <path class="fil0" d="M1345 1375l56 0 -56 37 0 -37zm-5 -5l0 51 77 -51 -77 0z"/>
   <path class="fil0" d="M1411 1491l-56 0 56 -37 0 37zm5 5l0 -51 -77 51 77 0z"/>
   <path class="fil0" d="M864 752l32 -21 32 21 -19 0c-1,-1 -2,-1 -4,-1l-35 0c-1,0 -2,0 -4,1l-2 0zm3 4c1,0 2,0 3,0l35 0c1,0 2,0 3,0l35 0 -47 -31 -47 31 18 0 0 0z"/>
   <path class="fil0" d="M870 728l-32 22 -33 -22 65 0zm16 -4l-96 0 48 32 48 -32z"/>
   <path class="fil0" d="M944 1055l-80 0c-1,0 -2,1 -2,3 0,1 1,2 2,2l80 0c1,0 2,-1 2,-2 0,-2 -1,-3 -2,-3z"/>
   <path class="fil0" d="M841 1055l-39 0 0 -45c0,-1 -1,-2 -3,-2 -1,0 -2,1 -2,2l0 50 44 0c1,0 2,-1 2,-2 0,-2 -1,-3 -2,-3z"/>
   <path class="fil0" d="M956 1008c0,1 1,2 3,2l20 0 0 43c0,1 1,2 2,2 1,0 2,-1 2,-2l0 -48 -24 0c-2,0 -3,1 -3,3z"/>
   <path class="fil0" d="M834 1010l81 0c1,0 2,-1 2,-2 0,-2 -1,-3 -2,-3l-81 0c-2,0 -3,1 -3,3 0,1 1,2 3,2z"/>
   <path class="fil0" d="M1030 472c4,0 8,1 12,2l4 2 -1 -4c0,-4 -1,-6 -1,-9 0,-34 28,-62 62,-62 26,0 49,17 58,41l0 2 3 -1c4,-1 8,-2 13,-2 22,0 41,18 41,41 0,1 0,1 0,1l0 3 3 0c1,-1 3,-1 5,-1 12,0 22,10 22,23 0,12 -10,22 -22,22l-199 0c-16,0 -29,-13 -29,-29 0,-16 13,-29 29,-29zm0 63l199 0c15,0 27,-12 27,-27 0,-16 -14,-29 -30,-28 -1,-24 -22,-44 -46,-44 -4,0 -8,1 -13,2 -10,-25 -34,-41 -61,-41 -37,0 -66,29 -66,66 0,2 0,4 0,6 -3,-1 -6,-2 -10,-2 -18,0 -34,15 -34,34 0,19 16,34 34,34z"/>
   <path class="fil0" d="M167 1536c-9,9 5,22 14,14 17,-17 43,-17 60,0 9,8 23,-5 14,-14 -25,-24 -63,-24 -88,0z"/>
   <path class="fil0" d="M138 1510c-9,9 5,23 14,14 33,-32 85,-32 118,0 9,9 23,-5 14,-14 -41,-39 -105,-39 -146,0z"/>
   <path class="fil0" d="M109 1485c-9,8 5,22 14,13 49,-47 127,-47 176,0 9,9 23,-5 14,-13 -56,-56 -148,-56 -204,0z"/>
   <path class="fil0" d="M231 1581c0,11 -9,19 -20,19 -11,0 -20,-8 -20,-19 0,-11 9,-20 20,-20 11,0 20,9 20,20z"/>
   <path class="fil0" d="M656 1845l19 0 0 38c0,1 1,2 2,2 2,0 3,-1 3,-2l0 -43 -24 0c-1,0 -3,1 -3,3 0,1 2,2 3,2z"/>
   <path class="fil0" d="M588 1843c0,-2 -1,-3 -2,-3l-49 0c-2,0 -3,1 -3,3 0,1 1,2 3,2l49 0c1,0 2,-1 2,-2z"/>
   <path class="fil0" d="M545 1827c0,-1 -1,-2 -2,-2l-38 0 0 -37c0,-2 -1,-3 -2,-3 -2,0 -3,1 -3,3l0 41 43 0c1,0 2,-1 2,-2z"/>
   <path class="fil0" d="M606 1785l69 0 0 31c0,1 1,2 2,2 2,0 3,-1 3,-2l0 -36 -74 0c-1,0 -2,1 -2,2 0,1 1,3 2,3z"/>
   <path class="fil0" d="M866 1887l-51 0c-1,0 -2,1 -2,2 0,1 1,2 2,2l51 0c2,0 3,-1 3,-2 0,-1 -1,-2 -3,-2z"/>
   <path class="fil0" d="M720 1887l-24 0 0 -31c0,-2 -1,-3 -2,-3 -2,0 -3,1 -3,3l0 35 29 0c1,0 2,-1 2,-2 0,-1 -1,-2 -2,-2z"/>
   <path class="fil0" d="M847 1840c-1,0 -3,1 -3,3 0,1 2,2 3,2l19 0 0 26c0,1 1,2 2,2 0,0 0,0 0,0 2,0 3,-1 3,-2l0 -31 -24 0z"/>
   <path class="fil0" d="M828 1843c0,-2 -1,-3 -2,-3l-33 0c-2,0 -3,1 -3,3 0,1 1,2 3,2l33 0c1,0 2,-1 2,-2z"/>
   <path class="fil0" d="M769 1887l-25 0c-1,0 -2,1 -2,2 0,1 1,2 2,2l25 0c2,0 3,-1 3,-2 0,-1 -1,-2 -3,-2z"/>
   <path class="fil0" d="M729 1840l-33 0c-2,0 -3,1 -3,3 0,1 1,2 3,2l33 0c1,0 2,-1 2,-2 0,-2 -1,-3 -2,-3z"/>
   <path class="fil0" d="M937 1829l51 0c1,0 2,-1 2,-2 0,-1 -1,-2 -2,-2l-51 0c-2,0 -3,1 -3,2 0,1 1,2 3,2z"/>
   <path class="fil0" d="M913 1827c0,-1 -1,-2 -2,-2l-24 0 0 -41 31 0c2,0 3,-1 3,-3 0,-1 -1,-2 -3,-2l-36 0 0 50 29 0c1,0 2,-1 2,-2z"/>
   <path class="fil0" d="M1035 1825c-1,0 -2,1 -2,2 0,2 1,3 2,3l27 0 0 -49c0,-2 -1,-3 -3,-3l0 0c-1,0 -2,1 -2,3l0 44 -22 0z"/>
   <path class="fil0" d="M960 1783l87 0c1,0 2,-1 2,-2 0,-2 -1,-3 -2,-3l-87 0c-1,0 -2,1 -2,3 0,1 1,2 2,2z"/>
   <path class="fil0" d="M936 1886l-49 0 0 -41c0,-2 -1,-3 -2,-3 -2,0 -3,1 -3,3l0 45 54 0c1,0 2,-1 2,-2 0,-1 -1,-2 -2,-2z"/>
   <path class="fil0" d="M983 1886l-35 0c-1,0 -2,1 -2,2 0,1 1,2 2,2l35 0c1,0 2,-1 2,-2 0,-1 -1,-2 -2,-2z"/>
   <path class="fil0" d="M1059 1840l0 0c-1,0 -2,1 -2,3l0 43 -25 0c-2,0 -3,1 -3,2 0,1 1,2 3,2l30 0 0 -47c0,-2 -1,-3 -3,-3z"/>
   <path class="fil0" d="M1018 1842l-100 0c-2,0 -3,1 -3,2 0,2 1,3 3,3l100 0c1,0 2,-1 2,-3 0,-1 -1,-2 -2,-2z"/>
   <path class="fil0" d="M831 1825l-67 0c-2,0 -3,1 -3,2 0,1 1,2 3,2l67 0c1,0 2,-1 2,-2 0,-1 -1,-2 -2,-2z"/>
   <path class="fil0" d="M720 1825l-24 0 0 -42c0,-2 -1,-3 -2,-3 -2,0 -3,1 -3,3l0 46 29 0c1,0 2,-1 2,-2 0,-1 -1,-2 -2,-2z"/>
   <path class="fil0" d="M868 1778l0 0c-1,0 -2,1 -2,3l0 40 -22 0c-2,0 -3,1 -3,3 0,1 1,2 3,2l27 0 0 -45c0,-2 -1,-3 -3,-3z"/>
   <path class="fil0" d="M710 1783l92 0c1,0 2,-1 2,-2 0,-2 -1,-3 -2,-3l-92 0c-1,0 -2,1 -2,3 0,1 1,2 2,2z"/>
   <path class="fil0" d="M1042 1762l-80 0c-1,0 -2,1 -2,2 0,2 1,3 2,3l80 0c2,0 3,-1 3,-3 0,-1 -1,-2 -3,-2z"/>
   <path class="fil0" d="M910 1764c0,-1 -1,-2 -2,-2l-21 0 0 -41c0,-2 -1,-3 -2,-3 -2,0 -3,1 -3,3l0 46 26 0c1,0 2,-1 2,-3z"/>
   <path class="fil0" d="M1016 1723l41 0 0 39c0,1 1,2 2,2 0,0 0,0 0,0 2,0 3,-1 3,-2l0 -44 -46 0c-1,0 -2,1 -2,2 0,2 1,3 2,3z"/>
   <path class="fil0" d="M916 1723l50 0c1,0 2,-1 2,-3 0,-1 -1,-2 -2,-2l-50 0c-2,0 -3,1 -3,2 0,2 1,3 3,3z"/>
   <path class="fil0" d="M1179 1824l-51 0c-2,0 -3,1 -3,2 0,2 1,3 3,3l51 0c1,0 2,-1 2,-3 0,-1 -1,-2 -2,-2z"/>
   <path class="fil0" d="M1104 1826c0,-1 -1,-2 -2,-2l-24 0 0 -41c0,-2 -1,-3 -2,-3 -2,0 -3,1 -3,3l0 46 29 0c1,0 2,-1 2,-3z"/>
   <path class="fil0" d="M1229 1785l19 0 0 39c0,1 1,2 3,2 0,0 0,0 0,0 1,0 2,-1 2,-2l0 -44 -24 0c-1,0 -2,1 -2,2 0,2 1,3 2,3z"/>
   <path class="fil0" d="M1109 1785l99 0c1,0 2,-1 2,-3 0,-1 -1,-2 -2,-2l-99 0c-2,0 -3,1 -3,2 0,2 1,3 3,3z"/>
   <path class="fil0" d="M1146 1847l88 0c1,0 2,-1 2,-2 0,-2 -1,-3 -2,-3l-88 0c-1,0 -2,1 -2,3 0,1 1,2 2,2z"/>
   <path class="fil0" d="M1098 1842l-25 0 0 49 20 0c1,0 2,-1 2,-3 0,-1 -1,-2 -2,-2l-15 0 0 -39 20 0c1,0 2,-1 2,-2 0,-2 -1,-3 -2,-3z"/>
   <path class="fil0" d="M1174 1886l-55 0c-1,0 -2,1 -2,2 0,2 1,3 2,3l55 0c1,0 2,-1 2,-3 0,-1 -1,-2 -2,-2z"/>
   <path class="fil0" d="M1250 1842l0 0c-1,0 -2,1 -2,3l0 41 -20 0c-2,0 -3,1 -3,2 0,2 1,3 3,3l25 0 0 -46c0,-2 -1,-3 -3,-3z"/>
   <path class="fil0" d="M1145 1723l66 0c1,0 2,-1 2,-2 0,-2 -1,-3 -2,-3l-66 0c-2,0 -3,1 -3,3 0,1 1,2 3,2z"/>
   <path class="fil0" d="M1091 1764c0,-1 -1,-2 -3,-2l-10 0 0 -39 29 0c1,0 2,-1 2,-2 0,-2 -1,-3 -2,-3l-34 0 0 49 15 0c2,0 3,-1 3,-3z"/>
   <path class="fil0" d="M1122 1767l104 0c1,0 2,-1 2,-3 0,-1 -1,-2 -2,-2l-104 0c-1,0 -2,1 -2,2 0,2 1,3 2,3z"/>
   <path class="fil0" d="M1229 1723l19 0 0 39c0,1 1,2 3,2 0,0 0,0 0,0 1,0 2,-1 2,-2l0 -44 -24 0c-1,0 -2,1 -2,3 0,1 1,2 2,2z"/>
   <path class="fil0" d="M1458 1843c-1,0 -3,1 -3,2l0 46 26 0c1,0 2,-1 2,-2 0,-1 -1,-2 -2,-2l-21 0 0 -42c0,-1 -1,-2 -2,-2z"/>
   <path class="fil0" d="M1489 1843c-1,0 -3,1 -3,2 0,1 2,2 3,2l50 0c1,0 2,-1 2,-2 0,-1 -1,-2 -2,-2l-50 0z"/>
   <path class="fil0" d="M1513 1719c0,-1 -1,-2 -2,-2l-51 0c-2,0 -3,1 -3,2 0,2 1,3 3,3l51 0c1,0 2,-1 2,-3z"/>
   <path class="fil0" d="M1460 1763l0 -25c0,-2 -1,-3 -2,-3 0,0 -1,0 -1,0 -1,0 -2,1 -2,3l0 30 24 0c1,0 2,-1 2,-2 0,-2 -1,-3 -2,-3l-19 0z"/>
   <path class="fil0" d="M1500 1768l33 0c2,0 3,-1 3,-2 0,-2 -1,-3 -3,-3l-33 0c-1,0 -2,1 -2,3 0,1 1,2 2,2z"/>
   <path class="fil0" d="M1338 1784l51 0c1,0 3,-1 3,-3 0,-1 -2,-2 -3,-2l-51 0c-1,0 -2,1 -2,2 0,2 1,3 2,3z"/>
   <path class="fil0" d="M1408 1829l36 0 0 -50 -29 0c-1,0 -3,1 -3,2 0,2 2,3 3,3l24 0 0 41 -31 0c-2,0 -3,1 -3,2 0,1 1,2 3,2z"/>
   <path class="fil0" d="M1267 1830l0 0c1,0 2,-1 2,-2l0 -44 21 0c2,0 3,-2 3,-3 0,-1 -1,-2 -3,-2l-26 0 0 49c0,1 1,2 3,2z"/>
   <path class="fil0" d="M1366 1825l-87 0c-1,0 -2,1 -2,3 0,1 1,2 2,2l87 0c1,0 2,-1 2,-2 0,-2 -1,-3 -2,-3z"/>
   <path class="fil0" d="M1390 1723l49 0 0 41c0,1 1,2 2,2 2,0 3,-1 3,-2l0 -46 -54 0c-1,0 -2,1 -2,2 0,2 1,3 2,3z"/>
   <path class="fil0" d="M1341 1720c0,2 1,3 2,3l35 0c1,0 2,-1 2,-3 0,-1 -1,-2 -2,-2l-35 0c-1,0 -2,1 -2,2z"/>
   <path class="fil0" d="M1294 1718l-30 0 0 48c0,1 1,2 3,2l0 0c1,0 2,-1 2,-2l0 -43 25 0c1,0 3,-1 3,-3 0,-1 -2,-2 -3,-2z"/>
   <path class="fil0" d="M1408 1762l-100 0c-1,0 -2,1 -2,2 0,1 1,2 2,2l100 0c2,0 3,-1 3,-2 0,-1 -1,-2 -3,-2z"/>
   <path class="fil0" d="M1545 1779l-50 0c-1,0 -2,1 -2,2 0,2 1,3 2,3l50 0c1,0 2,-1 2,-3 0,-1 -1,-2 -2,-2z"/>
   <path class="fil0" d="M1485 1785c0,-2 -1,-3 -3,-3l-27 0 0 46c0,1 1,2 3,2 0,0 0,0 0,0 1,0 2,-1 2,-2l0 -41 22 0c2,0 3,-1 3,-2z"/>
   <path class="fil0" d="M1314 1704c0,-2 -1,-3 -3,-3l-76 0c-1,0 -2,1 -2,3 0,1 1,2 2,2l76 0c2,0 3,-1 3,-2z"/>
   <path class="fil0" d="M1212 1701l-37 0 0 -43c0,-1 -1,-2 -3,-2 -1,0 -2,1 -2,2l0 48 42 0c1,0 2,-1 2,-2 0,-2 -1,-3 -2,-3z"/>
   <path class="fil0" d="M1326 1658l19 0 0 41c0,2 1,3 2,3 1,0 2,-1 2,-3l0 -46 -23 0c-2,0 -3,1 -3,3 0,1 1,2 3,2z"/>
   <path class="fil0" d="M1205 1658l78 0c2,0 3,-1 3,-2 0,-2 -1,-3 -3,-3l-78 0c-1,0 -2,1 -2,3 0,1 1,2 2,2z"/>
   <path class="fil0" d="M1430 1703c0,1 1,2 2,2l67 0c1,0 2,-1 2,-2 0,-2 -1,-3 -2,-3l-67 0c-1,0 -2,1 -2,3z"/>
   <path class="fil0" d="M1391 1703c0,-2 -1,-3 -3,-3l-24 0 0 -42c0,-1 -1,-2 -2,-2 -1,0 -2,1 -2,2l0 47 28 0c2,0 3,-1 3,-2z"/>
   <path class="fil0" d="M1512 1702l27 0 0 -46c0,-1 -1,-2 -2,-2 0,0 0,0 0,0 -2,0 -3,1 -3,2l0 41 -22 0c-1,0 -2,1 -2,2 0,2 1,3 2,3z"/>
   <path class="fil0" d="M1379 1659l91 0c1,0 3,-2 3,-3 0,-1 -2,-2 -3,-2l-91 0c-2,0 -3,1 -3,2 0,1 1,3 3,3z"/>
   <path class="fil0" d="M1284 1846l80 0c1,0 2,-1 2,-2 0,-1 -1,-2 -2,-2l-80 0c-2,0 -3,1 -3,2 0,1 1,2 3,2z"/>
   <path class="fil0" d="M1416 1844c0,1 1,2 2,2l21 0 0 42c0,1 1,2 2,2 2,0 3,-1 3,-2l0 -46 -26 0c-1,0 -2,1 -2,2z"/>
   <path class="fil0" d="M1310 1886l-41 0 0 -39c0,-2 -1,-3 -3,-3 0,0 0,0 0,0 -1,0 -2,1 -2,3l0 44 46 0c1,0 2,-1 2,-3 0,-1 -1,-2 -2,-2z"/>
   <path class="fil0" d="M1410 1886l-50 0c-1,0 -2,1 -2,2 0,2 1,3 2,3l50 0c2,0 3,-1 3,-3 0,-1 -1,-2 -3,-2z"/>
   <path class="fil0" d="M1362 2035l-32 0c-1,0 -2,1 -2,2 0,1 1,2 2,2l32 0c1,0 2,-1 2,-2 0,-1 -1,-2 -2,-2z"/>
   <path class="fil0" d="M1280 2143l-73 0c-1,0 -2,1 -2,3 0,1 1,2 2,2l73 0c1,0 3,-1 3,-2 0,-2 -2,-3 -3,-3z"/>
   <path class="fil0" d="M503 1891l40 0c1,0 2,-1 2,-2 0,-1 -1,-2 -2,-2l-38 0 0 -33c0,-2 -1,-3 -2,-3 -2,0 -3,1 -3,3l0 36 -2 -1c0,0 0,0 0,-1l0 -50c0,0 0,0 0,0 0,0 0,0 0,0l185 0 0 57c0,0 0,0 0,0l-170 0c-1,0 -3,-1 -4,-1l-6 -3zm-5 -115c0,0 0,-1 0,-1l185 0c0,0 0,1 0,1l0 57c0,0 0,0 0,0l-185 0c0,0 0,0 0,0 0,0 0,0 0,0l0 -57zm213 -191c0,-6 3,-11 7,-15l206 -174c3,-3 8,-5 12,-5l63 0c5,0 9,2 13,5l206 174c4,4 7,9 7,15l0 61 -58 0c-3,0 -6,2 -6,5l0 57c0,0 1,0 1,1l-92 0c-1,0 -2,0 -3,1 -1,-1 -2,-1 -3,-1l-185 0c-3,0 -5,2 -5,5l0 57c0,0 0,0 0,0 0,0 -1,0 -1,0l-162 0 0 -186zm831 66l0 57c0,0 0,1 0,1l-89 0c0,0 0,0 0,0l-6 0c0,0 0,0 0,0l-90 0c0,-1 0,-1 0,-1l0 -57c0,0 0,0 0,0l185 0c0,0 0,0 0,0zm-668 182c0,0 0,0 0,0 0,0 -1,0 -1,0l-184 0c0,0 0,0 0,0l0 -57c0,0 0,-1 0,-1l184 0c1,0 1,1 1,1l0 57zm573 -119l0 57c0,0 0,0 0,0 0,0 0,0 0,0l-185 0c-1,0 -1,0 -1,0 0,0 0,0 0,0l0 -57c0,0 0,-1 0,-1l91 0c0,0 0,0 0,0l4 0c0,0 0,0 0,0l91 0c0,0 0,1 0,1zm-185 62l185 0c0,0 0,0 0,0 0,0 0,0 0,0l0 57c0,0 0,0 0,0 0,0 0,0 0,0l-185 0c-1,0 -1,0 -1,0 0,0 0,0 0,0l0 -57c0,0 0,0 0,0 0,0 0,0 1,0zm-192 0l185 0c1,0 1,0 1,0 0,0 0,0 0,0l0 57c0,0 0,0 0,0 0,0 0,0 -1,0l-185 0c0,0 0,0 0,0 0,0 0,0 0,0l0 -57c0,0 0,0 0,0 0,0 0,0 0,0zm-191 0l185 0c1,0 1,0 1,0 0,0 0,0 0,0l0 57c0,0 0,0 0,0 0,0 0,0 -1,0l-185 0c0,0 0,0 0,0 0,0 0,0 0,0l0 -57c0,0 0,0 0,0 0,0 0,0 0,0zm-5 62l0 57c0,0 0,0 -1,0l-184 0c0,0 0,0 0,0l0 -57 184 0c0,0 1,0 1,0 0,0 0,0 0,0zm191 0l0 57c0,0 0,0 -1,0l-185 0c0,0 0,0 0,0l0 -57c0,0 0,0 0,0 0,0 0,0 0,0l185 0c1,0 1,0 1,0 0,0 0,0 0,0zm191 0l0 57c0,0 0,0 -1,0l-185 0c0,0 0,0 0,0l0 -57c0,0 0,0 0,0 0,0 0,0 0,0l185 0c1,0 1,0 1,0 0,0 0,0 0,0zm191 57l-185 0c-1,0 -1,0 -1,0l0 -57c0,0 0,0 0,0 0,0 0,0 1,0l185 0c0,0 0,0 0,0 0,0 0,0 0,0l0 57c0,0 0,0 0,0zm-281 -187l0 -57c0,0 0,0 1,0l184 0c0,0 0,0 0,0l0 57c0,0 0,0 0,1l-89 0c-1,0 -1,0 -1,0l-6 0c0,0 0,0 0,0l-88 0c-1,0 -1,-1 -1,-1zm-96 63l0 -57c0,0 0,-1 0,-1l97 0c0,0 0,0 0,0l88 0c1,0 1,1 1,1l0 57c0,0 0,0 0,0 0,0 0,0 -1,0l-185 0c0,0 0,0 0,0 0,0 0,0 0,0zm-191 0l0 -57c0,0 0,-1 0,-1l185 0c1,0 1,1 1,1l0 57c0,0 0,0 0,0 0,0 0,0 -1,0l-185 0c0,0 0,0 0,0 0,0 0,0 0,0zm-678 56l3 -90 12 0 3 90c0,0 0,0 0,0l-18 0c0,0 0,0 0,0zm7 -178c0,-1 1,-1 2,-1 1,0 2,0 2,1l1 69 -6 0 1 -69zm1337 247l-93 0c0,0 0,0 0,-1 0,0 0,0 0,0l0 -57c0,0 0,0 0,0l92 0c1,0 1,0 2,-1 0,0 0,-1 0,-2 0,-1 -1,-2 -2,-2l-91 0c-1,0 -1,0 -1,0l0 -57c0,0 0,0 0,0 0,0 0,0 1,0l91 0c1,0 2,-1 2,-3 0,0 0,0 0,0 0,0 0,0 0,0 0,-1 -1,-2 -2,-2l-91 0c-1,0 -1,0 -1,0 0,0 0,0 0,0l0 -57c0,0 0,-1 1,-1l89 0c0,0 0,0 0,0l2 0c1,0 2,-1 2,-2 0,0 0,0 0,0 1,-1 1,-2 1,-3l0 -57c0,-3 -2,-5 -5,-5l-186 0c0,0 -1,0 -2,1 0,-1 -1,-1 -2,-1l-123 0 0 -61c0,-7 -3,-14 -8,-19l-206 -174c-4,-3 -10,-5 -16,-5l-63 0c-5,0 -11,2 -15,5l-206 174c-6,5 -9,12 -9,19l0 186 -18 0c-1,0 -2,0 -2,0 -1,0 -2,0 -2,0l-186 0c-3,0 -5,2 -5,5l0 57c0,1 0,1 1,2 -1,1 -1,2 -1,3l0 49 -138 -58c-3,-2 -7,-2 -10,-2l-122 0c0,0 0,0 0,0l-3 -90 3 0c3,0 5,-2 5,-5l0 -9c0,-3 -2,-5 -5,-5l-5 0 -2 -69c0,-3 -3,-6 -6,-6 -4,0 -7,3 -7,6l-1 69 -5 0c-3,0 -5,2 -5,5l0 9c0,3 2,5 5,5l2 0 -2 90c0,0 0,0 0,0l-44 0c-4,0 -8,3 -10,7 -1,4 0,9 4,11 72,56 117,136 143,193 1,3 -1,14 -3,22 -1,2 -1,4 -2,6 -1,7 -8,13 -15,14 -24,2 -66,10 -87,32 -1,0 -3,0 -4,0 -8,0 -15,5 -18,13 0,1 0,2 1,3 2,0 3,0 3,-2 3,-5 8,-9 14,-9 9,0 15,7 15,15 0,9 -6,16 -15,16 -1,0 -2,1 -2,2 0,2 1,3 2,3 5,0 9,-2 13,-5 0,0 0,0 1,0l572 0c-5,3 -10,9 -10,16 0,5 2,9 6,12l-31 0c-1,0 -2,1 -2,3 0,1 1,2 2,2l43 0 0 -5c-7,0 -13,-5 -13,-12 0,-7 6,-13 13,-13 7,0 12,6 12,13 0,1 1,2 3,2 1,0 2,-1 2,-2 0,-7 -4,-13 -10,-16l88 0c1,8 8,14 17,14 1,0 2,-1 2,-2 0,-2 -1,-3 -2,-3 -7,0 -12,-5 -12,-12 0,-6 5,-12 12,-12 6,0 12,6 12,12 0,2 1,3 2,3 0,0 0,0 1,-1 -3,4 -4,9 -4,14 0,1 1,2 2,2 1,0 3,-1 3,-2 0,-12 9,-21 20,-21 12,0 21,9 21,21 0,11 -9,20 -21,20l-94 0c-1,0 -2,1 -2,3 0,1 1,2 2,2l94 0c14,0 26,-11 26,-25 0,-5 -2,-9 -4,-13l106 0c1,0 2,-1 2,-2 0,-2 -1,-3 -2,-3l-109 0c0,0 0,0 0,0 -5,-5 -12,-8 -19,-8 -8,0 -15,4 -20,10 0,-9 -7,-17 -16,-17 -9,0 -16,7 -17,15l-672 0c2,-3 3,-7 3,-11 0,-8 -5,-15 -11,-18 21,-20 60,-27 82,-29 10,-1 18,-9 20,-18 0,-2 1,-4 1,-6 3,-10 4,-17 4,-22l984 0c1,0 2,-1 2,-2 0,-1 -1,-2 -2,-2l-985 0c-26,-58 -72,-138 -144,-193 -2,-2 -3,-5 -2,-7 1,-1 2,-3 5,-3l192 0c2,0 5,0 8,1l154 65c1,1 2,1 2,1 1,1 1,1 2,1l1 0c2,0 4,0 6,0l934 0c0,0 0,1 0,1l92 0c0,0 0,-1 0,-1l1 0c1,0 2,-1 2,-2 0,-1 -1,-2 -2,-2z"/>
   <path class="fil0" d="M288 2176l-153 0c-14,0 -25,-12 -25,-26 0,-15 11,-26 25,-26 14,0 25,11 25,26 0,1 1,2 3,2 1,0 2,-1 2,-2 0,-17 -13,-31 -30,-31 -6,0 -12,2 -17,6 0,-1 0,-2 0,-3 0,-13 -11,-24 -24,-24 -14,0 -24,11 -24,24 0,8 3,15 10,20 1,1 2,0 3,-1 1,-1 0,-2 -1,-3 -5,-4 -8,-10 -8,-16 0,-11 9,-19 20,-19 11,0 19,8 19,19 0,8 -4,15 -12,18 -1,1 -1,2 -1,3 1,1 1,2 2,2 1,0 1,0 1,0 1,-1 2,-1 3,-2 0,2 0,4 0,7 0,17 13,30 29,30l153 0c2,0 3,-1 3,-2 0,-1 -1,-2 -3,-2z"/>
   <path class="fil0" d="M225 2157c1,0 2,-1 2,-3 0,-1 -1,-2 -2,-2l-39 0c-1,0 -2,1 -2,2 0,2 1,3 2,3l39 0z"/>
   <path class="fil0" d="M322 2160l-94 0c-2,0 -3,1 -3,2 0,1 1,2 3,2l94 0c1,0 2,-1 2,-2 0,-1 -1,-2 -2,-2z"/>
   <path class="fil0" d="M33 2150l51 0c2,0 3,-1 3,-3 0,-1 -1,-2 -3,-2l-51 0c-1,0 -2,1 -2,2 0,2 1,3 2,3z"/>
   <path class="fil0" d="M93 2153l-45 0c-1,0 -2,1 -2,2 0,1 1,2 2,2l45 0c1,0 2,-1 2,-2 0,-1 -1,-2 -2,-2z"/>
   <path class="fil0" d="M66 2162l-64 0c-1,0 -2,1 -2,2 0,2 1,3 2,3l64 0c1,0 2,-1 2,-3 0,-1 -1,-2 -2,-2z"/>
   <path class="fil0" d="M732 2158c0,-2 -1,-3 -2,-3l-198 0c-1,0 -2,1 -2,3 0,1 1,2 2,2l198 0c1,0 2,-1 2,-2z"/>
   <path class="fil0" d="M803 2160l59 0c1,0 2,-1 2,-2 0,-2 -1,-3 -2,-3l-59 0c-1,0 -2,1 -2,3 0,1 1,2 2,2z"/>
   <path class="fil0" d="M733 2186l-55 0c-1,0 -2,1 -2,2 0,1 1,2 2,2l55 0c1,0 2,-1 2,-2 0,-1 -1,-2 -2,-2z"/>
   <path class="fil0" d="M797 2174c-7,0 -12,5 -12,11 0,7 5,12 12,12 1,0 2,-1 2,-2 0,-2 -1,-3 -2,-3 -4,0 -7,-3 -7,-7 0,-4 3,-7 7,-7 3,0 7,3 7,7 0,2 1,3 2,3 1,0 2,-1 2,-3 0,-6 -5,-11 -11,-11z"/>
   <path class="fil0" d="M921 2170c-1,0 -2,1 -2,3 0,1 1,2 2,2 8,0 15,-6 15,-14 0,-8 -7,-15 -15,-15 -1,0 -2,1 -2,3 0,1 1,2 2,2 5,0 10,4 10,10 0,5 -5,9 -10,9z"/>
   <path class="fil0" d="M803 2171l99 0c1,0 3,-1 3,-3 0,-1 -2,-2 -3,-2l-99 0c-1,0 -2,1 -2,2 0,2 1,3 2,3z"/>
   <path class="fil0" d="M1015 1451c-2,-4 -4,-7 -6,-11l-1 -1 -80 0 -1 1c-3,4 -5,7 -6,11l-2 3 98 0 -2 -3z"/>
   <path class="fil0" d="M951 1521c5,2 11,3 17,3 6,0 11,-1 17,-3l13 -5 -60 0 13 5z"/>
   <path class="fil0" d="M1020 1471c-1,-4 -1,-7 -2,-11l0 -1 -100 0 -1 1c0,4 -1,8 -1,11l0 2 104 0 0 -2z"/>
   <path class="fil0" d="M917 1481c1,3 2,7 3,10l0 2 95 0 1 -2c1,-3 2,-7 3,-10l0 -3 -103 0 1 3z"/>
   <path class="fil0" d="M925 1501c2,4 6,7 9,10l1 1 66 0 0 -1c4,-3 7,-6 10,-10l2 -4 -91 0 3 4z"/>
   <path class="fil0" d="M999 1431c-9,-7 -20,-11 -31,-11 -11,0 -22,4 -31,11l-6 4 74 0 -6 -4z"/>
   <path class="fil0" d="M418 1930c16,0 9,10 7,21 -1,6 -3,12 -6,16 -2,4 -6,6 -11,6l-28 0c-9,0 -15,-10 -17,-22 -1,-6 -3,-11 -3,-15 0,-4 2,-6 10,-6l48 0z"/>
   <path class="fil0" d="M590 1940c19,0 34,15 34,34 0,19 -15,34 -34,34 -19,0 -34,-15 -34,-34 0,-19 15,-34 34,-34z"/>
   <path class="fil0" d="M370 1932c-8,0 -8,2 -8,4 0,2 1,4 1,6 1,3 2,6 2,9 1,5 5,20 15,20l28 0c4,0 7,-2 10,-6 2,-3 4,-8 5,-14 1,-3 1,-5 2,-7 1,-5 2,-8 1,-10 -1,-1 -4,-2 -8,-2l-48 0zm38 43l-28 0c-9,0 -17,-8 -20,-23 0,-3 -1,-6 -1,-9 -1,-2 -1,-5 -1,-7 0,-8 7,-9 12,-9l48 0c6,0 9,2 11,4 3,4 2,9 0,14 0,2 -1,4 -1,7 -2,7 -4,12 -7,16 -3,5 -8,7 -13,7z"/>
   <path class="fil0" d="M590 1943c-18,0 -32,14 -32,31 0,18 14,32 32,32 17,0 31,-14 31,-32 0,-17 -14,-31 -31,-31zm0 68c-20,0 -37,-17 -37,-37 0,-20 17,-36 37,-36 20,0 36,16 36,36 0,20 -16,37 -36,37z"/>
   <path class="fil0" d="M1049 1610l0 15 -163 0 0 -15c0,-3 2,-6 6,-6l151 0c3,0 6,3 6,6z"/>
   <polygon class="fil0" points="1049,1642 1049,1659 886,1659 886,1642 "/>
   <polygon class="fil0" points="1049,1676 1049,1694 886,1694 886,1676 "/>
   <path class="fil0" d="M888 1691l0 -12 159 0 0 12 -159 0zm0 -51l0 -13 159 0 0 13 -159 0zm159 22l0 12 -159 0 0 -12 159 0zm-159 -5l0 -13 159 0 0 13 -159 0zm4 -50l151 0c2,0 4,1 4,3l0 12 -159 0 0 -12c0,-2 2,-3 4,-3zm151 -5l-151 0c-5,0 -9,4 -9,8l0 100 5 0 0 -14 159 0 0 15 4 0 0 -101c0,-4 -3,-8 -8,-8z"/>
   <path class="fil0" d="M839 2411l-32 -32 2 -15c0,-1 0,-2 1,-3l25 25 4 25z"/>
   <polygon class="fil0" points="805,2390 841,2426 842,2433 842,2435 829,2435 802,2409 "/>
   <path class="fil0" d="M1295 2270c-2,0 -3,1 -4,3 0,-2 -1,-2 -3,-2 -2,0 -4,1 -4,3l0 39c0,2 2,4 4,4 2,0 3,-1 3,-2 1,1 2,2 4,2 2,0 4,-2 4,-4l0 -39c0,-2 -2,-4 -4,-4z"/>
   <path class="fil0" d="M1295 1989c-1,0 -3,1 -3,2l0 0c0,-2 -2,-4 -4,-4 -2,0 -4,2 -4,4l0 15c0,2 2,2 4,2 1,0 3,1 3,-1 1,2 2,1 4,1 2,0 4,0 4,-2l0 -13c0,-2 -2,-4 -4,-4z"/>
   <path class="fil0" d="M1295 2024c-2,0 -3,-1 -3,1 -1,-2 -2,-1 -4,-1 -2,0 -4,0 -4,2l0 231c0,3 2,2 4,2 2,0 4,1 4,-2l0 0c0,1 2,0 3,0 2,0 4,0 4,-2l0 -229c0,-2 -2,-2 -4,-2z"/>
   <path class="fil0" d="M1164 2401c6,-13 19,-55 23,-64 3,-9 14,-17 27,-21 4,-1 9,-1 14,-1l67 0c2,0 4,1 4,4 0,2 -2,4 -4,4l-63 0c-18,0 -34,9 -38,20 -4,9 -15,44 -21,57 0,2 -1,3 -1,4 -1,2 -2,2 -4,2 -3,0 -5,-3 -4,-5z"/>
   <path class="fil0" d="M1121 2335l1 0 0 0c-3,1 -3,3 -3,5 0,2 0,5 0,8 0,8 6,14 14,14l14 0c4,0 7,-2 10,-4 2,-3 4,-6 4,-10 0,-1 0,-2 0,-3l0 0c4,0 8,-1 10,-4l27 -28c1,-1 2,-3 3,-5l-1 -1 4 -1c3,-1 5,-4 5,-7l0 0 2 -1 0 0 3 18 0 0c-13,4 -24,12 -27,21 -4,9 -17,51 -23,64l-124 0c-4,0 -8,-2 -11,-5 -3,-3 -5,-7 -5,-12l0 -34c0,0 -2,-11 -14,-11l-34 0c-3,0 -5,-1 -6,-3 -2,-2 -3,-4 -2,-6l5 -40c1,-3 4,-6 8,-6l61 0 9 -162 21 0c-6,0 -10,5 -10,10l0 159c0,6 4,12 10,12l30 5c6,1 10,6 10,12l0 3c0,5 4,10 9,12z"/>
   <path class="fil0" d="M1182 2113c3,0 5,2 5,5 0,2 -2,4 -5,4l-131 0c-3,0 -5,-2 -5,-4 0,-3 2,-5 5,-5l131 0z"/>
   <path class="fil0" d="M1177 2130c-1,-4 -5,-8 -10,-8l15 0 3 1 25 168 -3 1 -1 1c-2,-2 -4,-3 -7,-2l0 0 -22 -161z"/>
   <path class="fil0" d="M1174 2234c3,0 5,-3 5,-6l-13 -90c0,-3 -3,-6 -7,-6l-77 0c-4,0 -8,4 -8,8l0 89c0,3 3,5 6,5l94 0zm27 74c-1,2 -2,4 -3,5l-27 28c-2,3 -6,4 -10,4 -1,0 -1,0 -1,0l-38 -10 -1 0c-5,-2 -9,-7 -9,-12l0 -3c0,-6 -4,-11 -10,-12l-30 -5c-6,0 -10,-6 -10,-12l0 -159c0,-5 4,-10 10,-10l95 0c5,0 9,4 10,8l22 161 0 0c0,0 -1,0 -1,0l-7 3c-4,1 -6,4 -6,7 0,1 0,2 1,3 1,4 6,6 10,5l4 -2 1 1z"/>
   <path class="fil0" d="M1545 2223l-187 0c-2,0 -4,-1 -4,-4l0 -156c0,-2 -2,-4 -4,-4l-7 0c-2,0 -4,2 -4,4l0 168c0,3 2,4 4,4l166 0 36 -1 0 -11z"/>
   <path class="fil0" d="M1322 1953l0 34c0,6 -5,10 -11,9l-31 -7 -6 -2c-4,-1 -7,-4 -7,-8l0 -26c0,-4 4,-8 9,-8l37 0c5,0 8,3 9,7 0,0 0,1 0,1z"/>
   <path class="fil0" d="M844 2444l-47 0c-2,0 -4,-2 -4,-3 0,-2 2,-3 4,-3l47 0c2,0 4,1 4,3 0,1 -2,3 -4,3zm-33 -79c0,-3 2,-5 3,-6 2,-2 4,-2 7,-2 4,0 8,3 9,8l10 68 -39 0 10 -68zm33 68l0 0 -9 -69c-1,-7 -7,-12 -14,-12 -4,0 -7,1 -10,3 -2,3 -4,6 -5,9l-9 69 0 0c-5,0 -8,3 -8,8 0,4 3,7 8,7l47 0c5,0 8,-3 8,-7 0,-5 -3,-8 -8,-8z"/>
   <path class="fil0" d="M1260 2386c0,2 2,4 4,4 3,0 5,-2 5,-4 0,-3 -2,-4 -5,-4 -2,0 -4,1 -4,4z"/>
   <path class="fil0" d="M1256 2395c-1,2 -1,4 0,6 2,2 5,2 6,0 2,-2 2,-4 0,-6 -1,-1 -4,-1 -6,0z"/>
   <path class="fil0" d="M1262 2376c2,-1 2,-4 0,-6 -2,-1 -4,-1 -6,0 -2,2 -2,5 0,6 2,2 4,2 6,0z"/>
   <path class="fil0" d="M1247 2373c2,0 4,-2 4,-5 0,-2 -2,-4 -4,-4 -3,0 -5,2 -5,4 0,3 2,5 5,5z"/>
   <path class="fil0" d="M1247 2399c-2,0 -4,2 -4,4 0,3 2,5 4,5 2,0 4,-2 4,-5 0,-2 -2,-4 -4,-4z"/>
   <path class="fil0" d="M1232 2395c-2,2 -2,5 0,6 1,2 4,2 6,0 1,-1 1,-4 0,-6 -2,-1 -5,-1 -6,0z"/>
   <path class="fil0" d="M1237 2377c2,-2 2,-5 0,-6 -1,-2 -4,-2 -6,0 -1,1 -1,4 0,6 2,1 5,1 6,0z"/>
   <path class="fil0" d="M1234 2386c0,-2 -2,-4 -5,-4 -2,0 -4,2 -4,4 0,2 2,4 4,4 3,0 5,-2 5,-4z"/>
   <path class="fil0" d="M983 2394c0,2 1,3 3,3 2,0 4,-1 4,-3 0,-2 -2,-4 -4,-4 -2,0 -3,2 -3,4z"/>
   <path class="fil0" d="M980 2402c-2,1 -2,4 0,5 1,1 3,1 5,0 1,-1 1,-4 0,-5 -2,-1 -4,-1 -5,0z"/>
   <path class="fil0" d="M984 2386c2,-1 2,-4 0,-5 -1,-2 -3,-2 -5,0 -1,1 -1,4 0,5 2,1 4,1 5,0z"/>
   <path class="fil0" d="M972 2405c-2,0 -4,2 -4,4 0,2 2,4 4,4 2,0 3,-2 3,-4 0,-2 -1,-4 -3,-4z"/>
   <path class="fil0" d="M971 2383c2,0 4,-2 4,-4 0,-2 -2,-3 -4,-3 -2,0 -3,1 -3,3 0,2 1,4 3,4z"/>
   <path class="fil0" d="M959 2402c-2,2 -2,4 0,5 1,2 3,2 5,0 1,-1 1,-3 0,-5 -2,-1 -4,-1 -5,0z"/>
   <path class="fil0" d="M963 2386c2,-1 2,-4 0,-5 -1,-1 -3,-1 -5,0 -1,1 -1,4 0,5 2,2 4,2 5,0z"/>
   <path class="fil0" d="M960 2394c0,-2 -1,-3 -3,-3 -2,0 -4,1 -4,3 0,2 2,4 4,4 2,0 3,-2 3,-4z"/>
   <path class="fil0" d="M1180 2246l0 -1c0,-2 -2,-4 -4,-4l-25 0c-2,0 -4,2 -4,4l0 1c0,2 2,4 4,4l25 0c2,0 4,-2 4,-4z"/>
   <path class="fil0" d="M1297 2268c2,0 4,-2 4,-5 0,-2 -2,-4 -4,-4 -3,0 -5,2 -5,4 0,3 2,5 5,5z"/>
   <path class="fil0" d="M1297 2016c0,-2 -3,-4 -5,-4 -3,0 -5,2 -5,4 0,3 2,5 5,5 2,0 5,-2 5,-5z"/>
   <path class="fil0" d="M1195 2296c-2,0 -4,2 -4,5 0,2 2,4 4,4 3,0 5,-2 5,-4 0,-3 -2,-5 -5,-5z"/>
   <path class="fil0" d="M1089 2320l0 0c-3,0 -6,2 -6,5l0 12c0,3 3,5 6,5l0 0c3,0 5,-2 5,-5l0 -12c0,-3 -2,-5 -5,-5z"/>
   <path class="fil0" d="M1072 2320l-1 0c-3,0 -5,2 -5,5l0 12c0,3 2,5 5,5l1 0c3,0 5,-2 5,-5l0 -12c0,-3 -2,-5 -5,-5z"/>
   <path class="fil0" d="M1054 2320l0 0c-3,0 -5,2 -5,5l0 12c0,3 2,5 5,5l0 0c3,0 5,-2 5,-5l0 -12c0,-3 -2,-5 -5,-5z"/>
   <path class="fil0" d="M1037 2320l-1 0c-2,0 -5,2 -5,5l0 12c0,3 3,5 5,5l1 0c3,0 5,-2 5,-5l0 -12c0,-3 -2,-5 -5,-5z"/>
   <path class="fil0" d="M1031 2394c-3,-2 -5,-6 -5,-10l0 -35c-1,-4 -5,-13 -16,-13l-34 0c-2,0 -4,0 -5,-2 -1,-1 -1,-2 -1,-4l6 -39c0,-3 3,-5 5,-5l63 0 9 -161 9 0c-1,2 -2,4 -2,7l0 159c0,8 5,14 12,15l30 4c4,1 8,5 8,10l0 3c0,5 3,10 7,13 0,1 -1,2 -1,4 0,1 0,2 0,4 1,1 1,3 1,4 0,9 7,16 16,16l14 0c4,0 8,-1 11,-4 3,-4 5,-8 5,-12 0,0 0,0 0,-1 4,0 7,-1 10,-4l26 -28c2,-2 3,-4 4,-6l1 -1c3,0 4,-2 6,-4l1 11c-13,4 -23,12 -27,21 -1,4 -4,13 -8,24 -5,14 -10,30 -13,38l-123 0c-3,0 -7,-1 -9,-4zm-10 4l1 -6 -3 -1 -1 -5 3 -2 -4 -12 -3 0 -3 -4 2 -3 -9 -10 -3 2 -4 -3 1 -3 -12 -6 -2 3 -5 -1 -1 -3 -8 0 1 -4c1,1 3,1 5,1l34 0c10,0 11,9 12,9l0 34c0,5 2,10 6,14 0,0 0,0 0,0l-7 0zm-26 -5c0,13 -11,23 -23,23 -13,0 -23,-10 -23,-23 0,-12 10,-23 23,-23 12,0 23,11 23,23zm56 -277l131 0c1,0 2,1 2,2 0,1 -1,2 -2,2l-131 0c-2,0 -3,-1 -3,-2 0,-1 1,-2 3,-2zm155 174c-1,-1 -3,-2 -5,-2l-22 -158c0,-2 -1,-4 -2,-5l5 0c0,0 0,0 1,0l24 164 -1 1zm76 -281l11 0c4,0 8,3 8,7 0,4 -4,7 -8,7l-11 0 0 -14zm3 257c0,-1 0,-1 0,-1 0,-2 2,-4 4,-5l7 -2 0 -1c3,-1 6,1 8,4 0,0 0,1 0,2 0,2 -2,4 -4,5l-7 3c-2,0 -3,0 -4,0 -1,0 -2,-1 -3,-2 0,0 0,-1 -1,-2 0,0 0,-1 0,-1zm26 -268c1,0 2,0 2,0 3,0 5,-1 7,-2 3,-3 4,-6 4,-9l0 -31c2,1 3,4 3,6l0 427c0,5 -4,9 -9,9l-14 0 2 -14 -4 -1 -1 -7 4 -2 -5 -14 -4 1 -3 -6 2 -3 -10 -11 -3 2 -6 -4 1 -4 -13 -6 -2 4 -7 -2 -1 -4 -14 0 -1 4 -7 2 -2 -4 -2 1c-4,2 -4,2 -7,3l-4 2 1 4 -6 4 -3 -2 -10 11 3 3 -4 6 -4 -1 -4 14 3 2 0 7 -4 1 1 14 -13 0c2,-7 6,-18 10,-28 4,-11 7,-22 9,-26 4,-11 20,-19 36,-19l63 0c4,0 6,-3 6,-6 0,-4 -2,-7 -6,-7l-13 0 0 -37 2 -1c1,0 2,1 4,1 1,1 2,1 3,1 1,0 2,0 3,-1l8 -2c4,-2 7,-6 7,-10 0,-2 -1,-3 -1,-4 -2,-5 -8,-8 -13,-6l-8 3c-2,1 -4,2 -5,4l0 -232 11 0c7,0 12,-5 12,-12 0,-7 -5,-12 -12,-12l-11 0 0 -12 29 6zm-42 -19l0 -26c0,-3 3,-6 7,-6l37 0c3,0 6,2 7,5l0 0c0,1 0,1 0,1l0 34c0,2 -1,4 -3,5 -1,1 -3,2 -5,1l-38 -8c-3,-1 -5,-3 -5,-6zm5 406c0,15 -12,27 -27,27 -15,0 -27,-12 -27,-27 0,-15 12,-27 27,-27 15,0 27,12 27,27zm3 -109l0 36 -49 0c-4,0 -8,1 -12,2l-2 -14 63 -24zm3 -8l1 0c0,0 0,1 0,1 0,0 0,1 0,1l-70 26c0,-1 0,-1 0,-1 -1,0 -1,-1 -1,-1l70 -26zm-77 36l-8 3c-1,0 -3,0 -4,0 -1,-1 -2,-2 -3,-4 0,0 0,-1 0,-2 0,-2 1,-4 3,-5l8 -3c0,0 0,0 1,0 0,0 0,0 1,0 1,0 3,1 4,1 0,1 1,2 1,3 0,0 1,1 1,2l0 0c0,2 -2,4 -4,5zm-42 38c0,0 0,0 -1,0l-37 -9 -1 -1c-4,-1 -7,-5 -7,-9l0 -3c0,-8 -6,-14 -13,-15l-29 -4c-5,-1 -9,-5 -9,-10l0 -159c0,-4 4,-7 8,-7l95 0c4,0 7,2 7,6l22 158 -6 3c-4,1 -7,5 -7,9 0,2 0,3 1,4 1,4 5,7 9,7 1,0 2,0 3,-1 0,0 0,1 0,1l-26 28c-3,2 -6,3 -9,2zm10 57c-1,2 -1,3 -1,4 -1,1 -1,1 -2,1 -1,0 -1,-1 -2,-1 0,0 0,-1 0,-1 4,-8 9,-25 14,-40 4,-11 7,-20 9,-24 3,-9 13,-16 26,-19 4,-1 8,-2 13,-2l67 0c1,0 2,1 2,2 0,1 -1,1 -2,1l-63 0c-18,0 -35,10 -40,22 -2,4 -6,15 -10,26 -4,12 -8,25 -11,31zm-9 7c2,2 4,3 6,3 2,0 5,-2 6,-4 0,0 0,-1 1,-2l21 0 0 2 -3 3 7 12 4 -1 5 5 -2 4 12 8 3 -2 6 2 0 5 14 3 2 -4 6 0 2 4 14 -3 0 -5 6 -2 3 2 3 -1c3,-3 3,-3 6,-5l3 -2 -2 -4 5 -5 4 1 7 -12 -3 -3 1 -2 19 0c8,0 14,-6 14,-14l0 -166 5 0 0 8c0,4 3,7 6,7l166 0 35 -2 0 -4 -35 1 -166 0c-1,0 -1,-1 -1,-2l0 -168c0,-1 0,-1 1,-1l7 0c1,0 2,0 2,1l0 156c0,4 2,7 6,7l186 0 0 -5 -186 0c-1,0 -2,-1 -2,-2l0 -156c0,-3 -3,-6 -6,-6l-7 0c-3,0 -6,3 -6,6l0 94 -5 0 0 -195c0,-5 -3,-10 -8,-12l0 0c-2,-5 -6,-8 -11,-8l-37 0c-6,0 -11,5 -11,11l0 26c0,5 3,10 8,11l4 0 0 274 -65 24 -18 -120c3,4 7,9 11,9 5,-1 9,-7 8,-12l-3 -20c-1,-6 -6,-10 -12,-9 -4,1 -6,6 -7,11l-4 -24c1,-2 2,-3 2,-5 0,-4 -3,-7 -7,-7l-131 0c-4,0 -7,3 -7,7 0,3 2,5 4,6l-8 157 -59 0c-5,0 -9,4 -10,9l-6 39c0,3 1,5 2,7l-1 8 -1 0 0 3 -6 1 -2 -3 -11 6 0 3 -4 3 -3 -2 -9 10 3 3 -3 4 -4 0 -4 12 3 2 0 5 -4 1 2 13 3 0 0 1c1,1 1,2 2,4l-3 3 7 11 3 -1 4 4 -1 1 0 2 10 8 2 -3 5 2 0 4 13 3 1 -4 5 0 2 4 12 -3 0 -4 5 -2 3 3 10 -8 -1 -3 3 -4 4 1 6 -11 -3 -3 2 -5 4 0 0 -2 140 0c1,1 1,2 1,3z"/>
   <path class="fil0" d="M1077 2229l0 -89c0,-3 2,-6 5,-6l77 0c3,0 5,2 5,5l13 89c0,1 -1,2 -1,2 -1,1 -1,2 -2,2l-94 0c-2,0 -3,-2 -3,-3zm102 5c2,-2 3,-4 2,-7l-12 -89c-1,-5 -5,-8 -10,-8l-77 0c-6,0 -10,4 -10,10l0 89c0,4 3,7 8,7l94 0c2,0 4,-1 5,-2z"/>
   <path class="fil0" d="M972 2385c-5,0 -9,4 -9,8 0,5 4,9 9,9 4,0 8,-4 8,-9 0,-4 -4,-8 -8,-8z"/>
   <path class="fil0" d="M1247 2375c-5,0 -10,5 -10,10 0,6 5,10 10,10 5,0 10,-4 10,-10 0,-5 -5,-10 -10,-10z"/>
   <path class="fil0" d="M1376 2218l168 0 0 -4 -168 0c-6,0 -12,-6 -12,-12l0 -187c0,-6 6,-11 12,-11l169 0 0 -5 -169 0c-9,0 -16,7 -16,16l0 187c0,9 7,16 16,16z"/>
   <polygon class="fil0" points="1074,2448 1568,2448 1568,2444 1074,2444 "/>
   <polygon class="fil0" points="867,2448 1030,2448 1030,2444 867,2444 "/>
   <path class="fil0" d="M2231 2357c0,8 -7,16 -16,16l-248 0c-8,0 -16,-8 -16,-16l0 -4c0,-8 8,-16 16,-16l248 0c9,0 16,8 16,16l0 4zm280 -6l-22 22 0 6 -10 0 0 -73 -2 0 0 -36 -810 0c-38,0 -69,-31 -69,-69l0 -1911c0,-38 31,-69 69,-69l844 0c39,0 70,31 70,69l0 1681 52 0 0 -3 0 -1680c0,-66 -53,-120 -119,-120l-849 0c-66,0 -119,54 -119,120l0 2037c0,66 53,120 119,120l849 0c57,0 105,-41 116,-94l-119 0z"/>
   <path class="fil0" d="M1598 1828l284 -171c12,23 23,46 35,70l-319 191 0 6 325 -195 -1 -2c-12,-25 -25,-50 -37,-75l-1 -2 -286 172 0 6z"/>
   <path class="fil0" d="M2319 548l-24 123 -109 -17c4,-8 6,-16 7,-24l16 -110 110 28zm-130 82c-2,8 -4,17 -8,25l-2 2 120 20 25 -133 -119 -29 -16 115z"/>
   <path class="fil0" d="M2366 838l28 -128 82 2 -33 143 -77 -17zm116 -131l-92 -2 -30 136 87 20 35 -154z"/>
   <path class="fil0" d="M2371 684l-53 -9 23 -122 55 14 -25 117zm-34 -136l-25 131 63 10 27 -125 -65 -16z"/>
   <path class="fil0" d="M2293 1043l-102 -24 70 -40 34 57 -2 7zm7 -8l-37 -62 -85 48 119 28 3 -14z"/>
   <path class="fil0" d="M2288 979l18 4 -4 20 -14 -24zm24 0l-34 -8 26 45 8 -37z"/>
   <path class="fil0" d="M2338 966l23 -106 77 18 -24 106 -76 -18zm106 -92l-87 -19 -25 115 86 19 26 -115z"/>
   <path class="fil0" d="M1853 1955l27 52 -173 104 -29 -51 175 -105zm33 54l-31 -61 -183 110 33 59 181 -108z"/>
   <polygon class="fil0" points="2581,1022 2526,1009 2549,903 2581,910 2581,905 2546,897 2520,1013 2581,1027 "/>
   <path class="fil0" d="M2115 965l35 58c-1,2 -2,4 -2,6l-22 69 -90 -22 -29 -50 108 -61zm14 139l23 -73c1,-3 2,-5 3,-7l1 -1 -40 -64 -115 65 32 57 96 23z"/>
   <polygon class="fil0" points="1705,2272 1705,2271 1755,2241 1772,2272 1778,2272 1757,2235 1698,2269 1700,2272 "/>
   <path class="fil0" d="M2281 953c-2,0 -5,-1 -8,-1 0,0 -1,0 -1,0l-8 -13 2 0 19 -96 49 11 -23 106 -30 -7zm59 -102l-59 -14 -18 96 -8 -1 15 25 1 0c3,0 6,0 9,1l35 8 25 -115z"/>
   <path class="fil0" d="M1609 1938l180 -107 53 103 -175 106 -58 -102zm182 -114l-187 112 -2 1 63 110 184 -111 -58 -112z"/>
   <path class="fil0" d="M1861 2252l-28 -57 30 -18 30 57 -32 18zm-34 -59l32 66 40 -23 -34 -66 -38 23z"/>
   <path class="fil0" d="M1915 2146l30 59 -32 18 -30 -58 32 -19zm37 61l-35 -68 -41 24 35 67 41 -23z"/>
   <path class="fil0" d="M1743 566l-22 -36 91 -55 22 36 -91 55zm-29 -38l27 45 99 -60 -26 -44 -100 59z"/>
   <path class="fil0" d="M2069 652l27 47 -204 128 -29 -50 206 -125zm34 48l-32 -54 -215 129 35 59 212 -134z"/>
   <path class="fil0" d="M2019 567l38 65 -206 125 -38 -67c77,-46 146,-87 206,-123zm45 67l-43 -74 -2 2c-62,36 -132,78 -211,126l-2 1 44 74 214 -129z"/>
   <path class="fil0" d="M1846 531l42 71c-29,18 -60,36 -91,55l-42 -71 91 -55zm-48 131c32,-20 64,-39 95,-57l2 -1 -48 -80 -99 60 48 79 2 -1z"/>
   <path class="fil0" d="M1853 499l-21 -35 95 -56 20 34 -94 57zm-27 -37l26 44 101 -62 -25 -43 -102 61z"/>
   <path class="fil0" d="M2020 523l-42 -73 93 -57 46 74c-29,17 -62,36 -97,56zm-49 -74l47 81 3 -1c36,-22 70,-42 101,-60l2 -1 -51 -81 -102 62z"/>
   <path class="fil0" d="M2171 627l0 0c-1,3 -1,5 -2,8l-63 -119c32,-19 62,-36 87,-51l-22 162zm-69 -114l-2 1 70 133 2 -5c1,-5 3,-10 3,-14l0 0 25 -172 -5 3c-27,15 -59,33 -93,54z"/>
   <path class="fil0" d="M1823 1538c16,32 32,65 49,98l-274 165 0 6 278 -168 2 -1 -1 -2c-17,-35 -35,-69 -51,-102l-1 -3 -227 134 0 6 225 -133z"/>
   <polygon class="fil0" points="2581,887 2554,881 2581,760 2581,738 2548,884 2581,892 "/>
   <path class="fil0" d="M1908 590l-43 -71 93 -57 42 73c-29,18 -60,36 -92,55zm-49 -73l47 80 2 -1c34,-21 66,-40 97,-58l2 -1 -47 -81 -101 61z"/>
   <path class="fil0" d="M2581 1536c-58,-17 -118,-31 -180,-41l52 -99 123 44c1,1 3,1 5,2l0 -5c-1,0 -3,-1 -4,-1l-126 -46 -57 109 3 1c63,10 125,23 184,41l0 -5z"/>
   <path class="fil0" d="M2296 1163l135 33c2,1 4,1 6,2l-67 144 -105 -38 31 -141zm77 185l70 -153 -2 -1c-4,-1 -6,-2 -9,-2l-140 -34 -32 149 113 41z"/>
   <path class="fil0" d="M2290 694l-9 47 -71 -17c-9,-2 -17,-3 -26,-3 -15,0 -29,3 -43,8l-13 -23 25 -15c7,-5 13,-10 19,-16l118 19zm-121 -23c-5,6 -11,11 -18,15l-30 19 18 30 3 -1c21,-9 44,-11 67,-6l76 19 11 -57 -126 -20 -1 1z"/>
   <polygon class="fil0" points="2581,1417 2464,1375 2530,1250 2581,1281 2581,1275 2530,1245 2528,1244 2457,1378 2581,1423 "/>
   <path class="fil0" d="M2167 2272l17 -9 4 9 5 0 -6 -13 -1 -2 -3 1c-8,4 -17,9 -25,14l9 0z"/>
   <path class="fil0" d="M2005 2272l-8 -15 148 -72 22 45c-24,13 -49,27 -77,42l10 0c26,-14 49,-27 72,-39l2 -1 -27 -53 -156 76 9 17 5 0z"/>
   <path class="fil0" d="M2058 971l-50 -83 44 -26 51 84 -45 25zm-57 -85l55 91 53 -30 -55 -91 -53 30z"/>
   <path class="fil0" d="M2156 801l51 86 -84 47 -51 -84 84 -49zm58 88l-56 -95 -93 55 56 92 93 -52z"/>
   <path class="fil0" d="M2313 698l53 9 -27 125 -50 -12 24 -122zm30 139l29 -134 -63 -11 -25 132 59 13z"/>
   <path class="fil0" d="M1813 2206l29 60c1,2 3,4 5,6l12 0c-1,0 -3,0 -4,-1 -4,-1 -7,-4 -9,-7l-31 -64 -47 28 25 44 6 0 -24 -42 38 -24zm60 66l83 -46 8 16 -62 30 11 0 57 -28 -12 -25 -91 51c-2,1 -4,2 -7,2l13 0z"/>
   <path class="fil0" d="M1891 2028l42 81 -170 100 -44 -78 172 -103zm-179 101l50 87 177 -106 -46 -89 -179 107 -2 1z"/>
   <path class="fil0" d="M2581 1802c-39,68 -71,124 -97,168l5 0c25,-42 56,-95 92,-158l0 -10zm-106 183c-21,36 -38,63 -50,82l-81 -47 138 -120c11,-9 20,-20 26,-33l73 -132 0 -10 -77 140c-6,12 -15,23 -25,32l-143 123 91 53 1 -1c11,-18 27,-44 47,-78l0 -9z"/>
   <path class="fil0" d="M2409 2090c-15,13 -85,54 -210,122l-23 -46 146 -127 87 51zm-239 75l27 54 3 -1c134,-74 204,-115 215,-127l2 -2 -95 -56 -152 132z"/>
   <path class="fil0" d="M2288 1066l-14 68 -126 -30 21 -67 119 29zm-122 -34l0 2c-1,0 -1,0 -1,1l-23 72 135 33 17 -78 -126 -30 -2 0z"/>
   <path class="fil0" d="M2521 1218l-53 -31c0,0 0,0 -1,-1l31 -66c0,0 0,0 1,0l55 34 -33 64zm-22 -104l-3 -1 -35 75 3 2c1,0 1,1 2,1l56 34 38 -73 -59 -36c-1,-1 -2,-1 -2,-2z"/>
   <polygon class="fil0" points="2475,2153 2450,2100 2475,2110 2475,2105 2446,2093 2444,2097 2475,2164 "/>
   <path class="fil0" d="M2521 1970l5 0c16,-27 35,-59 55,-94l0 -9c-23,39 -43,73 -60,103zm60 -710l0 -6 -41 -24 34 -64 7 5 0 -6 -9 -5 -38 72 47 28zm0 -111l0 -18 -4 16 4 2zm-1 -870c-1,-2 -1,-3 -2,-5 -38,12 -71,23 -100,32l0 -66 13 -17 -6 0 -10 13 -2 -2 0 78 3 -1c30,-9 64,-20 104,-32zm-917 -56c-4,0 -8,1 -11,1l12 4 29 48 -33 185 -62 35 0 6 66 -38 34 -189 -30 -51 -5 -1zm-65 1734l0 9 89 157 -89 53 0 6 94 -56 2 -2 -96 -167zm626 315l5 0 -13 -27c120,-66 190,-107 214,-124l45 96 0 -11 -44 -93 -2 2c-21,17 -93,58 -217,127l-2 1 1 2 13 27zm251 -182l0 -5 -14 -6c4,-7 9,-14 14,-23l0 -9c-7,12 -14,23 -20,32l-1 3 21 8z"/>
   <polygon class="fil0" points="1598,2203 1630,2184 1679,2272 1684,2272 1632,2177 1598,2198 1598,2203 "/>
   <path class="fil0" d="M1996 868l-34 -57 42 -27 36 58 -44 26zm-41 -59l39 66 52 -31 -40 -67 -51 32z"/>
   <path class="fil0" d="M2145 781l-85 50 -36 -59 84 -53 37 62zm-87 56l93 -54 -41 -71 -93 58 41 67z"/>
   <path class="fil0" d="M1988 900l49 82 -41 24 -48 -83 40 -23zm56 84l-54 -91 -49 29 53 90 50 -28z"/>
   <path class="fil0" d="M1936 903l-32 -56 38 -24 34 57 -40 23zm-39 -57l37 64 49 -28 -39 -65 -47 29z"/>
   <path class="fil0" d="M2078 2049c18,37 36,75 55,111l-148 72 -50 -98 143 -85zm61 114l-1 -3c-19,-38 -38,-76 -57,-115l-1 -2 -151 89 54 106 156 -75z"/>
   <path class="fil0" d="M1699 2143l44 78 -49 30 -44 -79 49 -29zm51 80l-49 -87 -57 34 48 88 58 -35z"/>
   <path class="fil0" d="M2248 912l-52 -89 67 15 -15 74zm-62 -96l65 109 17 -91 -82 -18z"/>
   <polygon class="fil0" points="1966,2272 1977,2267 1979,2272 1985,2272 1979,2260 1955,2272 "/>
   <path class="fil0" d="M2297 2024l-133 116c-45,-90 -91,-183 -136,-274l269 158zm-135 124l143 -125 -289 -169 4 7c47,95 94,190 141,284l1 3z"/>
   <path class="fil0" d="M2219 907l31 53 -83 46 -32 -52 84 -47zm-51 104c0,0 0,0 0,0l88 -50 -36 -61 -92 52 37 61 3 -2z"/>
   <path class="fil0" d="M2580 1045l-18 87 -51 -32c-2,-1 -3,-1 -5,-2l15 -66 59 13zm1 21l0 -26 -64 -14 -16 74 1 1c2,1 4,2 6,3l57 36 16 -74z"/>
   <path class="fil0" d="M1984 1271c5,-3 10,-6 14,-10l75 3 -68 216c-55,4 -110,11 -160,20 -20,-39 -39,-77 -57,-113l196 -116zm112 -3l138 49 -34 159c-57,-2 -114,-1 -171,3l67 -211zm-254 237l2 0c52,-9 110,-16 167,-20l12 -1 0 0 3 0c59,-4 118,-5 175,-3l2 0 37 -167 -147 -53 -70 223 -13 -4 70 -221 -84 -3 -1 0c-4,5 -8,8 -13,11l-201 118 1 2c19,37 39,76 59,117l1 1z"/>
   <path class="fil0" d="M2180 796l-27 -46c16,-7 34,-8 51,-4l73 18 -10 51 -87 -19zm103 -36l-77 -18c-19,-5 -39,-3 -57,4l-3 1 31 53 94 21 12 -61z"/>
   <path class="fil0" d="M2141 671l-25 16 -77 -132c16,-9 32,-19 47,-28l70 132c-5,5 -9,9 -15,12zm-55 -149c-17,10 -34,20 -52,30l-2 2 82 139 30 -18c6,-4 11,-9 16,-14l1 -1 -73 -139 -2 1z"/>
   <path class="fil0" d="M1709 510l-22 -38 92 -53 22 37 -92 54zm-29 -39l27 45 100 -59 -27 -44 -100 58z"/>
   <path class="fil0" d="M1793 702l39 67 -88 52 -40 -65c30,-18 60,-36 89,-54zm45 68l-43 -74 -2 1c-31,18 -62,37 -93,56l-2 2 45 73 95 -58z"/>
   <path class="fil0" d="M1853 280l30 53 -96 55 -90 -151 156 43zm37 54l-34 -58 -170 -47 99 165 105 -60z"/>
   <path class="fil0" d="M1915 388l-95 56 -21 -36 96 -55 20 35zm-96 62l103 -60 -26 -44 -104 60 27 44z"/>
   <path class="fil0" d="M1735 598l42 71c-30,18 -61,37 -92,56l-43 -71 93 -56zm-49 132c32,-20 64,-39 96,-58l2 -2 -47 -79 -101 62 48 78 2 -1z"/>
   <path class="fil0" d="M2538 326c13,-5 28,-9 43,-14l0 -5c-19,6 -36,11 -52,16l-8 3 60 16 0 -5 -43 -11z"/>
   <path class="fil0" d="M1723 578l-93 57 -23 -38 94 -56 22 37zm-94 63l101 -61 -27 -45 -102 60 28 46z"/>
   <polygon class="fil0" points="1819,223 1833,246 1748,223 1731,223 1843,254 1825,223 "/>
   <path class="fil0" d="M2171 1598l35 55 -25 15 -34 -55 24 -15zm41 57l-39 -64 -32 20 39 63 32 -19z"/>
   <path class="fil0" d="M1903 321l-19 -32 51 14 -32 18zm-2 7l46 -27 -73 -20 27 47z"/>
   <path class="fil0" d="M2078 362l-14 -23 36 10 -22 13zm-1 6l35 -21 -59 -16 24 37z"/>
   <path class="fil0" d="M1966 430l-20 -34 92 -54 21 32 -93 56zm-26 -36l25 43 100 -62 -25 -40 -100 59z"/>
   <polygon class="fil0" points="1667,484 1689,521 1598,575 1598,581 1696,523 1668,477 1598,518 1598,523 "/>
   <path class="fil0" d="M1711 306l56 93 -81 47 25 -140zm-2 -13l-30 162 95 -54 -65 -108z"/>
   <path class="fil0" d="M2019 326l-84 50 -20 -35 51 -29 53 14zm-111 13l25 44 98 -58 -66 -18 -57 32z"/>
   <path class="fil0" d="M2251 391c-29,16 -68,37 -114,64l-46 -74 39 -24 121 34zm-167 -11l52 81 2 -1c49,-28 90,-51 121,-68l5 -2 -134 -38 -46 28z"/>
   <path class="fil0" d="M1987 1784l-28 -56 107 -65 33 54 -112 67zm-34 -57l32 64 121 -72 -38 -63 -115 71z"/>
   <polygon class="fil0" points="1683,1548 1701,1578 1598,1639 1598,1644 1707,1580 1685,1541 1598,1592 1598,1597 "/>
   <path class="fil0" d="M2581 1677l-97 177c-5,9 -12,18 -20,25l-145 126 -313 -184 -1 1 -8 -17 241 -144 -59 -95 -44 27 -52 -84 -180 108c-15,-31 -30,-61 -45,-91 120,-20 416,-53 723,39l0 -5c-310,-92 -609,-58 -727,-38l-4 0 2 3c16,31 32,64 48,97l1 2 180 -109 53 85 43 -27 54 86 -240 144 14 29 2 -4 313 183 147 -128c9,-8 16,-17 21,-27l93 -169 0 -10z"/>
   <polygon class="fil0" points="1672,1528 1598,1571 1598,1576 1678,1530 1642,1467 1598,1492 1598,1498 1640,1473 "/>
   <path class="fil0" d="M1756 1405c17,35 36,71 54,108l-89 53 -61 -104 96 -57zm60 110l-1 -2c-19,-39 -38,-76 -56,-112l-1 -2 -105 61 66 113 97 -58z"/>
   <path class="fil0" d="M2084 223l0 0 2 2c14,10 30,18 46,25l78 32 -78 47 -90 -25 -52 -81 -5 0 54 85 94 26 88 -53 -87 -36c-15,-6 -29,-13 -43,-22l-7 0z"/>
   <path class="fil0" d="M2450 223l0 91c-12,4 -23,8 -34,11l-253 -102 -13 0 263 106 -2 3 5 -2c12,-4 24,-7 37,-12l2 0 0 -95 -5 0z"/>
   <path class="fil0" d="M1698 1291c15,30 31,61 47,94l-97 57 -50 -85 0 9 48 82 106 -61 -1 -2c-18,-34 -34,-67 -50,-98l-1 -2 -102 59 0 5 100 -58z"/>
   <path class="fil0" d="M1843 789l30 51 -85 53 -32 -52 87 -52zm36 52l-34 -59 -95 57 36 60 93 -58z"/>
   <path class="fil0" d="M1781 925l92 150 -190 107c-31,-61 -57,-110 -77,-148l175 -109zm-180 110c20,37 47,89 79,151l2 3 197 -112 -97 -159 -182 115 1 2z"/>
   <path class="fil0" d="M2119 1705l-33 -54 42 -26 34 55 -43 25zm-40 -56l38 63 51 -31 -39 -63 -50 31z"/>
   <polygon class="fil0" points="2472,346 2489,341 2581,366 2581,361 2489,336 2489,336 2468,342 2443,460 2581,503 2581,498 2448,456 "/>
   <path class="fil0" d="M1688 1271l-90 52 0 5 96 -55 -1 -2c-12,-23 -22,-44 -33,-64l-1 -3 -61 37 0 6 59 -36c10,19 20,39 31,60z"/>
   <polygon class="fil0" points="1963,223 2009,295 1865,255 1846,223 1840,223 1861,259 2019,303 1969,223 "/>
   <polygon class="fil0" points="2581,589 2428,551 2444,479 2581,523 2581,518 2440,473 2422,555 2581,594 "/>
   <path class="fil0" d="M2103 1246l38 -120 54 13 -31 128 -61 -21zm98 -111l-63 -15 -41 128 70 26 34 -139z"/>
   <path class="fil0" d="M2185 1275l33 -131 51 13 -30 137 -54 -19zm89 -122l-60 -14 -34 139 62 23 32 -148z"/>
   <path class="fil0" d="M2012 1238c1,-1 1,-2 1,-3l29 -133c0,0 0,0 0,0l77 18 -38 121 -69 -3zm113 -121l-87 -21 0 3c0,1 0,1 0,2l-29 132c-1,2 -1,4 -2,6l-2 3 79 4 41 -129z"/>
   <path class="fil0" d="M1621 1141c8,15 17,32 25,49l-48 30 0 5 55 -33 -1 -2c-10,-19 -19,-37 -28,-54l-1 -2 -25 14 0 5 23 -12z"/>
   <path class="fil0" d="M2392 1350l66 -143 52 32 -68 129 -50 -18zm124 -113l-57 -34c0,0 0,-1 -1,-1l-3 -1 -69 151 58 21 72 -136z"/>
   <path class="fil0" d="M2260 1327l171 61 -54 104c-49,-7 -99,-12 -149,-14l32 -151zm-35 155c51,3 103,8 153,15l2 0 58 -111 -181 -66 -35 162 3 0z"/>
   <path class="fil0" d="M1990 1872l26 54 -116 69 -27 -52 117 -71zm32 55l-30 -61 -126 75 32 61 124 -75z"/>
   <path class="fil0" d="M1885 1095l93 153c-2,1 -3,2 -5,3l-196 115c-31,-61 -58,-116 -83,-163l191 -108zm-196 108c25,49 53,105 85,168l1 2 200 -118c3,-1 5,-3 8,-5l1 -1 -98 -160 -198 112 1 2z"/>
   <path class="fil0" d="M1928 935l48 82 -83 47 -49 -80 84 -49zm54 84l-52 -91 -93 55 54 87 91 -51z"/>
   <path class="fil0" d="M2026 1946c14,28 28,55 41,82l-114 69 -42 -81 115 -70zm48 84l-1 -2c-15,-28 -29,-57 -43,-86l-2 -2 -124 74 47 89 123 -73z"/>
   <polygon class="fil0" points="1612,1425 1628,1453 1598,1471 1598,1477 1635,1455 1613,1419 1598,1428 1598,1433 "/>
   <path class="fil0" d="M1598 1097c4,8 8,15 12,23l-12 7 0 5 18 -10 -1 -2c-6,-12 -11,-23 -17,-33l0 10z"/>
   <path class="fil0" d="M1905 1084l82 -47 32 55c1,2 1,3 1,5l-28 129 -87 -142zm90 149c0,-1 1,-2 1,-4l28 -131c1,-3 1,-6 -1,-8l-34 -59 -91 51 95 155 2 -4z"/>
   <polygon class="fil0" points="1598,1402 1600,1405 1598,1407 1598,1412 1607,1407 1598,1393 "/>
   <path class="fil0" d="M1598 821c29,-18 58,-36 87,-53l40 65 -127 77 0 5 133 -80 -45 -73 -2 1c-28,17 -57,35 -86,52l0 6z"/>
   <path class="fil0" d="M1598 681l25 -15 42 71c-22,13 -44,27 -67,41l0 5c24,-15 48,-29 72,-44l2 -1 -48 -78 -26 16 0 5z"/>
   <polygon class="fil0" points="2399,687 2423,574 2581,613 2581,608 2419,568 2393,692 2576,696 2581,676 2581,654 2572,691 "/>
   <path class="fil0" d="M1916 915l-84 50 -32 -52 84 -53 32 55zm-86 56l93 -54 -37 -64 -92 58 36 60z"/>
   <path class="fil0" d="M2401 545l-189 -48 7 -46c18,-11 35,-20 49,-27l149 47 -16 74zm-133 -127l-1 1c-15,8 -32,17 -52,28l-1 1 -7 53 198 49 18 -82 -155 -50z"/>
   <path class="fil0" d="M2362 343c-18,6 -32,10 -42,14l1 0c-8,3 -19,8 -34,15l-124 -34 74 -46 125 51zm-211 -4l137 38 1 0c14,-8 26,-13 33,-15l0 0c11,-4 27,-10 47,-17l7 -2 -139 -56 -86 52z"/>
   <path class="fil0" d="M2075 1540l41 65 -167 103c-12,-24 -24,-47 -35,-70l161 -98zm-130 172l2 2 175 -107 -45 -73 -170 102 1 2c13,24 25,49 37,74z"/>
   <path class="fil0" d="M2446 1177c-3,-1 -7,-2 -10,-3l-136 -33 15 -69 161 39 -30 66zm37 -69l-171 -41 -17 77 140 35c4,0 7,1 12,3l2 1 33 -73 1 -2z"/>
   <path class="fil0" d="M2297 408c16,-8 28,-13 36,-16 20,-8 55,-19 109,-36l-20 92 -125 -40zm151 -59l-3 1c-56,18 -93,30 -113,37 -9,3 -23,10 -42,20l-5 2 141 45 22 -105z"/>
   <path class="fil0" d="M2320 1050l13 -61 165 38 -14 62c0,0 0,0 0,0l-164 -39zm168 45l16 -72 -174 -40 -16 70 169 41c0,0 1,0 1,0l4 1z"/>
   <polygon class="fil0" points="1737,853 1769,905 1598,1012 1598,1018 1775,907 1738,846 1598,931 1598,936 "/>
   <path class="fil0" d="M2466 860l33 -148 68 2 -35 161 -66 -15zm107 -151l-78 -1 -35 156 75 17 38 -172z"/>
   <polygon class="fil0" points="1598,626 1611,647 1598,654 1598,660 1617,648 1598,617 "/>
   <path class="fil0" d="M2437 989l24 -106 66 15 -24 106 -66 -15zm95 -95l-75 -17 -26 115 76 18 25 -116z"/>
   <path class="fil0" d="M1979 1852l-117 70 -54 -103 119 -71c18,34 35,69 52,104zm-119 77l126 -75 -1 -2c-19,-37 -37,-73 -54,-109l-2 -2 -127 76 58 112z"/>
   <path class="fil0" d="M2514 2448l-849 0c-67,0 -122,-54 -122,-121l0 -2038c0,-67 55,-122 122,-122l849 0c67,0 122,55 122,122l0 1681 -5 0 0 -1681c0,-64 -53,-117 -117,-117l-849 0c-64,0 -117,53 -117,117l0 2038c0,64 53,117 117,117l849 0c55,0 103,-40 114,-94l5 1c-11,56 -62,97 -119,97z"/>
   <path class="fil0" d="M2345 567c-36,0 -65,-29 -65,-65 0,-36 29,-65 65,-65 35,0 64,29 64,65 0,36 -29,65 -64,65zm0 -149l-1 0c-46,0 -84,38 -84,85 0,19 5,35 14,49 9,12 71,93 71,93 0,0 62,-81 70,-93 9,-14 14,-30 14,-49 0,-47 -37,-85 -84,-85z"/>
   <path class="fil0" d="M2372 543c-1,-3 -1,-7 -2,-12 0,0 1,0 1,0l4 -5c1,-1 1,-3 0,-4l0 0c-1,-1 -3,-1 -4,0l-2 2c0,-3 -1,-7 -1,-10 0,0 0,-1 0,-1l5 -4c1,-1 1,-3 0,-4 -1,-2 -3,-2 -5,0l-2 2c0,-5 -1,-9 -2,-12 0,0 28,-28 22,-34l0 0c-6,-6 -33,22 -33,22 -3,-1 -8,-1 -12,-2l2 -2c1,-1 1,-3 0,-4 -1,-2 -3,-2 -4,0l-5 4c0,0 0,0 0,1 -4,-1 -7,-1 -10,-2l2 -2c1,-1 1,-3 0,-4l0 0c-2,-1 -4,-1 -5,0l-4 5c0,0 0,0 -1,0 -5,0 -9,-1 -11,-1 -2,-1 -4,0 -5,1 -4,4 1,6 1,6l34 18c-4,4 -21,25 -21,25l-14 -2c-1,0 -2,1 -2,1l-1 3c0,0 0,1 1,2l12 7 1 1 7 12c0,1 1,1 2,1l2 -1c1,-1 1,-1 1,-2l-2 -14c0,0 22,-17 25,-22l18 35c0,0 2,4 6,0 1,-1 2,-2 2,-4z"/>
   <path class="fil0" d="M1779 1279c-36,0 -65,-29 -65,-65 0,-36 29,-65 65,-65 35,0 64,29 64,65 0,36 -29,65 -64,65zm0 -149l-1 0c-46,0 -84,38 -84,85 0,19 5,36 14,49 9,13 71,93 71,93 0,0 62,-80 70,-93 9,-13 14,-30 14,-49 0,-47 -37,-85 -84,-85z"/>
   <path class="fil0" d="M1763 1239c0,-5 -4,-9 -8,-9 -5,0 -9,4 -9,9 0,5 4,8 9,8 4,0 8,-3 8,-8z"/>
   <path class="fil0" d="M1815 1239c0,-5 -4,-9 -8,-9 -5,0 -9,4 -9,9 0,5 4,8 9,8 4,0 8,-3 8,-8z"/>
   <path class="fil0" d="M1736 1192c0,-1 1,-2 3,-2l45 0c1,0 2,1 2,2 0,1 -1,2 -2,2l-45 0c-2,0 -3,-1 -3,-2zm0 11c0,-2 1,-3 3,-3l45 0c1,0 2,1 2,3 0,1 -1,2 -2,2l-45 0c-2,0 -3,-1 -3,-2zm0 10c0,-1 1,-2 3,-2l45 0c1,0 2,1 2,2 0,2 -1,3 -2,3l-45 0c-2,0 -3,-1 -3,-3zm66 -7l14 0c3,0 5,2 5,5l0 8 -19 0 0 -13zm-73 -23l0 56 13 0c0,-7 6,-13 13,-13 7,0 12,6 13,13l25 0c0,-7 6,-13 13,-13 7,0 12,6 13,13l12 0c2,0 4,-2 4,-5 0,-2 -2,-4 -4,-4l-2 0 0 -19c0,-9 -7,-16 -16,-16l-18 0 0 -12 -66 0z"/>
   <path class="fil0" d="M2291 1857c-36,0 -65,-29 -65,-64 0,-36 29,-65 65,-65 35,0 64,29 64,65 0,35 -29,64 -64,64zm0 -148l-1 0c-46,0 -84,38 -84,85 0,19 5,35 15,49 8,12 70,93 70,93 0,0 62,-81 70,-93 9,-14 15,-30 15,-49 0,-47 -38,-85 -85,-85z"/>
   <path class="fil0" d="M2275 1817c0,-4 -3,-8 -8,-8 -5,0 -8,4 -8,8 0,5 3,9 8,9 5,0 8,-4 8,-9z"/>
   <path class="fil0" d="M2327 1817c0,-4 -3,-8 -8,-8 -5,0 -8,4 -8,8 0,5 3,9 8,9 5,0 8,-4 8,-9z"/>
   <path class="fil0" d="M2248 1771c0,-2 2,-3 3,-3l45 0c1,0 2,1 2,3 0,1 -1,2 -2,2l-45 0c-1,0 -3,-1 -3,-2zm0 10c0,-1 2,-2 3,-2l45 0c1,0 2,1 2,2 0,1 -1,3 -2,3l-45 0c-1,0 -3,-2 -3,-3zm0 11c0,-2 2,-3 3,-3l45 0c1,0 2,1 2,3 0,1 -1,2 -2,2l-45 0c-1,0 -3,-1 -3,-2zm67 -8l13 0c3,0 5,3 5,6l0 7 -18 0 0 -13zm-73 -23l0 56 12 0c0,-7 6,-13 13,-13 7,0 13,6 13,13l25 0c0,-7 6,-13 13,-13 7,0 13,6 13,13l12 0c3,0 5,-2 5,-4 0,-3 -2,-4 -5,-4l-2 0 0 -20c0,-9 -7,-16 -16,-16l-17 0 0 -12 -66 0z"/>
   <path class="fil0" d="M2477 2274l-810 0c-39,0 -71,-32 -71,-71l0 -1911c0,-40 32,-72 71,-72l844 0c40,0 72,32 72,72l0 1677 -5 0 0 -1677c0,-37 -30,-67 -67,-67l-844 0c-36,0 -66,30 -66,67l0 1911c0,37 30,67 66,67l810 0 0 4z"/>
   <path class="fil0" d="M1798 157c-26,0 -47,-21 -47,-47 0,-26 21,-47 47,-47 26,0 47,21 47,47 0,26 -21,47 -47,47zm1 -157l-2 0c-61,0 -110,50 -110,111 0,24 7,46 19,64 11,16 92,121 92,121 0,0 81,-105 92,-121 12,-18 19,-40 19,-64 0,-61 -49,-111 -110,-111z"/>
   <path class="fil0" d="M3677 1345c-6,5 3,14 8,9 11,-11 27,-11 38,0 5,5 14,-4 8,-9 -15,-15 -39,-15 -54,0z"/>
   <path class="fil0" d="M3659 1329c-6,6 3,14 8,9 21,-20 53,-20 74,0 5,5 14,-3 8,-9 -25,-24 -65,-24 -90,0z"/>
   <path class="fil0" d="M3641 1313c-5,6 3,14 8,9 31,-30 79,-30 109,0 6,5 14,-3 9,-9 -35,-34 -91,-34 -126,0z"/>
   <path class="fil0" d="M3716 1373c0,6 -5,12 -12,12 -7,0 -12,-6 -12,-12 0,-7 5,-12 12,-12 7,0 12,5 12,12z"/>
   <path class="fil0" d="M3707 1872c-8,7 4,18 11,11 14,-13 35,-13 49,0 8,7 19,-4 11,-11 -20,-20 -51,-20 -71,0z"/>
   <path class="fil0" d="M3683 1851c-7,7 4,18 11,11 27,-26 70,-26 97,0 7,7 18,-4 11,-11 -33,-32 -86,-32 -119,0z"/>
   <path class="fil0" d="M3660 1830c-7,7 4,18 11,11 40,-39 104,-39 143,0 7,7 19,-4 11,-11 -45,-45 -119,-45 -165,0z"/>
   <path class="fil0" d="M3759 1908c0,9 -8,16 -16,16 -9,0 -16,-7 -16,-16 0,-9 7,-16 16,-16 8,0 16,7 16,16z"/>
   <path class="fil0" d="M3783 2027c3,0 5,-2 5,-4l0 -23c0,-2 -1,-3 -2,-4l-9 -7c-2,-1 -3,-1 -4,-1l-38 0c-3,0 -6,2 -6,6l-2 28c-1,3 2,5 4,5l52 0zm-64 -47c1,-4 4,-8 8,-8l44 0c2,0 4,1 5,2l13 10c2,1 3,1 5,1l135 0c4,0 7,2 8,6l24 65c2,5 -2,10 -7,10l-232 0c-5,0 -9,-4 -8,-8l5 -78z"/>
   <path class="fil0" d="M3865 2306l0 1c52,0 94,42 94,94l22 0c2,0 3,0 5,-1 9,-2 15,-9 16,-17 0,-2 0,-4 -2,-5 -1,-1 -3,-3 -4,-4 -2,-1 -2,-3 -2,-4l0 -34c0,-2 0,-3 2,-5l4 -4c2,-2 2,-3 2,-5 -1,-4 -2,-7 -4,-10l-5 -6 0 0 -128 0z"/>
   <path class="fil0" d="M3818 2200c1,1 2,2 4,2l30 0c3,0 5,-2 5,-5 0,-2 0,-3 -1,-4 -1,-1 -2,-1 -4,-1l-30 0c-3,0 -5,2 -5,5 0,1 0,2 1,3zm-62 -48l25 0c6,0 12,-5 12,-12l0 -47c0,-7 -6,-13 -12,-13l-25 0c-7,0 -12,6 -12,13l0 47c0,7 5,12 12,12zm-4 177l2 0c3,0 5,-3 5,-5l0 -2c0,-3 -2,-5 -5,-5l-34 0 0 -251 234 0c0,0 44,107 44,182l0 45c0,1 -2,3 -3,3l-260 0c-3,0 -5,2 -5,5 0,1 0,3 1,4 1,1 3,1 4,1l130 0 0 1c52,0 94,42 94,94l-72 0c0,-3 0,-6 0,-9 0,-31 -24,-56 -55,-56 -31,0 -55,25 -55,56 0,3 0,6 0,9l-25 0 0 -72zm155 -173l7 7c3,3 6,4 9,4l25 0 19 0c2,0 3,-2 2,-4 -8,-32 -18,-61 -23,-75 -2,-5 -7,-8 -12,-8l-106 0c-7,0 -13,6 -13,13l0 47c0,7 6,12 13,12l70 0c4,0 7,2 9,4z"/>
   <path class="fil0" d="M3262 2329c-2,0 -4,2 -4,3l0 65c0,2 2,4 4,4 3,0 4,-2 4,-5 0,-1 0,-3 0,-4 0,-32 25,-57 56,-57l0 -6 -60 0c0,0 0,0 0,0z"/>
   <path class="fil0" d="M3413 2366l221 0c2,0 3,-1 3,-3l0 -11c0,-2 -1,-3 -3,-3l-221 0c-2,0 -3,1 -3,3l0 11c0,2 1,3 3,3zm250 -37l0 72 -285 0c0,-3 0,-6 0,-9 0,-32 -25,-57 -56,-57l0 -6 341 0z"/>
   <polygon class="fil0" points="3223,2378 3206,2360 3206,2353 3211,2353 3223,2365 "/>
   <polygon class="fil0" points="3206,2371 3223,2388 3223,2393 3215,2393 3206,2384 "/>
   <path class="fil0" d="M3822 2202l30 0c3,0 5,-2 5,-5 0,-2 0,-3 -1,-4 -1,-1 -2,-1 -4,-1l-30 0c-3,0 -5,2 -5,5 0,1 0,2 1,3 1,1 2,2 4,2z"/>
   <path class="fil0" d="M3820 2393c0,-2 -1,-4 -3,-4 -2,0 -4,2 -4,4 0,2 2,3 4,3 2,0 3,-1 3,-3z"/>
   <path class="fil0" d="M3817 2382c0,1 1,2 1,3 1,0 2,1 3,1 1,0 2,-1 2,-1 2,-2 2,-4 0,-5 -1,-2 -3,-2 -5,0 0,0 -1,1 -1,2 0,0 0,0 0,0z"/>
   <path class="fil0" d="M3832 2386c-2,0 -4,0 -5,2 -1,1 -2,2 -2,4 0,2 1,3 2,4 1,1 3,2 5,2 3,0 6,-3 6,-6 0,-4 -3,-6 -6,-6z"/>
   <path class="fil0" d="M3848 2389c-1,0 -1,0 -2,0 -1,0 -3,1 -3,2 0,0 0,1 0,1 0,1 0,1 0,2 0,1 2,2 3,2 1,0 1,0 2,0 1,-1 2,-2 2,-4 0,-1 -1,-2 -2,-3z"/>
   <path class="fil0" d="M3832 2417c-14,0 -25,-11 -25,-25 0,-14 11,-25 25,-25 13,0 25,11 25,25 0,14 -12,25 -25,25zm0 -74c-27,0 -49,21 -49,49 0,27 22,49 49,49 27,0 49,-22 49,-49 0,-28 -22,-49 -49,-49z"/>
   <path class="fil0" d="M3843 2400c-1,-1 -2,-1 -4,0 -1,2 -1,4 0,5 2,2 3,2 4,1 1,0 1,0 1,-1 2,-1 2,-3 0,-5 0,0 0,0 -1,0z"/>
   <path class="fil0" d="M3844 2385c2,-2 2,-4 0,-6 0,0 0,0 -1,0 -1,-1 -2,-1 -3,0 0,0 0,0 -1,0 0,1 -1,2 -1,3 0,1 1,2 1,3 2,1 4,1 5,0z"/>
   <path class="fil0" d="M3831 2381c2,0 4,-1 4,-3 0,-2 -2,-4 -4,-4 -2,0 -3,2 -3,4 0,2 1,3 3,3z"/>
   <path class="fil0" d="M3833 2404c0,0 -1,0 -1,0 -2,0 -3,1 -4,2 0,0 0,1 0,1 0,1 0,1 0,2 1,1 2,2 4,2 0,0 1,0 1,0 1,-1 2,-2 2,-4 0,-1 -1,-2 -2,-3z"/>
   <path class="fil0" d="M3824 2402c0,-1 0,-1 0,-1l0 0c-1,-1 -1,-1 -2,-1 0,0 -1,0 -2,0 -1,0 -1,0 -1,1 -1,0 -1,1 -1,2 0,1 0,1 0,2 0,0 0,0 1,1 1,1 2,1 3,0 1,0 1,0 2,0 0,-1 1,-2 1,-3 0,0 0,-1 -1,-1z"/>
   <path class="fil0" d="M3307 2382c0,1 1,2 1,3 1,0 2,1 3,1 1,0 2,-1 2,-1 2,-2 2,-4 0,-5 -1,-2 -3,-2 -5,0 -1,0 -1,1 -1,2 0,0 0,0 0,0z"/>
   <path class="fil0" d="M3310 2393c0,-2 -2,-4 -4,-4 -1,0 -3,2 -3,4 0,2 2,3 3,3 2,0 4,-1 4,-3z"/>
   <path class="fil0" d="M3321 2386c-1,0 -3,0 -4,2 -1,1 -2,2 -2,4 0,2 1,3 2,4 1,1 3,2 4,2 4,0 7,-3 7,-6 0,-4 -3,-6 -7,-6z"/>
   <path class="fil0" d="M3321 2417c-13,0 -25,-11 -25,-25 0,-14 12,-25 25,-25 14,0 25,11 25,25 0,14 -11,25 -25,25zm1 -74c-27,0 -49,21 -49,49 0,27 22,49 49,49 27,0 49,-22 49,-49 0,-28 -22,-49 -49,-49z"/>
   <path class="fil0" d="M3337 2389c0,0 -1,0 -1,0 -2,0 -3,1 -3,2 0,0 -1,1 -1,1 0,1 1,1 1,2 0,1 1,2 3,2 0,0 1,0 1,0 2,-1 2,-2 2,-4 0,-1 0,-2 -2,-3z"/>
   <path class="fil0" d="M3333 2400c-1,-1 -3,-1 -4,0 -1,2 -1,4 0,5 1,2 3,2 4,1 1,0 1,0 1,-1 2,-1 2,-3 0,-5 0,0 0,0 -1,0z"/>
   <path class="fil0" d="M3334 2385c1,-2 1,-4 0,-6 0,0 -1,0 -1,0 -1,-1 -2,-1 -3,0 0,0 -1,0 -1,0 -1,1 -1,2 -1,3 0,1 0,2 1,3 1,1 4,1 5,0z"/>
   <path class="fil0" d="M3321 2381c2,0 4,-1 4,-3 0,-2 -2,-4 -4,-4 -2,0 -3,2 -3,4 0,2 1,3 3,3z"/>
   <path class="fil0" d="M3323 2404c-1,0 -1,0 -2,0 -1,0 -2,1 -3,2 0,0 0,1 0,1 0,1 0,1 0,2 1,1 2,2 3,2 1,0 1,0 2,0 1,-1 2,-2 2,-4 0,-1 -1,-2 -2,-3z"/>
   <path class="fil0" d="M3314 2402c0,-1 0,-1 -1,-1l0 0c0,-1 0,-1 -1,-1 -1,0 -2,0 -2,0 -1,0 -1,0 -2,1 0,0 -1,1 -1,2 0,1 0,1 1,2 0,0 0,0 0,1 1,1 3,1 4,0 1,0 1,0 1,0 1,-1 1,-2 1,-3 0,0 0,-1 0,-1z"/>
   <path class="fil0" d="M2939 2417c-14,0 -25,-11 -25,-25 0,-14 11,-25 25,-25 13,0 25,11 25,25 0,14 -12,25 -25,25zm-105 0c-13,0 -25,-11 -25,-25 0,-14 12,-25 25,-25 14,0 25,11 25,25 0,14 -11,25 -25,25zm-104 0c-14,0 -25,-11 -25,-25 0,-14 11,-25 25,-25 14,0 25,11 25,25 0,14 -11,25 -25,25zm160 -25c0,27 22,49 49,49 27,0 49,-22 49,-49 0,-16 -8,-30 -19,-39l8 0 0 -5 -16 0c-6,-3 -14,-5 -22,-5 -8,0 -16,2 -22,5l-60 0c-7,-3 -14,-5 -22,-5 -8,0 -16,2 -23,5l-59 0c-7,-3 -14,-5 -23,-5 -8,0 -15,2 -22,5l-17 0 0 5 10 0c-12,9 -19,23 -19,39 0,27 22,49 48,49 27,0 49,-22 49,-49 0,-16 -7,-30 -19,-39l45 0c-12,9 -19,23 -19,39 0,27 22,49 49,49 27,0 49,-22 49,-49 0,-16 -8,-30 -19,-39l44 0c-11,9 -19,23 -19,39z"/>
   <path class="fil0" d="M2946 2385c1,0 2,1 3,1 1,0 2,-1 2,-1 1,-1 1,-2 1,-3 0,-1 0,-2 -1,-3 0,0 0,0 -1,0 0,0 -1,-1 -1,-1 -1,0 -1,1 -2,1 0,0 -1,0 -1,0 0,1 0,1 0,1 -1,2 -1,3 0,5z"/>
   <path class="fil0" d="M2939 2386c-2,0 -4,0 -5,2 -1,1 -2,2 -2,4 0,2 1,3 2,4 1,1 3,2 5,2 1,0 3,-1 4,-2 1,-1 2,-2 2,-4 0,-2 -1,-3 -2,-4 -1,-2 -3,-2 -4,-2z"/>
   <path class="fil0" d="M2955 2389c-1,0 -1,0 -2,0l0 0c0,0 -1,0 -1,0 -1,0 -1,1 -1,1 -1,1 -1,1 -1,2 0,1 0,2 1,3 0,0 0,1 1,1 0,0 1,0 1,0l0 0c1,0 1,0 2,0 1,-1 2,-2 2,-4 0,-1 -1,-2 -2,-3z"/>
   <path class="fil0" d="M2949 2399c0,0 -1,0 -1,1 -1,0 -1,0 -1,0 -1,1 -1,1 -1,2 -1,0 -1,1 0,2 0,1 0,1 1,1 0,1 0,1 1,1 0,0 1,1 1,1 1,0 2,-1 3,-2 1,-1 1,-3 0,-5 -1,0 -2,-1 -3,-1z"/>
   <path class="fil0" d="M2938 2381l0 0c0,0 1,0 1,0 1,0 3,-1 3,-3 0,-1 -1,-2 -1,-3 -1,0 -2,-1 -3,-1l0 0c-1,0 -2,1 -3,2 0,1 0,1 0,2 0,2 1,3 3,3z"/>
   <path class="fil0" d="M2939 2404c-2,0 -4,1 -4,3 0,2 2,4 4,4 2,0 3,-2 3,-4 0,-2 -1,-3 -3,-3z"/>
   <path class="fil0" d="M2931 2401c-1,-1 -2,-1 -3,-1 0,0 -1,0 -1,0 -1,0 -1,0 -1,1 -1,0 -1,1 -1,2 0,1 0,1 0,2 0,0 0,0 1,1 0,0 0,0 1,0 0,1 1,1 1,1 1,0 2,-1 3,-1 0,-1 0,-1 0,-1 1,-1 1,-1 1,-2 0,-1 -1,-2 -1,-2z"/>
   <path class="fil0" d="M2925 2385c1,0 1,0 2,1 0,0 1,0 1,0 0,0 1,0 1,0 1,-1 1,-1 1,-1 1,-1 1,-1 1,-1 0,-1 1,-1 1,-2 0,-1 -1,-2 -2,-2 0,-1 -1,-1 -2,-1 0,0 0,0 0,0 -1,0 -2,0 -3,1 0,0 0,0 0,1 -1,1 -1,2 0,3 0,0 0,0 0,1z"/>
   <path class="fil0" d="M2925 2396c1,-1 2,-2 2,-3 0,-2 -1,-3 -2,-4 0,0 -1,0 -1,0l0 0c-2,0 -3,1 -3,2 -1,1 -1,1 -1,2 0,0 0,1 1,1 0,1 1,2 3,2l0 0c0,0 1,0 1,0z"/>
   <path class="fil0" d="M2820 2384c1,0 1,0 1,1 1,0 1,0 1,1 1,0 1,0 2,0 0,0 1,0 1,0 0,-1 1,-1 1,-1 1,-1 1,-1 1,-1 0,-1 0,-1 0,-2 0,-1 0,-2 -1,-2 0,-1 -1,-1 -2,-1 0,0 0,0 -1,0 0,0 -1,0 -2,1 0,0 -1,1 -1,2 0,1 0,1 0,2z"/>
   <path class="fil0" d="M2834 2386c-1,0 -3,0 -4,2 -1,1 -2,2 -2,4 0,2 1,3 2,4 1,1 3,2 4,2 2,0 4,-1 5,-2 1,-1 2,-2 2,-4 0,-2 -1,-3 -2,-4 -1,-2 -3,-2 -5,-2z"/>
   <path class="fil0" d="M2850 2389c0,0 -1,0 -1,0l0 0c-2,0 -3,1 -3,2 0,0 -1,1 -1,1 0,1 1,1 1,2 0,1 1,2 3,2l0 0c0,0 1,0 1,0 2,-1 2,-2 2,-4 0,-1 0,-2 -2,-3z"/>
   <path class="fil0" d="M2843 2400c0,0 0,0 -1,0 0,1 0,1 -1,2 0,0 0,1 0,2 1,1 1,1 1,1 1,1 1,1 1,1 2,1 3,1 4,-1 2,-1 2,-3 0,-5 -1,-1 -2,-1 -4,0z"/>
   <path class="fil0" d="M2845 2386c0,0 1,-1 2,-1 1,-1 1,-2 1,-3 0,-1 0,-2 -1,-3 0,0 0,0 -1,0 0,0 -1,-1 -1,-1 -1,0 -1,1 -2,1 0,0 -1,0 -1,0 -1,1 -1,2 -1,3 0,1 0,2 1,3 1,0 2,1 3,1z"/>
   <path class="fil0" d="M2834 2381l0 0c0,0 0,0 0,0 2,0 4,-1 4,-3 0,-1 -1,-2 -1,-3 -1,0 -2,-1 -3,-1l0 0c-1,0 -3,1 -3,2 0,1 0,1 0,2 0,2 1,3 3,3z"/>
   <path class="fil0" d="M2834 2404c-2,0 -3,1 -3,3 0,2 1,4 3,4 2,0 4,-2 4,-4 0,-2 -2,-3 -4,-3z"/>
   <path class="fil0" d="M2826 2401c0,-1 0,-1 -1,-1 -1,0 -2,0 -2,0 -1,0 -1,0 -2,1 -1,1 -1,3 0,5 1,0 1,0 2,0 1,1 2,1 3,0 1,-1 1,-1 1,-1 0,-1 0,-1 0,-2 0,-1 0,-2 -1,-2z"/>
   <path class="fil0" d="M2823 2393c0,-2 -2,-4 -4,-4 0,0 0,0 -1,0 -1,1 -2,2 -2,4 0,1 1,2 2,3 1,0 1,0 1,0 2,0 4,-1 4,-3z"/>
   <path class="fil0" d="M2730 2386c-2,0 -3,0 -4,2 -1,1 -2,2 -2,4 0,2 1,3 2,4 1,1 2,2 4,2 2,0 3,-1 5,-2 1,-1 1,-2 1,-4 0,-2 0,-3 -1,-4 -2,-2 -3,-2 -5,-2z"/>
   <path class="fil0" d="M2716 2384c0,0 1,0 1,1 1,0 2,1 2,1 1,0 2,-1 3,-1 0,-1 1,-1 1,-1 0,-1 0,-1 0,-2 0,-1 0,-2 -1,-2 -1,-2 -4,-2 -5,0 -1,0 -1,1 -1,2 0,1 0,1 0,2z"/>
   <path class="fil0" d="M2745 2389l0 0c-2,0 -3,1 -4,2 0,0 0,1 0,1 0,1 0,1 0,2 1,1 2,2 4,2l0 0c1,0 2,0 2,-1 1,-1 1,-2 1,-3 0,-1 0,-1 -1,-2 0,-1 -1,-1 -2,-1z"/>
   <path class="fil0" d="M2740 2399c0,0 -1,1 -2,1 -1,2 -1,4 0,5 1,1 2,2 2,2 1,0 2,-1 3,-2 1,-1 1,-3 0,-5 -1,0 -2,-1 -3,-1z"/>
   <path class="fil0" d="M2740 2386c1,0 1,-1 2,-1 0,0 0,0 1,0 0,-1 0,-1 1,-2 0,0 0,-1 0,-1 0,-1 -1,-2 -1,-3 -1,0 -1,0 -1,0 -1,0 -1,-1 -2,-1 -1,0 -2,1 -2,1 -1,1 -1,2 -1,3 0,1 0,2 1,3 0,0 1,1 2,1z"/>
   <path class="fil0" d="M2730 2381c2,0 3,-1 3,-3 0,-2 -1,-4 -3,-4 -2,0 -4,2 -4,4 0,2 2,3 4,3z"/>
   <path class="fil0" d="M2730 2404c-2,0 -3,1 -3,3 0,2 1,4 3,4 2,0 4,-2 4,-4 0,-2 -2,-3 -4,-3z"/>
   <path class="fil0" d="M2722 2401c0,-1 -1,-1 -1,-1 0,0 -1,0 -1,0 -1,0 -2,0 -2,0 0,0 -1,0 -1,1 -1,1 -1,3 0,5 1,0 2,1 3,1 1,0 1,-1 2,-1 1,-1 1,-1 1,-1 0,-1 0,-1 0,-2 0,-1 0,-2 -1,-2z"/>
   <path class="fil0" d="M2719 2393c0,-1 -1,-2 -1,-3 -1,0 -2,-1 -3,-1 -2,0 -3,2 -3,4 0,2 1,3 3,3 1,0 2,0 3,-1 0,0 1,-1 1,-2z"/>
   <path class="fil0" d="M3725 2383c5,0 9,-4 9,-9 0,-5 -4,-9 -9,-9 -4,0 -8,4 -8,9 0,5 4,9 8,9z"/>
   <path class="fil0" d="M3691 2383c5,0 9,-4 9,-9 0,-5 -4,-9 -9,-9 -5,0 -9,4 -9,9 0,5 4,9 9,9z"/>
   <path class="fil0" d="M3625 2311l-13 0c-3,0 -6,3 -6,6l0 0c0,3 3,6 6,6l13 0c3,0 6,-3 6,-6l0 0c0,-3 -3,-6 -6,-6z"/>
   <path class="fil0" d="M3403 2311l-13 0c-3,0 -6,3 -6,6l0 0c0,3 3,6 6,6l13 0c3,0 6,-3 6,-6l0 0c0,-3 -3,-6 -6,-6z"/>
   <path class="fil0" d="M3181 2311l-13 0c-3,0 -6,3 -6,6l0 0c0,3 3,6 6,6l13 0c3,0 6,-3 6,-6l0 0c0,-3 -3,-6 -6,-6z"/>
   <path class="fil0" d="M2959 2311l-13 0c-3,0 -6,3 -6,6l0 0c0,3 3,6 6,6l13 0c4,0 6,-3 6,-6l0 0c0,-3 -2,-6 -6,-6z"/>
   <path class="fil0" d="M2738 2311l-14 0c-3,0 -5,3 -5,6l0 0c0,3 2,6 5,6l14 0c3,0 5,-3 5,-6l0 0c0,-3 -2,-6 -5,-6z"/>
   <path class="fil0" d="M2516 2311l-14 0c-3,0 -5,3 -5,6l0 0c0,3 2,6 5,6l14 0c3,0 5,-3 5,-6l0 0c0,-3 -2,-6 -5,-6z"/>
   <path class="fil0" d="M3731 1994c0,-2 2,-4 4,-4l38 0c1,0 1,0 2,1l9 7c1,0 1,1 1,2l0 23c0,1 -1,2 -2,2l-52 0c0,0 -1,0 -1,-1 -1,0 -1,-1 -1,-1l2 -29zm0 36l52 0c4,0 7,-3 7,-7l0 -23c0,-2 -1,-4 -3,-6l-9 -7c-1,-1 -3,-2 -5,-2l-38 0c-4,0 -8,4 -9,9l-2 28c0,2 1,4 2,6 1,1 3,2 5,2z"/>
   <path class="fil0" d="M3791 2140c0,5 -5,10 -10,10l-25 0c-5,0 -10,-5 -10,-10l0 -47c0,-6 5,-10 10,-10l25 0c5,0 10,4 10,10l0 47zm-10 -62l-25 0c-8,0 -15,7 -15,15l0 47c0,8 7,15 15,15l25 0c8,0 14,-7 14,-15l0 -47c0,-8 -6,-15 -14,-15z"/>
   <path class="fil0" d="M3412 2352c0,0 0,-1 1,-1l221 0c0,0 1,1 1,1l0 11c0,1 -1,1 -1,1l-34 0c-2,-3 -5,-5 -8,-5l-26 0c-3,0 -6,2 -7,5l-146 0c-1,0 -1,0 -1,-1l0 -11zm1 17l145 0 0 0c0,5 4,9 8,9l26 0c5,0 9,-4 9,-9l0 0 33 0c3,0 6,-3 6,-6l0 -11c0,-3 -3,-5 -6,-5l-221 0c-3,0 -6,2 -6,5l0 11c0,3 3,6 6,6z"/>
   <path class="fil0" d="M2479 2375l0 -44 7 0 0 44 -7 0zm-2 -400c0,-1 1,-2 2,-2l18 0c1,0 1,0 1,0 1,0 1,1 1,2l0 18c0,1 0,2 -2,2l-18 0c0,0 0,0 -1,0l0 0c0,-1 -1,-1 -1,-2l0 -18zm1146 -2l18 0c1,0 2,1 2,2l0 18c0,1 0,1 -1,2 0,0 0,0 -1,0l-18 0c-1,0 -2,-1 -2,-2l0 -18c0,-1 0,-2 1,-2 0,0 1,0 1,0zm-1146 307c0,0 1,-1 1,-1 0,-1 1,-1 1,-1l18 0c2,0 2,1 2,2l0 19c0,1 0,2 -2,2l-18 0c-1,0 -2,-1 -2,-2l0 -19zm15 -6l-13 0 0 -274 13 0 0 274zm9 1c-1,-1 -2,-1 -4,-1l-1 0 0 -274 1 0c2,0 3,-1 4,-1l0 276zm1115 -300l0 12 -1112 0 0 -12c0,-1 0,-2 0,-2l1113 0c-1,0 -1,1 -1,2zm27 324c0,1 -1,2 -2,2l-18 0 0 -1 -1 0c-1,0 -1,-1 -1,-1l0 -19c0,-1 1,-2 2,-2l18 0c1,0 1,1 2,1 0,0 0,1 0,1l0 19zm-1139 0l0 -11 1112 0 0 11c0,0 0,1 0,1l-1112 0c0,0 0,-1 0,-1zm15 -16l-10 0 0 -291 10 0 0 291zm12 0l-8 0 0 -291 8 0 0 291zm18 0l-10 0 0 -291 10 0 0 291zm13 0l-8 0 0 -291 8 0 0 291zm17 0l-9 0 0 -291 9 0 0 291zm13 0l-8 0 0 -291 8 0 0 291zm18 0l-10 0 0 -291 10 0 0 291zm12 0l-8 0 0 -291 8 0 0 291zm18 0l-10 0 0 -291 10 0 0 291zm13 0l-8 0 0 -291 8 0 0 291zm17 0l-9 0 0 -291 9 0 0 291zm13 0l-8 0 0 -291 8 0 0 291zm18 0l-10 0 0 -291 10 0 0 291zm12 0l-8 0 0 -291 8 0 0 291zm18 0l-9 0 0 -291 9 0 0 291zm13 0l-8 0 0 -291 8 0 0 291zm17 0l-9 0 0 -291 9 0 0 291zm13 0l-8 0 0 -291 8 0 0 291zm18 0l-10 0 0 -291 10 0 0 291zm13 0l-9 0 0 -291 9 0 0 291zm17 0l-9 0 0 -291 9 0 0 291zm13 0l-8 0 0 -291 8 0 0 291zm17 0l-9 0 0 -291 9 0 0 291zm13 0l-8 0 0 -291 8 0 0 291zm18 0l-10 0 0 -291 10 0 0 291zm13 0l-9 0 0 -291 9 0 0 291zm17 0l-9 0 0 -291 9 0 0 291zm13 0l-8 0 0 -291 8 0 0 291zm17 0l-9 0 0 -291 9 0 0 291zm13 0l-8 0 0 -291 8 0 0 291zm18 0l-10 0 0 -291 10 0 0 291zm13 0l-9 0 0 -291 9 0 0 291zm17 0l-9 0 0 -291 9 0 0 291zm13 0l-8 0 0 -291 8 0 0 291zm17 0l-9 0 0 -291 9 0 0 291zm13 0l-8 0 0 -291 8 0 0 291zm18 0l-10 0 0 -291 10 0 0 291zm13 0l-8 0 0 -291 8 0 0 291zm17 0l-9 0 0 -291 9 0 0 291zm13 0l-8 0 0 -291 8 0 0 291zm17 0l-9 0 0 -291 9 0 0 291zm13 0l-8 0 0 -291 8 0 0 291zm18 0l-10 0 0 -291 10 0 0 291zm13 0l-8 0 0 -291 8 0 0 291zm17 0l-9 0 0 -291 9 0 0 291zm13 0l-8 0 0 -291 8 0 0 291zm17 0l-9 0 0 -291 9 0 0 291zm13 0l-8 0 0 -291 8 0 0 291zm18 0l-10 0 0 -291 10 0 0 291zm13 0l-8 0 0 -291 8 0 0 291zm17 0l-9 0 0 -291 9 0 0 291zm13 0l-8 0 0 -291 8 0 0 291zm17 0l-9 0 0 -291 9 0 0 291zm13 0l-8 0 0 -291 8 0 0 291zm18 0l-10 0 0 -291 10 0 0 291zm13 0l-8 0 0 -291 8 0 0 291zm17 0l-9 0 0 -291 9 0 0 291zm13 0l-8 0 0 -291 8 0 0 291zm18 0l-10 0 0 -291 10 0 0 291zm12 0l-8 0 0 -291 8 0 0 291zm18 0l-10 0 0 -291 10 0 0 291zm13 0l-8 0 0 -291 8 0 0 291zm17 0l-9 0 0 -291 9 0 0 291zm13 0l-8 0 0 -291 8 0 0 291zm18 0l-10 0 0 -291 10 0 0 291zm12 0l-8 0 0 -291 8 0 0 291zm18 0l-10 0 0 -291 10 0 0 291zm13 0l-8 0 0 -291 8 0 0 291zm17 0l-9 0 0 -291 9 0 0 291zm13 0l-8 0 0 -291 8 0 0 291zm18 0l-10 0 0 -291 10 0 0 291zm14 0l-10 0 0 -291 10 0 0 291zm22 -288l0 283c-1,1 -1,1 -1,2l0 3 -13 0 0 -291 13 0 0 1c0,1 0,2 1,2zm25 279c0,0 0,0 -1,0l-11 0 0 -274 -3 0 0 0 14 0c1,0 1,0 1,0l0 274zm-380 52c0,0 0,0 0,0l-783 0 0 -19 1163 0 0 19 -380 0zm460 -346c0,-3 2,-5 5,-5l44 0c2,0 3,0 4,1l13 10c2,1 4,2 6,2l135 0c3,0 5,1 6,3l24 65c1,2 0,4 -1,6 -1,1 -2,2 -4,2l-232 0c-2,0 -3,-1 -4,-2 -1,-1 -2,-2 -2,-4l6 -78zm276 98c3,7 7,16 10,26l-11 0 0 -16c0,-4 -3,-6 -7,-6l-1 0c-3,0 -6,2 -6,6l0 38c0,4 3,7 6,7l1 0c4,0 7,-3 7,-7l0 -17 13 0c1,5 3,10 4,15 0,2 0,4 -2,6l-26 24c-11,-39 -23,-72 -28,-84l27 0c5,0 10,3 13,8zm-170 72c-6,0 -10,-5 -10,-10l0 -47c0,-6 4,-10 10,-10l106 0c4,0 8,2 10,6 5,15 15,43 23,75l0 1 -44 -1c-2,0 -5,-1 -7,-3l-7 -7c-3,-3 -7,-4 -11,-4l-70 0zm167 143c0,0 0,0 0,0l-127 0 0 -138 30 0c3,0 6,1 8,3l7 7c3,3 6,4 10,4l44 0c1,0 3,0 4,-2 1,-1 1,-3 1,-4 -8,-32 -18,-61 -24,-75 -2,-6 -8,-10 -14,-10l-106 0c-8,0 -15,7 -15,15l0 47c0,8 7,15 15,15l36 0 0 138 -129 0c-4,0 -8,4 -8,8 0,2 1,4 3,5 1,2 3,3 5,3l130 0 0 0c50,0 90,40 91,89l-67 0c1,-2 1,-4 1,-6 0,-32 -26,-59 -58,-59 -32,0 -58,27 -58,59 0,2 0,4 1,6l-21 0 0 -67c4,0 7,-3 7,-7l0 -2c0,-4 -3,-7 -7,-7l-32 0 0 -246 231 0c5,13 42,110 42,179l0 45zm-7 10l0 1 -253 0c-1,0 -2,-1 -2,-1 -1,-1 -1,-1 -1,-2 0,-2 1,-3 3,-3l252 0c-1,2 -1,4 1,5zm12 20c0,0 -1,1 -1,2l-5 5c-2,1 -3,3 -3,6l0 34c0,2 1,4 3,6l5 4c0,1 1,1 1,2 -1,8 -7,14 -15,16 -1,0 -2,0 -4,0l-20 0c-1,-42 -29,-78 -68,-89l99 0 4 4c2,3 3,6 4,10zm-251 8l0 67 -83 0 0 -67 83 0zm-427 2c-32,0 -58,26 -58,59 0,1 0,3 0,5 0,0 0,0 -1,1 0,0 0,0 -1,0 0,0 -1,0 -1,-1l0 -65c0,0 0,-1 1,-1l9 0 0 0 390 0 0 67 -281 0c1,-2 1,-4 1,-6 0,-33 -27,-59 -59,-59zm-88 75l0 5c0,1 0,1 0,1l-39 0c0,0 -1,0 -1,-1l0 -5c0,-1 1,-1 1,-1l39 0c0,0 0,0 0,1zm-26 -52c0,-1 0,-1 1,-1l11 0c0,0 1,0 1,1l0 35 -13 0 0 -35zm-531 -3l0 -5 -166 0 -20 19 0 -36 736 0 0 34c0,0 -1,1 -1,1l-1 0 0 -10c0,-3 -2,-6 -5,-6l-11 0c-3,0 -6,3 -6,6l0 10 -1 0c-1,0 -1,-1 -1,-1l0 -17 -211 0 0 5 206 0 0 12c0,3 3,5 6,5l1 0 0 22 -3 3c0,1 -1,2 -1,4l0 5 -4 0c-2,0 -4,1 -4,4l0 5c0,3 2,4 4,4l39 0c2,0 4,-1 4,-4l0 -5c0,-3 -2,-4 -4,-4l-4 0 0 -5c0,-2 -1,-3 -1,-4l-4 -3 0 -22 1 0c3,0 6,-2 6,-5l0 -34 24 0c0,0 0,1 0,1l0 65c0,3 3,6 6,6 2,0 4,-1 5,-2 1,-1 2,-3 2,-5 -1,-1 -1,-3 -1,-4 0,-30 25,-55 54,-55 30,0 54,25 54,55 0,2 0,5 -1,8l0 3 405 0 0 -3c-1,-3 -1,-6 -1,-8 0,-30 24,-54 53,-54 29,0 53,24 53,54 0,2 0,5 -1,8l0 3 97 0c2,0 4,0 5,0 10,-3 17,-10 18,-20 1,-2 0,-5 -2,-7l-5 -4c0,0 -1,-1 -1,-2l0 -6 4 0 0 3c0,1 0,1 1,1l6 7c0,0 1,1 1,1l3 0c1,0 2,-1 2,-2l0 -44c0,-1 -1,-1 -2,-1l-4 0c0,0 -1,0 -1,0l-5 6c-1,0 -1,0 -1,1l0 3 -4 0 0 -3c0,-1 0,-2 2,-3l4 -5c2,-1 3,-4 2,-6 0,-4 -2,-8 -5,-12l-8 -10c0,0 0,-1 0,-1 0,0 1,-1 1,-1l3 0c3,0 5,-2 5,-5l0 -45c0,-28 -6,-59 -13,-89l28 -26c3,-2 4,-6 4,-10 -4,-16 -11,-34 -17,-47 -3,-7 -10,-11 -17,-11l-24 0c1,0 1,0 1,-1 2,-3 3,-6 1,-9l-24 -65c-2,-4 -5,-7 -10,-7l-135 0c-1,0 -2,0 -3,-1l-13 -10c-2,-1 -4,-2 -7,-2l-44 0c-5,0 -10,4 -10,10l-6 78c0,2 1,5 3,7 1,1 2,2 3,3l0 236 -40 0c-4,0 -7,4 -7,7l0 15 -23 0 0 -24c1,-1 1,-2 1,-3l0 -19c0,-1 -1,-2 -1,-4l0 0 0 -279 0 0c0,-1 1,-2 1,-4l0 -18c0,-4 -3,-7 -7,-7l-18 0c0,0 -1,0 -1,0l0 0 -1135 0 0 0 -8 0c-4,0 -7,3 -7,7l0 18c0,2 1,4 2,5l0 278c-1,1 -2,2 -2,4l0 19c0,2 1,3 2,4l0 77 17 0 0 -7 21 -20 165 0z"/>
   <polygon class="fil0" points="2640,2448 3534,2448 3534,2444 2640,2444 "/>
   <polygon class="fil0" points="3633,2448 4066,2448 4066,2444 3633,2444 "/>
   <path class="fil0" d="M2702 2326l-11 7c-7,4 -12,9 -17,15 -9,11 -14,24 -15,38l0 1c0,4 4,8 9,8 4,0 8,-3 8,-8 1,-13 7,-25 17,-34 10,-9 22,-14 35,-14l210 0c14,0 26,5 36,14 10,9 16,21 17,34 0,5 4,8 8,8 2,0 5,-1 6,-2 2,-2 3,-4 3,-7 -1,-14 -6,-27 -15,-38 -5,-6 -11,-11 -18,-16l-13 -6c-1,-1 -1,-1 -2,-1l-256 1c0,0 -1,0 -2,0z"/>
  </g>
 </g>
</svg>
