<?xml version="1.0" encoding="UTF-8"?>
<!DOCTYPE svg PUBLIC "-//W3C//DTD SVG 1.1//EN" "http://www.w3.org/Graphics/SVG/1.1/DTD/svg11.dtd">
<!-- Creator: CorelDRAW X7 -->
<svg xmlns="http://www.w3.org/2000/svg" xml:space="preserve" width="1.75209in" height="1.65224in" version="1.1" style="shape-rendering:geometricPrecision; text-rendering:geometricPrecision; image-rendering:optimizeQuality; fill-rule:evenodd; clip-rule:evenodd"
viewBox="0 0 1752 1652"
 xmlns:xlink="http://www.w3.org/1999/xlink">
 <defs>
  <style type="text/css">
   <![CDATA[
    .fil4 {fill:none;fill-rule:nonzero}
    .fil5 {fill:#FEFEFE}
    .fil1 {fill:#9900CC;fill-rule:nonzero}
    .fil2 {fill:#BF00FF;fill-rule:nonzero}
    .fil0 {fill:#BF00FF;fill-rule:nonzero}
    .fil3 {fill:#670587;fill-rule:nonzero}
   ]]>
  </style>
    <clipPath id="id0" style="clip-rule:nonzero">
     <path d="M279 1370c0,0 -453,-369 -205,-1062 307,-674 566,-44 785,35 219,78 356,-10 491,-40 322,-66 384,291 398,438 15,146 2,645 -297,827 -298,182 -937,47 -1172,-198z"/>
    </clipPath>
 </defs>
 <g id="Layer_x0020_1">
  <metadata id="CorelCorpID_0Corel-Layer"/>
  <g id="_976092560">
   <g>
    <path class="fil0" d="M844 1293c0,0 -1,0 -1,0 -1,1 -2,1 -4,1 -2,0 -7,1 -11,1 -5,1 -11,1 -17,2 -1,0 -3,0 -5,0 -1,0 -3,0 -4,0 -4,0 -7,0 -10,0 -3,0 -6,0 -10,0 -1,0 -3,0 -4,0 -2,0 -4,0 -5,0 -6,-1 -12,-1 -17,-2 -4,0 -9,-1 -11,-1 -2,0 -3,0 -4,-1 0,0 -1,0 -1,0 0,0 1,0 1,0 1,0 2,0 4,-1 2,0 7,-1 11,-1 5,-1 11,-1 17,-1 1,0 3,0 5,0 1,-1 3,-1 4,-1 4,0 7,0 10,0 3,0 6,0 10,0 1,0 3,0 4,1 2,0 4,0 5,0 6,0 12,0 17,1 4,0 9,1 11,1 2,1 3,1 4,1 0,0 1,0 1,0z"/>
    <path class="fil0" d="M303 1155c0,0 0,0 -1,1 0,0 -1,0 -2,0 -3,1 -6,1 -11,2 -4,0 -9,0 -14,1 -1,0 -2,0 -4,0 -1,0 -3,0 -4,0 -3,0 -5,0 -8,0 -3,0 -6,0 -9,0 -1,0 -2,0 -4,0 -1,0 -2,0 -4,0 -5,-1 -10,-1 -14,-2 -4,0 -8,-1 -10,-1 -1,0 -2,-1 -3,-1 -1,0 -1,0 -1,0 0,0 0,0 1,0 1,0 2,0 3,-1 2,0 6,-1 10,-1 4,-1 9,-1 14,-1 2,0 3,0 4,-1 2,0 3,0 4,0 3,0 6,0 9,0 3,0 5,0 8,0 1,0 3,0 4,1 2,0 3,0 4,0 5,0 10,0 14,1 5,0 8,1 11,1 1,1 2,1 2,1 1,0 1,0 1,0z"/>
    <path class="fil0" d="M478 1239c0,0 0,0 -1,1 -1,0 -3,0 -5,0 -4,1 -10,1 -16,2 -7,0 -15,1 -24,1 -2,0 -4,0 -6,0 -2,0 -4,0 -7,0 -4,0 -9,0 -13,0 -5,0 -9,0 -14,0 -2,0 -4,0 -6,0 -2,0 -5,0 -7,0 -8,0 -16,-1 -23,-1 -7,-1 -12,-1 -16,-2 -2,0 -4,0 -5,0 -1,-1 -2,-1 -2,-1 0,0 1,0 2,0 1,0 3,0 5,0 4,-1 9,-1 16,-2 7,0 15,-1 23,-1 2,0 5,0 7,0 2,0 4,0 6,0 5,-1 9,-1 14,-1 4,0 9,0 13,1 3,0 5,0 7,0 2,0 4,0 6,0 9,0 17,1 24,1 6,1 12,1 16,2 2,0 4,0 5,0 1,0 1,0 1,0z"/>
    <path class="fil0" d="M636 1274c0,0 0,0 -1,0 0,1 -1,1 -3,1 -2,0 -6,1 -11,2 -5,0 -10,0 -16,1 -1,0 -3,0 -4,0 -2,0 -3,0 -5,0 -3,0 -6,0 -9,0 -3,0 -6,0 -9,0 -2,0 -3,0 -5,0 -1,0 -3,0 -4,0 -6,-1 -11,-1 -16,-1 -4,-1 -8,-1 -11,-2 -1,0 -2,0 -3,-1 -1,0 -1,0 -1,0 0,0 0,0 1,0 1,0 2,0 3,-1 3,0 7,-1 11,-1 5,-1 10,-1 16,-1 1,0 3,0 4,0 2,-1 3,-1 5,-1 3,0 6,0 9,0 3,0 6,0 9,0 2,0 3,1 5,1 1,0 3,0 4,0 6,0 11,0 16,1 5,0 9,1 11,1 2,1 3,1 3,1 1,0 1,0 1,0z"/>
    <path class="fil0" d="M1180 1253c0,0 0,0 0,0 -1,0 -1,0 -2,1 -1,0 -3,1 -5,1 -3,1 -5,1 -8,1 -3,1 -6,1 -9,1 -3,0 -7,0 -9,-1 -3,0 -6,0 -8,-1 -3,0 -5,-1 -6,-1 -1,-1 -1,-1 -1,-1 -1,0 -1,0 -1,0 0,0 0,0 1,0 0,-1 0,-1 1,-1 1,0 3,-1 6,-1 2,-1 5,-1 8,-2 2,0 6,0 9,0 3,0 6,0 9,0 3,1 5,1 8,2 2,0 4,1 5,1 1,0 1,0 2,1 0,0 0,0 0,0z"/>
    <path class="fil0" d="M1146 1229c0,0 0,0 -1,0 0,0 -1,0 -3,1 -2,0 -6,1 -11,1 -5,1 -10,1 -16,1 -1,0 -3,0 -4,0 -2,1 -3,1 -5,1 -3,0 -6,0 -9,0 -3,0 -6,0 -9,0 -2,0 -3,0 -5,-1 -1,0 -3,0 -4,0 -6,0 -11,0 -16,-1 -5,0 -8,-1 -11,-1 -1,-1 -3,-1 -3,-1 -1,0 -1,0 -1,0 0,0 0,0 1,0 0,-1 2,-1 3,-1 3,0 6,-1 11,-1 5,-1 10,-1 16,-2 1,0 3,0 4,0 2,0 3,0 5,0 3,0 6,0 9,0 3,0 6,0 9,0 2,0 3,0 5,0 1,0 3,0 4,0 6,1 11,1 16,2 5,0 9,1 11,1 2,0 3,0 3,1 1,0 1,0 1,0z"/>
    <path class="fil0" d="M946 1247c0,0 0,0 -1,0 -1,0 -2,0 -3,0 -3,1 -7,1 -11,2 -5,0 -11,1 -16,1 -2,0 -3,0 -5,0 -1,0 -3,0 -4,0 -3,1 -6,1 -9,1 -4,0 -7,0 -10,-1 -1,0 -3,0 -4,0 -2,0 -3,0 -5,0 -5,0 -11,-1 -15,-1 -5,-1 -9,-1 -12,-2 -1,0 -2,0 -3,0 0,0 -1,0 -1,0 0,0 1,0 1,-1 1,0 2,0 3,0 3,-1 7,-1 12,-2 4,0 10,-1 15,-1 2,0 3,0 5,0 1,0 3,0 4,0 3,0 6,0 10,0 3,0 6,0 9,0 1,0 3,0 4,0 2,0 3,0 5,0 5,0 11,1 16,1 4,1 8,1 11,2 1,0 2,0 3,0 1,1 1,1 1,1z"/>
    <path class="fil0" d="M384 1189c0,0 0,0 -1,0 0,0 -1,0 -2,1 -2,0 -4,1 -7,1 -3,0 -6,1 -10,1 -1,0 -2,0 -3,0 -1,0 -2,0 -3,0 -2,0 -4,0 -6,0 -2,0 -4,0 -6,0 -1,0 -2,0 -3,0 -1,0 -1,0 -2,0 -4,-1 -8,-1 -11,-2 -3,0 -5,-1 -7,-1 -1,0 -1,-1 -2,-1 0,0 0,0 0,0 0,0 0,0 0,0 1,0 1,-1 2,-1 2,0 5,-1 8,-1 2,-1 6,-1 10,-1 1,0 2,0 3,0 0,0 1,0 2,0 2,-1 4,-1 6,-1 2,1 4,1 6,1 1,0 2,0 3,0 1,0 2,0 3,0 4,0 7,1 10,1 3,1 5,2 7,2 1,0 2,0 2,1 1,0 1,0 1,0z"/>
   </g>
  </g>
  <g id="_976077104">
   <path class="fil1" d="M279 1370c0,0 -453,-369 -205,-1062 307,-674 566,-44 785,35 219,78 356,-10 491,-40 322,-66 384,291 398,438 15,146 2,645 -297,827 -298,182 -937,47 -1172,-198z"/>
   <g style="clip-path:url(#id0)">
    <g>
     <g>
      <path id="1" class="fil2" d="M878 1127l-205 0 0 -668c0,-57 46,-102 102,-102l0 0c57,0 103,45 103,102l0 668z"/>
      <polygon class="fil2" points="647,1127 479,1127 479,527 647,433 "/>
      <polygon class="fil2" points="903,1127 1070,1127 1070,575 903,480 "/>
      <polygon class="fil2" points="1575,1122 1408,1122 1408,551 1575,551 "/>
      <path class="fil2" d="M194 1122l-100 0c-81,-166 -140,-413 -45,-737l145 0 0 737z"/>
      <path class="fil2" d="M1198 1122l-57 0 -58 0 0 -339 0 -230c0,-10 3,-19 8,-27 0,0 36,-58 50,-82 12,25 50,82 50,82 5,8 7,17 7,27l0 230 0 339z"/>
      <polygon class="fil2" points="1523,551 1462,551 1462,516 1523,516 "/>
      <polygon class="fil2" points="1498,526 1487,526 1487,431 1498,431 "/>
      <polygon class="fil2" points="1380,703 1380,676 1236,676 1236,703 1217,703 1217,1127 1398,1127 1398,703 "/>
      <polygon class="fil2" points="441,592 441,518 346,518 346,592 315,592 315,544 219,544 219,592 200,592 200,1127 473,1127 473,592 "/>
      <path class="fil2" d="M1621 750l0 -73 95 0 0 73 32 0 0 -16c0,2 0,4 0,7 7,70 8,221 -26,379l-133 0 0 -370 32 0z"/>
     </g>
     <path class="fil3" d="M1509 1257c0,32 -268,59 -598,59 -330,0 -597,-27 -597,-59 0,-33 267,-59 597,-59 330,0 598,26 598,59z"/>
    </g>
   </g>
   <path class="fil4" d="M279 1370c0,0 -453,-369 -205,-1062 307,-674 566,-44 785,35 219,78 356,-10 491,-40 322,-66 384,291 398,438 15,146 2,645 -297,827 -298,182 -937,47 -1172,-198z"/>
  </g>
  <g id="_976130736">
   <g>
    <path class="fil1" d="M933 267c0,0 0,0 0,0 -1,0 -1,0 -2,1 -1,0 -2,0 -4,0 -2,0 -4,1 -6,1 -1,0 -1,0 -2,0 -1,0 -1,0 -2,0 -1,0 -2,0 -3,0 -2,0 -3,0 -4,0 -1,0 -1,0 -2,0 0,0 -1,0 -2,0 -2,0 -4,-1 -6,-1 -2,0 -3,0 -4,-1 -1,0 -1,0 -1,0 -1,0 -1,0 -1,0 0,0 0,0 1,0 0,0 0,0 1,0 1,0 2,-1 4,-1 2,0 4,0 6,0 1,0 2,0 2,0 1,0 1,0 2,-1 1,0 2,0 4,0 1,0 2,0 3,1 1,0 1,0 2,0 1,0 1,0 2,0 2,0 4,0 6,0 2,0 3,1 4,1 1,0 1,0 2,0 0,0 0,0 0,0z"/>
    <path class="fil1" d="M944 252c0,0 0,0 0,0 -1,0 -1,0 -1,1 -1,0 -2,0 -3,0 -1,0 -2,0 -3,1 -1,0 -3,0 -4,0 -1,0 -3,0 -4,-1 -1,0 -2,0 -3,0 -1,0 -2,-1 -3,-1 0,0 0,0 -1,0 0,0 0,0 0,0 0,0 0,0 0,0 1,0 1,0 1,-1 1,0 2,0 3,0 1,0 2,0 3,-1 1,0 3,0 4,0 1,0 3,0 4,1 1,0 2,0 3,0 1,0 2,1 3,1 0,0 0,0 1,0 0,0 0,0 0,0z"/>
    <path class="fil1" d="M968 282c0,0 0,0 0,0 0,0 -1,0 -1,0 -1,0 -2,1 -3,1 -1,0 -3,0 -5,0 0,0 0,0 -1,0 0,0 -1,0 -1,0 -1,0 -2,0 -3,0 -1,0 -1,0 -2,0 -1,0 -1,0 -1,0 -1,0 -1,0 -2,0 -1,0 -3,0 -4,0 -1,-1 -2,-1 -3,-1 -1,0 -1,0 -1,0 0,0 0,-1 0,-1 0,0 0,0 0,0 0,0 0,0 1,0 1,0 2,0 3,0 1,-1 3,-1 4,-1 1,0 1,0 2,0 0,0 0,0 1,0 1,0 2,0 2,0 1,0 2,0 3,0 0,0 1,0 1,0 1,0 1,0 1,0 2,0 4,1 5,1 1,0 2,0 3,0 0,1 1,1 1,1 0,0 0,0 0,0z"/>
   </g>
   <path class="fil1" d="M1096 264c8,0 9,-15 -5,-15 -1,0 -1,0 -1,-1 -1,-12 -12,-21 -24,-22 -1,0 -1,0 -1,0 0,-18 -15,-33 -34,-33 -13,0 -24,7 -30,18 0,0 0,0 0,0 -3,-1 -6,-2 -10,-2 -14,0 -26,11 -27,25 0,1 0,1 0,1 0,0 -1,0 -1,0 -9,0 -17,7 -17,17 0,3 1,5 2,8 1,2 4,4 7,4l141 0z"/>
   <g>
    <path class="fil1" d="M1296 120c0,0 0,1 -1,1 0,0 -1,0 -1,0 -2,0 -4,1 -7,1 -2,0 -5,0 -9,1 0,0 -1,0 -2,0 -1,0 -2,0 -3,0 -1,0 -3,0 -5,0 -1,0 -3,0 -5,0 -1,0 -2,0 -2,0 -1,0 -2,0 -3,0 -3,-1 -6,-1 -9,-1 -2,0 -5,-1 -6,-1 -1,0 -1,0 -2,0 0,-1 -1,-1 -1,-1 0,0 1,0 1,0 1,0 1,0 2,0 1,0 4,-1 6,-1 3,0 6,-1 9,-1 1,0 2,0 3,0 0,0 1,0 2,0 2,0 4,0 5,0 2,0 4,0 5,0 1,0 2,0 3,0 1,0 2,0 3,0 3,0 6,1 8,1 3,0 5,1 7,1 0,0 1,0 1,0 1,0 1,0 1,0z"/>
    <path class="fil1" d="M1311 99c0,0 0,0 0,0 0,0 0,0 -1,0 -1,1 -2,1 -3,1 -2,1 -4,1 -5,1 -2,0 -4,0 -6,0 -2,0 -4,0 -6,0 -1,0 -3,-1 -5,-1 -1,0 -2,-1 -3,-1 -1,0 -1,0 -1,0 0,0 0,-1 0,-1 0,0 0,0 0,0 0,0 1,0 1,0 1,0 2,-1 3,-1 2,0 4,0 5,-1 2,0 4,0 6,0 2,0 4,0 6,1 2,0 3,0 5,1 1,0 2,0 3,0 1,1 1,1 1,1 0,0 0,0 0,0z"/>
    <path class="fil1" d="M1346 141c0,0 0,0 0,1 0,0 -1,0 -1,0 -2,0 -3,0 -5,1 -2,0 -4,0 -6,0 -1,0 -1,0 -2,1 -1,0 -1,0 -2,0 -1,0 -2,0 -4,0 -1,0 -2,0 -3,-1 -1,0 -1,0 -2,0 -1,0 -1,0 -2,0 -2,0 -4,0 -6,-1 -2,0 -3,0 -5,-1 0,0 0,0 -1,0 0,0 0,0 0,0 0,0 0,0 0,0 1,0 1,0 1,-1 2,0 3,0 5,0 2,-1 4,-1 6,-1 1,0 1,0 2,0 1,0 1,0 2,0 1,0 2,0 4,0 1,0 2,0 3,0 1,0 1,0 2,0 1,0 1,0 2,0 2,0 4,1 6,1 2,0 3,1 5,1 0,0 1,0 1,0 0,0 0,0 0,0z"/>
   </g>
   <path class="fil1" d="M1540 110c11,0 12,-22 -9,-22 0,0 0,0 0,0 -3,-19 -18,-33 -37,-33 0,0 -1,0 -1,-1 0,-28 -23,-50 -50,-50 -20,0 -37,11 -45,27 -1,0 -1,1 -1,0 -4,-1 -9,-2 -14,-2 -22,0 -39,17 -41,38 0,0 0,0 0,0 -1,0 -1,0 -2,0 -14,0 -25,12 -25,26 0,4 1,8 3,12 2,3 5,5 9,5l213 0z"/>
  </g>
  <g id="_973490944">
   <path class="fil5" d="M1291 1184l0 -33c-1,-2 -1,-9 -13,-9 -5,0 -17,0 -22,-1 0,-17 0,-36 0,-54l0 -81c0,-27 -9,-40 -23,-60l-52 -77c-1,-1 -1,-3 -2,-4 -4,-5 -8,-9 -14,-14 -10,-8 -25,-15 -38,-17 -15,-2 -37,0 -54,0 -18,0 -36,-1 -54,-1 -11,1 -20,9 -20,21 0,78 0,155 0,233 0,18 1,37 0,55l-156 0c1,2 7,6 10,10 3,3 6,7 8,12 4,7 8,16 9,25 1,1 1,1 1,2 0,3 -1,1 1,2l163 0c1,-1 2,-5 2,-8 1,-2 2,-5 2,-7 4,-10 12,-23 18,-30 5,-4 5,-5 10,-9 7,-4 10,-7 18,-11 27,-10 52,-8 76,7 9,5 20,15 25,23 6,11 11,22 13,35l75 0c6,0 12,1 15,-4 2,-2 1,-2 2,-4 0,0 0,0 0,-1l0 0zm-246 -286l0 70c0,14 20,10 31,10 28,0 55,0 83,0 8,0 23,2 28,-3 7,-6 1,-13 -3,-19l-35 -50c-3,-4 -5,-7 -7,-10 -3,-4 -5,-8 -11,-8l-76 0c-5,0 -10,5 -10,10z"/>
   <path class="fil5" d="M610 990l0 106c0,12 1,16 14,16l333 0c15,0 13,-8 13,-17l0 -289c0,-9 0,-16 -6,-24 -5,-5 -12,-10 -20,-11 -9,-1 -113,0 -121,0 1,3 8,24 9,49 0,19 -2,37 -7,52 -4,15 -9,28 -17,41l-5 8c-10,16 -32,38 -48,48 -2,1 -2,1 -4,2 -7,5 -12,7 -19,11 -15,7 -41,14 -58,15 -16,1 -24,1 -40,-1 -4,-1 -8,-2 -13,-3 -2,0 -9,-3 -11,-3z"/>
   <path class="fil5" d="M507 819l0 12c1,2 0,5 1,6 2,19 4,34 13,51 1,3 2,6 4,9 4,7 6,11 11,18 9,13 22,25 35,34l6 5c1,0 1,0 1,0 15,9 23,13 41,18 31,9 67,7 96,-5 14,-5 24,-10 36,-20 4,-2 9,-6 12,-9 8,-8 9,-9 17,-19 5,-7 6,-7 11,-16 1,-2 2,-3 3,-5 2,-4 4,-8 7,-14 12,-30 14,-63 7,-96 -3,-9 -7,-22 -12,-31 -11,-22 -24,-37 -44,-53 -38,-30 -81,-30 -82,-31l-20 0c-1,0 0,0 -1,0l-7 1c-8,1 -16,2 -23,4 -23,7 -41,17 -59,32 -4,3 -6,6 -9,9 -2,1 -3,3 -5,4 -10,11 -22,31 -28,45 -4,11 -8,23 -9,35 0,2 -2,16 -2,16zm151 124c17,0 35,-4 50,-11 14,-6 25,-14 34,-23 4,-5 8,-9 13,-15 4,-6 7,-11 10,-18 5,-9 9,-21 11,-32 0,-2 0,-4 0,-6 2,-9 1,-20 0,-29 -2,-17 -9,-34 -18,-47 -26,-42 -78,-63 -127,-51 -16,4 -35,14 -47,24l-3 3c-1,1 -2,2 -2,3l-6 5c-1,1 -1,2 -2,3 -5,5 -10,13 -14,19 -5,9 -9,21 -12,32 -3,12 -3,27 -2,40 1,6 2,13 4,18 2,8 3,9 6,16 3,9 11,19 16,26 17,21 43,36 69,41 3,0 6,1 10,1 1,0 3,0 5,0 2,0 3,1 5,1z"/>
   <path class="fil5" d="M787 1142c-3,0 -6,0 -14,2 -7,2 -15,5 -21,10 -10,8 -7,7 -10,9 -4,4 -9,13 -11,18 -9,24 -4,52 15,69 2,2 2,2 4,4 7,4 6,5 15,9 9,3 16,4 27,4 18,0 35,-10 43,-19 19,-20 22,-47 11,-71l-6 -10c-7,-9 -16,-16 -27,-21 -4,-1 -7,-2 -12,-3 -3,-1 -11,-2 -14,-1zm0 94c6,0 10,0 16,-3 9,-4 18,-16 18,-26 0,-10 -3,-17 -10,-24 -7,-8 -19,-12 -30,-8 -2,0 -3,1 -5,2 -2,1 -4,2 -5,3 -1,0 -3,2 -4,3 -12,14 -12,29 0,43 3,5 13,10 20,10z"/>
   <path class="fil5" d="M1054 1203c0,27 15,49 39,60 13,5 29,6 42,2 21,-6 37,-23 43,-44 4,-14 3,-31 -4,-44 -4,-8 -8,-13 -13,-18 -8,-8 -18,-13 -30,-16 -33,-8 -70,15 -76,53 0,1 -1,6 -1,7zm32 -1c0,8 1,13 6,21 2,2 2,2 3,4 4,3 13,9 20,9 9,0 13,-1 21,-6l3 -3c3,-3 4,-5 7,-9 5,-11 2,-27 -6,-35 -25,-23 -54,0 -54,19z"/>
   <path class="fil5" d="M585 1182c0,5 3,11 9,11l113 0c1,-1 2,-5 2,-8 1,-3 2,-5 3,-8 3,-9 8,-18 14,-25l10 -10 -120 0c-13,0 -25,-3 -30,5 -2,4 -1,29 -1,35z"/>
   <path class="fil5" d="M640 745l0 78c0,3 2,6 3,8 5,6 15,7 24,10l27 7c6,1 6,2 12,2 6,0 14,-7 14,-12 0,-6 0,-12 -7,-16 -6,-3 -38,-10 -42,-12 0,-10 0,-21 0,-31 0,-10 0,-20 0,-30 0,-5 -1,-9 -3,-12 -2,-3 -6,-6 -10,-6 -11,-1 -18,7 -18,14z"/>
  </g>
 </g>
</svg>
