<?xml version="1.0" encoding="UTF-8"?>
<!DOCTYPE svg PUBLIC "-//W3C//DTD SVG 1.1//EN" "http://www.w3.org/Graphics/SVG/1.1/DTD/svg11.dtd">
<!-- Creator: CorelDRAW X7 -->
<svg xmlns="http://www.w3.org/2000/svg" xml:space="preserve" width="1.75209in" height="1.65224in" version="1.1" style="shape-rendering:geometricPrecision; text-rendering:geometricPrecision; image-rendering:optimizeQuality; fill-rule:evenodd; clip-rule:evenodd"
viewBox="0 0 1752 1652"
 xmlns:xlink="http://www.w3.org/1999/xlink">
 <defs>
  <style type="text/css">
   <![CDATA[
    .fil4 {fill:none;fill-rule:nonzero}
    .fil5 {fill:#FEFEFE}
    .fil1 {fill:#9900CC;fill-rule:nonzero}
    .fil2 {fill:#BF00FF;fill-rule:nonzero}
    .fil0 {fill:#BF00FF;fill-rule:nonzero}
    .fil3 {fill:#670587;fill-rule:nonzero}
   ]]>
  </style>
    <clipPath id="id0" style="clip-rule:nonzero">
     <path d="M279 1370c0,0 -453,-369 -205,-1062 307,-674 566,-44 785,35 219,78 356,-10 491,-40 322,-66 384,291 398,438 15,146 2,645 -297,827 -298,182 -937,47 -1172,-198z"/>
    </clipPath>
 </defs>
 <g id="Layer_x0020_1">
  <metadata id="CorelCorpID_0Corel-Layer"/>
  <g id="_976087536">
   <g>
    <path class="fil0" d="M844 1293c0,0 -1,0 -1,0 -1,1 -2,1 -4,1 -2,0 -7,1 -11,1 -5,1 -11,1 -17,2 -1,0 -3,0 -5,0 -1,0 -3,0 -4,0 -4,0 -7,0 -10,0 -3,0 -6,0 -10,0 -1,0 -3,0 -4,0 -2,0 -4,0 -5,0 -6,-1 -12,-1 -17,-2 -4,0 -9,-1 -11,-1 -2,0 -3,0 -4,-1 0,0 -1,0 -1,0 0,0 1,0 1,0 1,0 2,0 4,-1 2,0 7,-1 11,-1 5,-1 11,-1 17,-1 1,0 3,0 5,0 1,-1 3,-1 4,-1 4,0 7,0 10,0 3,0 6,0 10,0 1,0 3,0 4,1 2,0 4,0 5,0 6,0 12,0 17,1 4,0 9,1 11,1 2,1 3,1 4,1 0,0 1,0 1,0z"/>
    <path class="fil0" d="M303 1155c0,0 0,0 -1,1 0,0 -1,0 -2,0 -3,1 -6,1 -11,2 -4,0 -9,0 -14,1 -1,0 -2,0 -4,0 -1,0 -3,0 -4,0 -3,0 -5,0 -8,0 -3,0 -6,0 -9,0 -1,0 -2,0 -4,0 -1,0 -2,0 -4,0 -5,-1 -10,-1 -14,-2 -4,0 -8,-1 -10,-1 -1,0 -2,-1 -3,-1 -1,0 -1,0 -1,0 0,0 0,0 1,0 1,0 2,0 3,-1 2,0 6,-1 10,-1 4,-1 9,-1 14,-1 2,0 3,0 4,-1 2,0 3,0 4,0 3,0 6,0 9,0 3,0 5,0 8,0 1,0 3,0 4,1 2,0 3,0 4,0 5,0 10,0 14,1 5,0 8,1 11,1 1,1 2,1 2,1 1,0 1,0 1,0z"/>
    <path class="fil0" d="M478 1239c0,0 0,0 -1,1 -1,0 -3,0 -5,0 -4,1 -10,1 -16,2 -7,0 -15,1 -24,1 -2,0 -4,0 -6,0 -2,0 -4,0 -7,0 -4,0 -9,0 -13,0 -5,0 -9,0 -14,0 -2,0 -4,0 -6,0 -2,0 -5,0 -7,0 -8,0 -16,-1 -23,-1 -7,-1 -12,-1 -16,-2 -2,0 -4,0 -5,0 -1,-1 -2,-1 -2,-1 0,0 1,0 2,0 1,0 3,0 5,0 4,-1 9,-1 16,-2 7,0 15,-1 23,-1 2,0 5,0 7,0 2,0 4,0 6,0 5,-1 9,-1 14,-1 4,0 9,0 13,1 3,0 5,0 7,0 2,0 4,0 6,0 9,0 17,1 24,1 6,1 12,1 16,2 2,0 4,0 5,0 1,0 1,0 1,0z"/>
    <path class="fil0" d="M636 1274c0,0 0,0 -1,0 0,1 -1,1 -3,1 -2,0 -6,1 -11,2 -5,0 -10,0 -16,1 -1,0 -3,0 -4,0 -2,0 -3,0 -5,0 -3,0 -6,0 -9,0 -3,0 -6,0 -9,0 -2,0 -3,0 -5,0 -1,0 -3,0 -4,0 -6,-1 -11,-1 -16,-1 -4,-1 -8,-1 -11,-2 -1,0 -2,0 -3,-1 -1,0 -1,0 -1,0 0,0 0,0 1,0 1,0 2,0 3,-1 3,0 7,-1 11,-1 5,-1 10,-1 16,-1 1,0 3,0 4,0 2,-1 3,-1 5,-1 3,0 6,0 9,0 3,0 6,0 9,0 2,0 3,1 5,1 1,0 3,0 4,0 6,0 11,0 16,1 5,0 9,1 11,1 2,1 3,1 3,1 1,0 1,0 1,0z"/>
    <path class="fil0" d="M1180 1253c0,0 0,0 0,0 -1,0 -1,0 -2,1 -1,0 -3,1 -5,1 -3,1 -5,1 -8,1 -3,1 -6,1 -9,1 -3,0 -7,0 -9,-1 -3,0 -6,0 -8,-1 -3,0 -5,-1 -6,-1 -1,-1 -1,-1 -1,-1 -1,0 -1,0 -1,0 0,0 0,0 1,0 0,-1 0,-1 1,-1 1,0 3,-1 6,-1 2,-1 5,-1 8,-2 2,0 6,0 9,0 3,0 6,0 9,0 3,1 5,1 8,2 2,0 4,1 5,1 1,0 1,0 2,1 0,0 0,0 0,0z"/>
    <path class="fil0" d="M1146 1229c0,0 0,0 -1,0 0,0 -1,0 -3,1 -2,0 -6,1 -11,1 -5,1 -10,1 -16,1 -1,0 -3,0 -4,0 -2,1 -3,1 -5,1 -3,0 -6,0 -9,0 -3,0 -6,0 -9,0 -2,0 -3,0 -5,-1 -1,0 -3,0 -4,0 -6,0 -11,0 -16,-1 -5,0 -8,-1 -11,-1 -1,-1 -3,-1 -3,-1 -1,0 -1,0 -1,0 0,0 0,0 1,0 0,-1 2,-1 3,-1 3,0 6,-1 11,-1 5,-1 10,-1 16,-2 1,0 3,0 4,0 2,0 3,0 5,0 3,0 6,0 9,0 3,0 6,0 9,0 2,0 3,0 5,0 1,0 3,0 4,0 6,1 11,1 16,2 5,0 9,1 11,1 2,0 3,0 3,1 1,0 1,0 1,0z"/>
    <path class="fil0" d="M946 1247c0,0 0,0 -1,0 -1,0 -2,0 -3,0 -3,1 -7,1 -11,2 -5,0 -11,1 -16,1 -2,0 -3,0 -5,0 -1,0 -3,0 -4,0 -3,1 -6,1 -9,1 -4,0 -7,0 -10,-1 -1,0 -3,0 -4,0 -2,0 -3,0 -5,0 -5,0 -11,-1 -15,-1 -5,-1 -9,-1 -12,-2 -1,0 -2,0 -3,0 0,0 -1,0 -1,0 0,0 1,0 1,-1 1,0 2,0 3,0 3,-1 7,-1 12,-2 4,0 10,-1 15,-1 2,0 3,0 5,0 1,0 3,0 4,0 3,0 6,0 10,0 3,0 6,0 9,0 1,0 3,0 4,0 2,0 3,0 5,0 5,0 11,1 16,1 4,1 8,1 11,2 1,0 2,0 3,0 1,1 1,1 1,1z"/>
    <path class="fil0" d="M384 1189c0,0 0,0 -1,0 0,0 -1,0 -2,1 -2,0 -4,1 -7,1 -3,0 -6,1 -10,1 -1,0 -2,0 -3,0 -1,0 -2,0 -3,0 -2,0 -4,0 -6,0 -2,0 -4,0 -6,0 -1,0 -2,0 -3,0 -1,0 -1,0 -2,0 -4,-1 -8,-1 -11,-2 -3,0 -5,-1 -7,-1 -1,0 -1,-1 -2,-1 0,0 0,0 0,0 0,0 0,0 0,0 1,0 1,-1 2,-1 2,0 5,-1 8,-1 2,-1 6,-1 10,-1 1,0 2,0 3,0 0,0 1,0 2,0 2,-1 4,-1 6,-1 2,1 4,1 6,1 1,0 2,0 3,0 1,0 2,0 3,0 4,0 7,1 10,1 3,1 5,2 7,2 1,0 2,0 2,1 1,0 1,0 1,0z"/>
   </g>
  </g>
  <g id="_976105648">
   <path class="fil1" d="M279 1370c0,0 -453,-369 -205,-1062 307,-674 566,-44 785,35 219,78 356,-10 491,-40 322,-66 384,291 398,438 15,146 2,645 -297,827 -298,182 -937,47 -1172,-198z"/>
   <g style="clip-path:url(#id0)">
    <g>
     <g>
      <path id="1" class="fil2" d="M878 1127l-205 0 0 -668c0,-57 46,-102 102,-102l0 0c57,0 103,45 103,102l0 668z"/>
      <polygon class="fil2" points="647,1127 479,1127 479,527 647,433 "/>
      <polygon class="fil2" points="903,1127 1070,1127 1070,575 903,480 "/>
      <polygon class="fil2" points="1575,1122 1408,1122 1408,551 1575,551 "/>
      <path class="fil2" d="M194 1122l-100 0c-81,-166 -140,-413 -45,-737l145 0 0 737z"/>
      <path class="fil2" d="M1198 1122l-57 0 -58 0 0 -339 0 -230c0,-10 3,-19 8,-27 0,0 36,-58 50,-82 12,25 50,82 50,82 5,8 7,17 7,27l0 230 0 339z"/>
      <polygon class="fil2" points="1523,551 1462,551 1462,516 1523,516 "/>
      <polygon class="fil2" points="1498,526 1487,526 1487,431 1498,431 "/>
      <polygon class="fil2" points="1380,703 1380,676 1236,676 1236,703 1217,703 1217,1127 1398,1127 1398,703 "/>
      <polygon class="fil2" points="441,592 441,518 346,518 346,592 315,592 315,544 219,544 219,592 200,592 200,1127 473,1127 473,592 "/>
      <path class="fil2" d="M1621 750l0 -73 95 0 0 73 32 0 0 -16c0,2 0,4 0,7 7,70 8,221 -26,379l-133 0 0 -370 32 0z"/>
     </g>
     <path class="fil3" d="M1509 1257c0,32 -268,59 -598,59 -330,0 -597,-27 -597,-59 0,-33 267,-59 597,-59 330,0 598,26 598,59z"/>
    </g>
   </g>
   <path class="fil4" d="M279 1370c0,0 -453,-369 -205,-1062 307,-674 566,-44 785,35 219,78 356,-10 491,-40 322,-66 384,291 398,438 15,146 2,645 -297,827 -298,182 -937,47 -1172,-198z"/>
  </g>
  <g id="_976112464">
   <g>
    <path class="fil1" d="M933 267c0,0 0,0 0,0 -1,0 -1,0 -2,1 -1,0 -2,0 -4,0 -2,0 -4,1 -6,1 -1,0 -1,0 -2,0 -1,0 -1,0 -2,0 -1,0 -2,0 -3,0 -2,0 -3,0 -4,0 -1,0 -1,0 -2,0 0,0 -1,0 -2,0 -2,0 -4,-1 -6,-1 -2,0 -3,0 -4,-1 -1,0 -1,0 -1,0 -1,0 -1,0 -1,0 0,0 0,0 1,0 0,0 0,0 1,0 1,0 2,-1 4,-1 2,0 4,0 6,0 1,0 2,0 2,0 1,0 1,0 2,-1 1,0 2,0 4,0 1,0 2,0 3,1 1,0 1,0 2,0 1,0 1,0 2,0 2,0 4,0 6,0 2,0 3,1 4,1 1,0 1,0 2,0 0,0 0,0 0,0z"/>
    <path class="fil1" d="M944 252c0,0 0,0 0,0 -1,0 -1,0 -1,1 -1,0 -2,0 -3,0 -1,0 -2,0 -3,1 -1,0 -3,0 -4,0 -1,0 -3,0 -4,-1 -1,0 -2,0 -3,0 -1,0 -2,-1 -3,-1 0,0 0,0 -1,0 0,0 0,0 0,0 0,0 0,0 0,0 1,0 1,0 1,-1 1,0 2,0 3,0 1,0 2,0 3,-1 1,0 3,0 4,0 1,0 3,0 4,1 1,0 2,0 3,0 1,0 2,1 3,1 0,0 0,0 1,0 0,0 0,0 0,0z"/>
    <path class="fil1" d="M968 282c0,0 0,0 0,0 0,0 -1,0 -1,0 -1,0 -2,1 -3,1 -1,0 -3,0 -5,0 0,0 0,0 -1,0 0,0 -1,0 -1,0 -1,0 -2,0 -3,0 -1,0 -1,0 -2,0 -1,0 -1,0 -1,0 -1,0 -1,0 -2,0 -1,0 -3,0 -4,0 -1,-1 -2,-1 -3,-1 -1,0 -1,0 -1,0 0,0 0,-1 0,-1 0,0 0,0 0,0 0,0 0,0 1,0 1,0 2,0 3,0 1,-1 3,-1 4,-1 1,0 1,0 2,0 0,0 0,0 1,0 1,0 2,0 2,0 1,0 2,0 3,0 0,0 1,0 1,0 1,0 1,0 1,0 2,0 4,1 5,1 1,0 2,0 3,0 0,1 1,1 1,1 0,0 0,0 0,0z"/>
   </g>
   <path class="fil1" d="M1096 264c8,0 9,-15 -5,-15 -1,0 -1,0 -1,-1 -1,-12 -12,-21 -24,-22 -1,0 -1,0 -1,0 0,-18 -15,-33 -34,-33 -13,0 -24,7 -30,18 0,0 0,0 0,0 -3,-1 -6,-2 -10,-2 -14,0 -26,11 -27,25 0,1 0,1 0,1 0,0 -1,0 -1,0 -9,0 -17,7 -17,17 0,3 1,5 2,8 1,2 4,4 7,4l141 0z"/>
   <g>
    <path class="fil1" d="M1296 120c0,0 0,1 -1,1 0,0 -1,0 -1,0 -2,0 -4,1 -7,1 -2,0 -5,0 -9,1 0,0 -1,0 -2,0 -1,0 -2,0 -3,0 -1,0 -3,0 -5,0 -1,0 -3,0 -5,0 -1,0 -2,0 -2,0 -1,0 -2,0 -3,0 -3,-1 -6,-1 -9,-1 -2,0 -5,-1 -6,-1 -1,0 -1,0 -2,0 0,-1 -1,-1 -1,-1 0,0 1,0 1,0 1,0 1,0 2,0 1,0 4,-1 6,-1 3,0 6,-1 9,-1 1,0 2,0 3,0 0,0 1,0 2,0 2,0 4,0 5,0 2,0 4,0 5,0 1,0 2,0 3,0 1,0 2,0 3,0 3,0 6,1 8,1 3,0 5,1 7,1 0,0 1,0 1,0 1,0 1,0 1,0z"/>
    <path class="fil1" d="M1311 99c0,0 0,0 0,0 0,0 0,0 -1,0 -1,1 -2,1 -3,1 -2,1 -4,1 -5,1 -2,0 -4,0 -6,0 -2,0 -4,0 -6,0 -1,0 -3,-1 -5,-1 -1,0 -2,-1 -3,-1 -1,0 -1,0 -1,0 0,0 0,-1 0,-1 0,0 0,0 0,0 0,0 1,0 1,0 1,0 2,-1 3,-1 2,0 4,0 5,-1 2,0 4,0 6,0 2,0 4,0 6,1 2,0 3,0 5,1 1,0 2,0 3,0 1,1 1,1 1,1 0,0 0,0 0,0z"/>
    <path class="fil1" d="M1346 141c0,0 0,0 0,1 0,0 -1,0 -1,0 -2,0 -3,0 -5,1 -2,0 -4,0 -6,0 -1,0 -1,0 -2,1 -1,0 -1,0 -2,0 -1,0 -2,0 -4,0 -1,0 -2,0 -3,-1 -1,0 -1,0 -2,0 -1,0 -1,0 -2,0 -2,0 -4,0 -6,-1 -2,0 -3,0 -5,-1 0,0 0,0 -1,0 0,0 0,0 0,0 0,0 0,0 0,0 1,0 1,0 1,-1 2,0 3,0 5,0 2,-1 4,-1 6,-1 1,0 1,0 2,0 1,0 1,0 2,0 1,0 2,0 4,0 1,0 2,0 3,0 1,0 1,0 2,0 1,0 1,0 2,0 2,0 4,1 6,1 2,0 3,1 5,1 0,0 1,0 1,0 0,0 0,0 0,0z"/>
   </g>
   <path class="fil1" d="M1540 110c11,0 12,-22 -9,-22 0,0 0,0 0,0 -3,-19 -18,-33 -37,-33 0,0 -1,0 -1,-1 0,-28 -23,-50 -50,-50 -20,0 -37,11 -45,27 -1,0 -1,1 -1,0 -4,-1 -9,-2 -14,-2 -22,0 -39,17 -41,38 0,0 0,0 0,0 -1,0 -1,0 -2,0 -14,0 -25,12 -25,26 0,4 1,8 3,12 2,3 5,5 9,5l213 0z"/>
  </g>
  <path class="fil5" d="M722 874l0 61c-14,0 -23,0 -32,10 -5,5 -10,16 -10,26l0 263c0,16 14,35 26,35l378 0c12,0 26,-19 26,-35l0 -263c0,-9 -5,-21 -10,-26 -9,-10 -18,-10 -32,-10 0,-36 3,-62 -5,-96 -10,-39 -34,-72 -66,-97 -4,-3 -8,-5 -12,-7 -5,-4 -8,-5 -13,-8 -20,-10 -43,-15 -66,-17l-23 0c-22,1 -45,7 -64,17 -21,10 -32,18 -47,34 -13,12 -26,32 -34,48 -6,13 -12,31 -14,46 -1,7 -2,11 -2,19zm143 -94l60 0c26,0 47,21 47,47l0 47 -154 0 0 -47c0,-26 21,-47 47,-47zm20 220c29,0 52,23 52,52 0,16 -7,31 -19,40l0 150 -65 0 0 -150c-12,-9 -19,-24 -19,-40 0,-29 23,-52 51,-52z"/>
 </g>
</svg>
