<?xml version="1.0" encoding="UTF-8"?>
<!DOCTYPE svg PUBLIC "-//W3C//DTD SVG 1.1//EN" "http://www.w3.org/Graphics/SVG/1.1/DTD/svg11.dtd">
<!-- Creator: CorelDRAW X7 -->
<svg xmlns="http://www.w3.org/2000/svg" xml:space="preserve" width="1.75209in" height="1.65224in" version="1.1" style="shape-rendering:geometricPrecision; text-rendering:geometricPrecision; image-rendering:optimizeQuality; fill-rule:evenodd; clip-rule:evenodd"
viewBox="0 0 1752 1652"
 xmlns:xlink="http://www.w3.org/1999/xlink">
 <defs>
  <style type="text/css">
   <![CDATA[
    .fil4 {fill:none;fill-rule:nonzero}
    .fil5 {fill:#FEFEFE}
    .fil1 {fill:#9900CC;fill-rule:nonzero}
    .fil2 {fill:#BF00FF;fill-rule:nonzero}
    .fil0 {fill:#BF00FF;fill-rule:nonzero}
    .fil3 {fill:#670587;fill-rule:nonzero}
   ]]>
  </style>
    <clipPath id="id0" style="clip-rule:nonzero">
     <path d="M279 1370c0,0 -453,-369 -205,-1062 307,-674 566,-44 785,35 219,78 356,-10 491,-40 322,-66 384,291 398,438 15,146 2,645 -297,827 -298,182 -937,47 -1172,-198z"/>
    </clipPath>
 </defs>
 <g id="Layer_x0020_1">
  <metadata id="CorelCorpID_0Corel-Layer"/>
  <g id="_973903584">
   <g>
    <path class="fil0" d="M844 1293c0,0 -1,0 -1,0 -1,1 -2,1 -4,1 -2,0 -7,1 -11,1 -5,1 -11,1 -17,2 -1,0 -3,0 -5,0 -1,0 -3,0 -4,0 -4,0 -7,0 -10,0 -3,0 -6,0 -10,0 -1,0 -3,0 -4,0 -2,0 -4,0 -5,0 -6,-1 -12,-1 -17,-2 -4,0 -9,-1 -11,-1 -2,0 -3,0 -4,-1 0,0 -1,0 -1,0 0,0 1,0 1,0 1,0 2,0 4,-1 2,0 7,-1 11,-1 5,-1 11,-1 17,-1 1,0 3,0 5,0 1,-1 3,-1 4,-1 4,0 7,0 10,0 3,0 6,0 10,0 1,0 3,0 4,1 2,0 4,0 5,0 6,0 12,0 17,1 4,0 9,1 11,1 2,1 3,1 4,1 0,0 1,0 1,0z"/>
    <path class="fil0" d="M303 1155c0,0 0,0 -1,1 0,0 -1,0 -2,0 -3,1 -6,1 -11,2 -4,0 -9,0 -14,1 -1,0 -2,0 -4,0 -1,0 -3,0 -4,0 -3,0 -5,0 -8,0 -3,0 -6,0 -9,0 -1,0 -2,0 -4,0 -1,0 -2,0 -4,0 -5,-1 -10,-1 -14,-2 -4,0 -8,-1 -10,-1 -1,0 -2,-1 -3,-1 -1,0 -1,0 -1,0 0,0 0,0 1,0 1,0 2,0 3,-1 2,0 6,-1 10,-1 4,-1 9,-1 14,-1 2,0 3,0 4,-1 2,0 3,0 4,0 3,0 6,0 9,0 3,0 5,0 8,0 1,0 3,0 4,1 2,0 3,0 4,0 5,0 10,0 14,1 5,0 8,1 11,1 1,1 2,1 2,1 1,0 1,0 1,0z"/>
    <path class="fil0" d="M478 1239c0,0 0,0 -1,1 -1,0 -3,0 -5,0 -4,1 -10,1 -16,2 -7,0 -15,1 -24,1 -2,0 -4,0 -6,0 -2,0 -4,0 -7,0 -4,0 -9,0 -13,0 -5,0 -9,0 -14,0 -2,0 -4,0 -6,0 -2,0 -5,0 -7,0 -8,0 -16,-1 -23,-1 -7,-1 -12,-1 -16,-2 -2,0 -4,0 -5,0 -1,-1 -2,-1 -2,-1 0,0 1,0 2,0 1,0 3,0 5,0 4,-1 9,-1 16,-2 7,0 15,-1 23,-1 2,0 5,0 7,0 2,0 4,0 6,0 5,-1 9,-1 14,-1 4,0 9,0 13,1 3,0 5,0 7,0 2,0 4,0 6,0 9,0 17,1 24,1 6,1 12,1 16,2 2,0 4,0 5,0 1,0 1,0 1,0z"/>
    <path class="fil0" d="M636 1274c0,0 0,0 -1,0 0,1 -1,1 -3,1 -2,0 -6,1 -11,2 -5,0 -10,0 -16,1 -1,0 -3,0 -4,0 -2,0 -3,0 -5,0 -3,0 -6,0 -9,0 -3,0 -6,0 -9,0 -2,0 -3,0 -5,0 -1,0 -3,0 -4,0 -6,-1 -11,-1 -16,-1 -4,-1 -8,-1 -11,-2 -1,0 -2,0 -3,-1 -1,0 -1,0 -1,0 0,0 0,0 1,0 1,0 2,0 3,-1 3,0 7,-1 11,-1 5,-1 10,-1 16,-1 1,0 3,0 4,0 2,-1 3,-1 5,-1 3,0 6,0 9,0 3,0 6,0 9,0 2,0 3,1 5,1 1,0 3,0 4,0 6,0 11,0 16,1 5,0 9,1 11,1 2,1 3,1 3,1 1,0 1,0 1,0z"/>
    <path class="fil0" d="M1180 1253c0,0 0,0 0,0 -1,0 -1,0 -2,1 -1,0 -3,1 -5,1 -3,1 -5,1 -8,1 -3,1 -6,1 -9,1 -3,0 -7,0 -9,-1 -3,0 -6,0 -8,-1 -3,0 -5,-1 -6,-1 -1,-1 -1,-1 -1,-1 -1,0 -1,0 -1,0 0,0 0,0 1,0 0,-1 0,-1 1,-1 1,0 3,-1 6,-1 2,-1 5,-1 8,-2 2,0 6,0 9,0 3,0 6,0 9,0 3,1 5,1 8,2 2,0 4,1 5,1 1,0 1,0 2,1 0,0 0,0 0,0z"/>
    <path class="fil0" d="M1146 1229c0,0 0,0 -1,0 0,0 -1,0 -3,1 -2,0 -6,1 -11,1 -5,1 -10,1 -16,1 -1,0 -3,0 -4,0 -2,1 -3,1 -5,1 -3,0 -6,0 -9,0 -3,0 -6,0 -9,0 -2,0 -3,0 -5,-1 -1,0 -3,0 -4,0 -6,0 -11,0 -16,-1 -5,0 -8,-1 -11,-1 -1,-1 -3,-1 -3,-1 -1,0 -1,0 -1,0 0,0 0,0 1,0 0,-1 2,-1 3,-1 3,0 6,-1 11,-1 5,-1 10,-1 16,-2 1,0 3,0 4,0 2,0 3,0 5,0 3,0 6,0 9,0 3,0 6,0 9,0 2,0 3,0 5,0 1,0 3,0 4,0 6,1 11,1 16,2 5,0 9,1 11,1 2,0 3,0 3,1 1,0 1,0 1,0z"/>
    <path class="fil0" d="M946 1247c0,0 0,0 -1,0 -1,0 -2,0 -3,0 -3,1 -7,1 -11,2 -5,0 -11,1 -16,1 -2,0 -3,0 -5,0 -1,0 -3,0 -4,0 -3,1 -6,1 -9,1 -4,0 -7,0 -10,-1 -1,0 -3,0 -4,0 -2,0 -3,0 -5,0 -5,0 -11,-1 -15,-1 -5,-1 -9,-1 -12,-2 -1,0 -2,0 -3,0 0,0 -1,0 -1,0 0,0 1,0 1,-1 1,0 2,0 3,0 3,-1 7,-1 12,-2 4,0 10,-1 15,-1 2,0 3,0 5,0 1,0 3,0 4,0 3,0 6,0 10,0 3,0 6,0 9,0 1,0 3,0 4,0 2,0 3,0 5,0 5,0 11,1 16,1 4,1 8,1 11,2 1,0 2,0 3,0 1,1 1,1 1,1z"/>
    <path class="fil0" d="M384 1189c0,0 0,0 -1,0 0,0 -1,0 -2,1 -2,0 -4,1 -7,1 -3,0 -6,1 -10,1 -1,0 -2,0 -3,0 -1,0 -2,0 -3,0 -2,0 -4,0 -6,0 -2,0 -4,0 -6,0 -1,0 -2,0 -3,0 -1,0 -1,0 -2,0 -4,-1 -8,-1 -11,-2 -3,0 -5,-1 -7,-1 -1,0 -1,-1 -2,-1 0,0 0,0 0,0 0,0 0,0 0,0 1,0 1,-1 2,-1 2,0 5,-1 8,-1 2,-1 6,-1 10,-1 1,0 2,0 3,0 0,0 1,0 2,0 2,-1 4,-1 6,-1 2,1 4,1 6,1 1,0 2,0 3,0 1,0 2,0 3,0 4,0 7,1 10,1 3,1 5,2 7,2 1,0 2,0 2,1 1,0 1,0 1,0z"/>
   </g>
  </g>
  <g id="_973900768">
   <path class="fil1" d="M279 1370c0,0 -453,-369 -205,-1062 307,-674 566,-44 785,35 219,78 356,-10 491,-40 322,-66 384,291 398,438 15,146 2,645 -297,827 -298,182 -937,47 -1172,-198z"/>
   <g style="clip-path:url(#id0)">
    <g>
     <g>
      <path id="1" class="fil2" d="M878 1127l-205 0 0 -668c0,-57 46,-102 102,-102l0 0c57,0 103,45 103,102l0 668z"/>
      <polygon class="fil2" points="647,1127 479,1127 479,527 647,433 "/>
      <polygon class="fil2" points="903,1127 1070,1127 1070,575 903,480 "/>
      <polygon class="fil2" points="1575,1122 1408,1122 1408,551 1575,551 "/>
      <path class="fil2" d="M194 1122l-100 0c-81,-166 -140,-413 -45,-737l145 0 0 737z"/>
      <path class="fil2" d="M1198 1122l-57 0 -58 0 0 -339 0 -230c0,-10 3,-19 8,-27 0,0 36,-58 50,-82 12,25 50,82 50,82 5,8 7,17 7,27l0 230 0 339z"/>
      <polygon class="fil2" points="1523,551 1462,551 1462,516 1523,516 "/>
      <polygon class="fil2" points="1498,526 1487,526 1487,431 1498,431 "/>
      <polygon class="fil2" points="1380,703 1380,676 1236,676 1236,703 1217,703 1217,1127 1398,1127 1398,703 "/>
      <polygon class="fil2" points="441,592 441,518 346,518 346,592 315,592 315,544 219,544 219,592 200,592 200,1127 473,1127 473,592 "/>
      <path class="fil2" d="M1621 750l0 -73 95 0 0 73 32 0 0 -16c0,2 0,4 0,7 7,70 8,221 -26,379l-133 0 0 -370 32 0z"/>
     </g>
     <path class="fil3" d="M1509 1257c0,32 -268,59 -598,59 -330,0 -597,-27 -597,-59 0,-33 267,-59 597,-59 330,0 598,26 598,59z"/>
    </g>
   </g>
   <path class="fil4" d="M279 1370c0,0 -453,-369 -205,-1062 307,-674 566,-44 785,35 219,78 356,-10 491,-40 322,-66 384,291 398,438 15,146 2,645 -297,827 -298,182 -937,47 -1172,-198z"/>
  </g>
  <g id="_973899872">
   <g>
    <path class="fil1" d="M933 267c0,0 0,0 0,0 -1,0 -1,0 -2,1 -1,0 -2,0 -4,0 -2,0 -4,1 -6,1 -1,0 -1,0 -2,0 -1,0 -1,0 -2,0 -1,0 -2,0 -3,0 -2,0 -3,0 -4,0 -1,0 -1,0 -2,0 0,0 -1,0 -2,0 -2,0 -4,-1 -6,-1 -2,0 -3,0 -4,-1 -1,0 -1,0 -1,0 -1,0 -1,0 -1,0 0,0 0,0 1,0 0,0 0,0 1,0 1,0 2,-1 4,-1 2,0 4,0 6,0 1,0 2,0 2,0 1,0 1,0 2,-1 1,0 2,0 4,0 1,0 2,0 3,1 1,0 1,0 2,0 1,0 1,0 2,0 2,0 4,0 6,0 2,0 3,1 4,1 1,0 1,0 2,0 0,0 0,0 0,0z"/>
    <path class="fil1" d="M944 252c0,0 0,0 0,0 -1,0 -1,0 -1,1 -1,0 -2,0 -3,0 -1,0 -2,0 -3,1 -1,0 -3,0 -4,0 -1,0 -3,0 -4,-1 -1,0 -2,0 -3,0 -1,0 -2,-1 -3,-1 0,0 0,0 -1,0 0,0 0,0 0,0 0,0 0,0 0,0 1,0 1,0 1,-1 1,0 2,0 3,0 1,0 2,0 3,-1 1,0 3,0 4,0 1,0 3,0 4,1 1,0 2,0 3,0 1,0 2,1 3,1 0,0 0,0 1,0 0,0 0,0 0,0z"/>
    <path class="fil1" d="M968 282c0,0 0,0 0,0 0,0 -1,0 -1,0 -1,0 -2,1 -3,1 -1,0 -3,0 -5,0 0,0 0,0 -1,0 0,0 -1,0 -1,0 -1,0 -2,0 -3,0 -1,0 -1,0 -2,0 -1,0 -1,0 -1,0 -1,0 -1,0 -2,0 -1,0 -3,0 -4,0 -1,-1 -2,-1 -3,-1 -1,0 -1,0 -1,0 0,0 0,-1 0,-1 0,0 0,0 0,0 0,0 0,0 1,0 1,0 2,0 3,0 1,-1 3,-1 4,-1 1,0 1,0 2,0 0,0 0,0 1,0 1,0 2,0 2,0 1,0 2,0 3,0 0,0 1,0 1,0 1,0 1,0 1,0 2,0 4,1 5,1 1,0 2,0 3,0 0,1 1,1 1,1 0,0 0,0 0,0z"/>
   </g>
   <path class="fil1" d="M1096 264c8,0 9,-15 -5,-15 -1,0 -1,0 -1,-1 -1,-12 -12,-21 -24,-22 -1,0 -1,0 -1,0 0,-18 -15,-33 -34,-33 -13,0 -24,7 -30,18 0,0 0,0 0,0 -3,-1 -6,-2 -10,-2 -14,0 -26,11 -27,25 0,1 0,1 0,1 0,0 -1,0 -1,0 -9,0 -17,7 -17,17 0,3 1,5 2,8 1,2 4,4 7,4l141 0z"/>
   <g>
    <path class="fil1" d="M1296 120c0,0 0,1 -1,1 0,0 -1,0 -1,0 -2,0 -4,1 -7,1 -2,0 -5,0 -9,1 0,0 -1,0 -2,0 -1,0 -2,0 -3,0 -1,0 -3,0 -5,0 -1,0 -3,0 -5,0 -1,0 -2,0 -2,0 -1,0 -2,0 -3,0 -3,-1 -6,-1 -9,-1 -2,0 -5,-1 -6,-1 -1,0 -1,0 -2,0 0,-1 -1,-1 -1,-1 0,0 1,0 1,0 1,0 1,0 2,0 1,0 4,-1 6,-1 3,0 6,-1 9,-1 1,0 2,0 3,0 0,0 1,0 2,0 2,0 4,0 5,0 2,0 4,0 5,0 1,0 2,0 3,0 1,0 2,0 3,0 3,0 6,1 8,1 3,0 5,1 7,1 0,0 1,0 1,0 1,0 1,0 1,0z"/>
    <path class="fil1" d="M1311 99c0,0 0,0 0,0 0,0 0,0 -1,0 -1,1 -2,1 -3,1 -2,1 -4,1 -5,1 -2,0 -4,0 -6,0 -2,0 -4,0 -6,0 -1,0 -3,-1 -5,-1 -1,0 -2,-1 -3,-1 -1,0 -1,0 -1,0 0,0 0,-1 0,-1 0,0 0,0 0,0 0,0 1,0 1,0 1,0 2,-1 3,-1 2,0 4,0 5,-1 2,0 4,0 6,0 2,0 4,0 6,1 2,0 3,0 5,1 1,0 2,0 3,0 1,1 1,1 1,1 0,0 0,0 0,0z"/>
    <path class="fil1" d="M1346 141c0,0 0,0 0,1 0,0 -1,0 -1,0 -2,0 -3,0 -5,1 -2,0 -4,0 -6,0 -1,0 -1,0 -2,1 -1,0 -1,0 -2,0 -1,0 -2,0 -4,0 -1,0 -2,0 -3,-1 -1,0 -1,0 -2,0 -1,0 -1,0 -2,0 -2,0 -4,0 -6,-1 -2,0 -3,0 -5,-1 0,0 0,0 -1,0 0,0 0,0 0,0 0,0 0,0 0,0 1,0 1,0 1,-1 2,0 3,0 5,0 2,-1 4,-1 6,-1 1,0 1,0 2,0 1,0 1,0 2,0 1,0 2,0 4,0 1,0 2,0 3,0 1,0 1,0 2,0 1,0 1,0 2,0 2,0 4,1 6,1 2,0 3,1 5,1 0,0 1,0 1,0 0,0 0,0 0,0z"/>
   </g>
   <path class="fil1" d="M1540 110c11,0 12,-22 -9,-22 0,0 0,0 0,0 -3,-19 -18,-33 -37,-33 0,0 -1,0 -1,-1 0,-28 -23,-50 -50,-50 -20,0 -37,11 -45,27 -1,0 -1,1 -1,0 -4,-1 -9,-2 -14,-2 -22,0 -39,17 -41,38 0,0 0,0 0,0 -1,0 -1,0 -2,0 -14,0 -25,12 -25,26 0,4 1,8 3,12 2,3 5,5 9,5l213 0z"/>
  </g>
  <g id="_973897952">
   <path class="fil5" d="M699 820c0,9 -7,17 -16,17l-147 0 0 44 147 0c24,0 16,35 16,62 1,9 0,8 5,13 3,3 13,15 18,15l531 0c9,0 17,-8 21,-13 8,-11 3,-16 9,-25 11,-15 26,-18 26,-44 0,-36 -42,-33 -52,-41 -11,-8 -20,-56 -84,-56l-141 0c8,12 54,49 54,60 0,7 -8,15 -17,15l-171 0c-18,0 -21,-14 -33,-34 -5,-8 -22,-41 -28,-41l-138 0 0 28z"/>
   <path class="fil5" d="M900 837l136 0c-6,-9 -162,-162 -180,-181 -19,-19 -14,-12 -71,-12 19,35 75,124 101,168 5,9 10,16 14,25z"/>
   <polygon class="fil5" points="759,1149 878,1149 878,1060 759,1060 "/>
   <polygon class="fil5" points="685,1268 804,1268 804,1179 685,1179 "/>
   <polygon class="fil5" points="833,1268 952,1268 952,1179 833,1179 "/>
   <polygon class="fil5" points="982,1268 1101,1268 1101,1179 982,1179 "/>
   <path class="fil5" d="M566 807l104 0c0,-34 3,-20 -16,-47 -6,-10 -47,-64 -49,-72l-39 0 0 119z"/>
   <path class="fil5" d="M527 1034c4,7 8,14 13,20 9,-2 24,-13 33,-18l97 -60c-3,-8 -9,-12 -11,-20 -10,2 -25,13 -34,19l-48 29c-5,3 -10,6 -16,10 -6,4 -29,18 -34,20z"/>
   <path class="fil5" d="M744 1012c0,49 60,37 60,7 0,-50 -60,-37 -60,-7z"/>
   <path class="fil5" d="M1146 1012c0,45 59,45 59,0 0,-14 -13,-26 -33,-26 -13,0 -26,13 -26,26z"/>
   <path class="fil5" d="M818 1012c0,45 60,45 60,0 0,-14 -13,-26 -34,-26 -12,0 -26,13 -26,26z"/>
  </g>
 </g>
</svg>
